<svg xmlns="http://www.w3.org/2000/svg">
<defs>
<font id="Rza-Regular" horiz-adv-x="600" >
  <font-face 
    font-family="Rza"
    font-weight="400"
    font-stretch="normal"
    units-per-em="1000"
    panose-1="2 15 1 3 6 4 5 6 3 4"
    ascent="802"
    descent="-198"
    x-height="482"
    cap-height="702"
    bbox="-854 -271.267 1160 1035"
    underline-thickness="10"
    underline-position="-70"
    unicode-range="U+0020-FB05"
  />
<missing-glyph horiz-adv-x="947" 
d="M15 14l195 323l-136 -1v102l66 1q-2 6 -2 9q0 15 10 24q-1 17 14 26.5t45 9.5q49 0 74 -25l11 -11l39 58l1 -1l-37 -60l3 -3l35 63l2 -1l-34 -65l3 -3l31 68l2 -1l-30 -70l3 -3l28 73l2 -1l-27 -76l3 -3l24 78h1q1 0 1 -1l-22 -81l2 -2h25v-25l33 -34l-40 -74
q-4 5 -11 15.5l-9 13.5h-25l-51 -209l96 180l3 -4l-104 -194l-23 -96h-5l19 79l-42 -79h-5l52 96l55 227h-12l-107 -323h-5l107 323h-16l-132 -323h-5l132 323h-15l-163 -323h-5l163 323h-17l-195 -323h-5zM78 340l265 1v96h-17l-94 -1q0 -9 10 -18q-8 -1 -19.5 4t-13.5 14
h-13q2 -12 6 -16q-24 2 -29 16h-10q3 -10 13 -18q-27 3 -35 17h-63v-95zM85 355v62h10l14 -35v35h10v-62h-10l-14 37v-37h-10zM124 355v62h34v-62h-34zM134 364h14v44h-14v-44zM162 439h10q0 12 7 20h-8q-9 -7 -9 -18v-2zM176 355v62h32v-9h-22v-44h12v26h-7v10h17v-45h-32z
M196 439h13q0 13 6 20l-10 -1q-9 -7 -9 -19zM214 355v62h10v-53h18v-9h-28zM228 14l126 277l3 -3l-124 -274h-5zM229 388v29h11v-19h10v19h10v-62h-10v33h-21zM232 440h10l-5 9q-3 -2 -5 -9zM248 645v62l57 -44q51 25 111 25q51 0 116 -13q31 23 64 31q-5 -9 -8 -34.5
t-6 -49.5t-19.5 -51t-47.5 -43q-5 -106 134 -182q123 -67 164 -129.5t13 -145.5q22 11 38 37.5t16 61.5q0 56 -26.5 85t-78.5 48q-59 22 -86 50.5t-27 73.5q0 36 23 55.5t61 19.5q67 0 76 -49q2 -21 -7 -32l-5 14q-2 -5 -2 -16q0 -22 -48 -22q17 29 17 51q0 17 -28 17
q-18 0 -29.5 -11.5t-11.5 -29.5q0 -40 78 -74q71 -32 94 -50q52 -43 52 -119t-48 -124q-40 -40 -78.5 -48.5t-127.5 3.5q-18 -10 -18 -25q0 -10 11 -18q-14 -1 -25 6t-11 17q0 13 13 24h-13q-12 -19 -12 -25q0 -9 10 -22q-34 4 -34 26q0 12 12 22l-7 1q-13 -11 -13 -26

<glyph glyph-name=".notdef" horiz-adv-x="947" 
d="M15 14l195 323l-136 -1v102l66 1q-2 6 -2 9q0 15 10 24q-1 17 14 26.5t45 9.5q49 0 74 -25l11 -11l39 58l1 -1l-37 -60l3 -3l35 63l2 -1l-34 -65l3 -3l31 68l2 -1l-30 -70l3 -3l28 73l2 -1l-27 -76l3 -3l24 78h1q1 0 1 -1l-22 -81l2 -2h25v-25l33 -34l-40 -74
q-4 5 -11 15.5l-9 13.5h-25l-51 -209l96 180l3 -4l-104 -194l-23 -96h-5l19 79l-42 -79h-5l52 96l55 227h-12l-107 -323h-5l107 323h-16l-132 -323h-5l132 323h-15l-163 -323h-5l163 323h-17l-195 -323h-5zM78 340l265 1v96h-17l-94 -1q0 -9 10 -18q-8 -1 -19.5 4t-13.5 14
h-13q2 -12 6 -16q-24 2 -29 16h-10q3 -10 13 -18q-27 3 -35 17h-63v-95zM85 355v62h10l14 -35v35h10v-62h-10l-14 37v-37h-10zM124 355v62h34v-62h-34zM134 364h14v44h-14v-44zM162 439h10q0 12 7 20h-8q-9 -7 -9 -18v-2zM176 355v62h32v-9h-22v-44h12v26h-7v10h17v-45h-32z
M196 439h13q0 13 6 20l-10 -1q-9 -7 -9 -19zM214 355v62h10v-53h18v-9h-28zM228 14l126 277l3 -3l-124 -274h-5zM229 388v29h11v-19h10v19h10v-62h-10v33h-21zM232 440h10l-5 9q-3 -2 -5 -9zM248 645v62l57 -44q51 25 111 25q51 0 116 -13q31 23 64 31q-5 -9 -8 -34.5
t-6 -49.5t-19.5 -51t-47.5 -43q-5 -106 134 -182q123 -67 164 -129.5t13 -145.5q22 11 38 37.5t16 61.5q0 56 -26.5 85t-78.5 48q-59 22 -86 50.5t-27 73.5q0 36 23 55.5t61 19.5q67 0 76 -49q2 -21 -7 -32l-5 14q-2 -5 -2 -16q0 -22 -48 -22q17 29 17 51q0 17 -28 17
q-18 0 -29.5 -11.5t-11.5 -29.5q0 -40 78 -74q71 -32 94 -50q52 -43 52 -119t-48 -124q-40 -40 -78.5 -48.5t-127.5 3.5q-18 -10 -18 -25q0 -10 11 -18q-14 -1 -25 6t-11 17q0 13 13 24h-13q-12 -19 -12 -25q0 -9 10 -22q-34 4 -34 26q0 12 12 22l-7 1q-13 -11 -13 -26
q0 -4 7 -20q-31 9 -31 30q0 11 14 27q-3 21 11 32t33 11q18 0 78 -13l-3 31q-2 19 -15.5 33t-29 20.5t-47.5 18.5t-54 22l-7 -139q-1 -16 -7 -23t-18 -4q-19 -17 -19 -29q0 -7 8 -17q-32 2 -32 24q0 11 11 22h-11q-13 -18 -13 -24q0 -10 11 -21q-13 0 -24 5.5t-11 14.5t8 25
h-6q-11 -13 -11 -24q0 -12 11 -18q-14 -1 -25 7.5t-11 19.5q0 15 14 29q-4 18 10.5 30t33.5 9l20 -3l-27 162q-23 1 -46 13l18 86l14 -15l-8 47l44 206q44 0 84 53q-25 23 -60 30l-24 -83h-1l-14 74q-24 -15 -44 -41q8 -33 58 -33l-58 -108l-6 36q-38 13 -74 29l8 33
q17 1 35.5 13t29.5 32q-15 27 -51 30l-14 -75h-1l-18 71q-39 -22 -50 -29q6 -42 68 -42l-18 -27q-83 45 -83 115zM267 355v62h31v-29h-21v-33h-10zM271 14l98 261q2 -1 4 -3l-97 -258h-5zM277 398h11v10h-11v-10zM305 355v62h10v-19h11v19h9v-62h-9v33h-11v-33h-10zM315 14
l73 245q2 -2 3 -2l-71 -243h-5zM332 529l5 8l-4 -8h-1zM337 527l4 8l-3 -8h-1zM340 525v1l3 8zM343 304l40 75l8 -8l-37 -80q-3 3 -11 13zM357 288l36 80l8 -9l-32 -84q-8 8 -12 13zM359 14l50 231l4 -2l-49 -229h-5zM373 272l31 84l10 -9l-26 -88q-10 8 -15 13zM380 382
l42 77l1 -6l-40 -74zM391 257l26 87l10 -12l-18 -87zM391 371l33 73l1 -6l-32 -70zM401 359l26 68l1 -7l-24 -64zM414 347l17 57l1 -8l-15 -52zM423 453l37 70l-36 -79zM425 438l36 79l-34 -90zM427 332l9 39l1 -10l-6 -32zM428 420l34 90l-31 -106zM432 396l34 116
l-30 -141z" />
    <glyph glyph-name=".null" horiz-adv-x="0" 
 />
    <glyph glyph-name="nonmarkingreturn" horiz-adv-x="333" 
 />
    <glyph glyph-name="uni0020" unicode=" " horiz-adv-x="254" 
 />
    <glyph glyph-name="uni0021" unicode="!" horiz-adv-x="282" 
d="M87 10q-22 22 -22 53t21.5 53t53.5 22q31 0 52.5 -22t21.5 -53t-21.5 -53t-52.5 -22q-32 0 -53 22zM70 631q0 37 18 60t53 23t53 -23t18 -60q0 -36 -19.5 -179.5t-37.5 -243.5q-2 -15 -13.5 -15t-14.5 15q-18 100 -37.5 243.5t-19.5 179.5z" />
    <glyph glyph-name="uni0022" unicode="&#x22;" horiz-adv-x="370" 
d="M51 632q-8 32 8 57t48 25q33 0 49 -25.5t7 -56.5l-45 -176q-3 -12 -11 -12t-11 12zM206 632q-8 32 8 57t48 25q33 0 49 -25t8 -57l-46 -176q-3 -12 -10.5 -12t-10.5 12z" />
    <glyph glyph-name="uni0023" unicode="#" horiz-adv-x="625" 
d="M37 248v2q0 14 14 14h137l37 138h-134q-14 0 -14 14v2q0 14 14 14h142l56 209q3 12 15 12h7q17 0 12 -16l-55 -205h144l57 209q3 12 15 12h6q16 0 12 -16l-55 -205h127q14 0 14 -14v-2q0 -14 -14 -14h-135l-37 -138h132q14 0 14 -14v-2q0 -14 -14 -14h-140l-60 -222
q-3 -12 -15 -12h-7q-17 0 -12 16l59 218h-145l-60 -222q-3 -12 -15 -12h-6q-16 0 -12 16l59 218h-129q-14 0 -14 14zM222 264h145l37 138h-145z" />
    <glyph glyph-name="uni0024" unicode="$" horiz-adv-x="536" 
d="M54 146q0 31 15.5 48.5t44.5 17.5q54 0 54 -67q0 -43 18 -66t64 -27l8 221l-16 8q-87 40 -128.5 86.5t-41.5 104.5q0 69 48 112t129 50l-2 47q0 21 13.5 29.5t27.5 0t14 -29.5l-2 -47q73 -6 125 -40t52 -94q0 -61 -54 -61q-57 0 -57 71q0 34 -14 54.5t-53 26.5l-7 -208
q101 -50 140.5 -92.5t39.5 -104.5q0 -78 -46.5 -124t-125.5 -54l2 -47q0 -21 -14 -29.5t-27.5 0t-13.5 29.5l2 47q-78 5 -136.5 40.5t-58.5 97.5zM165 507q0 -29 20.5 -53.5t71.5 -52.5l-7 190q-85 -11 -85 -84zM292 256l7 -203q87 10 87 87q0 33 -21 60t-73 56z" />
    <glyph glyph-name="uni0025" unicode="%" horiz-adv-x="842" 
d="M91 297q-50 58 -50 145t49.5 145.5t122.5 58.5q72 0 121.5 -58.5t49.5 -145.5t-49.5 -145.5t-121.5 -58.5q-73 0 -122 59zM143 391q0 -117 70 -117q69 0 69 117v102q0 117 -69 117q-70 0 -70 -117v-102zM220 -7q-18 0 -23.5 13.5t5.5 32.5l215 295l181 297q10 18 27.5 18
t23.5 -13.5t-5 -32.5l-215 -297l-181 -295q-11 -17 -28 -18zM509 47q-50 58 -50 145t49.5 145.5t122.5 58.5q72 0 121.5 -58.5t49.5 -145.5t-49.5 -145.5t-121.5 -58.5q-73 0 -122 59zM562 141q0 -117 69 -117t69 117v102q0 117 -69 117t-69 -117v-102z" />
    <glyph glyph-name="uni0026" unicode="&#x26;" horiz-adv-x="668" 
d="M37 163q0 84 52 141.5t134 102.5l-17 25q-40 61 -40 123q0 67 46 113t120 46q67 0 109 -38.5t42 -96.5q0 -46 -31 -83.5t-103 -79.5l133 -197q48 69 48 99q0 17 -13.5 43t-13.5 42q0 22 14 35.5t35 13.5q24 0 41.5 -19.5t17.5 -51.5q0 -33 -23.5 -76.5t-80.5 -121.5
l60 -89q12 -17 27 -30t26 -19t18.5 -13t7.5 -15q0 -17 -18 -17h-88q-25 0 -43.5 13t-41.5 47l-23 34q-49 -53 -96 -79.5t-110 -26.5q-91 0 -140 49t-49 126zM150 195q0 -59 35 -89.5t85 -30.5q75 0 135 60l-153 228q-43 -24 -72.5 -69t-29.5 -99zM254 597q0 -41 23 -75
l42 -62q61 55 61 119q0 41 -17 65.5t-48 24.5q-30 0 -45.5 -20t-15.5 -52z" />
    <glyph glyph-name="uni0027" unicode="'" horiz-adv-x="214" 
d="M51 632q-8 32 8 57t48 25q33 0 49 -25.5t7 -56.5l-45 -176q-3 -12 -11 -12t-11 12z" />
    <glyph glyph-name="uni0028" unicode="(" horiz-adv-x="332" 
d="M115 92q-69 105 -69 241t69 241.5t173 157.5q15 8 21.5 0t-5.5 -20q-135 -138 -135 -348v-62q0 -210 135 -348q12 -12 5.5 -20t-21.5 0q-104 52 -173 158z" />
    <glyph glyph-name="uni0029" unicode=")" horiz-adv-x="332" 
d="M44 -66q-15 -8 -21.5 0t4.5 20q135 138 135 348v62q0 210 -135 348q-11 12 -4.5 20t21.5 0q104 -53 173 -158t69 -241t-69 -241t-173 -158z" />
    <glyph glyph-name="uni002A" unicode="*" horiz-adv-x="430" 
d="M51 645q-9 16 -4 34t21.5 25.5t36.5 1.5q15 -4 45.5 -28t50.5 -35q-5 23 -17.5 59t-12.5 52q0 21 12.5 34.5t31.5 13.5t31.5 -13.5t12.5 -34.5q0 -16 -12.5 -52t-17.5 -59q20 11 50.5 35t45.5 28q20 6 36.5 -1.5t21.5 -25.5t-3.5 -34.5t-27.5 -22.5q-14 -5 -49 -4t-67 -3
q19 -17 50.5 -38t40.5 -32q12 -16 11 -36t-16 -30q-16 -10 -34.5 -6.5t-31.5 19.5q-10 12 -20.5 48t-20.5 57q-10 -21 -20.5 -57t-20.5 -48q-13 -16 -31.5 -19.5t-34.5 6.5q-15 10 -16 30t11 36q9 11 40.5 32t50.5 38q-26 4 -67 3t-49 4q-19 6 -27 23z" />
    <glyph glyph-name="uni002B" unicode="+" horiz-adv-x="505" 
d="M82 264q-18 -1 -26 13.5t0 28.5t26 13l154 -11l-11 157q-1 18 13 26t28 0t13 -26l-10 -157l154 11q18 1 26 -13t0 -28.5t-26 -13.5l-154 12l10 -158q1 -18 -13 -26t-28 0t-13 26l11 158z" />
    <glyph glyph-name="uni002C" unicode="," horiz-adv-x="279" 
d="M55 60q0 32 22.5 54t57.5 22q43 0 65.5 -28.5t22.5 -73.5q0 -67 -45 -120t-83 -53q-18 0 -18 15q0 9 11 18q64 54 64 87q0 12 -8 12q-2 0 -9.5 -1.5t-13.5 -1.5q-27 0 -46.5 20t-19.5 50z" />
    <glyph glyph-name="uni002D" unicode="-" horiz-adv-x="369" 
d="M58 276v22q0 17 17 17h219q17 0 17 -17v-22q0 -17 -17 -17h-219q-17 0 -17 17z" />
    <glyph glyph-name="uni002E" unicode="." horiz-adv-x="260" 
d="M77 10q-22 22 -22 53t21.5 53t53.5 22t53.5 -22t21.5 -53t-21.5 -53t-53.5 -22t-53 22z" />
    <glyph glyph-name="uni002F" unicode="/" horiz-adv-x="413" 
d="M32 -130l290 817q5 15 20 15h25q20 0 14 -20l-289 -816q-6 -16 -23 -16h-23q-20 0 -14 20z" />
    <glyph glyph-name="uni0030" unicode="0" horiz-adv-x="621" 
d="M56 318q0 135 69 231.5t186 96.5t185.5 -96t68.5 -232q0 -86 -28.5 -160t-88 -122t-137.5 -48q-117 0 -186 98t-69 232zM193 283q0 -77 9.5 -129.5t36.5 -86.5t72 -34q65 0 91 65.5t26 184.5v69q0 118 -26 184t-91 66q-66 0 -92 -66t-26 -184v-69z" />
    <glyph glyph-name="uni0031" unicode="1" horiz-adv-x="344" 
d="M54 517q-13 3 -14 13.5t12 17.5l160 85q11 5 19 1t8 -16v-534q0 -23 25.5 -39t25.5 -29q0 -6 -5.5 -11t-14.5 -5h-174q-20 0 -20 16q0 13 25 28.5t25 39.5v413z" />
    <glyph glyph-name="uni0032" unicode="2" horiz-adv-x="532" 
d="M47 0q-14 0 -17.5 9t6.5 19q21 21 66.5 65.5t63.5 62.5t52 54t48 55t35 50t29 53.5t15 51.5t7 58q0 59 -24.5 91t-71.5 32q-37 0 -57.5 -16t-20.5 -41q0 -8 13.5 -35t13.5 -41q0 -28 -17.5 -46t-49.5 -18t-51 22t-19 59q0 67 53.5 113.5t144.5 46.5t147.5 -53t56.5 -131
q0 -84 -72 -168.5t-247 -201.5l192 -1q30 0 49 31l38 69q8 13 16.5 11t8.5 -17v-161q0 -23 -22 -23h-386z" />
    <glyph glyph-name="uni0033" unicode="3" horiz-adv-x="520" 
d="M51 122q0 33 18.5 54.5t50.5 21.5q62 0 62 -75q0 -49 15 -70t53 -21q54 0 78 34.5t24 88.5q0 73 -38.5 112t-120.5 46q-14 2 -14.5 14t12.5 16q140 37 140 153q0 105 -89 105q-30 0 -49 -13t-19 -36q0 -10 8.5 -34t8.5 -38q0 -23 -15.5 -37.5t-42.5 -14.5q-32 0 -49.5 20
t-17.5 51q0 60 53.5 103t141.5 43q79 0 130.5 -41.5t51.5 -109.5q0 -108 -144 -144q81 -10 123 -52.5t42 -110.5q0 -84 -59.5 -141.5t-163.5 -57.5q-84 0 -137 39t-53 95z" />
    <glyph glyph-name="uni0034" unicode="4" horiz-adv-x="564" 
d="M25 233q0 17 9 29l270 352q14 18 30 18h69q22 0 22 -24v-357h94q16 0 9 -16l-14 -40q-6 -13 -20 -13h-69v-101q0 -15 7.5 -23t17 -13.5t17 -11t7.5 -16.5q0 -17 -20 -17h-170q-20 0 -20 18q0 9 8 15t17 12t17 14.5t8 21.5v101h-269q-20 0 -20 20v31zM314 251v281
l-215 -281h215z" />
    <glyph glyph-name="uni0035" unicode="5" horiz-adv-x="528" 
d="M46 133q0 34 19 54.5t50 20.5t47.5 -20t16.5 -54q0 -58 13 -80t54 -22q114 0 114 149q0 86 -37 126.5t-101 40.5q-47 0 -117 -19q-14 -4 -21 2t-5 21q23 147 30 225q4 55 65 55h214q20 0 38 9t25 9q19 0 12 -26l-17 -63q-8 -24 -30 -24h-255l-20 -154q74 38 150 38
q75 0 126.5 -49t51.5 -144q0 -108 -62 -174t-161 -66q-85 0 -142.5 43.5t-57.5 101.5z" />
    <glyph glyph-name="uni0036" unicode="6" horiz-adv-x="558" 
d="M56 288q0 150 72.5 253.5t204.5 103.5q71 0 116 -31t45 -88q0 -35 -18 -56t-49 -21q-27 0 -43.5 17t-16.5 51q0 13 3.5 31.5t3.5 24.5q0 33 -48 33q-66 0 -101 -68.5t-44 -172.5q61 39 135 39q85 0 131.5 -45.5t46.5 -136.5q0 -107 -59 -170.5t-154 -63.5
q-108 0 -166.5 83t-58.5 217zM177 275q0 -243 105 -243q94 0 94 179q0 142 -105 142q-51 0 -93 -35q-1 -15 -1 -43z" />
    <glyph glyph-name="uni0037" unicode="7" horiz-adv-x="491" 
d="M35 508l32 106q5 18 22 18h359q11 0 15 -6.5t0 -16.5l-232 -593q-6 -16 -23 -16h-102q-22 0 -12 21l303 522h-238q-28 0 -49.5 -15.5t-35.5 -31t-24 -15.5q-8 0 -13.5 6.5t-1.5 20.5z" />
    <glyph glyph-name="uni0038" unicode="8" horiz-adv-x="556" 
d="M55 147q0 54 38 96.5t105 63.5q-124 69 -124 170q0 69 56.5 119t150.5 50q86 0 143.5 -44.5t56.5 -108.5q0 -48 -35 -84.5t-89 -53.5q75 -40 108.5 -81.5t33.5 -98.5q0 -77 -52.5 -132t-160.5 -55t-169.5 45t-61.5 114zM166 513q0 -39 35 -69t122 -73q26 21 42.5 54.5
t16.5 68.5q1 46 -28.5 77t-81.5 31q-48 0 -77 -24t-29 -65zM169 154q0 -56 31.5 -89t88.5 -33q56 0 82 27.5t26 68.5q0 49 -36 84t-130 79q-62 -54 -62 -137z" />
    <glyph glyph-name="uni0039" unicode="9" horiz-adv-x="557" 
d="M60 423q0 99 62.5 160.5t159.5 61.5q106 0 162 -77.5t56 -206.5q0 -165 -69 -269t-189 -104q-74 0 -124 35t-50 90q0 31 18 52t49 21q27 0 43 -17t16 -49q0 -48 10 -66.5t42 -18.5q33 0 57.5 19t39 54.5t22.5 78t12 98.5q-56 -39 -134 -39q-84 0 -133.5 48t-49.5 129z
M178 451q0 -69 28.5 -105.5t80.5 -36.5q55 0 92 24q1 20 1 61q0 100 -21.5 153t-79.5 53q-48 0 -74.5 -39.5t-26.5 -109.5z" />
    <glyph glyph-name="uni003A" unicode=":" horiz-adv-x="284" 
d="M89 10q-22 22 -22 53t21.5 53t53.5 22t53.5 -22t21.5 -53t-21.5 -53t-53.5 -22t-53 22zM89 352q-22 22 -22 53t21.5 53t53.5 22t53.5 -22t21.5 -53t-21.5 -53t-53.5 -22t-53 22z" />
    <glyph glyph-name="uni003B" unicode=";" horiz-adv-x="303" 
d="M66 60q0 32 22.5 54t57.5 22q42 0 65 -28.5t23 -73.5q0 -67 -45 -120t-83 -53q-18 0 -18 15q0 9 11 18q63 54 63 87q0 12 -7 12q-2 0 -9.5 -1.5t-13.5 -1.5q-27 0 -46.5 20t-19.5 50zM98 349q-22 21 -22 53t22 53.5t53 21.5t52.5 -22t21.5 -53t-21.5 -53t-52.5 -22
t-53 22z" />
    <glyph glyph-name="uni003C" unicode="&#x3c;" horiz-adv-x="511" 
d="M71 261q-23 11 -23 31t23 30l324 149q30 14 42 -9q9 -19 -8 -31q-3 -2 -6 -3l-330 -136l330 -137q21 -8 15.5 -29.5t-29.5 -18.5q-7 2 -14 5z" />
    <glyph glyph-name="uni003D" unicode="=" horiz-adv-x="559" 
d="M95 202q-15 0 -21 11t0 22t21 11h369q15 0 21 -11t0 -22t-21 -11h-369zM95 330q-15 0 -21 11t0 22t21 11h369q15 0 21 -11t0 -22t-21 -11h-369z" />
    <glyph glyph-name="uni003E" unicode="&#x3e;" horiz-adv-x="511" 
d="M88 429q-21 8 -15.5 29.5t29.5 18.5l14 -5l324 -149q23 -11 23 -31t-23 -30l-324 -149q-30 -14 -41 9q-10 19 7 31l336 139z" />
    <glyph glyph-name="uni003F" unicode="?" horiz-adv-x="477" 
d="M47 574q0 53 61 96.5t151 43.5q78 0 124 -36t46 -92q0 -47 -27 -82t-65 -56t-76 -40.5t-65 -46t-27 -61.5q0 -32 18 -50t49 -18t48 21.5t20.5 47t17 47t40.5 21.5q46 0 46 -48q0 -51 -49 -89t-127 -38q-75 0 -118 35t-43 95q0 45 27 80t65 56.5t76 41.5t65 47.5t27 61.5
q0 30 -17 48.5t-54 18.5q-33 0 -53 -16t-28.5 -38.5t-15.5 -45t-22 -38.5t-41 -16q-25 0 -39 13.5t-14 36.5zM155 62q0 32 21.5 53t52.5 21t52.5 -21.5t21.5 -52.5t-21.5 -52.5t-52.5 -21.5t-52.5 21.5t-21.5 52.5z" />
    <glyph glyph-name="uni0040" unicode="@" horiz-adv-x="761" 
d="M49 216q0 146 101 247t263 101q134 0 224.5 -74.5t90.5 -188.5q0 -86 -52.5 -156t-145.5 -70q-43 0 -69 16.5t-32 41.5q-45 -55 -105 -55q-52 0 -82.5 35.5t-30.5 92.5q0 88 58.5 155t135.5 67q31 0 50.5 -13.5t22.5 -36.5l54 21q8 3 11.5 -0.5t2.5 -12.5l-45 -225
q-4 -25 8.5 -40.5t37.5 -15.5q50 0 90 58.5t40 137.5q0 98 -72 162t-192 64q-140 0 -227 -90t-87 -223q0 -120 77 -190t196 -70q128 0 224 80q11 8 17 3.5t-2 -16.5q-33 -51 -101 -77.5t-146 -26.5q-147 0 -231 83t-84 216zM293 225q0 -42 19.5 -64.5t50.5 -22.5q33 0 63 19
q1 23 17 100t17 90q-1 21 -16 33t-38 12q-46 0 -79.5 -45.5t-33.5 -121.5z" />
    <glyph glyph-name="uni0041" unicode="A" horiz-adv-x="679" 
d="M3 14q0 12 25 31t36 46l202 508q6 20 6 32v5q-2 12 -8 27.5t-6 21.5q0 17 19 17h74q26 0 35 -20l231 -588q6 -13 15.5 -25.5t18.5 -22.5t16 -18t7 -13q0 -15 -17 -15h-199q-18 0 -18 14q0 11 24 30q23 20 23 36q0 13 -7 26l-33 87h-278l-33 -87q-7 -15 -7 -32
q0 -18 23 -33q22 -16 22 -27q0 -14 -18 -14h-135q-18 0 -18 14zM189 243h239l-119 312z" />
    <glyph glyph-name="uni0042" unicode="B" horiz-adv-x="669" 
d="M81 702h200q302 0 302 -169q0 -51 -41 -90.5t-120 -63.5q105 -19 152 -64.5t47 -114.5q0 -94 -75.5 -147t-220.5 -53h-244q-9 0 -14.5 5t-5.5 11q0 12 8 18.5t17.5 12t17.5 13.5t8 24v534q0 16 -8 24t-17.5 13.5t-17.5 12t-8 18.5q0 6 5.5 11t14.5 5zM229 348v-262
q0 -21 8.5 -29.5t28.5 -8.5h53q94 0 134.5 36t40.5 109q0 76 -46 115.5t-151 39.5h-68zM293 397q167 0 167 128q0 62 -37 95.5t-129 33.5h-37q-28 0 -28 -28v-229h64z" />
    <glyph glyph-name="uni0043" unicode="C" horiz-adv-x="692" 
d="M52 353q0 160 95 260.5t247 100.5q106 0 179 -50t73 -125q0 -36 -19.5 -59t-53.5 -23q-33 0 -53 21t-20 58q0 8 1.5 25.5t1.5 26.5q0 33 -30 54.5t-87 21.5q-97 0 -158.5 -72t-61.5 -198q0 -132 70 -214t189 -82q54 0 98.5 18t71.5 35.5t38 17.5q15 0 15 -18
q0 -40 -50 -90q-76 -73 -203 -73q-155 0 -249 102t-94 263z" />
    <glyph glyph-name="uni0044" unicode="D" horiz-adv-x="737" 
d="M61 16q0 13 25.5 28.5t25.5 39.5v534q0 14 -8 24t-17.5 14t-17.5 11.5t-8 18.5q0 6 5.5 11t14.5 5h226q179 0 278.5 -92t99.5 -257q0 -167 -99.5 -260t-276.5 -93h-228q-9 0 -14.5 5t-5.5 11zM229 76q0 -28 28 -28h32q132 0 198 73.5t66 229.5q0 144 -68 223.5t-199 79.5
h-29q-28 0 -28 -28v-550z" />
    <glyph glyph-name="uni0045" unicode="E" horiz-adv-x="659" 
d="M61 16q0 9 8 15.5t17.5 13.5t17.5 15.5t8 23.5v534q0 15 -8 23.5t-17.5 15t-17.5 13t-8 16.5q0 6 5.5 11t14.5 5h465q50 0 50 -47v-129q0 -11 -5 -16t-12 -5q-12 0 -20 12l-59 93q-27 42 -80 42h-163q-28 0 -28 -28v-224h118q39 0 56 32l38 60q9 15 20 15q6 0 10.5 -6.5
t4.5 -18.5v-215q0 -11 -4.5 -17.5t-10.5 -6.5q-11 0 -20 15l-38 60q-17 32 -56 32h-118v-263q0 -20 8.5 -28.5t28.5 -8.5h151q30 0 49 9t35 34l57 94q9 14 20 14q7 0 12 -5.5t5 -16.5v-130q0 -49 -51 -49h-463q-9 0 -14.5 5t-5.5 11z" />
    <glyph glyph-name="uni0046" unicode="F" horiz-adv-x="620" 
d="M61 16q0 12 8 18.5t17.5 12t17.5 13.5t8 24v534q0 16 -8 24t-17.5 13.5t-17.5 12t-8 18.5q0 6 5.5 11t14.5 5h458q50 0 50 -47v-129q0 -11 -5 -16t-12 -5q-11 0 -19 12l-60 93q-27 42 -80 42h-156q-28 0 -28 -28v-224h116q36 0 56 32l38 61q4 8 9 11t10 3q16 0 16 -24
v-215q0 -12 -4.5 -18.5t-10.5 -6.5q-11 0 -20 15l-38 60q-18 32 -56 32h-116v-266q0 -18 8 -26.5t17 -13.5t17 -10.5t8 -17.5q0 -16 -20 -16h-178q-9 0 -14.5 5t-5.5 11z" />
    <glyph glyph-name="uni0047" unicode="G" horiz-adv-x="733" 
d="M51 333q0 162 101 271.5t260 109.5q104 0 176.5 -50.5t72.5 -125.5q0 -36 -19 -59t-53 -23q-33 0 -53.5 22t-20.5 59q0 8 1 25.5t1 27.5q0 33 -30 54.5t-87 21.5q-100 0 -164 -78.5t-64 -207.5q0 -134 69 -214.5t192 -80.5q76 0 129 26v123q0 20 -17 33.5t-37 19.5
t-37 17t-17 27q0 23 28 23h152q31 0 31 -27v-317q0 -17 -13 -20q-2 -1 -5 -1q-11 0 -22 13l-37 41q-8 8 -18 8q-11 0 -25 -9q-76 -54 -176 -54q-143 0 -230.5 97.5t-87.5 247.5z" />
    <glyph glyph-name="uni0048" unicode="H" horiz-adv-x="782" 
d="M81 702h178q20 0 20 -16q0 -13 -25 -28q-25 -16 -25 -40v-235h324v235q0 14 -8 22.5t-17 15.5t-17 13.5t-8 16.5q0 16 20 16h177q20 0 20 -16q0 -9 -8 -15.5t-17 -13t-17 -15.5t-8 -24v-534q0 -18 8 -26.5t17 -13.5t17 -10.5t8 -17.5q0 -16 -20 -16h-177q-20 0 -20 16
q0 10 8 17t17 13.5t17 15t8 22.5v249h-324v-249q0 -18 8 -26.5t17 -13.5t17 -10.5t8 -17.5q0 -16 -20 -16h-178q-9 0 -14.5 5t-5.5 11q0 12 26 29q25 15 25 39v534q0 16 -8 24t-17.5 13.5t-17.5 12t-8 18.5q0 6 5.5 11t14.5 5z" />
    <glyph glyph-name="uni0049" unicode="I" horiz-adv-x="340" 
d="M61 16q0 13 25.5 28.5t25.5 39.5v534q0 19 -13 29t-25.5 18t-12.5 21q0 6 5.5 11t14.5 5h178q20 0 20 -16q0 -12 -8 -19.5t-17 -11.5t-17 -13.5t-8 -23.5v-534q0 -19 12.5 -29.5t25 -18.5t12.5 -20q0 -16 -20 -16h-178q-9 0 -14.5 5t-5.5 11z" />
    <glyph glyph-name="uni004A" unicode="J" horiz-adv-x="483" 
d="M18 106q0 31 18.5 51t49.5 20q59 0 69 -76q7 -65 55 -65q59 0 59 99v483q0 15 -8 24.5t-17.5 14t-17.5 11.5t-8 18q0 6 5.5 11t14.5 5h178q20 0 20 -16q0 -13 -25 -28.5t-25 -39.5v-435q0 -92 -51.5 -143.5t-146.5 -51.5q-79 0 -124.5 34t-45.5 84z" />
    <glyph glyph-name="uni004B" unicode="K" horiz-adv-x="676" 
d="M61 16q0 9 8 15.5t17.5 13.5t17.5 15.5t8 23.5v534q0 16 -8 24t-17.5 13.5t-17.5 12t-8 18.5q0 6 5.5 11t14.5 5h178q20 0 20 -16q0 -13 -25 -28q-25 -16 -25 -40v-241l229 216q11 11 11 26q0 6 -2 15t-4 19t-4 18t-2 11q0 20 24 20h142q23 0 23 -18q0 -11 -18 -25
q-9 -6 -23 -15t-30.5 -20t-32.5 -23.5t-30 -25.5l-183 -171l258 -306q8 -10 18 -19.5t21 -17.5q22 -17 32.5 -26t10.5 -18q0 -17 -20 -17h-183q-23 0 -23 18q0 5 3.5 10.5t8 11t8 10.5t3.5 8q0 7 -8 17l-229 274v-265q0 -14 8 -22.5t17 -15t17 -13.5t8 -17q0 -16 -20 -16
h-178q-9 0 -14.5 5t-5.5 11z" />
    <glyph glyph-name="uni004C" unicode="L" horiz-adv-x="637" 
d="M61 16q0 13 25.5 28.5t25.5 39.5v534q0 14 -8 23.5t-17.5 14t-17.5 12.5t-8 18q0 16 20 16h183q20 0 20 -16q0 -13 -13 -21.5t-25.5 -19t-12.5 -27.5v-531q0 -20 9 -28.5t29 -8.5h153q31 0 49.5 9.5t32.5 33.5l57 101q6 11 16 14t17.5 -3.5t7.5 -19.5v-136q0 -49 -51 -49
h-472q-20 0 -20 16z" />
    <glyph glyph-name="uni004D" unicode="M" horiz-adv-x="953" 
d="M61 16q0 12 25.5 31t25.5 45v526q0 18 -12.5 28t-25 18.5t-12.5 21.5q0 16 20 16h135q23 0 33 -21l234 -508l223 508q10 21 33 21h131q20 0 20 -16q0 -13 -25 -28.5t-25 -39.5v-534q0 -18 12.5 -28t25 -18.5t12.5 -21.5q0 -16 -20 -16h-177q-20 0 -20 16q0 13 25 29
t26 39v465l-236 -526q-14 -32 -37 -32q-22 0 -37 32l-241 527v-457q0 -20 13 -32t26.5 -21.5t13.5 -23.5q0 -6 -5.5 -11t-14.5 -5h-126q-20 0 -20 16z" />
    <glyph glyph-name="uni004E" unicode="N" horiz-adv-x="771" 
d="M48 685q0 17 24 17h111q34 0 53 -24l375 -465v395q0 15 -8 25.5t-17.5 19t-17.5 16t-8 17.5q0 16 19 16h115q18 0 18 -14q0 -12 -20 -35t-20 -45v-589q0 -26 -22 -30q-3 -1 -8 -1q-17 0 -31 18l-437 542v-454q0 -15 8 -26t18 -19t18 -16t8 -17q0 -16 -19 -16h-116
q-18 0 -18 16q0 11 20 33t20 45v495q0 22 -32 52q-33 29 -33 44z" />
    <glyph glyph-name="uni004F" unicode="O" horiz-adv-x="796" 
d="M147 95q-96 106 -96 256t96 256.5t251 106.5q156 0 251.5 -106.5t95.5 -256.5t-95.5 -256.5t-251.5 -106.5q-155 0 -251 107zM194 330q0 -139 53 -215t151 -76t151.5 76.5t53.5 214.5v44q0 137 -53.5 213t-151.5 76t-151 -76t-53 -213v-44z" />
    <glyph glyph-name="uni0050" unicode="P" horiz-adv-x="643" 
d="M61 16q0 9 8 15.5t17.5 13.5t17.5 15.5t8 23.5v534q0 16 -8 24t-17.5 13.5t-17.5 12t-8 18.5q0 6 5.5 11t14.5 5h205q163 0 245 -57.5t82 -156.5q0 -56 -23 -96.5t-60.5 -67t-85 -39t-97.5 -12.5q-28 0 -57.5 3t-60.5 10v-202q0 -16 8 -24t17.5 -13.5t17.5 -12t8 -18.5
q0 -16 -20 -16h-179q-9 0 -14.5 5t-5.5 11zM229 334q53 -11 89 -11q78 0 122.5 37t44.5 115q0 88 -57.5 133.5t-168.5 45.5q-30 0 -30 -28v-292z" />
    <glyph glyph-name="uni0051" unicode="Q" horiz-adv-x="796" 
d="M51 351q0 150 96 256.5t251 106.5q156 0 251.5 -106.5t95.5 -256.5q0 -127 -70.5 -225.5t-190.5 -127.5q50 -93 162 -156q18 -10 14 -22t-24 -12q-86 0 -174.5 51t-138.5 137q-125 26 -198.5 126t-73.5 229zM194 330q0 -139 53 -215t151 -76t151.5 76.5t53.5 214.5v44
q0 137 -53.5 213t-151.5 76t-151 -76t-53 -213v-44z" />
    <glyph glyph-name="uni0052" unicode="R" horiz-adv-x="675" 
d="M81 702h239q144 0 216 -49.5t72 -140.5q0 -77 -61.5 -126t-197.5 -58q32 -9 58 -36l167 -192q19 -22 40 -36q22 -16 31.5 -24.5t9.5 -21.5q0 -18 -26 -18h-86q-36 0 -67 37l-247 290v-243q0 -14 8 -22.5t17 -15t17 -13.5t8 -17q0 -16 -20 -16h-178q-20 0 -20 16
q0 12 26 29q25 15 25 39v534q0 16 -8 24t-17.5 13.5t-17.5 12t-8 18.5q0 6 5.5 11t14.5 5zM229 625v-251q23 -4 61 -4q190 0 190 137q0 147 -188 147h-31q-32 0 -32 -29z" />
    <glyph glyph-name="uni0053" unicode="S" horiz-adv-x="570" 
d="M54 116q0 32 20 51t51 19q59 0 80 -71q22 -77 107 -77q50 0 77.5 24.5t27.5 69.5q0 46 -36.5 87t-127.5 88q-108 56 -151 108t-43 116q0 78 58.5 130.5t164.5 52.5q96 0 160 -38.5t64 -93.5q0 -28 -18 -43t-45 -15q-52 0 -73 64q-25 76 -107 76q-50 0 -77.5 -23.5
t-27.5 -63.5t33 -76t116 -78q114 -59 163 -117t49 -128q0 -80 -58 -135t-176 -55q-93 0 -162 34.5t-69 93.5z" />
    <glyph glyph-name="uni0054" unicode="T" horiz-adv-x="640" 
d="M23 546l23 115q5 26 13.5 33.5t33.5 7.5q36 0 108 -2q51 -2 90 -2h29q44 0 115 2t111 2q26 0 34.5 -7.5t13.5 -33.5l23 -115q4 -18 -9.5 -22t-26.5 8l-90 82q-26 24 -47.5 31t-64.5 7v-568q0 -18 12.5 -28t25 -18.5t12.5 -21.5q0 -16 -20 -16h-178q-20 0 -20 16
q0 13 25 28.5t25 39.5v568q-43 0 -64.5 -7t-47.5 -31l-90 -82q-13 -12 -26.5 -8t-9.5 22z" />
    <glyph glyph-name="uni0055" unicode="U" horiz-adv-x="737" 
d="M45 686q0 16 20 16h182q20 0 20 -16q0 -13 -25 -28q-25 -16 -25 -40v-365q0 -97 48.5 -145.5t139.5 -48.5q90 0 133.5 47.5t43.5 150.5v344q0 26 -26 47q-26 20 -26 38q0 16 22 16h113q19 0 19 -15q0 -9 -20 -34q-21 -24 -21 -51v-349q0 -265 -261 -265q-66 0 -119 17.5
t-90.5 50t-57.5 79t-20 103.5v380q0 14 -8 22.5t-17 15.5t-17 13.5t-8 16.5z" />
    <glyph glyph-name="uni0056" unicode="V" horiz-adv-x="665" 
d="M18 702h199q17 0 17 -15q0 -11 -23 -29t-23 -36q0 -11 6 -26l170 -451l160 447q8 22 8 33q0 17 -21 35q-21 17 -21 27q0 15 17 15h135q18 0 18 -15q0 -6 -7.5 -13.5t-17.5 -16.5t-20.5 -21.5t-16.5 -29.5l-212 -575q-17 -44 -49 -44q-33 0 -51 44l-226 573
q-6 18 -16 30.5t-19.5 22t-16.5 17t-7 13.5q0 15 17 15z" />
    <glyph glyph-name="uni0057" unicode="W" horiz-adv-x="932" 
d="M1 688q0 14 18 14h191q18 0 18 -14q0 -8 -23 -28t-23 -38q0 -11 6 -26l123 -420l124 486q6 22 20.5 35.5t37.5 13.5q24 0 37.5 -13t19.5 -36l132 -491l115 422q4 17 4 24q0 20 -21 39q-21 18 -21 31q0 15 18 15h126q20 0 20 -15q0 -6 -7.5 -12t-18 -15t-20.5 -22t-16 -33
l-166 -583q-9 -34 -41 -34q-33 0 -43 34l-139 521l-136 -521q-10 -34 -43 -34q-32 0 -42 34l-190 582q-7 24 -34 51q-26 26 -26 33z" />
    <glyph glyph-name="uni0058" unicode="X" horiz-adv-x="639" 
d="M99 94l168 246l-168 259q-14 22 -33 43q-18 19 -26.5 28t-8.5 17q0 15 18 15h200q17 0 17 -14q0 -10 -22 -29t-22 -32q0 -10 12 -28l107 -167l114 181q10 16 10 25q0 5 -5 11.5t-11 13.5t-11 14t-5 12q0 13 18 13h141q18 0 18 -14q0 -7 -9 -14t-22.5 -15.5t-28.5 -20.5
t-27 -30l-151 -223l183 -282q16 -25 34 -42q18 -19 27 -28t9 -17q0 -16 -19 -16h-200q-18 0 -18 14q0 9 22 28t22 33q0 8 -11 28l-121 187l-124 -194q-11 -17 -11 -28q0 -13 22 -28q22 -16 22 -27q0 -13 -17 -13h-162q-18 0 -18 14q0 9 8.5 15t21.5 14.5t28.5 20t28.5 30.5z
" />
    <glyph glyph-name="uni0059" unicode="Y" horiz-adv-x="634" 
d="M6 687q0 15 18 15h195q18 0 18 -14q0 -9 -22 -28t-22 -33q0 -11 11 -28l141 -198l140 211q9 14 9 25q0 6 -5 13.5t-10.5 14.5t-10.5 13t-5 10q0 14 17 14h130q18 0 18 -13q0 -5 -7.5 -11.5t-19 -16t-25 -22.5t-25.5 -31l-170 -250v-274q0 -23 25 -38t25 -30
q0 -16 -20 -16h-178q-20 0 -20 16q0 9 8 15t17.5 13t17.5 16t8 24v250l-187 262q-8 11 -16.5 22t-18.5 21q-19 20 -27.5 30t-8.5 18z" />
    <glyph glyph-name="uni005A" unicode="Z" horiz-adv-x="623" 
d="M63 0q-17 0 -22 10t4 24l394 624h-188q-58 0 -92 -49l-63 -91q-9 -14 -23 -11t-14 19v136q0 40 42 40h457q17 0 22 -10t-4 -24l-388 -624h191q59 0 93 51l58 86q10 13 23.5 10t13.5 -19v-132q0 -40 -41 -40h-463z" />
    <glyph glyph-name="uni005B" unicode="[" horiz-adv-x="322" 
d="M91 -50v765q0 17 17 17h163q15 0 21 -10.5t0 -21t-21 -9.5l-128 8q69 -231 69 -366t-69 -366l128 8q15 1 21 -9.5t0 -21.5t-21 -11h-163q-17 0 -17 17z" />
    <glyph glyph-name="uni005C" unicode="\" horiz-adv-x="413" 
d="M32 682q-6 20 14 20h25q14 0 20 -15l290 -817q6 -20 -14 -20h-23q-17 0 -23 16z" />
    <glyph glyph-name="uni005D" unicode="]" horiz-adv-x="322" 
d="M30 -56q-6 11 0 21.5t21 9.5l128 -8q-69 237 -69 366q0 135 69 366l-128 -8q-15 -1 -21 9.5t0 21t21 10.5h163q18 0 18 -17v-765q0 -17 -18 -17h-163q-15 0 -21 11z" />
    <glyph glyph-name="uni005E" unicode="^" horiz-adv-x="454" 
d="M43 351q0 8 4 16l150 324q11 23 31 23t30 -23l149 -324q14 -30 -9 -42q-19 -9 -31 8q-2 3 -3 6l-136 331l-137 -331q-9 -20 -29 -16q-22 5 -19 28z" />
    <glyph glyph-name="uni005F" unicode="_" horiz-adv-x="455" 
d="M19 -159q0 17 18 17h381q17 0 17 -17v-21q0 -17 -17 -17h-381q-18 0 -18 17v21z" />
    <glyph glyph-name="uni0060" unicode="`" horiz-adv-x="366" 
d="M78 654q0 21 14.5 36t37.5 15q30 0 69 -45l64 -73q16 -18 4 -33.5t-32 -6.5l-106 48q-51 22 -51 59z" />
    <glyph glyph-name="uni0061" unicode="a" horiz-adv-x="520" 
d="M326 279v94q0 78 -61 78q-27 0 -44.5 -11.5t-30 -28t-22.5 -35t-22 -31.5q-20 -20 -44 -20q-21 0 -37 14.5t-16 37.5q0 22 15.5 43t44 37.5t69 26.5t89.5 10q87 0 126.5 -33.5t39.5 -102.5v-285q0 -24 17 -24q4 0 11 1.5t11 1.5q11 0 11 -14q0 -19 -22.5 -34.5
t-55.5 -15.5q-65 0 -76 74q-57 -74 -156 -74q-60 0 -93.5 31t-33.5 82q0 72 69 119t211 59zM158 127q0 -29 19 -45.5t55 -16.5q48 0 94 40v132q-168 -21 -168 -110z" />
    <glyph glyph-name="uni0062" unicode="b" horiz-adv-x="566" 
d="M23 629q0 12 17 21l110 59q11 6 19 6q17 0 17 -21v-256q65 44 145 44q91 0 140 -56t49 -159q0 -68 -17.5 -120t-48.5 -87.5t-74.5 -53.5t-94.5 -18q-64 0 -120 39q-8 5 -15 5q-8 0 -16 -8l-23 -26q-9 -9 -18 -9q-14 0 -14 19v564q0 15 -8.5 21.5t-19 10.5t-19.5 9t-9 16z
M186 396v-252q0 -54 26 -82t74 -28q119 0 119 202q0 96 -34 138t-104 42q-43 0 -81 -20z" />
    <glyph glyph-name="uni0063" unicode="c" horiz-adv-x="512" 
d="M44 234q0 115 68 187.5t175 72.5q77 0 131 -37t54 -94q0 -32 -16.5 -52.5t-47.5 -20.5q-30 0 -47.5 19t-17.5 51q0 8 1.5 23t1.5 20q0 45 -64 45t-103 -43.5t-39 -126.5q0 -91 48 -144t134 -53q39 0 67 12.5t43 24.5t23 12q12 0 12 -14q0 -44 -54.5 -86t-135.5 -42
q-100 0 -166.5 67.5t-66.5 178.5z" />
    <glyph glyph-name="uni0064" unicode="d" horiz-adv-x="579" 
d="M288 482q50 0 95 -20v111q0 15 -8.5 22t-19 11.5t-19 9.5t-8.5 16q0 14 17 22l110 54q9 5 19 5q17 0 17 -20v-577q0 -13 8.5 -19.5t18.5 -11t18.5 -10t8.5 -16.5q0 -14 -16 -21l-111 -46q-8 -4 -16 -4q-19 0 -19 23v39q-48 -62 -142 -62q-43 0 -79 15t-62 44.5
t-40.5 71.5t-14.5 96q0 60 17 109t48.5 84t76.5 54.5t101 19.5zM157 257q0 -100 38 -147t101 -47q42 0 87 30v247q0 96 -95 96q-131 0 -131 -179z" />
    <glyph glyph-name="uni0065" unicode="e" horiz-adv-x="526" 
d="M44 241q0 112 65.5 182.5t168.5 70.5q90 0 144.5 -51.5t54.5 -121.5q0 -31 -11.5 -43.5t-35.5 -12.5h-286q2 -89 48.5 -138.5t124.5 -49.5q33 0 61 10t43 21.5t29 21.5t22 10q12 0 12 -11q0 -7 -4 -17q-21 -56 -73 -90t-125 -34q-103 0 -170.5 69t-67.5 184zM145 312h196
q29 0 29 27q0 47 -24.5 78t-75.5 31q-53 0 -87 -35.5t-38 -100.5z" />
    <glyph glyph-name="uni0066" unicode="f" horiz-adv-x="355" 
d="M23 451v14q0 17 18 17h65l-11 69q-1 8 -1.5 15.5t-0.5 15.5q0 59 35 95.5t95 36.5q24 0 46.5 -8t39 -22t26.5 -32.5t10 -39.5q0 -23 -13.5 -38.5t-35.5 -15.5q-29 0 -41 16.5t-19 36t-14.5 36t-27.5 16.5q-23 0 -31 -23q-3 -7 -3 -17q0 -21 10 -45l43 -96h114
q18 0 18 -17v-14q0 -17 -18 -17h-114v-366q0 -14 23 -26q22 -12 22 -25q0 -7 -6 -12t-15 -5h-157q-9 0 -14.5 5t-5.5 12q0 13 23 25t23 26v366h-65q-18 0 -18 17z" />
    <glyph glyph-name="uni0067" unicode="g" horiz-adv-x="525" 
d="M33 -92q0 36 31.5 67.5t97.5 52.5l-14 2q-42 6 -63.5 25.5t-21.5 45.5q0 27 21 49.5t57 31.5q-94 46 -94 137q0 73 61.5 118t151.5 45h219q14 0 15.5 -10.5t-10.5 -16.5l-54 -26q-14 -6 -4 -20q33 -38 33 -90q0 -70 -60.5 -115.5t-145.5 -45.5q-18 0 -52 4q-5 1 -9 1
q-15 0 -24 -9q-10 -11 -2.5 -25.5t29.5 -17.5l153 -23q146 -23 146 -138q0 -74 -66 -116q-68 -44 -189 -44q-99 0 -152.5 33.5t-53.5 84.5zM140 -79q0 -43 30.5 -67.5t89.5 -24.5q61 0 95.5 28t34.5 71q0 32 -19 52.5t-71 28.5l-90 12q-70 -32 -70 -100zM160 314
q0 -111 93 -111q45 0 69 28.5t24 82.5v15q0 51 -24 80t-69 29t-69 -28.5t-24 -80.5v-15z" />
    <glyph glyph-name="uni0068" unicode="h" horiz-adv-x="599" 
d="M34 634q0 10 16 20l111 56q8 5 15 5q8 0 14 -6t6 -17v-263q112 65 205 65q113 0 113 -134v-292q0 -14 23 -26q22 -13 22 -25q0 -7 -5.5 -12t-14.5 -5h-158q-9 0 -14.5 5t-5.5 12q0 13 23 25t23 26v242q0 58 -20 82.5t-66 24.5q-56 0 -125 -31v-318q0 -14 22 -26t22 -25
q0 -17 -20 -17h-157q-20 0 -20 17q0 13 23 25q22 12 22 26v511q0 13 -8.5 19.5t-18.5 11t-18.5 9.5t-8.5 15z" />
    <glyph glyph-name="uni0069" unicode="i" horiz-adv-x="291" 
d="M41 414q0 12 16 20l110 55q17 8 26.5 3t9.5 -21v-403q0 -14 22.5 -26t22.5 -25q0 -7 -6 -12t-15 -5h-157q-9 0 -14.5 5t-5.5 12q0 13 23 25t23 26v291q0 19 -27.5 30t-27.5 25zM84 586q-23 22 -23 53t22.5 53t53.5 22t53 -22t22 -53t-22 -53.5t-53 -22.5t-53 23z" />
    <glyph glyph-name="uni006A" unicode="j" horiz-adv-x="277" 
d="M-96 -122q0 25 16 42t44 17q24 0 40 -15.5t22.5 -34t16 -34t21.5 -15.5q27 0 27 77v444q0 19 -27 30t-27 25q0 13 16 20l109 55q15 8 25.5 3.5t10.5 -18.5v-475q0 -97 -47 -153t-125 -56q-55 0 -88.5 25.5t-33.5 62.5zM87 585q-22 21 -22 52t21.5 52.5t52.5 21.5
t52.5 -21.5t21.5 -52.5t-21.5 -52.5t-52.5 -21.5t-52 22z" />
    <glyph glyph-name="uni006B" unicode="k" horiz-adv-x="541" 
d="M34 634q0 10 16 20l111 55q8 5 16 5q19 0 19 -22v-409l119 96q20 12 18 32l-5 52q-1 19 16 19h140q20 0 20 -17q0 -10 -15 -21l-96 -62l-102 -82l171 -212q7 -8 15 -15t18 -14q20 -14 30 -22.5t10 -18.5q0 -18 -20 -18h-163q-22 0 -22 19q0 9 10.5 19.5t10.5 18.5
q0 9 -9 19l-146 182v-190q0 -14 22 -26q22 -13 22 -25q0 -17 -20 -17h-157q-20 0 -20 17q0 11 23 25q22 12 22 26v511q0 13 -8.5 19.5t-18.5 11t-18.5 9.5t-8.5 15z" />
    <glyph glyph-name="uni006C" unicode="l" horiz-adv-x="284" 
d="M34 634q0 13 16 20l108 55q14 8 25.5 3.5t11.5 -20.5v-624q0 -14 22.5 -26t22.5 -25q0 -17 -20 -17h-157q-20 0 -20 17q0 12 22.5 24.5t22.5 26.5v511q0 12 -8.5 19.5t-18.5 11t-18.5 9.5t-8.5 15z" />
    <glyph glyph-name="uni006D" unicode="m" horiz-adv-x="891" 
d="M59 435l108 54q10 5 17 5q19 0 19 -23v-32q94 55 176 55q83 0 110 -59q95 59 190 59q63 0 95 -33t32 -111v-285q0 -11 23 -23q22 -12 22 -25q0 -7 -5.5 -12t-14.5 -5h-158q-9 0 -14.5 5t-5.5 12q0 11 23 25q23 12 23 23v252q0 60 -20 85t-71 25t-108 -27q2 -10 3 -22.5
t1 -27.5v-285q0 -11 23 -23q22 -12 22 -25q0 -7 -5.5 -12t-14.5 -5h-157q-21 0 -21 17q0 11 23 25q23 12 23 23v252q0 59 -20 85q-22 25 -68 25q-23 0 -50 -7t-56 -21v-334q0 -11 22 -23t22 -25q0 -17 -20 -17h-157q-20 0 -20 17q0 11 23 25q22 12 22 23v293q0 18 -27 30
t-27 25q0 12 18 22z" />
    <glyph glyph-name="uni006E" unicode="n" horiz-adv-x="606" 
d="M57 433l110 56q8 5 16 5t14 -5.5t6 -17.5v-43q104 66 200 66q118 0 118 -129v-300q0 -11 23 -23q22 -13 22 -25q0 -17 -20 -17h-157q-20 0 -20 17q0 13 23 25q22 10 22 23v248q0 57 -19 80.5t-67 23.5q-60 0 -125 -30v-322q0 -11 23 -23q22 -12 22 -25q0 -17 -20 -17
h-158q-20 0 -20 17q0 11 23 25q22 12 22 23v293q0 20 -27 32q-27 11 -27 23q0 10 16 20z" />
    <glyph glyph-name="uni006F" unicode="o" horiz-adv-x="586" 
d="M114 58q-71 70 -71 183t70.5 182.5t179.5 69.5q108 0 178.5 -69.5t70.5 -182.5t-70.5 -183t-178.5 -70q-109 0 -179 70zM167 216q0 -89 33 -134.5t93 -45.5t92.5 45.5t32.5 135.5v48q0 90 -32.5 135.5t-92.5 45.5t-93 -46t-33 -135v-49z" />
    <glyph glyph-name="uni0070" unicode="p" horiz-adv-x="572" 
d="M36 413q0 11 16 20l110 56q10 5 17 5q18 0 18 -23v-31q74 54 153 54q82 0 129 -58.5t47 -164.5q0 -65 -16.5 -117.5t-47 -89t-73 -56.5t-94.5 -20q-50 0 -98 23v-141q0 -12 23 -26q22 -12 22 -25q0 -17 -20 -17h-157q-21 0 -21 17q0 12 23 24q23 14 23 27v487
q0 15 -8.5 21.5t-18.5 11t-18.5 9t-8.5 14.5zM197 396v-253q0 -52 23.5 -80.5t68.5 -28.5q58 0 91.5 51.5t33.5 148.5q0 187 -128 187q-46 0 -89 -25z" />
    <glyph glyph-name="uni0071" unicode="q" horiz-adv-x="558" 
d="M45 230q0 53 15.5 101t45.5 84t74 57.5t101 21.5q64 0 117 -35q8 -6 15 -6t15 8l25 24q7 7 15 7q13 0 13 -16v-606q0 -14 23 -26q22 -12 22 -25q0 -17 -20 -17h-157q-21 0 -21 17q0 12 23 24q23 14 23 27v181q-55 -58 -138 -58q-43 0 -78.5 16.5t-60.5 47.5t-38.5 75
t-13.5 98zM295 70q40 0 79 24v248q0 106 -91 106q-57 0 -91.5 -45.5t-34.5 -142.5q0 -190 138 -190z" />
    <glyph glyph-name="uni0072" unicode="r" horiz-adv-x="428" 
d="M57 434l108 54q9 6 18 6q20 0 20 -23v-62q22 39 57.5 62t77.5 23q35 0 56 -18.5t21 -47.5q0 -26 -16.5 -41.5t-42.5 -15.5q-11 0 -23.5 5t-25 11.5t-24.5 11.5t-21 5q-27 0 -43 -19t-16 -54v-266q0 -11 22 -23t22 -25q0 -17 -20 -17h-157q-20 0 -20 17q0 11 23 25
q22 12 22 23v292q0 15 -8.5 21.5t-18 11t-18 9t-8.5 14.5q0 12 15 21z" />
    <glyph glyph-name="uni0073" unicode="s" horiz-adv-x="450" 
d="M48 93q0 23 13 37t34 14q18 0 30.5 -11.5t20.5 -27.5t18 -32t29 -27.5t48 -11.5q34 0 54 15.5t20 43.5q0 27 -25.5 50.5t-93.5 56.5q-77 38 -108.5 75.5t-31.5 85.5q0 64 46 98.5t121 34.5q67 0 118 -27t51 -74q0 -21 -11 -33t-30 -12t-35.5 15.5t-27 34.5t-32.5 34.5
t-51 15.5q-30 0 -48 -15t-18 -39q0 -50 102 -95q93 -41 127 -81.5t34 -86.5q0 -69 -47.5 -106t-126.5 -37q-71 0 -125.5 29t-54.5 76z" />
    <glyph glyph-name="uni0074" unicode="t" horiz-adv-x="386" 
d="M26 479l148 121q10 8 17 8q17 0 17 -23v-103h150q18 0 18 -17v-14q0 -17 -18 -17h-150v-321q0 -33 15 -47t49 -14q12 0 25 1.5t23.5 4t18.5 4t9 1.5q13 0 13 -12q0 -16 -17.5 -28t-41 -19.5t-47 -11.5t-35.5 -4q-119 0 -119 124v300q0 28 -28 28h-34q-20 0 -24.5 13
t11.5 26z" />
    <glyph glyph-name="uni0075" unicode="u" horiz-adv-x="597" 
d="M50 429l112 59q10 5 17 5q18 0 18 -22v-308q0 -57 20 -81.5t71 -24.5q58 0 111 35v261q0 14 -8.5 21t-19 11.5t-19 9.5t-8.5 16q0 14 16 21l111 57q8 5 17 5q18 0 18 -22v-355q0 -14 8.5 -20.5t19 -11t19 -9.5t8.5 -16q0 -13 -16 -20l-111 -49q-8 -4 -16 -4q-19 0 -19 23
v37q-74 -59 -169 -59q-66 0 -103 37t-37 113v214q0 11 -5 17t-12.5 10t-15.5 7t-14 7q-9 6 -9 16t16 20z" />
    <glyph glyph-name="uni0076" unicode="v" horiz-adv-x="517" 
d="M6 469q0 13 17 13h181q15 0 15 -12q0 -8 -21 -26q-22 -19 -22 -38q0 -11 6 -26l102 -268l107 267q6 17 6 28q0 19 -19 38q-20 20 -20 26q0 11 15 11h124q14 0 14 -12q0 -8 -23 -33q-23 -23 -34 -48l-154 -372q-6 -15 -17.5 -22t-24.5 -7q-12 0 -23.5 7t-17.5 22l-153 371
q-5 13 -14 25t-20 24q-24 24 -24 32z" />
    <glyph glyph-name="uni0077" unicode="w" horiz-adv-x="762" 
d="M23 482h175q15 0 15 -12q0 -5 -21 -25q-21 -19 -21 -39q0 -9 5 -26l84 -251l99 320q6 18 17 31t32 13q17 0 31 -11q13 -11 20 -33l105 -316l79 247q5 18 5 27q0 17 -19 37t-19 26q0 12 15 12h113q15 0 15 -12q0 -5 -6.5 -10.5t-15.5 -14t-19 -22t-16 -34.5l-120 -369
q-11 -32 -39 -32q-29 0 -40 32l-116 352l-109 -352q-9 -32 -38 -32q-27 0 -39 32l-131 368q-7 21 -17 35t-19 22.5t-15 14t-6 9.5q0 13 16 13z" />
    <glyph glyph-name="uni0078" unicode="x" horiz-adv-x="516" 
d="M98 90l114 140l-111 152q-19 27 -37 45q-20 20 -28.5 27.5t-8.5 14.5q0 13 17 13h195q15 0 15 -13q0 -8 -22 -24t-22 -35q0 -13 11 -27l57 -82l64 82q23 29 23 40q0 5 -5 12t-11 13.5t-11 12.5t-5 9q0 12 15 12h126q15 0 15 -13q0 -7 -10 -14q-11 -9 -32 -25.5t-38 -37.5
l-104 -130l119 -162q8 -12 17.5 -22.5t19.5 -20.5q20 -19 28.5 -27.5t8.5 -16.5q0 -13 -17 -13h-195q-15 0 -15 12q0 10 22 26t22 33q0 12 -11 28l-64 92l-71 -92q-21 -28 -21 -42q0 -6 5 -12t10.5 -12t10.5 -11t5 -10q0 -12 -16 -12h-131q-15 0 -15 13q0 6 7.5 12.5
t19.5 15t26.5 20.5t27.5 29z" />
    <glyph glyph-name="uni0079" unicode="y" horiz-adv-x="516" 
d="M-5 -138q0 23 18 41t45 18q10 0 21.5 -4t23 -9.5t22 -9.5t17.5 -4q24 0 36 21q13 22 54 124l-166 350q-9 19 -19.5 32t-19.5 21.5t-15 14.5t-6 12q0 13 16 13h189q15 0 15 -12q0 -9 -23 -27q-23 -20 -23 -35q0 -7 8 -28l100 -230l101 230q6 15 6 26q0 18 -19 38
q-20 20 -20 27q0 11 15 11h125q15 0 15 -12q0 -3 -6.5 -10t-15.5 -17t-18 -22t-15 -25l-208 -455q-36 -81 -74.5 -116t-87.5 -35q-40 0 -65.5 19t-25.5 53z" />
    <glyph glyph-name="uni007A" unicode="z" horiz-adv-x="477" 
d="M64 0q-17 0 -22 10t4 24l251 408h-77q-33 0 -59 -18t-38.5 -39.5t-26.5 -39.5t-26 -18q-19 0 -19 22v104q0 29 30 29h322q17 0 22 -10t-4 -24l-252 -409h99q32 0 57.5 18.5t37.5 41t26 41t26 18.5q18 0 18 -21v-111q0 -26 -27 -26h-342z" />
    <glyph glyph-name="uni007B" unicode="{" horiz-adv-x="314" 
d="M36 342l42 32q17 14 17 33v129q0 33 12.5 69t35 65.5t53 48.5t67.5 19q18 0 18 -10q0 -7 -12.5 -13.5t-27.5 -21.5t-27.5 -43.5t-12.5 -78.5v-128q0 -20 -16 -33l-65 -53l66 -59q15 -13 15 -34v-168q0 -50 12.5 -78t27.5 -43t27.5 -22t12.5 -15q0 -9 -18 -9
q-37 0 -67.5 19t-53 48t-35 65t-12.5 69v116q0 21 -16 34l-43 38q-13 14 0 24z" />
    <glyph glyph-name="uni007C" unicode="|" horiz-adv-x="227" 
d="M91 -181v964q0 17 17 17h11q17 0 17 -17v-964q0 -17 -17 -17h-11q-17 0 -17 17z" />
    <glyph glyph-name="uni007D" unicode="}" horiz-adv-x="314" 
d="M33 728q0 10 18 10q37 0 67.5 -19t53 -48.5t35 -65.5t12.5 -69v-129q0 -19 17 -33l42 -32q14 -10 0 -24l-44 -38q-15 -13 -15 -34v-116q0 -33 -12.5 -69t-35 -65t-53 -48t-67.5 -19q-18 0 -18 9q0 8 12.5 15t27.5 22t27.5 43t12.5 78v168q0 21 15 34l65 59l-64 53
q-16 13 -16 33v128q0 50 -12.5 78.5t-27.5 43.5t-27.5 21.5t-12.5 13.5z" />
    <glyph glyph-name="uni007E" unicode="~" horiz-adv-x="534" 
d="M87 220q-10 -7 -17 -0.5t0 18.5q44 87 115 87q45 0 192 -55l72 40q11 5 17 -0.5t1 -16.5q-43 -88 -115 -88q-49 0 -194 55z" />
    <glyph glyph-name="uni00A0" unicode="&#xa0;" horiz-adv-x="254" 
 />
    <glyph glyph-name="uni00A1" unicode="&#xa1;" horiz-adv-x="282" 
d="M89 585q-22 21 -22 53t21.5 53.5t53.5 21.5t53.5 -21.5t21.5 -53.5t-21.5 -53.5t-53.5 -21.5t-53 22zM88 10q-18 23 -18 60t19.5 181.5t37.5 241.5q2 15 13.5 15t14.5 -15q18 -99 37 -242.5t19 -180.5t-17.5 -60t-52.5 -23t-53 23z" />
    <glyph glyph-name="uni00A2" unicode="&#xa2;" horiz-adv-x="478" 
d="M56 207q0 69 27.5 122.5t76.5 81.5l-20 51q-6 12 -2 23t16 15q26 10 37 -24l15 -45q29 8 57 8q66 0 112.5 -33t46.5 -84q0 -28 -14.5 -46.5t-40.5 -18.5q-25 0 -40 17t-15 46q0 7 1 20t1 18q0 40 -55 40q-22 0 -40 -6l51 -175l61 -141q26 6 48 22.5t28 16.5q10 0 10 -12
q0 -22 -17 -46t-47 -42l22 -58q6 -12 2 -23t-16 -15q-27 -8 -37 24l-18 53q-21 -7 -51 -7q-85 0 -142 60t-57 158zM138 247q0 -78 38.5 -124.5t107.5 -50.5l-38 133l-68 161q-40 -40 -40 -119z" />
    <glyph glyph-name="uni00A3" unicode="&#xa3;" horiz-adv-x="586" 
d="M41 55q0 31 23 48t64 17q77 0 77 141q0 33 -9 62l-120 -5q-19 -1 -26.5 12t0.5 26t27 12l107 -6q-3 7 -8.5 23.5l-8.5 25.5t-7 22.5t-5.5 25t-1.5 23.5q0 69 55.5 116t139.5 47q76 0 123.5 -32t47.5 -91q0 -30 -14 -46.5t-38 -16.5q-53 0 -53 60q0 47 -14 68.5t-49 21.5
q-93 0 -93 -82q0 -24 6.5 -50.5t18 -61.5t16.5 -54l120 3q19 0 26.5 -13t-0.5 -26t-27 -12l-111 7q2 -20 2 -31q0 -64 -23 -101.5t-76 -69.5q30 11 93.5 -15t98.5 -26q67 0 67 41q0 10 -14 33.5t-14 40.5q0 20 12.5 33t31.5 13q22 0 35.5 -17t13.5 -48q0 -71 -49.5 -128
t-122.5 -57q-77 0 -158 66q-16 13 -33 9t-25 -24q-18 -39 -52 -39q-23 0 -38 15.5t-15 39.5z" />
    <glyph glyph-name="uni00A4" unicode="&#xa4;" horiz-adv-x="564" 
d="M74 482q-16 15 -11 31t21 17.5t31 -12.5l54 -63q48 39 114 39q64 0 113 -38l54 62q19 22 40 9q21 -12 10 -33q-4 -6 -10 -12l-61 -57q42 -52 42 -119q0 -66 -42 -119l61 -57q16 -15 11 -31t-20.5 -17.5t-30.5 12.5l-54 62q-49 -38 -113 -38q-63 0 -114 38l-54 -62
q-14 -16 -31 -13t-20.5 17.5t10.5 31.5l62 58q-41 50 -41 118q0 66 41 118zM180 409q-42 -42 -42 -103t42 -103t103 -42q60 0 102 42t42 103t-42 102.5t-102 41.5q-61 0 -103 -41z" />
    <glyph glyph-name="uni00A5" unicode="&#xa5;" horiz-adv-x="596" 
d="M33 616q0 16 18 16h187q18 0 18 -14q0 -9 -21 -26q-21 -16 -21 -33q0 -13 10 -29l100 -161l91 167q8 18 8 29q0 7 -4 15t-9 15.5t-9 14t-4 9.5q0 13 18 13h127q18 0 18 -14q0 -7 -7.5 -12.5t-19 -14t-24.5 -20.5t-25 -32l-124 -214v-27l121 4q15 0 22 -8t7 -18t-7 -18
t-22 -8l-121 4v-41l121 4h2q14 0 20.5 -8t6.5 -17.5t-6.5 -17.5t-20.5 -8h-2l-121 4v-87q0 -24 25 -39q24 -15 24 -28q0 -16 -19 -16h-176q-20 0 -20 16q0 13 25 28t25 39v87l-121 -4h-2q-13 0 -20 8t-7 17.5t7 17.5t20 8h2l121 -4v41l-121 -4q-15 0 -22 8t-7 18t7 18t22 8
l120 -4l-141 228q-16 24 -28.5 38t-21.5 23t-14 15t-5 14z" />
    <glyph glyph-name="uni00A6" unicode="&#xa6;" horiz-adv-x="227" 
d="M107 800h14q17 0 17 -17v-399q0 -17 -17 -17h-14q-17 0 -17 17v399q0 17 17 17zM90 218q0 17 17 17h14q17 0 17 -17v-398q0 -17 -17 -17h-14q-17 0 -17 17v398z" />
    <glyph glyph-name="uni00A7" unicode="&#xa7;" horiz-adv-x="545" 
d="M46 251q0 103 129 158q-87 62 -87 152q0 73 51 114t131 41q76 0 134 -34.5t58 -98.5q0 -29 -14 -45.5t-41 -16.5q-57 0 -57 68q0 41 -18 63t-68 22q-40 0 -64 -20t-24 -53q0 -22 10 -41.5t33 -38t43 -30.5t55 -32q38 -21 65 -38.5t56.5 -43.5t45 -56.5t15.5 -65.5
q0 -102 -128 -158q86 -61 86 -151q0 -74 -51 -115t-131 -41q-76 0 -134 34.5t-58 98.5q0 63 55 63q58 0 58 -69q0 -41 17 -63t63 -22q44 0 68.5 21t24.5 57q0 39 -31 66.5t-111 71.5q-38 21 -64.5 38.5t-56 43.5t-45 56.5t-15.5 64.5zM143 294q0 -72 134 -142q20 -10 60 -32
q66 42 66 96q-1 69 -135 139q-6 3 -18 9.5t-22 11.5t-19 10q-66 -39 -66 -92z" />
    <glyph glyph-name="uni00A8" unicode="&#xa8;" horiz-adv-x="480" 
d="M89 596q-21 20 -21 49t20.5 49t49.5 20t49.5 -20t20.5 -49t-20.5 -49.5t-49.5 -20.5t-49 21zM292 596q-21 20 -21 49t20.5 49t49.5 20t49 -20t20 -49t-20 -49.5t-49 -20.5t-49 21z" />
    <glyph glyph-name="uni00A9" unicode="&#xa9;" horiz-adv-x="766" 
d="M60 333q0 132 93.5 226t229.5 94t229.5 -94t93.5 -226q0 -133 -93.5 -226.5t-229.5 -93.5t-229.5 93.5t-93.5 226.5zM179 538q-85 -85 -85 -205t84.5 -205t204.5 -85t204.5 85t84.5 205t-84.5 205t-204.5 85t-204 -85zM188 326q0 97 61 157.5t150 60.5q64 0 107 -30
t43 -74q0 -25 -14.5 -42t-39.5 -17t-41.5 17t-16.5 46t14 50q-27 12 -59 12q-54 0 -86 -35.5t-32 -104.5q0 -76 40 -120.5t113 -44.5q44 0 76.5 12.5t33.5 12.5q10 0 10 -10q0 -32 -44 -63t-113 -31q-86 0 -144 54.5t-58 149.5z" />
    <glyph glyph-name="uni00AA" unicode="&#xaa;" horiz-adv-x="490" 
d="M79 415q0 114 209 149v64q0 48 -43 48q-29 0 -42.5 -15.5t-23 -34t-21.5 -34t-38 -15.5q-41 0 -41 40q0 20 13 37.5t36.5 30.5t55.5 21t70 8q72 0 102.5 -29.5t30.5 -98.5v-151q0 -45 16 -45q3 0 7.5 1t6.5 1q7 0 7 -10q0 -20 -17 -33t-46 -13q-58 0 -70 55
q-51 -55 -122 -55q-40 0 -65 22t-25 57zM91 229q-16 0 -22 15t5 26q8 6 17 6h319q11 0 17 -7.5t6 -16t-6 -16t-17 -7.5h-319zM236 405q33 0 52 18v107q-110 -18 -110 -78q0 -22 16 -34.5t42 -12.5z" />
    <glyph glyph-name="uni00AB" unicode="&#xab;" horiz-adv-x="572" 
d="M67 237q-33 30 0 60l199 177q7 6 12.5 2t1.5 -12l-84 -157q-19 -40 0 -80l84 -157q4 -8 -1.5 -12t-12.5 2zM303 237q-33 30 0 60l199 177q7 6 12.5 2t1.5 -12l-84 -157q-19 -40 0 -80l84 -157q4 -8 -1.5 -12t-12.5 2z" />
    <glyph glyph-name="uni00AC" unicode="&#xac;" horiz-adv-x="498" 
d="M85 336q-15 0 -21 11t0 21.5t21 10.5h308q29 0 29 -29v-192q0 -15 -11 -21t-22 0t-11 21v164q0 14 -14 14h-279z" />
    <glyph glyph-name="uni00AD" unicode="&#xad;" horiz-adv-x="369" 
d="M58 276v22q0 17 17 17h219q17 0 17 -17v-22q0 -17 -17 -17h-219q-17 0 -17 17z" />
    <glyph glyph-name="uni00AE" unicode="&#xae;" horiz-adv-x="474" 
d="M60 540q0 39 13.5 71t37 55t56 35.5t70.5 12.5q39 0 71.5 -12.5t56 -35.5t36.5 -55t13 -71t-13.5 -71t-37 -55t-56 -35.5t-70.5 -12.5t-70.5 13t-56 36t-37 55t-13.5 70zM88 540q0 -33 11.5 -61t31.5 -47.5t47 -30.5t59 -11q66 0 107.5 40.5t41.5 109.5q0 33 -11 60.5
t-30.5 47.5t-47 31t-60.5 11t-60.5 -11t-47 -31t-30.5 -47.5t-11 -60.5zM166 471v139q0 8 -8 12.5t-8 7.5q0 5 7 5h83q86 0 86 -50q0 -46 -71 -48l59 -66q8 -9 15 -12.5t7 -8.5t-7 -5h-35q-14 0 -25 14l-58 72v-60q0 -7 8.5 -12t8.5 -8q0 -6 -8 -6h-63q-7 0 -7 6q0 3 8 8
t8 12zM211 604v-56h10q56 0 56 32q0 38 -42 38q-15 0 -19.5 -3t-4.5 -11z" />
    <glyph glyph-name="uni00AF" unicode="&#xaf;" horiz-adv-x="391" 
d="M58 592q-19 0 -27 14t0 28.5t27 14.5h275q18 0 26 -14.5t0 -28.5t-26 -14h-275z" />
    <glyph glyph-name="uni00B0" unicode="&#xb0;" horiz-adv-x="307" 
d="M75 614q-34 32 -34 78t33.5 78t79.5 32t79.5 -32t33.5 -78t-33.5 -78t-79.5 -32t-79 32zM104 745q-22 -22 -22 -53t21.5 -52.5t50.5 -21.5t50.5 21.5t21.5 52.5t-21.5 52.5t-50.5 21.5t-50 -21z" />
    <glyph glyph-name="uni00B1" unicode="&#xb1;" horiz-adv-x="503" 
d="M81 275q-18 -1 -26 13t0 28t26 13l154 -11l-11 157q-1 18 13 26t28 0t13 -26l-10 -157l154 11q18 1 26 -13t0 -28t-26 -13l-154 11l10 -157q1 -18 -13 -26t-28 0t-13 26l11 157zM80 0q-15 0 -21.5 11t0 22.5t21.5 11.5h343q15 0 21.5 -11t0 -22.5t-21.5 -11.5h-343z" />
    <glyph glyph-name="uni00B2" unicode="&#xb2;" horiz-adv-x="373" 
d="M55 393q-13 0 -16 10t9 20q94 77 134.5 135.5t40.5 125.5q0 73 -48 73q-42 0 -42 -40q0 -13 7.5 -28t7.5 -25q0 -18 -13 -30.5t-36 -12.5q-26 0 -40.5 16t-14.5 42q0 46 39.5 78.5t100.5 32.5q64 0 101 -32t37 -83q0 -49 -42.5 -101t-143.5 -123h100q26 0 36 18l25 44
q4 6 9 7.5t9 -2t4 -9.5v-102q0 -14 -17 -14h-247z" />
    <glyph glyph-name="uni00B3" unicode="&#xb3;" horiz-adv-x="367" 
d="M44 465q0 23 13 36t35 13q44 0 44 -48q0 -24 8 -36.5t32 -12.5q27 0 41.5 22t14.5 57q0 74 -79 84q-9 1 -12.5 6.5t-1 11.5t10.5 8q42 12 57.5 30.5t15.5 53.5q0 70 -52 70q-20 0 -32 -9.5t-12 -21.5q0 -7 10 -21t10 -28q0 -18 -12.5 -29.5t-33.5 -11.5q-25 0 -39 15.5
t-14 40.5q0 44 38 69.5t95 25.5q56 0 93 -25.5t37 -71.5q0 -33 -21.5 -56t-59.5 -32q43 -9 68.5 -35t25.5 -65q0 -54 -42 -87.5t-113 -33.5q-61 0 -93 23.5t-32 57.5z" />
    <glyph glyph-name="uni00B4" unicode="&#xb4;" horiz-adv-x="366" 
d="M138 547q-20 -8 -31.5 6.5t3.5 33.5l65 73q39 45 69 45q22 0 36.5 -15t14.5 -36q0 -37 -50 -59z" />
    <glyph glyph-name="uni00B5" unicode="&#xb5;" horiz-adv-x="623" 
d="M68 429l111 59q10 5 17 5q19 0 19 -22v-308q0 -57 20 -81.5t71 -24.5q56 0 111 35v261q0 14 -8.5 21t-19 11.5t-19 9.5t-8.5 16q0 14 16 21l111 57q8 5 17 5q18 0 18 -22v-355q0 -14 8.5 -20.5t19 -11t19 -9.5t8.5 -16q0 -13 -16 -20l-111 -49q-9 -4 -18 -4q-17 0 -17 23
v37q-74 -59 -169 -59q-59 0 -94 29q3 -18 8 -38t10.5 -38t9 -33t3.5 -23q0 -28 -15.5 -46.5t-42.5 -18.5t-43 18.5t-16 46.5q0 12 19 78q20 68 21 157q-1 4 -1 18v214q0 11 -5 17t-12.5 10t-15 7t-13.5 7q-9 6 -9 16t16 20z" />
    <glyph glyph-name="uni00B6" unicode="&#xb6;" horiz-adv-x="597" 
d="M29 509q0 45 17.5 81t47 61t68 38t81.5 13h281q16 0 19.5 -11t-8.5 -22l-34 -28q-18 -15 -18 -40v-782q0 -17 -17 -17h-39q-17 0 -17 17v811h-94v-811q0 -17 -17 -17h-39q-17 0 -17 17v497q-43 0 -82 13t-68 38t-46.5 61t-17.5 81z" />
    <glyph glyph-name="uni00B7" unicode="&#xb7;" horiz-adv-x="276" 
d="M85 238q-22 22 -22 53t21.5 53t53.5 22t53.5 -22t21.5 -53t-21.5 -53t-53.5 -22t-53 22z" />
    <glyph glyph-name="uni00B8" unicode="&#xb8;" horiz-adv-x="292" 
d="M16 -157q0 17 11.5 28.5t29.5 11.5q14 0 44 -13.5t51 -13.5q41 0 41 31q0 24 -32 24q-8 0 -24.5 -2t-24.5 -2q-34 0 -34 25q0 14 18 36l37 39h42l-44 -56q58 0 90.5 -20.5t32.5 -53.5q0 -37 -38 -62t-104 -25q-46 0 -71 15t-25 38z" />
    <glyph glyph-name="uni00B9" unicode="&#xb9;" horiz-adv-x="267" 
d="M45 704q-13 3 -12.5 12t11.5 15l115 53q11 4 18 0.5t7 -11.5v-314q0 -17 21.5 -31t21.5 -24q0 -12 -17 -12h-142q-17 0 -17 12q0 8 21.5 23t21.5 32v232z" />
    <glyph glyph-name="uni00BA" unicode="&#xba;" horiz-adv-x="513" 
d="M123 395q-54 53 -54 134t54 133t134 52t133.5 -52t53.5 -133t-53.5 -134t-133.5 -53t-134 53zM81 270q-7 -7 -7 -17t6.5 -17t16.5 -7h319q10 0 17 7t7 17t-7 16.5t-17 6.5h-319q-10 0 -16 -6zM169 511q0 -64 23.5 -96.5t64.5 -32.5q40 0 63.5 33t23.5 96v35
q0 64 -23.5 96.5t-63.5 32.5q-41 0 -64.5 -32.5t-23.5 -96.5v-35z" />
    <glyph glyph-name="uni00BB" unicode="&#xbb;" horiz-adv-x="572" 
d="M56 70l83 157q21 40 0 80l-83 157q-4 8 1 12t13 -2l199 -177q33 -30 0 -60l-199 -177q-8 -6 -13 -2t-1 12zM292 70l83 157q21 40 0 80l-83 157q-4 8 1 12t13 -2l199 -177q33 -30 0 -60l-199 -177q-8 -6 -13 -2t-1 12z" />
    <glyph glyph-name="uni00BC" unicode="&#xbc;" horiz-adv-x="689" 
d="M326 148q0 12 7 19l181 212q6 9 17 9h41q17 0 17 -17v-212h54q10 0 9 -13l-9 -32q-1 -9 -14 -9h-40v-39q0 -17 22 -30q21 -13 21 -24q0 -12 -17 -12h-133q-16 0 -16 12q0 10 22 23q21 14 21 31v39h-168q-15 0 -15 15v28zM53 587l115 53q6 3 12 3q13 0 13 -13v-315
q0 -17 22 -30q21 -13 21 -24q0 -12 -17 -12h-142q-17 0 -17 12q0 10 22 23q21 14 21 31v232l-49 13q-13 4 -12.5 13t11.5 14zM125 39l214 295l181 297q11 18 28 18t23 -13.5t-5 -32.5l-214 -297l-181 -295q-10 -16 -28 -18q-18 0 -23.5 13.5t5.5 32.5zM508 159v154
l-131 -154h131z" />
    <glyph glyph-name="uni00BD" unicode="&#xbd;" horiz-adv-x="732" 
d="M53 560q-13 4 -12.5 13t11.5 14l115 53q11 5 18 2t7 -12v-315q0 -17 21.5 -30.5t21.5 -23.5q0 -12 -17 -12h-142q-16 0 -16 12q0 9 21 23t21 31v232zM142 -7q-18 0 -23.5 13.5t5.5 32.5l215 295l180 297q10 18 27.5 18t23.5 -13.5t-5 -32.5l-214 -297l-181 -295
q-11 -17 -28 -18zM415 0q-12 0 -15.5 10t8.5 20q94 77 134.5 135.5t40.5 125.5q0 73 -48 73q-42 0 -42 -40q0 -12 7.5 -27.5t7.5 -25.5q0 -18 -13 -30t-36 -12q-26 0 -40.5 15.5t-14.5 42.5q0 45 39.5 77.5t100.5 32.5q64 0 101 -32t37 -83q0 -49 -42.5 -101t-143.5 -123
h100q25 0 36 19l26 43q3 6 8.5 7.5t9 -2t3.5 -9.5v-101q0 -15 -17 -15h-247z" />
    <glyph glyph-name="uni00BE" unicode="&#xbe;" horiz-adv-x="746" 
d="M384 148q0 12 6 19l181 212q6 9 18 9h40q17 0 17 -17v-212h54q10 0 9 -13l-9 -32q-1 -9 -14 -9h-40v-39q0 -17 22 -30q21 -13 21 -24q0 -12 -16 -12h-134q-16 0 -16 12q0 10 22 23q21 14 21 31v39h-168q-14 0 -14 15v28zM45 321q0 23 13 36t35 13q45 0 45 -48
q0 -25 7.5 -37t31.5 -12q28 0 42.5 22t14.5 57q0 73 -80 84q-13 1 -14 12t11 14q42 12 57.5 30.5t15.5 53.5q0 70 -51 70q-20 0 -32.5 -9.5t-12.5 -21.5q0 -3 3.5 -8.5t7 -12t7 -14t3.5 -14.5q0 -17 -13 -29t-33 -12q-26 0 -39.5 15.5t-13.5 40.5q0 45 37.5 70t94.5 25
t94 -26t37 -71q0 -33 -21.5 -56t-59.5 -32q43 -9 68 -35t25 -65q0 -54 -41.5 -87.5t-113.5 -33.5q-61 0 -93 23.5t-32 57.5zM182 39l215 295l180 297q11 18 28 18t23 -13.5t-5 -32.5l-214 -297l-181 -295q-10 -16 -28 -18q-18 0 -23.5 13.5t5.5 32.5zM565 159v154l-131 -154
h131z" />
    <glyph glyph-name="uni00BF" unicode="&#xbf;" horiz-adv-x="477" 
d="M48 114q0 47 27 82t65 56.5t76 40.5t65 46t27 62q0 32 -18 50t-49 18t-48 -21.5t-20.5 -47t-17 -47t-40.5 -21.5q-46 0 -46 48q0 50 49 88t127 38q75 0 118 -35t43 -94q0 -45 -27 -80t-65 -56.5t-76 -41.5t-65 -47.5t-27 -61.5q0 -30 17 -49t54 -19q33 0 53 16t28.5 38.5
t15.5 45.5t22 39t41 16q25 0 39 -13.5t14 -36.5q0 -53 -61 -96.5t-151 -43.5q-78 0 -124 35.5t-46 91.5zM196 586q-22 22 -22 53t21.5 52.5t52.5 21.5t52.5 -21.5t21.5 -52.5q0 -32 -21.5 -53.5t-52.5 -21.5t-52 22z" />
    <glyph glyph-name="uni00C0" unicode="&#xc0;" horiz-adv-x="679" 
d="M3 14q0 12 25 31t36 46l202 508q7 25 6 37q-2 12 -8 27.5t-6 21.5q0 17 19 17h74q26 0 35 -20l231 -588q6 -13 15.5 -25.5t18.5 -22.5t16 -18t7 -13q0 -15 -17 -15h-199q-18 0 -18 14q0 11 24 30q23 20 23 36q0 13 -7 26l-33 87h-278l-33 -87q-7 -15 -7 -32q0 -18 23 -33
q22 -16 22 -27q0 -14 -18 -14h-135q-18 0 -18 14zM428 243l-119 312l-120 -312h239zM188 811q0 18 12.5 29t34.5 11q23 0 48 -13l118 -61q22 -12 18 -27t-24 -15q-2 0 -3.5 0.5t-3.5 0.5l-138 22q-31 4 -46.5 19t-15.5 34z" />
    <glyph glyph-name="uni00C1" unicode="&#xc1;" horiz-adv-x="679" 
d="M3 14q0 12 25 31t36 46l202 508q7 25 6 37q-2 12 -8 27.5t-6 21.5q0 17 19 17h74q26 0 35 -20l231 -588q6 -13 15.5 -25.5t18.5 -22.5t16 -18t7 -13q0 -15 -17 -15h-199q-18 0 -18 14q0 11 24 30q23 20 23 36q0 13 -7 26l-33 87h-278l-33 -87q-7 -15 -7 -32q0 -18 23 -33
q22 -16 22 -27q0 -14 -18 -14h-135q-18 0 -18 14zM189 243h239l-119 312zM232 776l119 62q25 13 49 13q21 0 34 -11t13 -29q0 -19 -16 -34t-47 -19l-138 -22q-2 0 -3.5 -0.5t-3.5 -0.5q-20 0 -24.5 14.5t17.5 26.5z" />
    <glyph glyph-name="uni00C2" unicode="&#xc2;" horiz-adv-x="679" 
d="M3 14q0 12 25 31t36 46l202 508q7 25 6 37q-2 12 -8 27.5t-6 21.5q0 17 19 17h74q26 0 35 -20l231 -588q6 -13 15.5 -25.5t18.5 -22.5t16 -18t7 -13q0 -15 -17 -15h-199q-18 0 -18 14q0 11 24 30q23 20 23 36q0 13 -7 26l-33 87h-278l-33 -87q-7 -15 -7 -32q0 -18 23 -33
q22 -16 22 -27q0 -14 -18 -14h-135q-18 0 -18 14zM428 243l-119 312l-120 -312h239zM193 765l112 89q11 10 23 10t23 -10l112 -89q13 -10 10 -20t-15 -10q-2 0 -10 2l-120 44l-120 -44q-6 -2 -9 -2q-11 0 -14 10t8 20z" />
    <glyph glyph-name="uni00C3" unicode="&#xc3;" horiz-adv-x="679" 
d="M3 14q0 12 25 31t36 46l202 508q7 25 6 37q-2 12 -8 27.5t-6 21.5q0 17 19 17h74q26 0 35 -20l231 -588q6 -13 15.5 -25.5t18.5 -22.5t16 -18t7 -13q0 -15 -17 -15h-199q-18 0 -18 14q0 11 24 30q23 20 23 36q0 13 -7 26l-33 87h-278l-33 -87q-7 -15 -7 -32q0 -18 23 -33
q22 -16 22 -27q0 -14 -18 -14h-135q-18 0 -18 14zM428 243l-119 312l-120 -312h239zM172 787q42 77 100 77q14 0 32 -7l22.5 -10t27 -12.5t27 -12.5l22.5 -10l62 39q6 3 10 3q8 0 11.5 -6.5t-1.5 -15.5q-37 -78 -97 -78q-16 0 -33 7q-9 3 -23 9t-28.5 12.5t-28 13t-22.5 9.5
l-60 -37q-6 -3 -11 -3q-8 0 -11.5 6t1.5 16z" />
    <glyph glyph-name="uni00C4" unicode="&#xc4;" horiz-adv-x="679" 
d="M3 14q0 12 25 31t36 46l202 508q7 25 6 37q-2 12 -8 27.5t-6 21.5q0 17 19 17h74q26 0 35 -20l231 -588q6 -13 15.5 -25.5t18.5 -22.5t16 -18t7 -13q0 -15 -17 -15h-199q-18 0 -18 14q0 11 24 30q23 20 23 36q0 13 -7 26l-33 87h-278l-33 -87q-7 -15 -7 -32q0 -18 23 -33
q22 -16 22 -27q0 -14 -18 -14h-135q-18 0 -18 14zM428 243l-119 312l-120 -312h239zM368 812q0 28 19 47.5t47 19.5q27 0 46.5 -19.5t19.5 -47.5q0 -26 -19.5 -45.5t-46.5 -19.5q-28 0 -47 19.5t-19 45.5zM222 879q27 0 46.5 -19.5t19.5 -47.5q0 -26 -19.5 -45.5
t-46.5 -19.5t-46.5 19.5t-19.5 45.5q0 28 19.5 47.5t46.5 19.5z" />
    <glyph glyph-name="uni00C5" unicode="&#xc5;" horiz-adv-x="679" 
d="M3 14q0 12 25 31t36 46l202 508q7 25 6 37q-2 12 -8 27.5t-6 21.5q0 17 19 17h74q26 0 35 -20l231 -588q6 -13 15.5 -25.5t18.5 -22.5t16 -18t7 -13q0 -15 -17 -15h-199q-18 0 -18 14q0 11 24 30q23 20 23 36q0 13 -7 26l-33 87h-278l-33 -87q-7 -15 -7 -32q0 -18 23 -33
q22 -16 22 -27q0 -14 -18 -14h-135q-18 0 -18 14zM428 243l-119 312l-120 -312h239zM264 880q28 26 64 26q37 0 65 -26q26 -26 26 -61.5t-26 -61.5q-28 -26 -65 -26q-38 0 -64 26q-27 25 -27 61t27 62zM298 788q13 -13 30 -13q18 0 31 13q12 12 12 30t-12 31q-12 12 -31 12
q-18 0 -30 -12q-13 -13 -13 -31t13 -30z" />
    <glyph glyph-name="uni00C6" unicode="&#xc6;" horiz-adv-x="974" 
d="M65 96l287 505q12 30 4 41q-4 5 -11.5 11t-14 11.5t-11.5 11t-5 10.5q0 6 5.5 11t14.5 5h527q50 0 50 -47v-129q0 -11 -5 -16t-12 -5q-12 0 -20 12l-59 93q-27 42 -80 42h-163q-28 0 -28 -28v-224h118q36 0 56 32l38 60q8 15 19 15q16 0 16 -25v-215q0 -24 -16 -24
q-10 0 -19 15l-38 60q-20 32 -56 32h-118v-263q0 -20 8.5 -28.5t28.5 -8.5h150q31 0 50 9t34 34l58 94q9 13 20 13q7 0 12 -5t5 -16v-130q0 -49 -51 -49h-464q-20 0 -20 16q0 13 25 29q25 15 25 39v139h-220l-67 -120q-13 -31 -5 -42q4 -5 11 -10.5t13.5 -11.5t11 -12.5
t4.5 -12.5q0 -14 -18 -14h-139q-18 0 -18 14q0 7 6.5 13.5t16.5 15.5t22 22t22 31zM425 273v346l-192 -346h192z" />
    <glyph glyph-name="uni00C7" unicode="&#xc7;" horiz-adv-x="692" 
d="M52 353q0 160 95 260.5t247 100.5q106 0 179 -50t73 -125q0 -36 -19.5 -59t-53.5 -23q-33 0 -53 21t-20 58q0 8 1.5 25.5t1.5 26.5q0 33 -30 54.5t-87 21.5q-97 0 -158.5 -72t-61.5 -198q0 -132 70 -214t189 -82q54 0 98.5 18t71.5 35.5t38 17.5q15 0 15 -18
q0 -40 -50 -90q-74 -70 -196 -73l-29 -37q59 0 91.5 -20.5t32.5 -53.5q0 -37 -38 -62t-104 -25q-46 0 -71.5 15t-25.5 38q0 17 12 28.5t30 11.5q14 0 44 -13.5t51 -13.5q40 0 40 31q0 24 -32 24q-7 0 -23.5 -2t-24.5 -2q-34 0 -34 25q0 14 18 36l20 22q-139 12 -223 112
t-84 251z" />
    <glyph glyph-name="uni00C8" unicode="&#xc8;" horiz-adv-x="659" 
d="M81 702h465q50 0 50 -47v-129q0 -11 -5 -16t-12 -5q-12 0 -20 12l-59 93q-27 42 -80 42h-163q-28 0 -28 -28v-224h118q39 0 56 32l38 60q9 15 20 15q6 0 10.5 -6.5t4.5 -18.5v-215q0 -11 -4.5 -17.5t-10.5 -6.5q-11 0 -20 15l-38 60q-17 32 -56 32h-118v-263
q0 -20 8.5 -28.5t28.5 -8.5h151q30 0 49 9t35 34l57 94q9 14 20 14q7 0 12 -5.5t5 -16.5v-130q0 -49 -51 -49h-463q-9 0 -14.5 5t-5.5 11q0 9 8 15.5t17.5 13.5t17.5 15.5t8 23.5v534q0 15 -8 23.5t-17.5 15t-17.5 13t-8 16.5q0 6 5.5 11t14.5 5zM266 851q23 0 48 -13
l118 -61q22 -12 18 -27t-24 -15q-2 0 -3.5 0.5t-3.5 0.5l-138 22q-31 4 -46.5 19t-15.5 34q0 18 12.5 29t34.5 11z" />
    <glyph glyph-name="uni00C9" unicode="&#xc9;" horiz-adv-x="659" 
d="M81 702h465q50 0 50 -47v-129q0 -11 -5 -16t-12 -5q-12 0 -20 12l-59 93q-27 42 -80 42h-163q-28 0 -28 -28v-224h118q39 0 56 32l38 60q9 15 20 15q6 0 10.5 -6.5t4.5 -18.5v-215q0 -11 -4.5 -17.5t-10.5 -6.5q-11 0 -20 15l-38 60q-17 32 -56 32h-118v-263
q0 -20 8.5 -28.5t28.5 -8.5h151q30 0 49 9t35 34l57 94q9 14 20 14q7 0 12 -5.5t5 -16.5v-130q0 -49 -51 -49h-463q-9 0 -14.5 5t-5.5 11q0 9 8 15.5t17.5 13.5t17.5 15.5t8 23.5v534q0 15 -8 23.5t-17.5 15t-17.5 13t-8 16.5q0 6 5.5 11t14.5 5zM263 776l119 62
q25 13 49 13q21 0 34 -11t13 -29q0 -19 -16 -34t-47 -19l-138 -22q-2 0 -3.5 -0.5t-3.5 -0.5q-20 0 -24.5 14.5t17.5 26.5z" />
    <glyph glyph-name="uni00CA" unicode="&#xca;" horiz-adv-x="659" 
d="M61 16q0 9 8 15.5t17.5 13.5t17.5 15.5t8 23.5v534q0 15 -8 23.5t-17.5 15t-17.5 13t-8 16.5q0 6 5.5 11t14.5 5h465q50 0 50 -47v-129q0 -11 -5 -16t-12 -5q-12 0 -20 12l-59 93q-27 42 -80 42h-163q-28 0 -28 -28v-224h118q39 0 56 32l38 60q9 15 20 15q6 0 10.5 -6.5
t4.5 -18.5v-215q0 -11 -4.5 -17.5t-10.5 -6.5q-11 0 -20 15l-38 60q-17 32 -56 32h-118v-263q0 -20 8.5 -28.5t28.5 -8.5h151q30 0 49 9t35 34l57 94q9 14 20 14q7 0 12 -5.5t5 -16.5v-130q0 -49 -51 -49h-463q-9 0 -14.5 5t-5.5 11zM224 765l112 89q11 10 23 10t23 -10
l112 -89q13 -10 10 -20t-15 -10q-2 0 -10 2l-120 44l-120 -44q-6 -2 -9 -2q-11 0 -14 10t8 20z" />
    <glyph glyph-name="uni00CB" unicode="&#xcb;" horiz-adv-x="659" 
d="M61 16q0 9 8 15.5t17.5 13.5t17.5 15.5t8 23.5v534q0 15 -8 23.5t-17.5 15t-17.5 13t-8 16.5q0 6 5.5 11t14.5 5h465q50 0 50 -47v-129q0 -11 -5 -16t-12 -5q-12 0 -20 12l-59 93q-27 42 -80 42h-163q-28 0 -28 -28v-224h118q39 0 56 32l38 60q9 15 20 15q6 0 10.5 -6.5
t4.5 -18.5v-215q0 -11 -4.5 -17.5t-10.5 -6.5q-11 0 -20 15l-38 60q-17 32 -56 32h-118v-263q0 -20 8.5 -28.5t28.5 -8.5h151q30 0 49 9t35 34l57 94q9 14 20 14q7 0 12 -5.5t5 -16.5v-130q0 -49 -51 -49h-463q-9 0 -14.5 5t-5.5 11zM399 812q0 28 19 47.5t47 19.5
q27 0 46.5 -19.5t19.5 -47.5q0 -26 -19.5 -45.5t-46.5 -19.5t-46.5 19.5t-19.5 45.5zM253 879q27 0 46.5 -19.5t19.5 -47.5q0 -26 -19.5 -45.5t-46.5 -19.5t-46.5 19.5t-19.5 45.5q0 28 19.5 47.5t46.5 19.5z" />
    <glyph glyph-name="uni00CC" unicode="&#xcc;" horiz-adv-x="340" 
d="M30 811q0 18 13 29t34 11q23 0 48 -13l118 -61q23 -13 17.5 -29t-29.5 -12l-139 22q-31 4 -46.5 19t-15.5 34zM61 16q0 13 25.5 28.5t25.5 39.5v534q0 19 -13 29t-25.5 18t-12.5 21q0 6 5.5 11t14.5 5h178q20 0 20 -16q0 -12 -8 -19.5t-17 -11.5t-17 -13.5t-8 -23.5v-534
q0 -19 12.5 -29.5t25 -18.5t12.5 -20q0 -16 -20 -16h-178q-9 0 -14.5 5t-5.5 11z" />
    <glyph glyph-name="uni00CD" unicode="&#xcd;" horiz-adv-x="340" 
d="M88 736q-24 -4 -30 11.5t17 28.5l119 62q25 13 48 13q21 0 34 -11t13 -29q0 -19 -15.5 -34t-46.5 -19zM61 16q0 13 25.5 28.5t25.5 39.5v534q0 19 -13 29t-25.5 18t-12.5 21q0 6 5.5 11t14.5 5h178q20 0 20 -16q0 -12 -8 -19.5t-17 -11.5t-17 -13.5t-8 -23.5v-534
q0 -19 12.5 -29.5t25 -18.5t12.5 -20q0 -16 -20 -16h-178q-9 0 -14.5 5t-5.5 11z" />
    <glyph glyph-name="uni00CE" unicode="&#xce;" horiz-adv-x="340" 
d="M50 737q-16 -6 -22.5 5t7.5 23l112 89q22 19 45 0l113 -89q14 -12 7.5 -23t-22.5 -5l-121 44zM61 16q0 13 25.5 28.5t25.5 39.5v534q0 19 -13 29t-25.5 18t-12.5 21q0 6 5.5 11t14.5 5h178q20 0 20 -16q0 -12 -8 -19.5t-17 -11.5t-17 -13.5t-8 -23.5v-534
q0 -19 12.5 -29.5t25 -18.5t12.5 -20q0 -16 -20 -16h-178q-9 0 -14.5 5t-5.5 11z" />
    <glyph glyph-name="uni00CF" unicode="&#xcf;" horiz-adv-x="340" 
d="M-2 812q0 28 19.5 47.5t46.5 19.5q28 0 47 -19.5t19 -47.5q0 -26 -19 -45.5t-47 -19.5q-27 0 -46.5 19.5t-19.5 45.5zM61 16q0 13 25.5 28.5t25.5 39.5v534q0 19 -13 29t-25.5 18t-12.5 21q0 6 5.5 11t14.5 5h178q20 0 20 -16q0 -12 -8 -19.5t-17 -11.5t-17 -13.5
t-8 -23.5v-534q0 -19 12.5 -29.5t25 -18.5t12.5 -20q0 -16 -20 -16h-178q-9 0 -14.5 5t-5.5 11zM210 812q0 28 19.5 47.5t47.5 19.5q26 0 45.5 -19.5t19.5 -47.5q0 -26 -19.5 -45.5t-45.5 -19.5q-28 0 -47.5 19.5t-19.5 45.5z" />
    <glyph glyph-name="uni00D0" unicode="&#xd0;" horiz-adv-x="749" 
d="M49 405l74 -4v217q0 14 -8 22.5t-17 15.5t-17 13.5t-8 16.5q0 16 20 16h226q90 0 160 -23.5t118 -68.5t73.5 -109.5t25.5 -147.5q0 -84 -25.5 -149.5t-73.5 -110.5t-117.5 -69t-158.5 -24h-228q-20 0 -20 16q0 13 25 29q25 15 25 39v275l-74 -5h-2q-14 0 -21 8t-7 17.5
t7 17.5t21 8h2zM241 400l140 5q16 0 24 -8t8 -17.5t-8 -17.5t-24 -8l-140 6v-284q0 -28 28 -28h31q134 0 199.5 73t65.5 230q0 145 -67.5 224t-199.5 79h-29q-28 0 -28 -28v-226z" />
    <glyph glyph-name="uni00D1" unicode="&#xd1;" horiz-adv-x="771" 
d="M72 702h111q34 0 53 -24l375 -465v395q0 15 -8 25.5t-17.5 19t-17.5 16t-8 17.5q0 16 19 16h115q18 0 18 -14q0 -12 -20 -35t-20 -45v-589q0 -14 -8.5 -22t-20.5 -8q-8 0 -16.5 4t-15.5 13l-437 542v-454q0 -15 8 -26t18 -19t18 -16t8 -17q0 -16 -19 -16h-116
q-18 0 -18 16q0 11 20 33t20 45v495q0 22 -32 52q-33 29 -33 44q0 17 24 17zM263 787q41 77 100 77q13 0 31 -7q9 -4 22 -10t27 -12.5t27.5 -12.5t23.5 -10l61 39q6 3 11 3q8 0 11.5 -6.5t-1.5 -15.5q-37 -78 -97 -78q-16 0 -33 7q-9 3 -23 9t-29 12.5t-28.5 13t-22.5 9.5
l-60 -37q-6 -3 -10 -3q-8 0 -11.5 6t1.5 16z" />
    <glyph glyph-name="uni00D2" unicode="&#xd2;" horiz-adv-x="796" 
d="M147 95q-96 106 -96 256t96 256.5t251 106.5q156 0 251.5 -106.5t95.5 -256.5t-95.5 -256.5t-251.5 -106.5q-155 0 -251 107zM194 330q0 -139 53 -215t151 -76t151.5 76.5t53.5 214.5v44q0 137 -53.5 213t-151.5 76t-151 -76t-53 -213v-44zM258 811q0 18 13 29t34 11
q23 0 48 -13l118 -61q23 -13 17.5 -29t-29.5 -12l-139 22q-31 4 -46.5 19t-15.5 34z" />
    <glyph glyph-name="uni00D3" unicode="&#xd3;" horiz-adv-x="796" 
d="M147 95q-96 106 -96 256t96 256.5t251 106.5q156 0 251.5 -106.5t95.5 -256.5t-95.5 -256.5t-251.5 -106.5q-155 0 -251 107zM194 330q0 -139 53 -215t151 -76t151.5 76.5t53.5 214.5v44q0 137 -53.5 213t-151.5 76t-151 -76t-53 -213v-44zM316 736q-24 -4 -30 11.5
t17 28.5l119 62q25 13 48 13q21 0 34 -11t13 -29q0 -19 -15.5 -34t-46.5 -19z" />
    <glyph glyph-name="uni00D4" unicode="&#xd4;" horiz-adv-x="796" 
d="M147 95q-96 106 -96 256t96 256.5t251 106.5q156 0 251.5 -106.5t95.5 -256.5t-95.5 -256.5t-251.5 -106.5q-155 0 -251 107zM194 330q0 -139 53 -215t151 -76t151.5 76.5t53.5 214.5v44q0 137 -53.5 213t-151.5 76t-151 -76t-53 -213v-44zM279 737q-16 -6 -22.5 5
t7.5 23l111 89q22 19 46 0l112 -89q15 -12 8.5 -23t-22.5 -5l-121 44z" />
    <glyph glyph-name="uni00D5" unicode="&#xd5;" horiz-adv-x="796" 
d="M147 95q-96 106 -96 256t96 256.5t251 106.5q156 0 251.5 -106.5t95.5 -256.5t-95.5 -256.5t-251.5 -106.5q-155 0 -251 107zM194 330q0 -139 53 -215t151 -76t151.5 76.5t53.5 214.5v44q0 137 -53.5 213t-151.5 76t-151 -76t-53 -213v-44zM243 787q40 77 99 77
q13 0 32 -7.5t49.5 -22t50.5 -22.5l61 39q11 7 19 0t1 -19q-37 -78 -97 -78q-15 0 -33.5 6.5t-51.5 22t-50 22.5l-60 -37q-11 -7 -19 -0.5t-1 19.5z" />
    <glyph glyph-name="uni00D6" unicode="&#xd6;" horiz-adv-x="796" 
d="M147 95q-96 106 -96 256t96 256.5t251 106.5q156 0 251.5 -106.5t95.5 -256.5t-95.5 -256.5t-251.5 -106.5q-155 0 -251 107zM194 330q0 -139 53 -215t151 -76t151.5 76.5t53.5 214.5v44q0 137 -53.5 213t-151.5 76t-151 -76t-53 -213v-44zM226 812q0 28 19.5 47.5
t46.5 19.5q28 0 47 -19.5t19 -47.5q0 -26 -19 -45.5t-47 -19.5q-27 0 -46.5 19.5t-19.5 45.5zM438 812q0 28 19.5 47.5t47.5 19.5q26 0 45.5 -19.5t19.5 -47.5q0 -26 -19.5 -45.5t-45.5 -19.5q-28 0 -47.5 19.5t-19.5 45.5z" />
    <glyph glyph-name="uni00D7" unicode="&#xd7;" horiz-adv-x="464" 
d="M87 127q-16 5 -19.5 19t8.5 28l134 118l-131 115q-14 12 -9 28t19.5 19.5t28.5 -8.5l114 -132l118 134q12 14 27.5 9t19 -19.5t-8.5 -27.5l-133 -118l132 -115q14 -13 8.5 -29t-20 -19.5t-28.5 9.5l-115 131l-118 -133q-12 -14 -27 -9z" />
    <glyph glyph-name="uni00D8" unicode="&#xd8;" horiz-adv-x="796" 
d="M51 351q0 150 96 256.5t251 106.5q112 0 197 -59l27 47q16 29 42 20q22 -6 19 -28q-2 -10 -9 -19l-40 -52q53 -51 82 -122t29 -150q0 -150 -95.5 -256.5t-251.5 -106.5q-94 0 -170 43l-29 -49q-11 -19 -30.5 -19t-26 15t6.5 36l35 46q-63 50 -98 126.5t-35 164.5z
M194 330q0 -127 45 -202l160 226l149 235q-54 74 -150 74q-98 0 -151 -76t-53 -213v-44zM269 89q50 -50 129 -50q98 0 151.5 76.5t53.5 214.5v44q0 99 -29 168l-161 -224z" />
    <glyph glyph-name="uni00D9" unicode="&#xd9;" horiz-adv-x="737" 
d="M45 686q0 16 20 16h182q20 0 20 -16q0 -13 -25 -28q-25 -16 -25 -40v-365q0 -97 48.5 -145.5t139.5 -48.5q90 0 133.5 47.5t43.5 150.5v344q0 26 -26 47q-26 20 -26 38q0 16 22 16h113q19 0 19 -15q0 -9 -20 -34q-21 -24 -21 -51v-349q0 -265 -261 -265q-66 0 -119 17.5
t-90.5 50t-57.5 79t-20 103.5v380q0 14 -8 22.5t-17 15.5t-17 13.5t-8 16.5zM311 851q24 0 49 -13l117 -61q11 -6 15 -13.5t3 -13.5t-7 -10.5t-16 -4.5q-2 0 -3.5 0.5t-3.5 0.5l-138 22q-31 4 -47 19t-16 34q0 18 13 29t34 11z" />
    <glyph glyph-name="uni00DA" unicode="&#xda;" horiz-adv-x="737" 
d="M45 686q0 16 20 16h182q20 0 20 -16q0 -13 -25 -28q-25 -16 -25 -40v-365q0 -97 48.5 -145.5t139.5 -48.5q90 0 133.5 47.5t43.5 150.5v344q0 26 -26 47q-26 20 -26 38q0 16 22 16h113q19 0 19 -15q0 -9 -20 -34q-21 -24 -21 -51v-349q0 -265 -261 -265q-66 0 -119 17.5
t-90.5 50t-57.5 79t-20 103.5v380q0 14 -8 22.5t-17 15.5t-17 13.5t-8 16.5zM309 776l119 62q25 13 48 13q21 0 34 -11t13 -29q0 -19 -15.5 -34t-46.5 -19l-139 -22q-2 0 -3.5 -0.5t-3.5 -0.5q-20 0 -24 14.5t18 26.5z" />
    <glyph glyph-name="uni00DB" unicode="&#xdb;" horiz-adv-x="737" 
d="M45 686q0 16 20 16h182q20 0 20 -16q0 -13 -25 -28q-25 -16 -25 -40v-365q0 -97 48.5 -145.5t139.5 -48.5q90 0 133.5 47.5t43.5 150.5v344q0 26 -26 47q-26 20 -26 38q0 16 22 16h113q19 0 19 -15q0 -9 -20 -34q-21 -24 -21 -51v-349q0 -265 -261 -265q-66 0 -119 17.5
t-90.5 50t-57.5 79t-20 103.5v380q0 14 -8 22.5t-17 15.5t-17 13.5t-8 16.5zM270 765l112 89q10 10 22 10t23 -10l113 -89q12 -10 8.5 -20t-14.5 -10q-3 0 -9 2l-121 44l-119 -44q-6 -2 -9 -2q-11 0 -14.5 10t8.5 20z" />
    <glyph glyph-name="uni00DC" unicode="&#xdc;" horiz-adv-x="737" 
d="M45 686q0 16 20 16h182q20 0 20 -16q0 -13 -25 -28q-25 -16 -25 -40v-365q0 -97 48.5 -145.5t139.5 -48.5q90 0 133.5 47.5t43.5 150.5v344q0 26 -26 47q-26 20 -26 38q0 16 22 16h113q19 0 19 -15q0 -9 -20 -34q-21 -24 -21 -51v-349q0 -265 -261 -265q-66 0 -119 17.5
t-90.5 50t-57.5 79t-20 103.5v380q0 14 -8 22.5t-17 15.5t-17 13.5t-8 16.5zM298 879q28 0 47 -19.5t19 -47.5q0 -26 -19 -45.5t-47 -19.5q-27 0 -46.5 19.5t-19.5 45.5q0 28 19.5 47.5t46.5 19.5zM511 879q26 0 45.5 -19.5t19.5 -47.5q0 -26 -19.5 -45.5t-45.5 -19.5
q-28 0 -47.5 19.5t-19.5 45.5q0 28 19.5 47.5t47.5 19.5z" />
    <glyph glyph-name="uni00DD" unicode="&#xdd;" horiz-adv-x="634" 
d="M6 687q0 15 18 15h195q18 0 18 -14q0 -9 -22 -28t-22 -33q0 -11 11 -28l141 -198l140 211q9 14 9 25q0 6 -5 13.5t-10.5 14.5t-10.5 13t-5 10q0 14 17 14h130q18 0 18 -13q0 -5 -7.5 -11.5t-19 -16t-25 -22.5t-25.5 -31l-170 -250v-274q0 -23 25 -38t25 -30
q0 -16 -20 -16h-178q-20 0 -20 16q0 9 8 15t17.5 13t17.5 16t8 24v250l-187 262q-8 11 -16.5 22t-18.5 21q-19 20 -27.5 30t-8.5 18zM251 776l118 62q25 13 49 13q21 0 34 -11t13 -29q0 -19 -16 -34t-47 -19l-138 -22q-2 0 -3.5 -0.5t-3.5 -0.5q-20 0 -24 14.5t18 26.5z" />
    <glyph glyph-name="uni00DE" unicode="&#xde;" horiz-adv-x="656" 
d="M81 702h178q20 0 20 -16q0 -13 -8 -19.5t-17 -12t-17 -13t-8 -23.5v-31h57q163 0 245 -57.5t82 -156.5q0 -56 -23 -96.5t-60.5 -67t-85 -39t-97.5 -12.5q-28 0 -57.5 3t-60.5 10v-87q0 -15 8 -23.5t17 -15.5t17 -13.5t8 -15.5q0 -16 -20 -16h-178q-9 0 -14.5 5t-5.5 11
q0 12 26 29q25 15 25 39v534q0 15 -8 23.5t-17.5 15t-17.5 13t-8 16.5q0 6 5.5 11t14.5 5zM229 219q53 -11 89 -11q78 0 124 37t46 115q0 179 -231 179q-28 0 -28 -28v-292z" />
    <glyph glyph-name="uni00DF" unicode="&#xdf;" horiz-adv-x="596" 
d="M40 17q0 11 12.5 18.5t25 18t12.5 29.5v329q0 137 62.5 219.5t188.5 82.5q75 0 117 -29.5t42 -77.5q0 -30 -18 -51.5t-39.5 -31.5t-39.5 -28.5t-18 -42.5q0 -25 17.5 -49t42.5 -47t49.5 -49.5t42 -67t17.5 -88.5q0 -67 -39 -115.5t-121 -48.5q-46 0 -72 15t-26 36
q0 19 18 19q4 0 22.5 -4.5t33.5 -4.5q33 0 51 23.5t18 67.5q0 36 -14 64.5t-34 47.5t-40.5 38t-34.5 45t-14 58q0 34 14.5 65t32.5 51t32.5 45.5t14.5 49.5q0 30 -17.5 47t-47.5 17q-126 0 -126 -225v-360q0 -15 7.5 -24.5t16.5 -13.5t16.5 -11t7.5 -17q0 -17 -19 -17h-173
q-21 0 -21 17z" />
    <glyph glyph-name="uni00E0" unicode="&#xe0;" horiz-adv-x="520" 
d="M46 101q0 72 69 119t211 59v94q0 78 -61 78q-27 0 -44.5 -11.5t-30 -28t-22.5 -35t-22 -31.5q-20 -20 -44 -20q-21 0 -37 14.5t-16 37.5q0 22 15.5 43t44 37.5t69 26.5t89.5 10q87 0 126.5 -33.5t39.5 -102.5v-285q0 -24 17 -24q4 0 11 1.5t11 1.5q11 0 11 -14
q0 -19 -22.5 -34.5t-55.5 -15.5q-65 0 -76 74q-57 -74 -156 -74q-60 0 -93.5 31t-33.5 82zM232 65q48 0 94 40v132q-168 -21 -168 -110q0 -29 19 -45.5t55 -16.5zM153 663q0 22 14 36.5t37 14.5q30 0 69 -44l65 -74q13 -16 6.5 -29t-21.5 -13q-6 0 -14 3l-106 47
q-50 21 -50 59z" />
    <glyph glyph-name="uni00E1" unicode="&#xe1;" horiz-adv-x="520" 
d="M46 101q0 72 69 119t211 59v94q0 78 -61 78q-27 0 -44.5 -11.5t-30 -28t-22.5 -35t-22 -31.5q-20 -20 -44 -20q-21 0 -37 14.5t-16 37.5q0 22 15.5 43t44 37.5t69 26.5t89.5 10q87 0 126.5 -33.5t39.5 -102.5v-285q0 -24 17 -24q4 0 11 1.5t11 1.5q11 0 11 -14
q0 -19 -22.5 -34.5t-55.5 -15.5q-65 0 -76 74q-57 -74 -156 -74q-60 0 -93.5 31t-33.5 82zM158 127q0 -29 19 -45.5t55 -16.5q48 0 94 40v132q-168 -21 -168 -110zM177 596l65 74q39 44 69 44q22 0 36.5 -15t14.5 -36q0 -38 -50 -59l-107 -47q-7 -3 -13 -3q-15 0 -21.5 13
t6.5 29z" />
    <glyph glyph-name="uni00E2" unicode="&#xe2;" horiz-adv-x="520" 
d="M46 101q0 72 69 119t211 59v94q0 78 -61 78q-27 0 -44.5 -11.5t-30 -28t-22.5 -35t-22 -31.5q-20 -20 -44 -20q-21 0 -37 14.5t-16 37.5q0 22 15.5 43t44 37.5t69 26.5t89.5 10q87 0 126.5 -33.5t39.5 -102.5v-285q0 -24 17 -24q4 0 11 1.5t11 1.5q11 0 11 -14
q0 -19 -22.5 -34.5t-55.5 -15.5q-65 0 -76 74q-57 -74 -156 -74q-60 0 -93.5 31t-33.5 82zM158 127q0 -29 19 -45.5t55 -16.5q48 0 94 40v132q-168 -21 -168 -110zM131 591l81 92q28 31 47 31q20 0 47 -31l81 -92q9 -10 9 -20q0 -16 -15 -16q-8 0 -17 6l-105 63l-104 -63
q-9 -6 -17 -6q-16 0 -16 16q0 10 9 20z" />
    <glyph glyph-name="uni00E3" unicode="&#xe3;" horiz-adv-x="520" 
d="M46 101q0 72 69 119t211 59v94q0 78 -61 78q-27 0 -44.5 -11.5t-30 -28t-22.5 -35t-22 -31.5q-20 -20 -44 -20q-21 0 -37 14.5t-16 37.5q0 22 15.5 43t44 37.5t69 26.5t89.5 10q87 0 126.5 -33.5t39.5 -102.5v-285q0 -24 17 -24q4 0 11 1.5t11 1.5q11 0 11 -14
q0 -19 -22.5 -34.5t-55.5 -15.5q-65 0 -76 74q-57 -74 -156 -74q-60 0 -93.5 31t-33.5 82zM232 65q48 0 94 40v132q-168 -21 -168 -110q0 -29 19 -45.5t55 -16.5zM96 614q37 88 102 88q21 0 39 -7q20 -8 51 -22.5t56 -23.5l61 40q5 4 11 4q5 0 8 -5.5t-1 -13.5
q-34 -88 -104 -88q-20 0 -37 7q-18 7 -47.5 21t-60.5 24l-60 -40q-8 -4 -11 -4q-6 0 -8.5 5.5t1.5 14.5z" />
    <glyph glyph-name="uni00E4" unicode="&#xe4;" horiz-adv-x="520" 
d="M46 101q0 72 69 119t211 59v94q0 78 -61 78q-27 0 -44.5 -11.5t-30 -28t-22.5 -35t-22 -31.5q-20 -20 -44 -20q-21 0 -37 14.5t-16 37.5q0 22 15.5 43t44 37.5t69 26.5t89.5 10q87 0 126.5 -33.5t39.5 -102.5v-285q0 -24 17 -24q4 0 11 1.5t11 1.5q11 0 11 -14
q0 -19 -22.5 -34.5t-55.5 -15.5q-65 0 -76 74q-57 -74 -156 -74q-60 0 -93.5 31t-33.5 82zM232 65q48 0 94 40v132q-168 -21 -168 -110q0 -29 19 -45.5t55 -16.5zM311 694q20 20 49 20q14 0 26.5 -4.5t23.5 -15.5q20 -20 20 -49t-20 -49q-21 -21 -50 -21q-28 0 -49 21
q-21 20 -21 49t21 49zM108 694q20 20 49 20q14 0 26.5 -4.5t23.5 -15.5q20 -20 20 -49t-20 -49q-21 -21 -50 -21q-28 0 -49 21q-20 20 -20 49t20 49z" />
    <glyph glyph-name="uni00E5" unicode="&#xe5;" horiz-adv-x="520" 
d="M326 279v94q0 78 -61 78q-27 0 -44.5 -11.5t-30 -28t-22.5 -35t-22 -31.5q-20 -20 -44 -20q-21 0 -37 14.5t-16 37.5q0 22 15.5 43t44 37.5t69 26.5t89.5 10q87 0 126.5 -33.5t39.5 -102.5v-285q0 -24 17 -24q4 0 11 1.5t11 1.5q11 0 11 -14q0 -19 -22.5 -34.5
t-55.5 -15.5q-65 0 -76 74q-57 -74 -156 -74q-60 0 -93.5 31t-33.5 82q0 72 69 119t211 59zM199 690q12 12 27.5 18t31.5 6q17 0 32.5 -6t28.5 -18q26 -24 26 -58t-26 -58q-13 -12 -28.5 -18t-32.5 -6q-16 0 -31.5 6t-27.5 18q-25 24 -25 58t25 58zM158 127q0 -29 19 -45.5
t55 -16.5q48 0 94 40v132q-168 -21 -168 -110zM227 600q13 -13 31 -13q19 0 32 13q12 13 12 32t-12 32t-32 13q-19 0 -31 -13t-12 -32t12 -32z" />
    <glyph glyph-name="uni00E6" unicode="&#xe6;" horiz-adv-x="809" 
d="M44 103q0 74 72.5 128t213.5 76v61q0 83 -62 83q-33 0 -56 -19.5t-34 -43.5t-29.5 -43.5t-42.5 -19.5t-38.5 14t-14.5 38q0 44 59 80.5t158 36.5q100 0 142 -64q64 64 156 64q89 0 141 -51.5t52 -122.5q0 -29 -12 -41.5t-37 -12.5h-285q3 -89 50.5 -139t125.5 -50
q33 0 60.5 10t42 21.5t28 21.5t21.5 10q20 0 8 -28q-21 -56 -73 -90t-125 -34q-67 0 -118 27t-78 73q-86 -100 -192 -100q-62 0 -97.5 32t-35.5 83zM156 134q0 -29 20 -48.5t58 -19.5q64 0 117 59q-20 57 -20 137q-91 -17 -133 -51.5t-42 -76.5zM428 312h196q29 0 29 27
q0 47 -24.5 78t-75.5 31q-52 0 -86 -35.5t-39 -100.5z" />
    <glyph glyph-name="uni00E7" unicode="&#xe7;" horiz-adv-x="512" 
d="M44 234q0 115 68 187.5t175 72.5q77 0 131 -37t54 -94q0 -32 -16.5 -52.5t-47.5 -20.5q-30 0 -47.5 19t-17.5 51q0 8 1.5 23t1.5 20q0 45 -64 45t-103 -43.5t-39 -126.5q0 -91 48 -144t134 -53q39 0 67 12.5t43 24.5t23 12q12 0 12 -14q0 -42 -50.5 -83t-125.5 -45
l-29 -37q59 0 91.5 -20.5t32.5 -53.5q0 -37 -38 -62t-104 -25q-46 0 -71.5 15t-25.5 38q0 17 12 28.5t30 11.5q14 0 43.5 -13.5t50.5 -13.5q41 0 41 31q0 24 -32 24q-7 0 -23.5 -2t-24.5 -2q-34 0 -34 25q0 14 18 36l20 22q-90 10 -147 75.5t-57 168.5z" />
    <glyph glyph-name="uni00E8" unicode="&#xe8;" horiz-adv-x="526" 
d="M44 241q0 112 65.5 182.5t168.5 70.5q90 0 144.5 -51.5t54.5 -121.5q0 -31 -11.5 -43.5t-35.5 -12.5h-286q2 -89 48.5 -138.5t124.5 -49.5q33 0 61 10t43 21.5t29 21.5t22 10q19 0 8 -28q-21 -56 -73 -90t-125 -34q-103 0 -170.5 69t-67.5 184zM145 312h196q29 0 29 27
q0 47 -24.5 78t-75.5 31q-53 0 -87 -35.5t-38 -100.5zM165 663q0 21 14.5 36t36.5 15q31 0 69 -44l65 -74q16 -18 4 -33t-32 -6l-107 47q-50 22 -50 59z" />
    <glyph glyph-name="uni00E9" unicode="&#xe9;" horiz-adv-x="526" 
d="M44 241q0 112 65.5 182.5t168.5 70.5q90 0 144.5 -51.5t54.5 -121.5q0 -31 -11.5 -43.5t-35.5 -12.5h-286q2 -89 48.5 -138.5t124.5 -49.5q33 0 61 10t43 21.5t29 21.5t22 10q19 0 8 -28q-21 -56 -73 -90t-125 -34q-103 0 -170.5 69t-67.5 184zM145 312h196q29 0 29 27
q0 47 -24.5 78t-75.5 31q-53 0 -87 -35.5t-38 -100.5zM218 557q-20 -9 -32 6t4 33l64 74q39 44 69 44q23 0 37.5 -15t14.5 -36q0 -37 -51 -59z" />
    <glyph glyph-name="uni00EA" unicode="&#xea;" horiz-adv-x="526" 
d="M44 241q0 112 65.5 182.5t168.5 70.5q90 0 144.5 -51.5t54.5 -121.5q0 -31 -11.5 -43.5t-35.5 -12.5h-286q2 -89 48.5 -138.5t124.5 -49.5q33 0 61 10t43 21.5t29 21.5t22 10q19 0 8 -28q-21 -56 -73 -90t-125 -34q-103 0 -170.5 69t-67.5 184zM134 571q0 9 9 20l82 92
q28 31 47 31t47 -31l81 -92q9 -11 9 -20q0 -11 -10 -14.5t-23 4.5l-104 63l-105 -63q-13 -8 -23 -4.5t-10 14.5zM145 312h196q29 0 29 27q0 47 -24.5 78t-75.5 31q-53 0 -87 -35.5t-38 -100.5z" />
    <glyph glyph-name="uni00EB" unicode="&#xeb;" horiz-adv-x="526" 
d="M44 241q0 112 65.5 182.5t168.5 70.5q90 0 144.5 -51.5t54.5 -121.5q0 -31 -11.5 -43.5t-35.5 -12.5h-286q2 -89 48.5 -138.5t124.5 -49.5q33 0 61 10t43 21.5t29 21.5t22 10q19 0 8 -28q-21 -56 -73 -90t-125 -34q-103 0 -170.5 69t-67.5 184zM121 596q-21 20 -21 49
t20.5 49t49.5 20t49.5 -20t20.5 -49t-20.5 -49.5t-49.5 -20.5t-49 21zM145 312h196q29 0 29 27q0 47 -24.5 78t-75.5 31q-53 0 -87 -35.5t-38 -100.5zM324 596q-21 20 -21 49t20.5 49t49.5 20t49 -20t20 -49t-20 -49.5t-49 -20.5t-49 21z" />
    <glyph glyph-name="uni00EC" unicode="&#xec;" horiz-adv-x="291" 
d="M37 663q0 22 14 36.5t37 14.5q30 0 69 -44l65 -74q15 -19 3.5 -33.5t-31.5 -5.5l-107 47q-50 21 -50 59zM41 414q0 10 16 20l108 54q14 9 26 4t12 -22v-402q0 -14 22.5 -26t22.5 -25q0 -7 -5.5 -12t-14.5 -5h-158q-9 0 -14.5 5t-5.5 12q0 12 23 24.5t23 26.5v290
q0 20 -27.5 31t-27.5 25z" />
    <glyph glyph-name="uni00ED" unicode="&#xed;" horiz-adv-x="291" 
d="M41 414q0 10 16 20l108 54q14 9 26 4t12 -22v-402q0 -14 22.5 -26t22.5 -25q0 -7 -5.5 -12t-14.5 -5h-158q-9 0 -14.5 5t-5.5 12q0 12 23 24.5t23 26.5v290q0 20 -27.5 31t-27.5 25zM89 557q-20 -9 -31.5 5.5t3.5 33.5l65 74q39 44 69 44q23 0 37 -14.5t14 -36.5
q0 -38 -50 -59z" />
    <glyph glyph-name="uni00EE" unicode="&#xee;" horiz-adv-x="291" 
d="M6 571q0 9 9 20l81 92q28 31 47 31t47 -31l82 -92q9 -11 9 -20q0 -11 -10 -14.5t-23 4.5l-105 63l-104 -63q-13 -8 -23 -4.5t-10 14.5zM41 414q0 10 16 20l108 54q14 9 26 4t12 -22v-402q0 -14 22.5 -26t22.5 -25q0 -7 -5.5 -12t-14.5 -5h-158q-9 0 -14.5 5t-5.5 12
q0 12 23 24.5t23 26.5v290q0 20 -27.5 31t-27.5 25z" />
    <glyph glyph-name="uni00EF" unicode="&#xef;" horiz-adv-x="291" 
d="M-8 596q-20 20 -20 49t20.5 49t49.5 20q28 0 48.5 -20t20.5 -49t-20 -49.5t-49 -20.5t-50 21zM41 414q0 10 16 20l108 54q14 9 26 4t12 -22v-402q0 -14 22.5 -26t22.5 -25q0 -7 -5.5 -12t-14.5 -5h-158q-9 0 -14.5 5t-5.5 12q0 12 23 24.5t23 26.5v290q0 20 -27.5 31
t-27.5 25zM195 596q-21 20 -21 49t20.5 49t49.5 20t49.5 -20t20.5 -49t-20.5 -49.5t-49.5 -20.5t-49 21z" />
    <glyph glyph-name="uni00F0" unicode="&#xf0;" horiz-adv-x="548" 
d="M44 241q0 97 57.5 160.5t151.5 63.5q44 0 81 -17q-31 66 -85 121l-5 5l-102 -52q-26 -14 -38 8q-12 24 18 36l89 39q-33 27 -113 76q-9 8 -4 15t18 7q66 0 169 -66l107 52q28 13 38 -9q12 -23 -18 -36l-85 -35q11 -7 18 -15q73 -65 116 -152t43 -181q0 -133 -63 -203
t-159 -70q-75 0 -129.5 38.5t-79.5 94.5t-25 120zM164 259q0 -90 35 -159t93 -69q45 0 70 43.5t25 129.5q0 103 -31 193q-39 23 -83 23q-109 0 -109 -161z" />
    <glyph glyph-name="uni00F1" unicode="&#xf1;" horiz-adv-x="606" 
d="M41 413q0 10 16 20l110 56q8 5 16 5t14 -5.5t6 -17.5v-43q104 66 200 66q118 0 118 -129v-300q0 -11 23 -23q22 -13 22 -25q0 -17 -20 -17h-157q-20 0 -20 17q0 13 23 25q22 10 22 23v248q0 57 -19 80.5t-67 23.5q-60 0 -125 -30v-322q0 -11 23 -23q22 -12 22 -25
q0 -17 -20 -17h-158q-20 0 -20 17q0 11 23 25q22 12 22 23v293q0 20 -27 32q-27 11 -27 23zM161 614q37 88 102 88q21 0 39 -7q20 -8 51 -22.5t56 -23.5l61 40q5 4 11 4q5 0 8 -5.5t-1 -13.5q-34 -88 -104 -88q-20 0 -37 7q-18 7 -47.5 21t-60.5 24l-60 -40q-8 -4 -11 -4
q-6 0 -8.5 5.5t1.5 14.5z" />
    <glyph glyph-name="uni00F2" unicode="&#xf2;" horiz-adv-x="586" 
d="M114 58q-71 70 -71 183t70.5 182.5t179.5 69.5q108 0 178.5 -69.5t70.5 -182.5t-70.5 -183t-178.5 -70q-109 0 -179 70zM167 216q0 -89 33 -134.5t93 -45.5t92.5 45.5t32.5 135.5v48q0 90 -32.5 135.5t-92.5 45.5t-93 -46t-33 -135v-49zM186 663q0 21 14.5 36t37.5 15
q30 0 69 -44l64 -74q16 -18 4 -33t-32 -6l-106 47q-51 22 -51 59z" />
    <glyph glyph-name="uni00F3" unicode="&#xf3;" horiz-adv-x="586" 
d="M114 58q-71 70 -71 183t70.5 182.5t179.5 69.5q108 0 178.5 -69.5t70.5 -182.5t-70.5 -183t-178.5 -70q-109 0 -179 70zM167 216q0 -89 33 -134.5t93 -45.5t92.5 45.5t32.5 135.5v48q0 90 -32.5 135.5t-92.5 45.5t-93 -46t-33 -135v-49zM239 557q-20 -9 -32 6t4 33l65 74
q38 44 69 44q22 0 36.5 -15t14.5 -36q0 -37 -50 -59z" />
    <glyph glyph-name="uni00F4" unicode="&#xf4;" horiz-adv-x="586" 
d="M114 58q-71 70 -71 183t70.5 182.5t179.5 69.5q108 0 178.5 -69.5t70.5 -182.5t-70.5 -183t-178.5 -70q-109 0 -179 70zM156 571q0 9 9 20l81 92q28 31 47 31t47 -31l81 -92q9 -11 9 -20q0 -11 -10 -14.5t-23 4.5l-104 63l-104 -63q-13 -8 -23 -4.5t-10 14.5zM167 216
q0 -89 33 -134.5t93 -45.5t92.5 45.5t32.5 135.5v48q0 90 -32.5 135.5t-92.5 45.5t-93 -46t-33 -135v-49z" />
    <glyph glyph-name="uni00F5" unicode="&#xf5;" horiz-adv-x="586" 
d="M114 58q-71 70 -71 183t70.5 182.5t179.5 69.5q108 0 178.5 -69.5t70.5 -182.5t-70.5 -183t-178.5 -70q-109 0 -179 70zM130 614q38 88 102 88q19 0 39 -7.5t50.5 -22t55.5 -23.5l62 40q10 7 16 2t2 -17q-34 -88 -104 -88q-20 0 -38 7t-47.5 21t-60.5 24l-60 -40
q-10 -7 -16 -1.5t-1 17.5zM167 216q0 -89 33 -134.5t93 -45.5t92.5 45.5t32.5 135.5v48q0 90 -32.5 135.5t-92.5 45.5t-93 -46t-33 -135v-49z" />
    <glyph glyph-name="uni00F6" unicode="&#xf6;" horiz-adv-x="586" 
d="M114 58q-71 70 -71 183t70.5 182.5t179.5 69.5q108 0 178.5 -69.5t70.5 -182.5t-70.5 -183t-178.5 -70q-109 0 -179 70zM142 596q-20 20 -20 49t20 49t49 20t49.5 -20t20.5 -49t-20.5 -49.5t-49.5 -20.5t-49 21zM167 216q0 -89 33 -134.5t93 -45.5t92.5 45.5t32.5 135.5
v48q0 90 -32.5 135.5t-92.5 45.5t-93 -46t-33 -135v-49zM345 596q-21 20 -21 49t20.5 49t49.5 20t49.5 -20t20.5 -49t-20.5 -49.5t-49.5 -20.5t-49 21z" />
    <glyph glyph-name="uni00F7" unicode="&#xf7;" horiz-adv-x="501" 
d="M79 268q-15 0 -21.5 11t0 22.5t21.5 11.5h343q15 0 21.5 -11.5t0 -22.5t-21.5 -11h-343zM207 102q-19 18 -19 44t18.5 44.5t44.5 18.5t44.5 -18.5t18.5 -44.5t-19 -44.5t-44 -18.5q-26 0 -44 19zM207 390q-19 18 -19 44t18.5 44.5t44.5 18.5q25 0 44 -18.5t19 -44.5
t-18.5 -44.5t-44.5 -18.5t-44 19z" />
    <glyph glyph-name="uni00F8" unicode="&#xf8;" horiz-adv-x="586" 
d="M43 241q0 113 70.5 182.5t179.5 69.5q71 0 131 -33l26 41q16 24 40 14q21 -9 14 -31q-3 -6 -8 -13l-32 -41q78 -70 78 -189q0 -113 -70.5 -183t-178.5 -70q-73 0 -132 34l-24 -39q-12 -18 -30 -17t-23 15.5t7 34.5l29 36q-77 72 -77 189zM167 216q0 -53 13 -94l113 142
l90 139q-31 43 -90 43q-60 0 -93 -46t-33 -135v-49zM203 77q33 -41 90 -41q60 0 92.5 45.5t32.5 135.5v48q0 54 -13 96l-98 -126z" />
    <glyph glyph-name="uni00F9" unicode="&#xf9;" horiz-adv-x="597" 
d="M50 429l112 59q10 5 17 5q18 0 18 -22v-308q0 -57 20 -81.5t71 -24.5q58 0 111 35v261q0 14 -8.5 21t-19 11.5t-19 9.5t-8.5 16q0 14 16 21l111 57q8 5 17 5q18 0 18 -22v-355q0 -14 8.5 -20.5t19 -11t19 -9.5t8.5 -16q0 -13 -16 -20l-111 -49q-8 -4 -16 -4q-19 0 -19 23
v37q-74 -59 -169 -59q-66 0 -103 37t-37 113v214q0 11 -5 17t-12.5 10t-15.5 7t-14 7q-9 6 -9 16t16 20zM243 714q30 0 69 -44l65 -74q13 -16 6.5 -29t-21.5 -13q-6 0 -14 3l-106 47q-50 21 -50 59q0 22 14 36.5t37 14.5z" />
    <glyph glyph-name="uni00FA" unicode="&#xfa;" horiz-adv-x="597" 
d="M50 429l112 59q10 5 17 5q18 0 18 -22v-308q0 -57 20 -81.5t71 -24.5q58 0 111 35v261q0 14 -8.5 21t-19 11.5t-19 9.5t-8.5 16q0 14 16 21l111 57q8 5 17 5q18 0 18 -22v-355q0 -14 8.5 -20.5t19 -11t19 -9.5t8.5 -16q0 -13 -16 -20l-111 -49q-8 -4 -16 -4q-19 0 -19 23
v37q-74 -59 -169 -59q-66 0 -103 37t-37 113v214q0 11 -5 17t-12.5 10t-15.5 7t-14 7q-9 6 -9 16t16 20zM216 596l65 74q39 44 69 44q22 0 36.5 -15t14.5 -36q0 -38 -50 -59l-107 -47q-7 -3 -13 -3q-15 0 -21.5 13t6.5 29z" />
    <glyph glyph-name="uni00FB" unicode="&#xfb;" horiz-adv-x="597" 
d="M50 429l112 59q10 5 17 5q18 0 18 -22v-308q0 -57 20 -81.5t71 -24.5q58 0 111 35v261q0 14 -8.5 21t-19 11.5t-19 9.5t-8.5 16q0 14 16 21l111 57q8 5 17 5q18 0 18 -22v-355q0 -14 8.5 -20.5t19 -11t19 -9.5t8.5 -16q0 -13 -16 -20l-111 -49q-8 -4 -16 -4q-19 0 -19 23
v37q-74 -59 -169 -59q-66 0 -103 37t-37 113v214q0 11 -5 17t-12.5 10t-15.5 7t-14 7q-9 6 -9 16t16 20zM170 591l81 92q28 31 47 31q20 0 47 -31l81 -92q9 -10 9 -20q0 -16 -15 -16q-8 0 -17 6l-105 63l-104 -63q-9 -6 -17 -6q-16 0 -16 16q0 10 9 20z" />
    <glyph glyph-name="uni00FC" unicode="&#xfc;" horiz-adv-x="597" 
d="M50 429l112 59q10 5 17 5q18 0 18 -22v-308q0 -57 20 -81.5t71 -24.5q58 0 111 35v261q0 14 -8.5 21t-19 11.5t-19 9.5t-8.5 16q0 14 16 21l111 57q8 5 17 5q18 0 18 -22v-355q0 -14 8.5 -20.5t19 -11t19 -9.5t8.5 -16q0 -13 -16 -20l-111 -49q-8 -4 -16 -4q-19 0 -19 23
v37q-74 -59 -169 -59q-66 0 -103 37t-37 113v214q0 11 -5 17t-12.5 10t-15.5 7t-14 7q-9 6 -9 16t16 20zM196 714q29 0 49.5 -20t20.5 -49q0 -31 -22 -50.5t-49 -19.5t-48 21q-16 16 -18.5 36.5t5 38.5t24 30.5t38.5 12.5zM350 694q20 20 49 20q14 0 26.5 -4.5t23.5 -15.5
q20 -20 20 -49t-20 -49q-21 -21 -50 -21q-28 0 -49 21q-21 20 -21 49t21 49z" />
    <glyph glyph-name="uni00FD" unicode="&#xfd;" horiz-adv-x="516" 
d="M-5 -138q0 23 18 41t45 18q10 0 21.5 -4t23 -9.5t22 -9.5t17.5 -4q24 0 36 21q13 22 54 124l-166 350q-9 19 -19.5 32t-19.5 21.5t-15 14.5t-6 12q0 13 16 13h189q15 0 15 -12q0 -9 -23 -27q-23 -20 -23 -35q0 -7 8 -28l100 -230l101 230q6 15 6 26q0 18 -19 38
q-20 20 -20 27q0 11 15 11h125q15 0 15 -12q0 -3 -6.5 -10t-15.5 -17t-18 -22t-15 -25l-208 -455q-36 -81 -74.5 -116t-87.5 -35q-40 0 -65.5 19t-25.5 53zM200 596l65 74q39 44 69 44q23 0 37 -14.5t14 -36.5q0 -38 -50 -59l-107 -47q-7 -3 -13 -3q-15 0 -21.5 13t6.5 29z
" />
    <glyph glyph-name="uni00FE" unicode="&#xfe;" horiz-adv-x="561" 
d="M25 634q0 10 16 20l110 55q8 6 16 6t13.5 -6t5.5 -18v-253q73 56 153 56q82 0 129 -58.5t47 -164.5q0 -65 -16.5 -117.5t-47 -89t-73 -56.5t-94.5 -20q-50 0 -98 23v-141q0 -13 23 -27q22 -12 22 -24q0 -17 -20 -17h-157q-21 0 -21 17q0 12 23 24q23 14 23 27v708
q0 20 -27 32t-27 24zM186 143q0 -52 23.5 -80.5t68.5 -28.5q57 0 91 51.5t34 148.5q0 187 -136 187q-41 0 -81 -23v-255z" />
    <glyph glyph-name="uni00FF" unicode="&#xff;" horiz-adv-x="516" 
d="M-5 -138q0 23 18 41t45 18q10 0 21.5 -4t23 -9.5t22 -9.5t17.5 -4q24 0 36 21q13 22 54 124l-166 350q-9 19 -19.5 32t-19.5 21.5t-15 14.5t-6 12q0 13 16 13h189q15 0 15 -12q0 -9 -23 -27q-23 -20 -23 -35q0 -7 8 -28l100 -230l101 230q6 15 6 26q0 18 -19 38
q-20 20 -20 27q0 11 15 11h125q15 0 15 -12q0 -3 -6.5 -10t-15.5 -17t-18 -22t-15 -25l-208 -455q-36 -81 -74.5 -116t-87.5 -35q-40 0 -65.5 19t-25.5 53zM334 694q20 20 49 20q14 0 26.5 -4.5t23.5 -15.5q20 -20 20 -49t-20 -49q-21 -21 -50 -21q-28 0 -49 21
q-21 20 -21 49t21 49zM132 694q20 20 49 20q14 0 26.5 -4.5t22.5 -15.5q20 -20 20 -49t-20 -49q-10 -11 -22.5 -16t-26.5 -5q-28 0 -49 21q-21 20 -21 49t21 49z" />
    <glyph glyph-name="uni0100" unicode="&#x100;" horiz-adv-x="679" 
d="M3 14q0 12 25 31t36 46l202 508q7 25 6 37q-2 12 -8 27.5t-6 21.5q0 17 19 17h74q26 0 35 -20l231 -588q6 -13 15.5 -25.5t18.5 -22.5t16 -18t7 -13q0 -15 -17 -15h-199q-18 0 -18 14q0 11 24 30q23 20 23 36q0 13 -7 26l-33 87h-278l-33 -87q-7 -15 -7 -32q0 -18 23 -33
q22 -16 22 -27q0 -14 -18 -14h-135q-18 0 -18 14zM428 243l-119 312l-120 -312h239zM194 824h275q15 0 22 -9t7 -19.5t-7 -19.5t-22 -9h-275q-15 0 -22.5 9t-7.5 19.5t7.5 19.5t22.5 9z" />
    <glyph glyph-name="uni0101" unicode="&#x101;" horiz-adv-x="520" 
d="M46 101q0 72 69 119t211 59v94q0 78 -61 78q-27 0 -44.5 -11.5t-30 -28t-22.5 -35t-22 -31.5q-20 -20 -44 -20q-21 0 -37 14.5t-16 37.5q0 22 15.5 43t44 37.5t69 26.5t89.5 10q87 0 126.5 -33.5t39.5 -102.5v-285q0 -24 17 -24q4 0 11 1.5t11 1.5q11 0 11 -14
q0 -19 -22.5 -34.5t-55.5 -15.5q-65 0 -76 74q-57 -74 -156 -74q-60 0 -93.5 31t-33.5 82zM232 65q48 0 94 40v132q-168 -21 -168 -110q0 -29 19 -45.5t55 -16.5zM122 662h275q15 0 22 -9t7 -19.5t-7 -19.5t-22 -9h-275q-15 0 -22.5 9t-7.5 19.5t7.5 19.5t22.5 9z" />
    <glyph glyph-name="uni0102" unicode="&#x102;" horiz-adv-x="679" 
d="M3 14q0 12 25 31t36 46l202 508q7 25 6 37q-2 12 -8 27.5t-6 21.5q0 17 19 17h74q26 0 35 -20l231 -588q6 -13 15.5 -25.5t18.5 -22.5t16 -18t7 -13q0 -15 -17 -15h-199q-18 0 -18 14q0 11 24 30q23 20 23 36q0 13 -7 26l-33 87h-278l-33 -87q-7 -15 -7 -32q0 -18 23 -33
q22 -16 22 -27q0 -14 -18 -14h-135q-18 0 -18 14zM428 243l-119 312l-120 -312h239zM217 855q41 -38 111 -38q69 0 110 38q6 6 13 6t10.5 -5.5t1.5 -16.5q-29 -89 -135 -89t-135 89q-4 11 0 16.5t11 5.5t13 -6z" />
    <glyph glyph-name="uni0103" unicode="&#x103;" horiz-adv-x="520" 
d="M326 279v94q0 78 -61 78q-27 0 -44.5 -11.5t-30 -28t-22.5 -35t-22 -31.5q-20 -20 -44 -20q-21 0 -37 14.5t-16 37.5q0 22 15.5 43t44 37.5t69 26.5t89.5 10q87 0 126.5 -33.5t39.5 -102.5v-285q0 -24 17 -24q4 0 11 1.5t11 1.5q11 0 11 -14q0 -19 -22.5 -34.5
t-55.5 -15.5q-65 0 -76 74q-57 -74 -156 -74q-60 0 -93.5 31t-33.5 82q0 72 69 119t211 59zM158 127q0 -29 19 -45.5t55 -16.5q48 0 94 40v132q-168 -21 -168 -110zM156 703q20 -34 41.5 -49t58.5 -15q36 0 57.5 15t42.5 49q7 11 17 11q7 0 12.5 -6.5t3.5 -18.5
q-3 -30 -14.5 -52.5t-29.5 -38t-41 -23.5t-48 -8q-51 0 -88.5 31t-44.5 91q-2 12 3.5 18.5t12.5 6.5q10 0 17 -11z" />
    <glyph glyph-name="uni0104" unicode="&#x104;" horiz-adv-x="679" 
d="M3 14q0 12 25 31t36 46l202 508q7 25 6 37q-2 12 -8 27.5t-6 21.5q0 17 19 17h74q26 0 35 -20l231 -588q6 -13 15.5 -25.5t18.5 -22.5t16 -18t7 -13q0 -15 -17 -15h-7q-54 -4 -85 -32.5t-31 -62.5q0 -40 42 -40q20 0 54 18q6 3 10 3q5 0 7 -4.5t-2 -11.5
q-16 -32 -48 -51.5t-74 -19.5q-37 0 -60.5 20t-23.5 53q0 40 32.5 73t89.5 55h-103q-18 0 -18 14q0 11 24 30q23 20 23 36q0 13 -7 26l-33 87h-278l-33 -87q-7 -15 -7 -32q0 -18 23 -33q22 -16 22 -27q0 -14 -18 -14h-135q-18 0 -18 14zM189 243h239l-119 312z" />
    <glyph glyph-name="uni0105" unicode="&#x105;" horiz-adv-x="524" 
d="M330 285v88q0 78 -61 78q-21 0 -36 -8.5t-25.5 -22t-18 -30t-15.5 -31.5q-10 -21 -26.5 -35.5t-40.5 -14.5t-39 14t-15 38q0 52 60 92q59 41 158 41q87 0 126.5 -33.5t39.5 -102.5v-279q0 -30 17 -30q3 0 11 1.5t12 1.5q10 0 10 -12q0 -15 -10 -25q-11 -12 -20.5 -17
t-25.5 -11q-80 -32 -80 -81q0 -20 13 -30.5t34 -10.5q29 0 66 17q6 3 10 3q7 0 8 -5.5t-5 -13.5q-49 -67 -133 -67q-37 0 -59 18.5t-22 51.5q0 38 34.5 71t91.5 52q-49 13 -56 73q-28 -37 -71.5 -57t-91.5 -20q-60 0 -93 31t-33 82q0 72 70 119.5t216 64.5zM232 65
q52 0 98 40v134q-174 -22 -174 -112q0 -28 19.5 -45t56.5 -17z" />
    <glyph glyph-name="uni0106" unicode="&#x106;" horiz-adv-x="692" 
d="M52 353q0 160 95 260.5t247 100.5q106 0 179 -50t73 -125q0 -36 -19.5 -59t-53.5 -23q-33 0 -53 21t-20 58q0 8 1.5 25.5t1.5 26.5q0 33 -30 54.5t-87 21.5q-97 0 -158.5 -72t-61.5 -198q0 -132 70 -214t189 -82q54 0 98.5 18t71.5 35.5t38 17.5q15 0 15 -18
q0 -40 -50 -90q-76 -73 -203 -73q-155 0 -249 102t-94 263zM308 736q-24 -4 -30 11.5t17 28.5l119 62q25 13 48 13q21 0 34 -11t13 -29q0 -19 -15.5 -34t-46.5 -19z" />
    <glyph glyph-name="uni0107" unicode="&#x107;" horiz-adv-x="512" 
d="M44 234q0 115 68 187.5t175 72.5q77 0 131 -37t54 -94q0 -32 -16.5 -52.5t-47.5 -20.5q-30 0 -47.5 19t-17.5 51q0 8 1.5 23t1.5 20q0 45 -64 45t-103 -43.5t-39 -126.5q0 -91 48 -144t134 -53q39 0 67 12.5t43 24.5t23 12q12 0 12 -14q0 -44 -54.5 -86t-135.5 -42
q-100 0 -166.5 67.5t-66.5 178.5zM232 557q-20 -9 -32 6t4 33l64 74q39 44 69 44q23 0 37.5 -15t14.5 -36q0 -37 -51 -59z" />
    <glyph glyph-name="uni0108" unicode="&#x108;" horiz-adv-x="692" 
d="M52 353q0 160 95 260.5t247 100.5q106 0 179 -50t73 -125q0 -36 -19.5 -59t-53.5 -23q-33 0 -53 21t-20 58q0 8 1.5 25.5t1.5 26.5q0 33 -30 54.5t-87 21.5q-97 0 -158.5 -72t-61.5 -198q0 -132 70 -214t189 -82q54 0 98.5 18t71.5 35.5t38 17.5q15 0 15 -18
q0 -40 -50 -90q-76 -73 -203 -73q-155 0 -249 102t-94 263zM271 737q-16 -6 -22.5 5t7.5 23l112 89q22 19 45 0l113 -89q14 -12 7.5 -23t-22.5 -5l-121 44z" />
    <glyph glyph-name="uni0109" unicode="&#x109;" horiz-adv-x="512" 
d="M44 234q0 115 68 187.5t175 72.5q77 0 131 -37t54 -94q0 -32 -16.5 -52.5t-47.5 -20.5q-30 0 -47.5 19t-17.5 51q0 8 1.5 23t1.5 20q0 45 -64 45t-103 -43.5t-39 -126.5q0 -91 48 -144t134 -53q39 0 67 12.5t43 24.5t23 12q12 0 12 -14q0 -44 -54.5 -86t-135.5 -42
q-100 0 -166.5 67.5t-66.5 178.5zM148 571q0 9 9 20l81 92q30 31 48 31q17 0 47 -31l81 -92q9 -11 9 -20q0 -11 -10 -14.5t-23 4.5l-104 63l-105 -63q-13 -8 -23 -4.5t-10 14.5z" />
    <glyph glyph-name="uni010A" unicode="&#x10a;" horiz-adv-x="692" 
d="M52 353q0 160 95 260.5t247 100.5q106 0 179 -50t73 -125q0 -36 -19.5 -59t-53.5 -23q-33 0 -53 21t-20 58q0 8 1.5 25.5t1.5 26.5q0 33 -30 54.5t-87 21.5q-97 0 -158.5 -72t-61.5 -198q0 -132 70 -214t189 -82q54 0 98.5 18t71.5 35.5t38 17.5q15 0 15 -18
q0 -40 -50 -90q-76 -73 -203 -73q-155 0 -249 102t-94 263zM341 762q-21 20 -21 50t20.5 50.5t49.5 20.5t50 -20.5t21 -50.5t-20.5 -50t-50.5 -20q-29 0 -49 20z" />
    <glyph glyph-name="uni010B" unicode="&#x10b;" horiz-adv-x="512" 
d="M44 234q0 115 68 187.5t175 72.5q77 0 131 -37t54 -94q0 -32 -16.5 -52.5t-47.5 -20.5q-30 0 -47.5 19t-17.5 51q0 8 1.5 23t1.5 20q0 45 -64 45t-103 -43.5t-39 -126.5q0 -91 48 -144t134 -53q39 0 67 12.5t43 24.5t23 12q12 0 12 -14q0 -44 -54.5 -86t-135.5 -42
q-100 0 -166.5 67.5t-66.5 178.5zM234 591q-21 21 -21 51t21 51t51 21t51 -21t21 -51t-21 -51.5t-51 -21.5t-51 22z" />
    <glyph glyph-name="uni010C" unicode="&#x10c;" horiz-adv-x="692" 
d="M52 353q0 160 95 260.5t247 100.5q106 0 179 -50t73 -125q0 -36 -19.5 -59t-53.5 -23q-33 0 -53 21t-20 58q0 8 1.5 25.5t1.5 26.5q0 33 -30 54.5t-87 21.5q-97 0 -158.5 -72t-61.5 -198q0 -132 70 -214t189 -82q54 0 98.5 18t71.5 35.5t38 17.5q15 0 15 -18
q0 -40 -50 -90q-76 -73 -203 -73q-155 0 -249 102t-94 263zM255 835q-13 10 -6.5 21t22.5 5l119 -44l119 44q16 5 22.5 -4t-6.5 -21l-113 -92q-22 -19 -45 0z" />
    <glyph glyph-name="uni010D" unicode="&#x10d;" horiz-adv-x="512" 
d="M44 234q0 115 68 187.5t175 72.5q77 0 131 -37t54 -94q0 -32 -16.5 -52.5t-47.5 -20.5q-30 0 -47.5 19t-17.5 51q0 8 1.5 23t1.5 20q0 45 -64 45t-103 -43.5t-39 -126.5q0 -91 48 -144t134 -53q39 0 67 12.5t43 24.5t23 12q12 0 12 -14q0 -44 -54.5 -86t-135.5 -42
q-100 0 -166.5 67.5t-66.5 178.5zM148 698q0 11 10 14.5t23 -3.5l105 -62l104 62q13 7 23 3.5t10 -14.5q0 -10 -9 -19l-81 -92q-30 -31 -47 -31q-18 0 -48 31l-81 92q-9 9 -9 19z" />
    <glyph glyph-name="uni010E" unicode="&#x10e;" horiz-adv-x="737" 
d="M61 16q0 13 25.5 28.5t25.5 39.5v534q0 14 -8 24t-17.5 14t-17.5 11.5t-8 18.5q0 6 5.5 11t14.5 5h226q179 0 278.5 -92t99.5 -257q0 -167 -99.5 -260t-276.5 -93h-228q-9 0 -14.5 5t-5.5 11zM210 835q-13 10 -6.5 21t22.5 5l119 -44l120 44q15 5 21.5 -4t-5.5 -21
l-113 -92q-23 -18 -46 0zM229 76q0 -28 28 -28h32q132 0 198 73.5t66 229.5q0 144 -68 223.5t-199 79.5h-29q-28 0 -28 -28v-550z" />
    <glyph glyph-name="uni010F" unicode="&#x10f;" horiz-adv-x="579" 
d="M45 215q0 60 17 109t48.5 84t76.5 54.5t101 19.5q50 0 95 -20v111q0 15 -8.5 22t-19 11.5t-19 9.5t-8.5 16q0 14 17 22l110 54q9 5 19 5q17 0 17 -20v-577q0 -13 8.5 -19.5t18.5 -11t18.5 -10t8.5 -16.5q0 -14 -16 -21l-111 -46q-8 -4 -16 -4q-19 0 -19 23v39
q-48 -62 -142 -62q-43 0 -79 15t-62 44.5t-40.5 71.5t-14.5 96zM296 63q42 0 87 30v247q0 96 -95 96q-131 0 -131 -179q0 -100 38 -147t101 -47zM536 527q57 16 66 44q7 18 -17 24q-30 6 -44.5 20.5t-14.5 45.5q0 30 20.5 50t53.5 20t57 -23.5t24 -62.5q0 -30 -10 -55.5
t-28 -45t-43 -31.5t-55 -15q-5 0 -9.5 0.5t-8.5 4.5q-6 6 -3.5 13.5t12.5 10.5z" />
    <glyph glyph-name="uni0110" unicode="&#x110;" horiz-adv-x="749" 
d="M49 405l74 -4v217q0 14 -8 22.5t-17 15.5t-17 13.5t-8 16.5q0 16 20 16h226q90 0 160 -23.5t118 -68.5t73.5 -109.5t25.5 -147.5q0 -84 -25.5 -149.5t-73.5 -110.5t-117.5 -69t-158.5 -24h-228q-20 0 -20 16q0 13 25 29q25 15 25 39v275l-74 -5h-2q-14 0 -21 8t-7 17.5
t7 17.5t21 8h2zM241 400l140 5q16 0 24 -8t8 -17.5t-8 -17.5t-24 -8l-140 6v-284q0 -28 28 -28h31q134 0 199.5 73t65.5 230q0 145 -67.5 224t-199.5 79h-29q-28 0 -28 -28v-226z" />
    <glyph glyph-name="uni0111" unicode="&#x111;" horiz-adv-x="579" 
d="M288 482q50 0 95 -20v66h-124q-14 0 -14 14v10q0 14 14 14h124v7q0 15 -8.5 22t-19 11.5t-19 9.5t-8.5 16q0 14 17 22l110 54q9 5 19 5q17 0 17 -20v-127h62q14 0 14 -14v-10q0 -14 -14 -14h-62v-412q0 -13 8.5 -19.5t18.5 -11t18.5 -10t8.5 -16.5q0 -14 -16 -21
l-111 -46q-8 -4 -16 -4q-19 0 -19 23v39q-48 -62 -142 -62q-43 0 -79 15t-62 44.5t-40.5 71.5t-14.5 96q0 60 17 109t48.5 84t76.5 54.5t101 19.5zM296 63q42 0 87 30v247q0 96 -95 96q-131 0 -131 -179q0 -100 38 -147t101 -47z" />
    <glyph glyph-name="uni0112" unicode="&#x112;" horiz-adv-x="659" 
d="M81 702h465q50 0 50 -47v-129q0 -11 -5 -16t-12 -5q-12 0 -20 12l-59 93q-27 42 -80 42h-163q-28 0 -28 -28v-224h118q39 0 56 32l38 60q9 15 20 15q6 0 10.5 -6.5t4.5 -18.5v-215q0 -11 -4.5 -17.5t-10.5 -6.5q-11 0 -20 15l-38 60q-17 32 -56 32h-118v-263
q0 -20 8.5 -28.5t28.5 -8.5h151q30 0 49 9t35 34l57 94q9 14 20 14q7 0 12 -5.5t5 -16.5v-130q0 -49 -51 -49h-463q-9 0 -14.5 5t-5.5 11q0 9 8 15.5t17.5 13.5t17.5 15.5t8 23.5v534q0 15 -8 23.5t-17.5 15t-17.5 13t-8 16.5q0 6 5.5 11t14.5 5zM225 824h275q15 0 22 -9
t7 -19.5t-7 -19.5t-22 -9h-275q-15 0 -22.5 9t-7.5 19.5t7.5 19.5t22.5 9z" />
    <glyph glyph-name="uni0113" unicode="&#x113;" horiz-adv-x="526" 
d="M44 241q0 112 65.5 182.5t168.5 70.5q90 0 144.5 -51.5t54.5 -121.5q0 -31 -11.5 -43.5t-35.5 -12.5h-286q2 -89 48.5 -138.5t124.5 -49.5q33 0 61 10t43 21.5t29 21.5t22 10q19 0 8 -28q-21 -56 -73 -90t-125 -34q-103 0 -170.5 69t-67.5 184zM134 605q-19 0 -27 14.5
t0 28.5t27 14h276q18 0 25.5 -14t0 -28.5t-25.5 -14.5h-276zM145 312h196q29 0 29 27q0 47 -24.5 78t-75.5 31q-53 0 -87 -35.5t-38 -100.5z" />
    <glyph glyph-name="uni0114" unicode="&#x114;" horiz-adv-x="659" 
d="M61 16q0 12 12.5 20t25.5 18.5t13 29.5v534q0 19 -13 29t-25.5 18t-12.5 21q0 6 5.5 11t14.5 5h465q50 0 50 -47v-129q0 -18 -13.5 -21t-23.5 12l-59 93q-27 42 -80 42h-163q-28 0 -28 -28v-224h118q39 0 56 32l38 60q11 18 23 14.5t12 -24.5v-215q0 -20 -12 -23.5
t-23 14.5l-38 60q-17 32 -56 32h-118v-263q0 -20 8.5 -28.5t28.5 -8.5h151q30 0 49 9t35 34l57 94q10 16 23.5 13.5t13.5 -21.5v-130q0 -49 -51 -49h-463q-9 0 -14.5 5t-5.5 11zM224 839q-5 16 4.5 21t19.5 -5q40 -38 111 -38q70 0 110 38q10 10 19.5 5t5.5 -21
q-28 -89 -135 -89t-135 89z" />
    <glyph glyph-name="uni0115" unicode="&#x115;" horiz-adv-x="526" 
d="M44 241q0 112 65.5 182.5t168.5 70.5q90 0 144.5 -51.5t54.5 -121.5q0 -31 -11.5 -43.5t-35.5 -12.5h-286q2 -89 48.5 -138.5t124.5 -49.5q33 0 61 10t43 21.5t29 21.5t22 10q19 0 8 -28q-21 -56 -73 -90t-125 -34q-103 0 -170.5 69t-67.5 184zM135 689q-2 19 11 24
t22 -10q20 -34 42 -49t59 -15q36 0 57.5 15t42.5 49q9 15 22 10t11 -24q-7 -59 -45 -90.5t-88 -31.5q-51 0 -88.5 31.5t-45.5 90.5zM145 312h196q29 0 29 27q0 47 -24.5 78t-75.5 31q-53 0 -87 -35.5t-38 -100.5z" />
    <glyph glyph-name="uni0116" unicode="&#x116;" horiz-adv-x="659" 
d="M61 16q0 9 8 15.5t17.5 13.5t17.5 15.5t8 23.5v534q0 15 -8 23.5t-17.5 15t-17.5 13t-8 16.5q0 6 5.5 11t14.5 5h465q50 0 50 -47v-129q0 -11 -5 -16t-12 -5q-12 0 -20 12l-59 93q-27 42 -80 42h-163q-28 0 -28 -28v-224h118q39 0 56 32l38 60q9 15 20 15q6 0 10.5 -6.5
t4.5 -18.5v-215q0 -11 -4.5 -17.5t-10.5 -6.5q-11 0 -20 15l-38 60q-17 32 -56 32h-118v-263q0 -20 8.5 -28.5t28.5 -8.5h151q30 0 49 9t35 34l57 94q9 14 20 14q7 0 12 -5.5t5 -16.5v-130q0 -49 -51 -49h-463q-9 0 -14.5 5t-5.5 11zM359 883q29 0 50 -20.5t21 -50.5
t-21 -50t-50 -20q-30 0 -50 20q-16 16 -19 37t5 39.5t25 31.5t39 13z" />
    <glyph glyph-name="uni0117" unicode="&#x117;" horiz-adv-x="526" 
d="M44 241q0 112 65.5 182.5t168.5 70.5q90 0 144.5 -51.5t54.5 -121.5q0 -31 -11.5 -43.5t-35.5 -12.5h-286q2 -89 48.5 -138.5t124.5 -49.5q33 0 61 10t43 21.5t29 21.5t22 10q19 0 8 -28q-21 -56 -73 -90t-125 -34q-103 0 -170.5 69t-67.5 184zM145 312h196q29 0 29 27
q0 47 -24.5 78t-75.5 31q-53 0 -87 -35.5t-38 -100.5zM220 591q-21 21 -21 51t21 51t51 21t51.5 -21t21.5 -51t-21.5 -51.5t-51.5 -21.5t-51 22z" />
    <glyph glyph-name="uni0118" unicode="&#x118;" horiz-adv-x="659" 
d="M61 16q0 9 8 15.5t17.5 13.5t17.5 15.5t8 23.5v534q0 15 -8 23.5t-17.5 15t-17.5 13t-8 16.5q0 6 5.5 11t14.5 5h465q50 0 50 -47v-129q0 -11 -5 -16t-12 -5q-12 0 -20 12l-59 93q-27 42 -80 42h-163q-28 0 -28 -28v-224h118q39 0 56 32l38 60q9 15 20 15q6 0 10.5 -6.5
t4.5 -18.5v-215q0 -11 -4.5 -17.5t-10.5 -6.5q-11 0 -20 15l-38 60q-17 32 -56 32h-118v-263q0 -20 8.5 -28.5t28.5 -8.5h151q30 0 49 9t35 34l57 94q9 14 20 14q7 0 12 -5.5t5 -16.5v-130q0 -49 -51 -49h-1q-54 -4 -84.5 -32.5t-30.5 -62.5q0 -40 41 -40q20 0 54 18
q6 3 10 3q5 0 7.5 -4.5t-1.5 -11.5q-17 -32 -49 -51.5t-74 -19.5q-37 0 -60.5 20t-23.5 53q0 40 32.5 73t89.5 55h-373q-9 0 -14.5 5t-5.5 11z" />
    <glyph glyph-name="uni0119" unicode="&#x119;" horiz-adv-x="525" 
d="M44 241q0 112 65 182.5t168 70.5q90 0 144.5 -52t54.5 -122q0 -29 -12 -41.5t-37 -12.5h-284q2 -89 50 -139t126 -50q33 0 60.5 10t42 21.5t27.5 21.5t21 10q20 0 9 -28q-29 -76 -117 -111q-88 -34 -88 -87q0 -19 13 -30t34 -11q23 0 48 10.5t29 10.5q7 0 8.5 -5
t-4.5 -12q-51 -70 -139 -70q-36 0 -58 17.5t-22 50.5q0 62 90 113q-100 2 -164.5 71t-64.5 182zM144 312h195q30 0 30 27q0 46 -24.5 77.5t-75.5 31.5q-53 0 -87 -35.5t-38 -100.5z" />
    <glyph glyph-name="uni011A" unicode="&#x11a;" horiz-adv-x="659" 
d="M61 16q0 9 8 15.5t17.5 13.5t17.5 15.5t8 23.5v534q0 15 -8 23.5t-17.5 15t-17.5 13t-8 16.5q0 6 5.5 11t14.5 5h465q50 0 50 -47v-129q0 -11 -5 -16t-12 -5q-12 0 -20 12l-59 93q-27 42 -80 42h-163q-28 0 -28 -28v-224h118q39 0 56 32l38 60q9 15 20 15q6 0 10.5 -6.5
t4.5 -18.5v-215q0 -11 -4.5 -17.5t-10.5 -6.5q-11 0 -20 15l-38 60q-17 32 -56 32h-118v-263q0 -20 8.5 -28.5t28.5 -8.5h151q30 0 49 9t35 34l57 94q9 14 20 14q7 0 12 -5.5t5 -16.5v-130q0 -49 -51 -49h-463q-9 0 -14.5 5t-5.5 11zM239 861l119 -44l120 44q6 2 9 2
q11 0 14 -8.5t-7 -18.5l-113 -92q-10 -9 -23 -9q-11 0 -23 9l-112 91q-11 8 -7.5 18t14.5 10q3 0 9 -2z" />
    <glyph glyph-name="uni011B" unicode="&#x11b;" horiz-adv-x="526" 
d="M44 241q0 112 65.5 182.5t168.5 70.5q90 0 144.5 -51.5t54.5 -121.5q0 -31 -11.5 -43.5t-35.5 -12.5h-286q2 -89 48.5 -138.5t124.5 -49.5q33 0 61 10t43 21.5t29 21.5t22 10q19 0 8 -28q-21 -56 -73 -90t-125 -34q-103 0 -170.5 69t-67.5 184zM134 698q0 11 10 14.5
t24 -3.5l104 -62l104 62q13 7 23 3.5t10 -14.5q0 -10 -9 -19l-81 -92q-30 -31 -47 -31q-19 0 -47 31l-82 92q-9 9 -9 19zM145 312h196q29 0 29 27q0 47 -24.5 78t-75.5 31q-53 0 -87 -35.5t-38 -100.5z" />
    <glyph glyph-name="uni011C" unicode="&#x11c;" horiz-adv-x="733" 
d="M51 333q0 162 101 271.5t260 109.5q104 0 176.5 -50.5t72.5 -125.5q0 -36 -19 -59t-53 -23q-33 0 -53.5 22t-20.5 59q0 8 1 25.5t1 27.5q0 33 -30 54.5t-87 21.5q-100 0 -164 -78.5t-64 -207.5q0 -134 69 -214.5t192 -80.5q76 0 129 26v123q0 20 -17 33.5t-37 19.5
t-37 17t-17 27q0 23 28 23h152q31 0 31 -27v-317q0 -17 -13 -20.5t-27 12.5l-37 41q-16 17 -43 -1q-76 -54 -176 -54q-143 0 -230.5 97.5t-87.5 247.5zM281 737q-16 -6 -22.5 5t7.5 23l112 89q22 19 45 0l113 -89q15 -12 8.5 -23t-23.5 -5l-120 44z" />
    <glyph glyph-name="uni011D" unicode="&#x11d;" horiz-adv-x="525" 
d="M33 -92q0 36 31.5 67.5t97.5 52.5l-14 2q-42 6 -63.5 25.5t-21.5 45.5q0 27 21 49.5t57 31.5q-94 46 -94 137q0 73 61.5 118t151.5 45h219q14 0 15.5 -10.5t-10.5 -16.5l-54 -26q-14 -6 -4 -20q33 -38 33 -90q0 -70 -60.5 -115.5t-145.5 -45.5q-18 0 -52 4
q-22 3 -32.5 -8t-3 -25.5t29.5 -17.5l153 -23q146 -23 146 -136q1 -75 -66.5 -118.5t-188.5 -43.5q-99 0 -152.5 33.5t-53.5 84.5zM125 571q0 9 9 20l81 92q28 31 47 31t47 -31l82 -92q9 -11 9 -20q0 -11 -10 -14.5t-23 4.5l-105 63l-104 -63q-13 -8 -23 -4.5t-10 14.5z
M140 -79q0 -43 30.5 -67.5t89.5 -24.5q61 0 95.5 28t34.5 71q0 32 -19 52.5t-71 28.5l-90 12q-70 -32 -70 -100zM160 314q0 -111 93 -111q45 0 69 28.5t24 82.5v15q0 51 -24 80t-69 29t-69 -28.5t-24 -80.5v-15z" />
    <glyph glyph-name="uni011E" unicode="&#x11e;" horiz-adv-x="733" 
d="M51 333q0 162 101 271.5t260 109.5q104 0 176.5 -50.5t72.5 -125.5q0 -36 -19 -59t-53 -23q-33 0 -53.5 22t-20.5 59q0 8 1 25.5t1 27.5q0 33 -30 54.5t-87 21.5q-100 0 -164 -78.5t-64 -207.5q0 -134 69 -214.5t192 -80.5q76 0 129 26v123q0 20 -17 33.5t-37 19.5
t-37 17t-17 27q0 23 28 23h152q31 0 31 -27v-317q0 -17 -13 -20.5t-27 12.5l-37 41q-16 17 -43 -1q-76 -54 -176 -54q-143 0 -230.5 97.5t-87.5 247.5zM265 839q-4 16 5.5 21t19.5 -5q40 -38 111 -38q69 0 110 38q10 10 19.5 5t5.5 -21q-28 -89 -135 -89q-108 0 -136 89z
" />
    <glyph glyph-name="uni011F" unicode="&#x11f;" horiz-adv-x="525" 
d="M33 -92q0 36 31.5 67.5t97.5 52.5l-14 2q-42 6 -63.5 25.5t-21.5 45.5q0 27 21 49.5t57 31.5q-94 46 -94 137q0 73 61.5 118t151.5 45h219q14 0 15.5 -10.5t-10.5 -16.5l-54 -26q-14 -6 -4 -20q33 -38 33 -90q0 -70 -60.5 -115.5t-145.5 -45.5q-18 0 -52 4
q-22 3 -32.5 -8t-3 -25.5t29.5 -17.5l153 -23q146 -23 146 -136q1 -75 -66.5 -118.5t-188.5 -43.5q-99 0 -152.5 33.5t-53.5 84.5zM126 689q-2 19 11 24t22 -10q20 -34 41.5 -49t58.5 -15q36 0 57.5 15t42.5 49q9 15 22 10t11 -24q-6 -59 -44.5 -90.5t-88.5 -31.5t-88 31.5
t-45 90.5zM140 -79q0 -43 30.5 -67.5t89.5 -24.5q61 0 95.5 28t34.5 71q0 32 -19 52.5t-71 28.5l-90 12q-70 -32 -70 -100zM160 314q0 -111 93 -111q45 0 69 28.5t24 82.5v15q0 51 -24 80t-69 29t-69 -28.5t-24 -80.5v-15z" />
    <glyph glyph-name="uni0120" unicode="&#x120;" horiz-adv-x="733" 
d="M51 333q0 162 101 271.5t260 109.5q104 0 176.5 -50.5t72.5 -125.5q0 -36 -19 -59t-53 -23q-33 0 -53.5 22t-20.5 59q0 8 1 25.5t1 27.5q0 33 -30 54.5t-87 21.5q-100 0 -164 -78.5t-64 -207.5q0 -134 69 -214.5t192 -80.5q76 0 129 26v123q0 20 -17 33.5t-37 19.5
t-37 17t-17 27q0 23 28 23h152q31 0 31 -27v-317q0 -17 -13 -20.5t-27 12.5l-37 41q-16 17 -43 -1q-76 -54 -176 -54q-143 0 -230.5 97.5t-87.5 247.5zM351 762q-21 20 -21 50t21 50.5t50 20.5t49.5 -20.5t20.5 -50.5t-20.5 -50t-49.5 -20q-30 0 -50 20z" />
    <glyph glyph-name="uni0121" unicode="&#x121;" horiz-adv-x="525" 
d="M33 -92q0 36 31.5 67.5t97.5 52.5l-14 2q-42 6 -63.5 25.5t-21.5 45.5q0 27 21 49.5t57 31.5q-94 46 -94 137q0 73 61.5 118t151.5 45h219q14 0 15.5 -10.5t-10.5 -16.5l-54 -26q-14 -6 -4 -20q33 -38 33 -90q0 -70 -60.5 -115.5t-145.5 -45.5q-18 0 -52 4
q-22 3 -32.5 -8t-3 -25.5t29.5 -17.5l153 -23q146 -23 146 -136q1 -75 -66.5 -118.5t-188.5 -43.5q-99 0 -152.5 33.5t-53.5 84.5zM140 -79q0 -43 30.5 -67.5t89.5 -24.5q61 0 95.5 28t34.5 71q0 32 -19 52.5t-71 28.5l-90 12q-70 -32 -70 -100zM160 314q0 -111 93 -111
q45 0 69 28.5t24 82.5v15q0 51 -24 80t-69 29t-69 -28.5t-24 -80.5v-15zM211 591q-21 21 -21 51t21 51t50 21q30 0 51.5 -21t21.5 -51t-21.5 -51.5t-51.5 -21.5q-29 0 -50 22z" />
    <glyph glyph-name="uni0122" unicode="&#x122;" horiz-adv-x="733" 
d="M51 333q0 162 101 271.5t260 109.5q104 0 176.5 -50.5t72.5 -125.5q0 -36 -19 -59t-53 -23q-33 0 -53.5 22t-20.5 59q0 8 1 25.5t1 27.5q0 33 -30 54.5t-87 21.5q-100 0 -164 -78.5t-64 -207.5q0 -134 69 -214.5t192 -80.5q76 0 129 26v123q0 20 -17 33.5t-37 19.5
t-37 17t-17 27q0 23 28 23h152q31 0 31 -27v-317q0 -17 -13 -20.5t-27 12.5l-37 41q-16 17 -43 -1q-76 -54 -176 -54q-143 0 -230.5 97.5t-87.5 247.5zM301 -266q-6 6 -3.5 13.5t12.5 10.5q57 17 66 44q7 18 -17 24q-30 7 -44.5 21.5t-14.5 44.5t21 50t54 20q32 0 56 -23.5
t24 -62.5q0 -59 -38.5 -100.5t-97.5 -46.5q-12 -1 -18 5z" />
    <glyph glyph-name="uni0123" unicode="&#x123;" horiz-adv-x="525" 
d="M33 -92q0 36 31.5 67.5t97.5 52.5l-14 2q-42 6 -63.5 25.5t-21.5 45.5q0 27 21 49.5t57 31.5q-94 46 -94 137q0 73 61.5 118t151.5 45h219q14 0 15.5 -10.5t-10.5 -16.5l-54 -26q-14 -6 -4 -20q33 -38 33 -90q0 -70 -60.5 -115.5t-145.5 -45.5q-18 0 -52 4
q-22 3 -32.5 -8t-3 -25.5t29.5 -17.5l153 -23q146 -23 146 -136q1 -75 -66.5 -118.5t-188.5 -43.5q-99 0 -152.5 33.5t-53.5 84.5zM140 -79q0 -43 30.5 -67.5t89.5 -24.5q61 0 95.5 28t34.5 71q0 32 -19 52.5t-71 28.5l-90 12q-70 -32 -70 -100zM160 314q0 -111 93 -111
q45 0 69 28.5t24 82.5v15q0 51 -24 80t-69 29t-69 -28.5t-24 -80.5v-15zM185 603q0 60 38 101t98 47q12 1 18 -5.5t3.5 -14t-12.5 -10.5q-58 -17 -67 -44q-5 -18 18 -23q30 -7 44.5 -22t14.5 -45t-21 -50t-54 -20q-32 0 -56 23.5t-24 62.5z" />
    <glyph glyph-name="uni0124" unicode="&#x124;" horiz-adv-x="782" 
d="M61 16q0 12 26 29q25 15 25 39v534q0 16 -8 24t-17.5 13.5t-17.5 12t-8 18.5q0 6 5.5 11t14.5 5h178q20 0 20 -16q0 -13 -25 -28q-25 -16 -25 -40v-235h324v235q0 14 -8 22.5t-17 15.5t-17 13.5t-8 16.5q0 16 20 16h177q20 0 20 -16q0 -9 -8 -15.5t-17 -13t-17 -15.5
t-8 -24v-534q0 -18 8 -26.5t17 -13.5t17 -10.5t8 -17.5q0 -16 -20 -16h-177q-20 0 -20 16q0 10 8 17t17 13.5t17 15t8 22.5v249h-324v-249q0 -18 8 -26.5t17 -13.5t17 -10.5t8 -17.5q0 -16 -20 -16h-178q-9 0 -14.5 5t-5.5 11zM257 765l112 89q11 10 23 10t23 -10l112 -89
q13 -10 10 -20t-15 -10q-2 0 -10 2l-120 44l-120 -44q-6 -2 -9 -2q-11 0 -14 10t8 20z" />
    <glyph glyph-name="uni0125" unicode="&#x125;" horiz-adv-x="599" 
d="M33 737q-16 -6 -22.5 5t7.5 23l112 89q22 19 46 0l112 -89q15 -12 8.5 -23t-23.5 -5l-120 44zM34 634q0 10 16 20l111 56q12 8 23.5 3t11.5 -21v-263q111 65 205 65q113 0 113 -134v-292q0 -14 22.5 -26.5t22.5 -24.5q0 -7 -5.5 -12t-14.5 -5h-158q-9 0 -14.5 5t-5.5 12
q0 13 23 25t23 26v242q0 58 -20 82.5t-66 24.5q-54 0 -125 -31v-318q0 -14 22 -26t22 -25q0 -17 -20 -17h-157q-20 0 -20 17q0 13 22.5 25t22.5 26v511q0 12 -8.5 19.5t-18.5 11t-18.5 9.5t-8.5 15z" />
    <glyph glyph-name="uni0126" unicode="&#x126;" horiz-adv-x="784" 
d="M64 537l50 -1v82q0 16 -8 24t-17.5 13.5t-17.5 12t-8 18.5q0 6 5.5 11t14.5 5h178q20 0 20 -16q0 -13 -25 -28q-25 -16 -25 -40v-85l164 -3l160 4v84q0 14 -8 22.5t-17 15.5t-17 13.5t-8 16.5q0 16 20 16h177q20 0 20 -16q0 -9 -8 -15.5t-17 -13t-17 -15.5t-8 -24v-82
l41 1q15 0 23 -8t8 -17.5t-8 -17.5t-23 -8l-41 1v-403q0 -18 8 -26.5t17 -13.5t17 -10.5t8 -17.5q0 -16 -20 -16h-177q-20 0 -20 16q0 10 8 17t17 13.5t17 15t8 22.5v249h-324v-249q0 -18 8 -26.5t17 -13.5t17 -10.5t8 -17.5q0 -16 -20 -16h-178q-9 0 -14.5 5t-5.5 11
q0 12 26 29q25 15 25 39v403l-50 -1q-15 0 -22.5 8t-7.5 17.5t7.5 17.5t22.5 8zM555 383v107l-160 5l-164 -4v-108h324z" />
    <glyph glyph-name="uni0127" unicode="&#x127;" horiz-adv-x="599" 
d="M-2 521q-19 -1 -27 12t0 26t27 12l90 -4v12q0 12 -8.5 19.5t-18.5 11t-18.5 9.5t-8.5 15q0 10 16 20l111 56q12 8 23.5 3t11.5 -21v-126l134 5q20 0 28 -13t0 -25.5t-28 -11.5l-134 6v-98q111 65 205 65q113 0 113 -134v-292q0 -14 22.5 -26.5t22.5 -24.5q0 -7 -5.5 -12
t-14.5 -5h-158q-9 0 -14.5 5t-5.5 12q0 13 23 25t23 26v242q0 58 -20 82.5t-66 24.5q-54 0 -125 -31v-318q0 -14 22 -26t22 -25q0 -17 -20 -17h-157q-20 0 -20 17q0 13 22.5 25t22.5 26v458z" />
    <glyph glyph-name="uni0128" unicode="&#x128;" horiz-adv-x="340" 
d="M14 787q40 77 99 77q13 0 32 -7.5t49.5 -22t50.5 -22.5l61 39q12 7 19.5 0t0.5 -19q-37 -78 -97 -78q-15 0 -33.5 6.5t-51.5 22t-50 22.5l-60 -37q-11 -7 -18.5 -0.5t-1.5 19.5zM61 16q0 13 25.5 28.5t25.5 39.5v534q0 19 -13 29t-25.5 18t-12.5 21q0 6 5.5 11t14.5 5
h178q20 0 20 -16q0 -12 -8 -19.5t-17 -11.5t-17 -13.5t-8 -23.5v-534q0 -19 12.5 -29.5t25 -18.5t12.5 -20q0 -16 -20 -16h-178q-9 0 -14.5 5t-5.5 11z" />
    <glyph glyph-name="uni0129" unicode="&#x129;" horiz-adv-x="291" 
d="M-20 614q38 88 102 88q19 0 39 -7.5t51 -22t56 -23.5l61 40q10 7 16.5 2t1.5 -17q-34 -88 -104 -88q-19 0 -37 7t-47.5 21t-60.5 24l-60 -40q-11 -7 -17 -1.5t-1 17.5zM41 414q0 10 16 20l108 54q14 9 26 4t12 -22v-402q0 -14 22.5 -26t22.5 -25q0 -7 -5.5 -12t-14.5 -5
h-158q-9 0 -14.5 5t-5.5 12q0 12 23 24.5t23 26.5v290q0 20 -27.5 31t-27.5 25z" />
    <glyph glyph-name="uni012A" unicode="&#x12a;" horiz-adv-x="340" 
d="M36 767q-19 0 -27 14.5t0 28.5t27 14h275q18 0 26 -14t0 -28.5t-26 -14.5h-275zM61 16q0 13 25.5 28.5t25.5 39.5v534q0 19 -13 29t-25.5 18t-12.5 21q0 6 5.5 11t14.5 5h178q20 0 20 -16q0 -12 -8 -19.5t-17 -11.5t-17 -13.5t-8 -23.5v-534q0 -19 12.5 -29.5t25 -18.5
t12.5 -20q0 -16 -20 -16h-178q-9 0 -14.5 5t-5.5 11z" />
    <glyph glyph-name="uni012B" unicode="&#x12b;" horiz-adv-x="291" 
d="M5 605q-19 0 -27 14.5t0 28.5t27 14h276q18 0 25.5 -14t0 -28.5t-25.5 -14.5h-276zM41 414q0 10 16 20l108 54q14 9 26 4t12 -22v-402q0 -14 22.5 -26t22.5 -25q0 -7 -5.5 -12t-14.5 -5h-158q-9 0 -14.5 5t-5.5 12q0 12 23 24.5t23 26.5v290q0 20 -27.5 31t-27.5 25z" />
    <glyph glyph-name="uni012C" unicode="&#x12c;" horiz-adv-x="340" 
d="M35 839q-4 16 5.5 21t18.5 -5q41 -38 111 -38t111 38q10 10 19.5 5t4.5 -21q-28 -89 -135 -89t-135 89zM61 16q0 13 25.5 28.5t25.5 39.5v534q0 19 -13 29t-25.5 18t-12.5 21q0 6 5.5 11t14.5 5h178q20 0 20 -16q0 -12 -8 -19.5t-17 -11.5t-17 -13.5t-8 -23.5v-534
q0 -19 12.5 -29.5t25 -18.5t12.5 -20q0 -16 -20 -16h-178q-9 0 -14.5 5t-5.5 11z" />
    <glyph glyph-name="uni012D" unicode="&#x12d;" horiz-adv-x="291" 
d="M7 689q-2 19 11 24t22 -10q20 -34 41.5 -49t58.5 -15q36 0 57.5 15t42.5 49q9 15 22 10t11 -24q-6 -59 -44.5 -90.5t-88.5 -31.5t-88 31.5t-45 90.5zM41 414q0 10 16 20l108 54q14 9 26 4t12 -22v-402q0 -14 22.5 -26t22.5 -25q0 -7 -5.5 -12t-14.5 -5h-158q-9 0 -14.5 5
t-5.5 12q0 12 23 24.5t23 26.5v290q0 20 -27.5 31t-27.5 25z" />
    <glyph glyph-name="uni012E" unicode="&#x12e;" horiz-adv-x="340" 
d="M168 0h-87q-9 0 -14.5 5t-5.5 11q0 12 26 29q25 15 25 39v534q0 15 -8 23.5t-17.5 15t-17.5 13t-8 16.5q0 6 5.5 11t14.5 5h178q20 0 20 -16q0 -13 -8 -19.5t-17 -12t-17 -13t-8 -23.5v-534q0 -15 8 -23.5t17 -15.5t17 -13.5t8 -15.5q0 -16 -20 -16h-1q-54 -4 -85 -32.5
t-31 -62.5q0 -40 42 -40q20 0 54 18q6 3 10 3q5 0 7 -4.5t-2 -11.5q-16 -32 -48 -51.5t-74 -19.5q-38 0 -61 20t-23 53q0 40 32 73t89 55z" />
    <glyph glyph-name="uni012F" unicode="&#x12f;" horiz-adv-x="291" 
d="M15 -128q0 40 32.5 73t89.5 55h-67q-9 0 -14.5 5t-5.5 12q0 11 23 25q23 12 23 26v290q0 21 -27 31q-28 10 -28 25q0 10 16 20l108 54q9 6 18 6q8 0 14 -6t6 -18v-402q0 -14 23 -26q22 -12 22 -25q0 -7 -5.5 -12t-14.5 -5h-2q-52 -4 -83.5 -32.5t-31.5 -62.5
q0 -40 41 -40q19 0 55 18q6 3 10 3q5 0 7 -4.5t-2 -11.5q-17 -32 -48.5 -51.5t-73.5 -19.5q-38 0 -61.5 20t-23.5 53zM143 714q29 0 50.5 -21t21.5 -51t-21.5 -51.5t-50.5 -21.5q-30 0 -51 22q-17 17 -20 38.5t5 40t25 31.5t41 13z" />
    <glyph glyph-name="uni0130" unicode="&#x130;" horiz-adv-x="340" 
d="M61 16q0 13 25.5 28.5t25.5 39.5v534q0 19 -13 29t-25.5 18t-12.5 21q0 6 5.5 11t14.5 5h178q20 0 20 -16q0 -12 -8 -19.5t-17 -11.5t-17 -13.5t-8 -23.5v-534q0 -19 12.5 -29.5t25 -18.5t12.5 -20q0 -16 -20 -16h-178q-9 0 -14.5 5t-5.5 11zM121 762q-21 20 -21 50
t20.5 50.5t49.5 20.5t50 -20.5t21 -50.5t-20.5 -50t-50.5 -20q-29 0 -49 20z" />
    <glyph glyph-name="uni0131" unicode="&#x131;" horiz-adv-x="291" 
d="M41 414q0 10 16 20l108 54q14 9 26 4t12 -22v-402q0 -14 22.5 -26t22.5 -25q0 -7 -5.5 -12t-14.5 -5h-158q-9 0 -14.5 5t-5.5 12q0 12 23 24.5t23 26.5v290q0 20 -27.5 31t-27.5 25z" />
    <glyph glyph-name="uni0132" unicode="&#x132;" horiz-adv-x="839" 
d="M374 106q0 31 18 51t49 20q62 0 69 -76q4 -31 16 -48t40 -17q58 0 58 99v483q0 15 -8 23.5t-17 15t-17 13t-8 16.5q0 16 20 16h177q20 0 20 -16q0 -13 -25 -28q-25 -16 -25 -40v-435q0 -93 -50.5 -144t-146.5 -51q-81 0 -125.5 33.5t-44.5 84.5zM81 702h178q20 0 20 -16
q0 -13 -8 -19.5t-17 -12t-17 -13t-8 -23.5v-534q0 -15 8 -23.5t17 -15.5t17 -13.5t8 -15.5q0 -16 -20 -16h-178q-9 0 -14.5 5t-5.5 11q0 12 26 29q25 15 25 39v534q0 15 -8 23.5t-17.5 15t-17.5 13t-8 16.5q0 6 5.5 11t14.5 5z" />
    <glyph glyph-name="uni0133" unicode="&#x133;" horiz-adv-x="596" 
d="M41 414q0 12 16 20l110 55q17 8 26.5 3t9.5 -21v-403q0 -14 22.5 -26t22.5 -25q0 -7 -6 -12t-15 -5h-157q-9 0 -14.5 5t-5.5 12q0 13 23 25t23 26v291q0 19 -27.5 30t-27.5 25zM84 586q-23 22 -23 53t22.5 53t53.5 22t53 -22t22 -53t-22 -53.5t-53 -22.5t-53 23z
M223 -122q0 25 16 42t44 17q24 0 40 -15.5t22.5 -34t16 -34t21.5 -15.5q27 0 27 77v444q0 19 -27 30t-27 25q0 13 16 20l109 55q15 8 25.5 3.5t10.5 -18.5v-475q0 -97 -47 -153t-125 -56q-55 0 -88.5 25.5t-33.5 62.5zM406 585q-22 21 -22 52t21.5 52.5t52.5 21.5
t52.5 -21.5t21.5 -52.5t-21.5 -52.5t-52.5 -21.5t-52 22z" />
    <glyph glyph-name="uni0134" unicode="&#x134;" horiz-adv-x="483" 
d="M18 106q0 31 18.5 51t49.5 20q59 0 69 -76q7 -65 55 -65q59 0 59 99v483q0 15 -8 24.5t-17.5 14t-17.5 11.5t-8 18q0 6 5.5 11t14.5 5h178q20 0 20 -16q0 -13 -25 -28.5t-25 -39.5v-435q0 -92 -51.5 -143.5t-146.5 -51.5q-79 0 -124.5 34t-45.5 84zM208 737q-16 -6 -22 5
t7 23l112 89q22 19 46 0l112 -89q15 -12 8.5 -23t-23.5 -5l-120 44z" />
    <glyph glyph-name="uni0135" unicode="&#x135;" horiz-adv-x="277" 
d="M-96 -122q0 25 16 42t44 17q24 0 40 -15.5t22.5 -34t16 -34t21.5 -15.5q27 0 27 77v444q0 19 -27 30t-27 25q0 13 16 20l109 55q16 8 26 2.5t10 -20.5v-472q0 -97 -47 -153t-125 -56q-55 0 -88.5 25.5t-33.5 62.5zM-2 571q0 9 9 20l81 92q28 31 47 31t47 -31l81 -92
q9 -11 9 -20q0 -11 -10 -14.5t-23 4.5l-104 63l-105 -63q-13 -8 -22.5 -4.5t-9.5 14.5z" />
    <glyph glyph-name="uni0136" unicode="&#x136;" horiz-adv-x="676" 
d="M61 16q0 9 8 15.5t17.5 13.5t17.5 15.5t8 23.5v534q0 16 -8 24t-17.5 13.5t-17.5 12t-8 18.5q0 6 5.5 11t14.5 5h178q20 0 20 -16q0 -13 -25 -28q-25 -16 -25 -40v-241l229 216q11 11 11 26q0 6 -2 15t-4 19t-4 18t-2 11q0 20 24 20h142q23 0 23 -18q0 -11 -18 -25
q-9 -6 -23 -15t-30.5 -20t-32.5 -23.5t-30 -25.5l-183 -171l258 -306q8 -10 18 -19.5t21 -17.5q22 -17 32.5 -26t10.5 -18q0 -17 -20 -17h-183q-23 0 -23 18q0 5 3.5 10.5t8 11t8 10.5t3.5 8q0 7 -8 17l-229 274v-265q0 -14 8 -22.5t17 -15t17 -13.5t8 -17q0 -16 -20 -16
h-178q-9 0 -14.5 5t-5.5 11zM270 -242q55 16 66 44q6 18 -17 24q-30 7 -45 21q-7 7 -11 19t-4 25.5t5.5 27t15.5 23.5q20 19 51 19q15 0 30 -5.5t27 -16.5t19.5 -26.5t7.5 -36.5q0 -30 -10.5 -55.5t-28.5 -45t-43 -31.5t-55 -15h-4q-15 0 -17 12t13 17z" />
    <glyph glyph-name="uni0137" unicode="&#x137;" horiz-adv-x="541" 
d="M34 634q0 10 16 20l111 55q8 5 16 5q19 0 19 -22v-409l119 96q20 12 18 32l-5 52q-1 19 16 19h140q20 0 20 -17q0 -10 -15 -21l-96 -62l-102 -82l171 -212q7 -8 15 -15t18 -14q20 -14 30 -22.5t10 -18.5q0 -18 -20 -18h-163q-22 0 -22 19q0 9 10.5 19.5t10.5 18.5
q0 9 -9 19l-146 182v-190q0 -14 22 -26q22 -13 22 -25q0 -17 -20 -17h-157q-20 0 -20 17q0 11 23 25q22 12 22 26v511q0 13 -8.5 19.5t-18.5 11t-18.5 9.5t-8.5 15zM209 -242q55 16 66 44q6 18 -17 24q-30 7 -45 21q-7 7 -11 19t-4 25.5t5.5 27t15.5 23.5q20 19 51 19
q15 0 30 -5.5t27 -16.5t19.5 -26.5t7.5 -36.5q0 -30 -10.5 -55.5t-28.5 -45t-43 -31.5t-55 -15h-4q-15 0 -17 12t13 17z" />
    <glyph glyph-name="uni0138" unicode="&#x138;" horiz-adv-x="548" 
d="M41 414q0 10 16 20l110 56q8 5 15 5q9 0 15 -6t6 -17v-189l119 96q20 12 17 32l-4 52q-1 19 16 19h140q20 0 20 -17q0 -10 -15 -21l-97 -62l-101 -81l171 -213q11 -14 24 -24t24 -17.5t18 -14t7 -14.5q0 -18 -20 -18h-163q-22 0 -22 19q0 9 10.5 19.5t10.5 18.5
q0 9 -9 19l-146 182v-190q0 -14 22 -26q22 -13 22 -25q0 -17 -20 -17h-157q-20 0 -20 17q0 13 23 25q22 12 22 26v291q0 13 -8.5 19.5t-18.5 11t-18.5 9.5t-8.5 15z" />
    <glyph glyph-name="uni0139" unicode="&#x139;" horiz-adv-x="637" 
d="M61 16q0 13 25.5 28.5t25.5 39.5v534q0 14 -8 23.5t-17.5 14t-17.5 12.5t-8 18q0 16 20 16h183q20 0 20 -16q0 -13 -13 -21.5t-25.5 -19t-12.5 -27.5v-531q0 -20 9 -28.5t29 -8.5h153q31 0 49.5 9.5t32.5 33.5l57 101q6 11 16 14t17.5 -3.5t7.5 -19.5v-136q0 -49 -51 -49
h-472q-20 0 -20 16zM96 736q-24 -4 -30 11.5t17 28.5l118 62q26 13 49 13q21 0 34 -11t13 -29q0 -19 -16 -34t-47 -19z" />
    <glyph glyph-name="uni013A" unicode="&#x13a;" horiz-adv-x="284" 
d="M54 736q-24 -4 -30.5 11.5t16.5 28.5l119 62q26 13 49 13q21 0 34 -11t13 -29q0 -19 -16 -34t-47 -19zM34 634q0 13 16 20l108 55q14 8 25.5 3.5t11.5 -20.5v-624q0 -14 22.5 -26t22.5 -25q0 -17 -20 -17h-157q-20 0 -20 17q0 12 22.5 24.5t22.5 26.5v511q0 12 -8.5 19.5
t-18.5 11t-18.5 9.5t-8.5 15z" />
    <glyph glyph-name="uni013B" unicode="&#x13b;" horiz-adv-x="637" 
d="M61 16q0 13 25.5 28.5t25.5 39.5v534q0 14 -8 23.5t-17.5 14t-17.5 12.5t-8 18q0 16 20 16h183q20 0 20 -16q0 -13 -13 -21.5t-25.5 -19t-12.5 -27.5v-531q0 -20 9 -28.5t29 -8.5h153q31 0 49.5 9.5t32.5 33.5l57 101q6 11 16 14t17.5 -3.5t7.5 -19.5v-136q0 -49 -51 -49
h-472q-20 0 -20 16zM229 -266q-6 6 -3.5 13.5t12.5 10.5q57 17 66 44q7 18 -17 24q-30 6 -44.5 21t-14.5 45t20.5 50t53.5 20t57 -23.5t24 -62.5q0 -59 -38.5 -100.5t-97.5 -46.5q-12 -1 -18 5z" />
    <glyph glyph-name="uni013C" unicode="&#x13c;" horiz-adv-x="284" 
d="M34 634q0 13 16 20l108 55q14 8 25.5 3.5t11.5 -20.5v-624q0 -14 22.5 -26t22.5 -25q0 -17 -20 -17h-157q-20 0 -20 17q0 12 22.5 24.5t22.5 26.5v511q0 12 -8.5 19.5t-18.5 11t-18.5 9.5t-8.5 15zM59 -266q-6 6 -3.5 13.5t12.5 10.5q57 17 66 44q7 18 -17 24
q-30 7 -44.5 21.5t-14.5 44.5t21 50t54 20q32 0 56 -23.5t24 -62.5q0 -59 -38.5 -100.5t-97.5 -46.5q-12 -1 -18 5z" />
    <glyph glyph-name="uni013D" unicode="&#x13d;" horiz-adv-x="638" 
d="M61 16q0 13 25.5 28.5t25.5 39.5v534q0 14 -8 23.5t-17.5 14t-17.5 12.5t-8 18q0 16 20 16h183q20 0 20 -16q0 -13 -13 -21.5t-25.5 -19t-12.5 -27.5v-531q0 -20 9 -28.5t29 -8.5h153q31 0 49.5 9.5t32.5 33.5l57 101q6 11 16 14t17.5 -3.5t7.5 -19.5v-136q0 -49 -51 -49
h-472q-20 0 -20 16zM347 488q-2 4 -2 8.5t3.5 8t9.5 5.5q58 17 67 44q5 18 -18 23q-30 7 -44.5 22t-14.5 45t21 50t54 20q32 0 56 -23.5t24 -62.5q0 -60 -38 -101t-98 -47q-7 -1 -12.5 1.5t-7.5 6.5z" />
    <glyph glyph-name="uni013E" unicode="&#x13e;" horiz-adv-x="297" 
d="M34 634q0 13 16 20l108 55q14 8 25.5 3.5t11.5 -20.5v-624q0 -14 22.5 -26t22.5 -25q0 -17 -20 -17h-157q-20 0 -20 17q0 12 22.5 24.5t22.5 26.5v511q0 12 -8.5 19.5t-18.5 11t-18.5 9.5t-8.5 15zM242 481q-6 6 -3.5 13.5t12.5 10.5q56 17 66 44q6 18 -17 24
q-30 6 -44.5 20.5t-14.5 45.5q0 30 20.5 50t53.5 20t57 -23.5t24 -62.5q0 -59 -38.5 -100.5t-97.5 -46.5q-12 -1 -18 5z" />
    <glyph glyph-name="uni013F" unicode="&#x13f;" horiz-adv-x="637" 
d="M61 16q0 13 25.5 28.5t25.5 39.5v534q0 14 -8 23.5t-17.5 14t-17.5 12.5t-8 18q0 16 20 16h183q20 0 20 -16q0 -13 -13 -21.5t-25.5 -19t-12.5 -27.5v-531q0 -20 9 -28.5t29 -8.5h153q31 0 49.5 9.5t32.5 33.5l57 101q6 11 16 14t17.5 -3.5t7.5 -19.5v-136q0 -49 -51 -49
h-472q-20 0 -20 16zM320 356q0 32 22 53.5t53 21.5t53 -21.5t22 -53.5q0 -31 -21.5 -52.5t-53.5 -21.5t-53.5 21.5t-21.5 52.5z" />
    <glyph glyph-name="uni0140" unicode="&#x140;" horiz-adv-x="320" 
d="M34 634q0 13 16 20l108 55q14 8 25.5 3.5t11.5 -20.5v-624q0 -14 22.5 -26t22.5 -25q0 -17 -20 -17h-157q-20 0 -20 17q0 12 22.5 24.5t22.5 26.5v511q0 12 -8.5 19.5t-18.5 11t-18.5 9.5t-8.5 15zM229 367q0 29 21 50.5t51 21.5t51.5 -21.5t21.5 -50.5q0 -31 -21.5 -52
t-51.5 -21t-51 21t-21 52z" />
    <glyph glyph-name="uni0141" unicode="&#x141;" horiz-adv-x="668" 
d="M59 297l85 46v275q0 15 -8 23.5t-17.5 14.5t-17.5 12t-8 18q0 16 20 16h182q20 0 20 -16q0 -10 -8 -17t-17 -14t-17 -15.5t-8 -21.5v-210l110 77q12 6 21 6q10 0 16.5 -5.5t8 -13.5t-2.5 -17t-16 -16l-137 -81v-271q0 -20 9 -28.5t29 -8.5h153q31 0 49.5 9.5t32.5 33.5
l57 101q9 15 21 15q8 0 13.5 -6.5t5.5 -17.5v-136q0 -49 -50 -49h-472q-20 0 -20 16q0 12 26 29q25 15 25 39v206l-60 -40q-9 -5 -20 -5q-7 0 -11 2q-14 5 -13.5 22t19.5 28z" />
    <glyph glyph-name="uni0142" unicode="&#x142;" horiz-adv-x="354" 
d="M49 319l78 40v220q0 13 -8.5 19.5t-19 11t-19 9.5t-8.5 15q0 13 16 20l109 55q8 5 16 5q9 0 15 -5.5t6 -16.5v-275l56 43q12 9 22 9q13 0 20 -13q7 -11 3.5 -22.5t-17.5 -19.5l-84 -46v-300q0 -14 23 -26q22 -12 22 -25q0 -7 -5.5 -12t-14.5 -5h-157q-21 0 -21 17
q0 11 23 25q23 12 23 26v243l-52 -39q-7 -7 -18 -7q-15 0 -23 12q-16 26 15 42z" />
    <glyph glyph-name="uni0143" unicode="&#x143;" horiz-adv-x="771" 
d="M72 702h111q34 0 53 -24l375 -465v395q0 15 -8 25.5t-17.5 19t-17.5 16t-8 17.5q0 16 19 16h115q18 0 18 -14q0 -12 -20 -35t-20 -45v-589q0 -14 -8.5 -22t-20.5 -8q-8 0 -16.5 4t-15.5 13l-437 542v-454q0 -15 8 -26t18 -19t18 -16t8 -17q0 -16 -19 -16h-116
q-18 0 -18 16q0 11 20 33t20 45v495q0 22 -32 52q-33 29 -33 44q0 17 24 17zM323 776l119 62q25 13 48 13q22 0 34.5 -11t12.5 -29q0 -19 -15.5 -34t-46.5 -19l-138 -22q-2 0 -3.5 -0.5t-3.5 -0.5q-20 0 -24.5 14.5t17.5 26.5z" />
    <glyph glyph-name="uni0144" unicode="&#x144;" horiz-adv-x="606" 
d="M41 413q0 10 16 20l110 56q8 5 16 5t14 -5.5t6 -17.5v-43q104 66 200 66q118 0 118 -129v-300q0 -11 23 -23q22 -13 22 -25q0 -17 -20 -17h-157q-20 0 -20 17q0 13 23 25q22 10 22 23v248q0 57 -19 80.5t-67 23.5q-60 0 -125 -30v-322q0 -11 23 -23q22 -12 22 -25
q0 -17 -20 -17h-158q-20 0 -20 17q0 11 23 25q22 12 22 23v293q0 20 -27 32q-27 11 -27 23zM242 596l65 74q39 44 69 44q22 0 36.5 -15t14.5 -36q0 -38 -50 -59l-107 -47q-7 -3 -13 -3q-15 0 -21.5 13t6.5 29z" />
    <glyph glyph-name="uni0145" unicode="&#x145;" horiz-adv-x="771" 
d="M48 685q0 17 24 17h111q34 0 53 -24l375 -465v395q0 15 -8 25.5t-17.5 19t-17.5 16t-8 17.5q0 16 19 16h115q18 0 18 -14q0 -12 -20 -35t-20 -45v-589q0 -14 -8.5 -22t-20.5 -8q-8 0 -16.5 4t-15.5 13l-437 542v-454q0 -15 8 -26t18 -19t18 -16t8 -17q0 -16 -19 -16h-116
q-18 0 -18 16q0 11 20 33t20 45v495q0 22 -32 52q-33 29 -33 44zM331 -242q57 16 66 44q7 18 -17 24q-30 6 -44.5 21t-14.5 45t21 50t54 20q32 0 56 -23.5t24 -62.5q0 -30 -10 -55.5t-28 -45t-43 -31.5t-55 -15q-5 0 -9.5 0.5t-8.5 4.5q-6 6 -3.5 13.5t12.5 10.5z" />
    <glyph glyph-name="uni0146" unicode="&#x146;" horiz-adv-x="606" 
d="M41 413q0 10 16 20l110 56q8 5 16 5t14 -5.5t6 -17.5v-43q104 66 200 66q118 0 118 -129v-300q0 -11 23 -23q22 -13 22 -25q0 -17 -20 -17h-157q-20 0 -20 17q0 13 23 25q22 10 22 23v248q0 57 -19 80.5t-67 23.5q-60 0 -125 -30v-322q0 -11 23 -23q22 -12 22 -25
q0 -17 -20 -17h-158q-20 0 -20 17q0 11 23 25q22 12 22 23v293q0 20 -27 32q-27 11 -27 23zM241 -242q57 16 66 44q7 18 -17 24q-30 7 -44.5 21.5t-14.5 44.5t21 50t54 20q32 0 56 -23.5t24 -62.5q0 -30 -10 -55.5t-28 -45t-43 -31.5t-55 -15q-5 0 -9.5 0.5t-8.5 4.5
q-6 6 -3.5 13.5t12.5 10.5z" />
    <glyph glyph-name="uni0147" unicode="&#x147;" horiz-adv-x="771" 
d="M72 702h111q34 0 53 -24l375 -465v395q0 15 -8 25.5t-17.5 19t-17.5 16t-8 17.5q0 16 19 16h115q18 0 18 -14q0 -12 -20 -35t-20 -45v-589q0 -14 -8.5 -22t-20.5 -8q-8 0 -16.5 4t-15.5 13l-437 542v-454q0 -15 8 -26t18 -19t18 -16t8 -17q0 -16 -19 -16h-116
q-18 0 -18 16q0 11 20 33t20 45v495q0 22 -32 52q-33 29 -33 44q0 17 24 17zM299 861l119 -44l120 44q6 2 9 2q11 0 14 -8.5t-7 -18.5l-113 -92q-10 -9 -23 -9q-11 0 -23 9l-112 91q-11 8 -7.5 18t14.5 10q3 0 9 -2z" />
    <glyph glyph-name="uni0148" unicode="&#x148;" horiz-adv-x="606" 
d="M57 433l110 56q8 5 16 5t14 -5.5t6 -17.5v-43q104 66 200 66q118 0 118 -129v-300q0 -11 23 -23q22 -13 22 -25q0 -17 -20 -17h-157q-20 0 -20 17q0 13 23 25q22 10 22 23v248q0 57 -19 80.5t-67 23.5q-60 0 -125 -30v-322q0 -11 23 -23q22 -12 22 -25q0 -17 -20 -17
h-158q-20 0 -20 17q0 11 23 25q22 12 22 23v293q0 20 -27 32q-27 11 -27 23q0 10 16 20zM187 698q0 15 17 15q8 0 16 -4l104 -62l104 62q8 4 17 4q16 0 16 -15q0 -10 -9 -19l-81 -92q-28 -31 -47 -31q-17 0 -47 31l-81 92q-9 9 -9 19z" />
    <glyph glyph-name="uni0149" unicode="&#x149;" horiz-adv-x="606" 
d="M41 413q0 10 16 20l110 56q8 5 16 5t14 -5.5t6 -17.5v-43q104 66 200 66q118 0 118 -129v-300q0 -11 23 -23q22 -13 22 -25q0 -17 -20 -17h-157q-20 0 -20 17q0 13 23 25q22 10 22 23v248q0 57 -19 80.5t-67 23.5q-60 0 -125 -30v-322q0 -11 23 -23q22 -12 22 -25
q0 -17 -20 -17h-158q-20 0 -20 17q0 11 23 25q22 12 22 23v293q0 20 -27 32q-27 11 -27 23zM84 567q53 15 62 41q5 17 -16 21q-28 7 -41.5 20.5t-13.5 41.5q0 27 19.5 46t49.5 19t52.5 -22t22.5 -58q0 -55 -35 -93.5t-92 -43.5q-17 -1 -20 11t12 17z" />
    <glyph glyph-name="uni014A" unicode="&#x14a;" horiz-adv-x="771" 
d="M48 685q0 17 24 17h111q34 0 53 -24l375 -468v398q0 15 -8 25.5t-17.5 19t-17.5 16t-8 17.5q0 16 19 16h115q18 0 18 -14q0 -12 -20 -35t-20 -45v-623q0 -94 -49 -144.5t-143 -50.5q-81 0 -126 33.5t-45 84.5q0 31 18.5 51t49.5 20q58 0 69 -77q7 -64 53 -64q56 0 56 99
v139l-381 471v-453q0 -15 8 -26t18 -19t18 -16t8 -17q0 -16 -19 -16h-116q-18 0 -18 16q0 11 20 33t20 45v495q0 22 -32 52q-33 29 -33 44z" />
    <glyph glyph-name="uni014B" unicode="&#x14b;" horiz-adv-x="595" 
d="M41 413q0 10 16 20l110 56q8 5 16 5t14 -5.5t6 -17.5v-43q104 66 203 66q115 0 115 -129v-366q0 -97 -47 -153t-126 -56q-54 0 -88 25.5t-34 62.5q0 25 16.5 42t44.5 17q41 0 59 -48q3 -5 9 -17.5t9 -17.5t9.5 -10.5t13.5 -5.5q18 0 22.5 22t4.5 55v398q0 57 -19 80.5
t-67 23.5q-60 0 -125 -30v-322q0 -11 23 -23q22 -12 22 -25q0 -17 -20 -17h-158q-20 0 -20 17q0 11 23 25q22 12 22 23v293q0 14 -8.5 20.5t-18.5 11t-18.5 9t-8.5 14.5z" />
    <glyph glyph-name="uni014C" unicode="&#x14c;" horiz-adv-x="796" 
d="M147 95q-96 106 -96 256t96 256.5t251 106.5q156 0 251.5 -106.5t95.5 -256.5t-95.5 -256.5t-251.5 -106.5q-155 0 -251 107zM194 330q0 -139 53 -215t151 -76t151.5 76.5t53.5 214.5v44q0 137 -53.5 213t-151.5 76t-151 -76t-53 -213v-44zM264 767q-19 0 -27 14.5
t0 28.5t27 14h276q18 0 25.5 -14t0 -28.5t-25.5 -14.5h-276z" />
    <glyph glyph-name="uni014D" unicode="&#x14d;" horiz-adv-x="586" 
d="M114 58q-71 70 -71 183t70.5 182.5t179.5 69.5q108 0 178.5 -69.5t70.5 -182.5t-70.5 -183t-178.5 -70q-109 0 -179 70zM156 605q-19 0 -27 14.5t0 28.5t27 14h275q18 0 26 -14t0 -28.5t-26 -14.5h-275zM167 216q0 -89 33 -134.5t93 -45.5t92.5 45.5t32.5 135.5v48
q0 90 -32.5 135.5t-92.5 45.5t-93 -46t-33 -135v-49z" />
    <glyph glyph-name="uni014E" unicode="&#x14e;" horiz-adv-x="796" 
d="M147 95q-96 106 -96 256t96 256.5t251 106.5q156 0 251.5 -106.5t95.5 -256.5t-95.5 -256.5t-251.5 -106.5q-155 0 -251 107zM194 330q0 -139 53 -215t151 -76t151.5 76.5t53.5 214.5v44q0 137 -53.5 213t-151.5 76t-151 -76t-53 -213v-44zM263 839q-4 16 5.5 21t18.5 -5
q41 -38 111 -38t111 38q10 10 19.5 5t4.5 -21q-28 -89 -135 -89t-135 89z" />
    <glyph glyph-name="uni014F" unicode="&#x14f;" horiz-adv-x="586" 
d="M114 58q-71 70 -71 183t70.5 182.5t179.5 69.5q108 0 178.5 -69.5t70.5 -182.5t-70.5 -183t-178.5 -70q-109 0 -179 70zM157 689q-2 19 11 24t22 -10q19 -34 41 -49t59 -15q36 0 57.5 15t42.5 49q9 15 22 10t11 -24q-6 -59 -44.5 -90.5t-88.5 -31.5t-88 31.5t-45 90.5z
M167 216q0 -89 33 -134.5t93 -45.5t92.5 45.5t32.5 135.5v48q0 90 -32.5 135.5t-92.5 45.5t-93 -46t-33 -135v-49z" />
    <glyph glyph-name="uni0150" unicode="&#x150;" horiz-adv-x="796" 
d="M51 351q0 76 25 142.5t70.5 115.5t109.5 77t142 28t142 -28t109.5 -77t70.5 -115t25 -143q0 -76 -25 -142t-71 -115t-109.5 -77.5t-141.5 -28.5q-77 0 -141 28.5t-109.5 77.5t-71 115.5t-25.5 141.5zM398 39q99 0 152 76t53 215v44q0 138 -53 213.5t-152 75.5
t-151.5 -75.5t-52.5 -213.5v-44q0 -140 52.5 -215.5t151.5 -75.5zM451 765l74 70q17 16 29 21.5t32 5.5h74q14 0 16.5 -11t-18.5 -21l-187 -89q-7 -3 -13 -3q-11 0 -14 8.5t7 18.5zM286 765l73 70q17 16 29 21.5t33 5.5h73q14 0 16.5 -11t-18.5 -21l-187 -89q-7 -3 -13 -3
q-11 0 -14 8.5t8 18.5z" />
    <glyph glyph-name="uni0151" unicode="&#x151;" horiz-adv-x="586" 
d="M43 241q0 56 18 102t51 79.5t79 52t102 18.5t102 -18.5t78.5 -51.5t50.5 -79.5t18 -102.5q0 -55 -18 -101.5t-50.5 -80.5t-78.5 -52.5t-102 -18.5q-55 0 -101 18.5t-79 52.5t-51.5 80.5t-18.5 101.5zM293 36q60 0 92.5 45t32.5 136v48q0 91 -32.5 136t-92.5 45t-93 -45.5
t-33 -135.5v-49q0 -90 33 -135t93 -45zM324 578l53 86q23 38 52 38h76q18 0 22 -8.5t-8 -18.5l-160 -122q-9 -8 -21 -8q-11 0 -16.5 9.5t2.5 23.5zM179 577l41 83q20 42 60 42h58q18 0 19.5 -8t-11.5 -19l-132 -121q-10 -10 -21 -10t-16.5 9.5t2.5 23.5z" />
    <glyph glyph-name="uni0152" unicode="&#x152;" horiz-adv-x="1076" 
d="M51 351q0 77 26 143.5t73.5 115.5t113 76.5t143.5 27.5q51 0 96 -12h460q51 0 51 -47v-129q0 -11 -5 -16t-13 -5q-11 0 -19 12l-59 93q-28 42 -81 42h-163q-28 0 -28 -28v-224h118q37 0 57 32l37 60q8 15 19 15q7 0 12 -6.5t5 -18.5v-215q0 -11 -5 -17.5t-11 -6.5
q-11 0 -20 15l-37 60q-20 32 -57 32h-118v-263q0 -20 9 -28.5t29 -8.5h150q31 0 50 9t34 34l58 94q7 13 20 13q7 0 12 -5t5 -16v-130q0 -49 -51 -49h-457q-45 -12 -98 -12q-78 0 -143.5 28t-112.5 76.5t-73.5 115t-26.5 143.5zM190 333q0 -51 11.5 -104.5t37.5 -98t68 -72.5
t103 -28q68 0 124 49v545q-58 48 -124 48q-61 0 -103 -28t-68 -72t-37.5 -98t-11.5 -105v-36z" />
    <glyph glyph-name="uni0153" unicode="&#x153;" horiz-adv-x="897" 
d="M114 58q-71 70 -71 183t70.5 182.5t178.5 69.5q115 0 182 -78q66 79 175 79q90 0 145 -52t55 -122q0 -29 -12 -41.5t-38 -12.5h-284q2 -89 50 -139t126 -50q33 0 60.5 10t42 21.5t27.5 21.5t21 10q20 0 9 -28q-21 -56 -73 -90t-125 -34q-111 0 -178 78q-69 -78 -183 -78
q-108 0 -178 70zM167 232q0 -102 30.5 -150t94.5 -48q63 0 93.5 48.5t30.5 150.5v16q0 102 -30.5 150t-93.5 48q-64 0 -94.5 -48t-30.5 -150v-17zM516 312h196q29 0 29 27q0 47 -24.5 78t-75.5 31q-53 0 -87 -35.5t-38 -100.5z" />
    <glyph glyph-name="uni0154" unicode="&#x154;" horiz-adv-x="675" 
d="M81 702h239q144 0 216 -49.5t72 -140.5q0 -77 -61.5 -126t-197.5 -58q32 -9 58 -36l167 -192q19 -22 40 -36q22 -16 31.5 -24.5t9.5 -21.5q0 -18 -26 -18h-86q-36 0 -67 37l-247 290v-243q0 -14 8 -22.5t17 -15t17 -13.5t8 -17q0 -16 -20 -16h-178q-20 0 -20 16
q0 12 26 29q25 15 25 39v534q0 16 -8 24t-17.5 13.5t-17.5 12t-8 18.5q0 6 5.5 11t14.5 5zM290 370q190 0 190 137q0 147 -188 147h-31q-32 0 -32 -29v-251q23 -4 61 -4zM253 776l119 62q25 13 49 13q21 0 34 -11t13 -29q0 -19 -16 -34t-47 -19l-138 -22q-2 0 -3.5 -0.5
t-3.5 -0.5q-20 0 -24.5 14.5t17.5 26.5z" />
    <glyph glyph-name="uni0155" unicode="&#x155;" horiz-adv-x="428" 
d="M42 413q0 12 15 21l108 54q9 6 18 6q20 0 20 -23v-62q22 39 57.5 62t77.5 23q35 0 56 -18.5t21 -47.5q0 -26 -16.5 -41.5t-42.5 -15.5q-11 0 -23.5 5t-25 11.5t-24.5 11.5t-21 5q-27 0 -43 -19t-16 -54v-266q0 -11 22 -23t22 -25q0 -17 -20 -17h-157q-20 0 -20 17
q0 11 23 25q22 12 22 23v292q0 15 -8.5 21.5t-18 11t-18 9t-8.5 14.5zM129 596l65 74q39 44 69 44q22 0 36.5 -15t14.5 -36q0 -38 -50 -59l-107 -47q-7 -3 -13 -3q-15 0 -21.5 13t6.5 29z" />
    <glyph glyph-name="uni0156" unicode="&#x156;" horiz-adv-x="675" 
d="M81 702h239q144 0 216 -49.5t72 -140.5q0 -77 -61.5 -126t-197.5 -58q32 -9 58 -36l167 -192q19 -22 40 -36q22 -16 31.5 -24.5t9.5 -21.5q0 -18 -26 -18h-86q-36 0 -67 37l-247 290v-243q0 -14 8 -22.5t17 -15t17 -13.5t8 -17q0 -16 -20 -16h-178q-20 0 -20 16
q0 12 26 29q25 15 25 39v534q0 16 -8 24t-17.5 13.5t-17.5 12t-8 18.5q0 6 5.5 11t14.5 5zM290 370q190 0 190 137q0 147 -188 147h-31q-32 0 -32 -29v-251q23 -4 61 -4zM293 -58q19 19 50 19q15 0 30 -5.5t27 -16.5t19.5 -26.5t7.5 -36.5q0 -30 -10 -55.5t-28 -45
t-43 -31.5t-55 -15q-5 0 -9.5 0.5t-8.5 4.5q-6 6 -3.5 13.5t12.5 10.5q55 16 66 44q6 18 -17 24q-31 6 -44 21q-7 7 -11 19t-4 25.5t5.5 27t15.5 23.5z" />
    <glyph glyph-name="uni0157" unicode="&#x157;" horiz-adv-x="428" 
d="M42 413q0 12 15 21l108 54q9 6 18 6q20 0 20 -23v-62q22 39 57.5 62t77.5 23q35 0 56 -18.5t21 -47.5q0 -26 -16.5 -41.5t-42.5 -15.5q-11 0 -23.5 5t-25 11.5t-24.5 11.5t-21 5q-27 0 -43 -19t-16 -54v-266q0 -11 22 -23t22 -25q0 -17 -20 -17h-157q-20 0 -20 17
q0 11 23 25q22 12 22 23v292q0 15 -8.5 21.5t-18 11t-18 9t-8.5 14.5zM84 -242q57 16 66 44q7 18 -17 24q-30 7 -44.5 21.5t-14.5 44.5t21 50t54 20q32 0 56 -23.5t24 -62.5q0 -30 -10 -55.5t-28 -45t-43 -31.5t-55 -15q-5 0 -9.5 0.5t-8.5 4.5q-6 6 -3.5 13.5t12.5 10.5z
" />
    <glyph glyph-name="uni0158" unicode="&#x158;" horiz-adv-x="675" 
d="M81 702h239q144 0 216 -49.5t72 -140.5q0 -77 -61.5 -126t-197.5 -58q32 -9 58 -36l167 -192q19 -22 40 -36q22 -16 31.5 -24.5t9.5 -21.5q0 -18 -26 -18h-86q-36 0 -67 37l-247 290v-243q0 -14 8 -22.5t17 -15t17 -13.5t8 -17q0 -16 -20 -16h-178q-20 0 -20 16
q0 12 26 29q25 15 25 39v534q0 16 -8 24t-17.5 13.5t-17.5 12t-8 18.5q0 6 5.5 11t14.5 5zM290 370q190 0 190 137q0 147 -188 147h-31q-32 0 -32 -29v-251q23 -4 61 -4zM229 861l119 -44l120 44q6 2 9 2q11 0 14 -8.5t-7 -18.5l-113 -92q-10 -9 -23 -9q-11 0 -23 9l-112 91
q-11 8 -7.5 18t14.5 10q3 0 9 -2z" />
    <glyph glyph-name="uni0159" unicode="&#x159;" horiz-adv-x="428" 
d="M57 434l108 54q9 6 18 6q20 0 20 -23v-62q22 39 57.5 62t77.5 23q35 0 56 -18.5t21 -47.5q0 -26 -16.5 -41.5t-42.5 -15.5q-11 0 -23.5 5t-25 11.5t-24.5 11.5t-21 5q-27 0 -43 -19t-16 -54v-266q0 -11 22 -23t22 -25q0 -17 -20 -17h-157q-20 0 -20 17q0 11 23 25
q22 12 22 23v292q0 15 -8.5 21.5t-18 11t-18 9t-8.5 14.5q0 12 15 21zM107 709l104 -62l104 62q8 4 17 4q17 0 17 -15q0 -10 -9 -19l-82 -92q-28 -31 -47 -31q-17 0 -47 31l-81 92q-9 9 -9 19q0 15 17 15q8 0 16 -4z" />
    <glyph glyph-name="uni015A" unicode="&#x15a;" horiz-adv-x="570" 
d="M54 116q0 32 20 51t51 19q59 0 80 -71q22 -77 107 -77q50 0 77.5 24.5t27.5 69.5q0 46 -36.5 87t-127.5 88q-108 56 -151 108t-43 116q0 78 58.5 130.5t164.5 52.5q96 0 160 -38.5t64 -93.5q0 -28 -18 -43t-45 -15q-52 0 -73 64q-25 76 -107 76q-50 0 -77.5 -23.5
t-27.5 -63.5t33 -76t116 -78q114 -59 163 -117t49 -128q0 -80 -58 -135t-176 -55q-93 0 -162 34.5t-69 93.5zM195 736q-24 -4 -30 11.5t17 28.5l119 62q25 13 48 13q21 0 34 -11t13 -29q0 -19 -15.5 -34t-46.5 -19z" />
    <glyph glyph-name="uni015B" unicode="&#x15b;" horiz-adv-x="450" 
d="M48 93q0 23 13 37t34 14q18 0 30.5 -11.5t20.5 -27.5t18 -32t29 -27.5t48 -11.5q34 0 54 15.5t20 43.5q0 27 -25.5 50.5t-93.5 56.5q-77 38 -108.5 75.5t-31.5 85.5q0 64 46 98.5t121 34.5q67 0 118 -27t51 -74q0 -21 -11 -33t-30 -12t-35.5 15.5t-27 34.5t-32.5 34.5
t-51 15.5q-30 0 -48 -15t-18 -39q0 -50 102 -95q93 -41 127 -81.5t34 -86.5q0 -69 -47.5 -106t-126.5 -37q-71 0 -125.5 29t-54.5 76zM162 557q-20 -9 -32 6t4 33l65 74q38 44 68 44q23 0 37.5 -15t14.5 -36q0 -37 -51 -59z" />
    <glyph glyph-name="uni015C" unicode="&#x15c;" horiz-adv-x="570" 
d="M54 116q0 32 20 51t51 19q59 0 80 -71q22 -77 107 -77q50 0 77.5 24.5t27.5 69.5q0 46 -36.5 87t-127.5 88q-108 56 -151 108t-43 116q0 78 58.5 130.5t164.5 52.5q96 0 160 -38.5t64 -93.5q0 -28 -18 -43t-45 -15q-52 0 -73 64q-25 76 -107 76q-50 0 -77.5 -23.5
t-27.5 -63.5t33 -76t116 -78q114 -59 163 -117t49 -128q0 -80 -58 -135t-176 -55q-93 0 -162 34.5t-69 93.5zM158 737q-16 -6 -22.5 5t7.5 23l111 89q22 19 46 0l112 -89q15 -12 8.5 -23t-22.5 -5l-121 44z" />
    <glyph glyph-name="uni015D" unicode="&#x15d;" horiz-adv-x="450" 
d="M48 93q0 23 13 37t34 14q18 0 30.5 -11.5t20.5 -27.5t18 -32t29 -27.5t48 -11.5q34 0 54 15.5t20 43.5q0 27 -25.5 50.5t-93.5 56.5q-77 38 -108.5 75.5t-31.5 85.5q0 64 46 98.5t121 34.5q67 0 118 -27t51 -74q0 -21 -11 -33t-30 -12t-35.5 15.5t-27 34.5t-32.5 34.5
t-51 15.5q-30 0 -48 -15t-18 -39q0 -50 102 -95q93 -41 127 -81.5t34 -86.5q0 -69 -47.5 -106t-126.5 -37q-71 0 -125.5 29t-54.5 76zM79 571q0 9 9 20l81 92q28 31 47 31t47 -31l81 -92q9 -11 9 -20q0 -11 -9.5 -14.5t-23.5 4.5l-104 63l-104 -63q-14 -8 -23.5 -4.5
t-9.5 14.5z" />
    <glyph glyph-name="uni015E" unicode="&#x15e;" horiz-adv-x="570" 
d="M54 116q0 32 20 51t51 19q59 0 80 -71q22 -77 107 -77q50 0 77.5 24.5t27.5 69.5q0 46 -36.5 87t-127.5 88q-108 56 -151 108t-43 116q0 78 58.5 130.5t164.5 52.5q96 0 160 -38.5t64 -93.5q0 -28 -18 -43t-45 -15q-52 0 -73 64q-25 76 -107 76q-50 0 -77.5 -23.5
t-27.5 -63.5t33 -76t116 -78q114 -59 163 -117t49 -128q0 -79 -58 -134.5t-175 -55.5l-30 -37q59 0 91.5 -20.5t32.5 -53.5q0 -37 -38 -62t-104 -25q-46 0 -71 15t-25 38q0 17 11.5 28.5t29.5 11.5q14 0 44 -13.5t51 -13.5q41 0 41 31q0 24 -32 24q-8 0 -24.5 -2t-24.5 -2
q-34 0 -34 25q0 14 18 36l21 22q-80 8 -134.5 41t-54.5 85z" />
    <glyph glyph-name="uni015F" unicode="&#x15f;" horiz-adv-x="450" 
d="M48 93q0 23 13 37t34 14q18 0 30.5 -11.5t20.5 -27.5t18 -32t29 -27.5t48 -11.5q34 0 54 15.5t20 43.5q0 27 -25.5 50.5t-93.5 56.5q-77 38 -108.5 75.5t-31.5 85.5q0 64 46 98.5t121 34.5q67 0 118 -27t51 -74q0 -21 -11 -33t-30 -12t-35.5 15.5t-27 34.5t-32.5 34.5
t-51 15.5q-30 0 -48 -15t-18 -39q0 -50 102 -95q93 -41 127 -81.5t34 -86.5q0 -69 -47.5 -106t-126.5 -37h-3l-29 -37q59 0 91.5 -20.5t32.5 -53.5q0 -37 -38 -62t-104 -25q-46 0 -71.5 15t-25.5 38q0 17 11.5 28.5t30.5 11.5q14 0 43.5 -13.5t50.5 -13.5q41 0 41 31
q0 24 -32 24q-7 0 -23.5 -2t-24.5 -2q-35 0 -35 25q0 13 19 36l21 23q-57 9 -96 36t-39 66z" />
    <glyph glyph-name="uni0160" unicode="&#x160;" horiz-adv-x="570" 
d="M54 116q0 32 20 51t51 19q59 0 80 -71q22 -77 107 -77q50 0 77.5 24.5t27.5 69.5q0 46 -36.5 87t-127.5 88q-108 56 -151 108t-43 116q0 78 58.5 130.5t164.5 52.5q96 0 160 -38.5t64 -93.5q0 -28 -18 -43t-45 -15q-52 0 -73 64q-25 76 -107 76q-50 0 -77.5 -23.5
t-27.5 -63.5t33 -76t116 -78q114 -59 163 -117t49 -128q0 -80 -58 -135t-176 -55q-93 0 -162 34.5t-69 93.5zM142 835q-13 10 -6.5 21t22.5 5l118 -44l120 44q15 5 21.5 -4t-5.5 -21l-113 -92q-23 -18 -45 0z" />
    <glyph glyph-name="uni0161" unicode="&#x161;" horiz-adv-x="450" 
d="M48 93q0 23 13 37t34 14q18 0 30.5 -11.5t20.5 -27.5t18 -32t29 -27.5t48 -11.5q34 0 54 15.5t20 43.5q0 27 -25.5 50.5t-93.5 56.5q-77 38 -108.5 75.5t-31.5 85.5q0 64 46 98.5t121 34.5q67 0 118 -27t51 -74q0 -21 -11 -33t-30 -12t-35.5 15.5t-27 34.5t-32.5 34.5
t-51 15.5q-30 0 -48 -15t-18 -39q0 -50 102 -95q93 -41 127 -81.5t34 -86.5q0 -69 -47.5 -106t-126.5 -37q-71 0 -125.5 29t-54.5 76zM79 698q0 11 10 14.5t23 -3.5l104 -62l104 62q13 7 23 3.5t10 -14.5q0 -10 -9 -19l-81 -92q-28 -31 -47 -31t-47 31l-81 92q-9 9 -9 19z
" />
    <glyph glyph-name="uni0162" unicode="&#x162;" horiz-adv-x="640" 
d="M23 546l23 115q5 26 13.5 33.5t33.5 7.5q18 0 45 -0.5t63 -1.5q30 -1 59.5 -1.5t59.5 -0.5q22 0 51 0.5t64 1.5t63 1.5t48 0.5q26 0 34.5 -7.5t13.5 -33.5l23 -115q2 -11 -3 -17t-13 -6q-11 0 -20 9l-90 82q-13 12 -24 19.5t-23.5 11.5t-28 5.5t-36.5 1.5v-568
q0 -14 8 -22.5t17 -15t17 -13.5t8 -17q0 -16 -20 -16h-75l-38 -49q60 0 92 -20.5t32 -53.5q0 -37 -38 -62t-104 -25q-46 0 -71.5 15t-25.5 38q0 17 11.5 28.5t30.5 11.5q6 0 18 -4t25.5 -9.5t27.5 -9.5t23 -4q41 0 41 31q0 24 -32 24q-7 0 -23.5 -2t-24.5 -2q-35 0 -35 25
q0 14 19 36l30 32h-61q-20 0 -20 16q0 13 25 29q25 15 25 39v568q-21 0 -36.5 -1.5t-28 -5.5t-23.5 -11.5t-24 -19.5l-90 -82q-9 -9 -20 -9q-8 0 -13 6t-3 17z" />
    <glyph glyph-name="uni0163" unicode="&#x163;" horiz-adv-x="386" 
d="M26 479l148 121q10 8 17 8q17 0 17 -23v-103h150q18 0 18 -17v-14q0 -17 -18 -17h-150v-321q0 -33 15 -47t49 -14q12 0 25 1.5t23.5 4t18.5 4t9 1.5q13 0 13 -12q0 -16 -16.5 -27.5t-39 -19.5t-45 -12t-33.5 -4l-30 -37q60 0 92 -20.5t32 -53.5q0 -37 -38 -62t-104 -25
q-46 0 -71 15t-25 38q0 17 11.5 28.5t29.5 11.5q6 0 18 -4t26 -9.5t28 -9.5t23 -4q41 0 41 31q0 24 -32 24q-8 0 -24.5 -2t-24.5 -2q-34 0 -34 25q0 13 18 36l22 23q-84 17 -84 121v300q0 28 -28 28h-34q-20 0 -24.5 13t11.5 26z" />
    <glyph glyph-name="uni0164" unicode="&#x164;" horiz-adv-x="640" 
d="M23 546l23 115q5 26 13.5 33.5t33.5 7.5q36 0 108 -2.5t119 -1.5q44 0 115 2t111 2q26 0 34.5 -7.5t13.5 -33.5l23 -115q4 -18 -9.5 -22t-26.5 8l-90 82q-26 24 -47.5 31t-64.5 7v-568q0 -18 12.5 -28t25 -18.5t12.5 -21.5q0 -16 -20 -16h-178q-20 0 -20 16q0 13 25 28.5
t25 39.5v568q-43 0 -64.5 -7t-47.5 -31l-90 -82q-13 -12 -26.5 -8t-9.5 22zM182 835q-13 10 -6.5 21t22.5 5l119 -44l119 44q16 5 22.5 -4t-6.5 -21l-112 -92q-23 -18 -46 0z" />
    <glyph glyph-name="uni0165" unicode="&#x165;" horiz-adv-x="386" 
d="M26 479l148 121q10 8 17 8q17 0 17 -23v-103h150q18 0 18 -17v-14q0 -17 -18 -17h-150v-321q0 -33 15 -47t49 -14q12 0 25 1.5t23.5 4t18.5 4t9 1.5q13 0 13 -12q0 -16 -17.5 -28t-41 -19.5t-47 -11.5t-35.5 -4q-119 0 -119 124v300q0 28 -28 28h-34q-20 0 -24.5 13
t11.5 26zM250 582q57 16 66 44q7 18 -17 24q-30 6 -44.5 21t-14.5 45t21 50t54 20q32 0 56 -23.5t24 -62.5q0 -30 -10 -55.5t-28 -45t-43 -31.5t-55 -15q-5 0 -9.5 0.5t-8.5 4.5q-6 6 -3.5 13.5t12.5 10.5z" />
    <glyph glyph-name="uni0166" unicode="&#x166;" horiz-adv-x="640" 
d="M23 546l23 115q5 26 13.5 33.5t33.5 7.5q18 0 45 -0.5t63 -1.5q30 -1 59.5 -1.5t59.5 -0.5q22 0 51 0.5t64 1.5t63 1.5t48 0.5q26 0 34.5 -7.5t13.5 -33.5l23 -115q2 -11 -3 -17t-13 -6q-11 0 -20 9l-90 82q-13 12 -24 19.5t-23.5 11.5t-28 5.5t-36.5 1.5v-161l130 3
q14 0 20.5 -8t6 -17t-7 -17t-20.5 -8l-129 3v-363q0 -14 8 -22.5t17 -15t17 -13.5t8 -17q0 -16 -20 -16h-178q-20 0 -20 16q0 13 25 29q25 15 25 39v363l-130 -3q-13 0 -20 8t-6.5 17t7.5 17t20 8l129 -3v161q-21 0 -36.5 -1.5t-28 -5.5t-23.5 -11.5t-24 -19.5l-90 -82
q-9 -9 -20 -9q-8 0 -13 6t-3 17z" />
    <glyph glyph-name="uni0167" unicode="&#x167;" horiz-adv-x="394" 
d="M33 479l147 121q10 8 17 8q17 0 17 -23v-103h150q19 0 19 -17v-14q0 -17 -19 -17h-150v-70l114 1q29 0 29 -22v-6q0 -14 -9 -18t-21 -4l-113 5v-207q0 -33 15 -47t50 -14q12 0 24.5 1.5t23 4t18.5 4t9 1.5q14 0 14 -12q0 -16 -17.5 -28t-41.5 -20t-47.5 -11.5t-35.5 -3.5
q-119 0 -119 124v208l-62 -1q-30 0 -30 23v4q0 14 10 18t21 4l61 -2v46q0 28 -28 28h-34q-19 0 -23.5 13t11.5 26z" />
    <glyph glyph-name="uni0168" unicode="&#x168;" horiz-adv-x="737" 
d="M65 702h182q20 0 20 -16q0 -13 -25 -28q-25 -16 -25 -40v-365q0 -97 48.5 -145.5t139.5 -48.5q90 0 133.5 47.5t43.5 150.5v344q0 26 -26 47q-26 20 -26 38q0 16 22 16h113q19 0 19 -15q0 -9 -20 -34q-21 -24 -21 -51v-349q0 -265 -261 -265q-66 0 -119 17.5t-90.5 50
t-57.5 79t-20 103.5v380q0 14 -8 22.5t-17 15.5t-17 13.5t-8 16.5q0 16 20 16zM249 787q41 77 99 77q14 0 32 -7q9 -4 22 -10t27 -12.5t27.5 -12.5t23.5 -10l61 39q6 3 10 3q8 0 11.5 -6.5t-1.5 -15.5q-37 -78 -97 -78q-16 0 -33 7q-9 3 -23 9t-28.5 12.5t-28 13t-22.5 9.5
l-60 -37q-6 -3 -11 -3q-7 0 -10.5 6t1.5 16z" />
    <glyph glyph-name="uni0169" unicode="&#x169;" horiz-adv-x="597" 
d="M50 429l112 59q10 5 17 5q18 0 18 -22v-308q0 -57 20 -81.5t71 -24.5q58 0 111 35v261q0 14 -8.5 21t-19 11.5t-19 9.5t-8.5 16q0 14 16 21l111 57q8 5 17 5q18 0 18 -22v-355q0 -14 8.5 -20.5t19 -11t19 -9.5t8.5 -16q0 -13 -16 -20l-111 -49q-8 -4 -16 -4q-19 0 -19 23
v37q-74 -59 -169 -59q-66 0 -103 37t-37 113v214q0 11 -5 17t-12.5 10t-15.5 7t-14 7q-9 6 -9 16t16 20zM135 614q37 88 102 88q21 0 39 -7q20 -8 51 -22.5t56 -23.5l61 40q5 4 11 4q5 0 8 -5.5t-1 -13.5q-34 -88 -104 -88q-20 0 -37 7q-18 7 -47.5 21t-60.5 24l-60 -40
q-8 -4 -11 -4q-6 0 -8.5 5.5t1.5 14.5z" />
    <glyph glyph-name="uni016A" unicode="&#x16a;" horiz-adv-x="737" 
d="M45 686q0 16 20 16h182q20 0 20 -16q0 -13 -25 -28q-25 -16 -25 -40v-365q0 -97 48.5 -145.5t139.5 -48.5q90 0 133.5 47.5t43.5 150.5v344q0 26 -26 47q-26 20 -26 38q0 16 22 16h113q19 0 19 -15q0 -9 -20 -34q-21 -24 -21 -51v-349q0 -265 -261 -265q-66 0 -119 17.5
t-90.5 50t-57.5 79t-20 103.5v380q0 14 -8 22.5t-17 15.5t-17 13.5t-8 16.5zM270 824h276q15 0 22 -9t7 -19.5t-7 -19.5t-22 -9h-276q-15 0 -22.5 9t-7.5 19.5t7.5 19.5t22.5 9z" />
    <glyph glyph-name="uni016B" unicode="&#x16b;" horiz-adv-x="597" 
d="M50 429l112 59q10 5 17 5q18 0 18 -22v-308q0 -57 20 -81.5t71 -24.5q58 0 111 35v261q0 14 -8.5 21t-19 11.5t-19 9.5t-8.5 16q0 14 16 21l111 57q8 5 17 5q18 0 18 -22v-355q0 -14 8.5 -20.5t19 -11t19 -9.5t8.5 -16q0 -13 -16 -20l-111 -49q-8 -4 -16 -4q-19 0 -19 23
v37q-74 -59 -169 -59q-66 0 -103 37t-37 113v214q0 11 -5 17t-12.5 10t-15.5 7t-14 7q-9 6 -9 16t16 20zM161 662h275q15 0 22 -9t7 -19.5t-7 -19.5t-22 -9h-275q-15 0 -22.5 9t-7.5 19.5t7.5 19.5t22.5 9z" />
    <glyph glyph-name="uni016C" unicode="&#x16c;" horiz-adv-x="737" 
d="M45 686q0 16 20 16h182q20 0 20 -16q0 -13 -25 -28q-25 -16 -25 -40v-365q0 -97 48.5 -145.5t139.5 -48.5q90 0 133.5 47.5t43.5 150.5v344q0 26 -26 47q-26 20 -26 38q0 16 22 16h113q19 0 19 -15q0 -9 -20 -34q-21 -24 -21 -51v-349q0 -265 -261 -265q-66 0 -119 17.5
t-90.5 50t-57.5 79t-20 103.5v380q0 14 -8 22.5t-17 15.5t-17 13.5t-8 16.5zM293 855q41 -38 111 -38t111 38q6 6 13 6t10.5 -5.5t1.5 -16.5q-29 -89 -136 -89q-106 0 -135 89q-2 11 1.5 16.5t9.5 5.5q7 0 13 -6z" />
    <glyph glyph-name="uni016D" unicode="&#x16d;" horiz-adv-x="597" 
d="M50 429l112 59q10 5 17 5q18 0 18 -22v-308q0 -57 20 -81.5t71 -24.5q58 0 111 35v261q0 14 -8.5 21t-19 11.5t-19 9.5t-8.5 16q0 14 16 21l111 57q8 5 17 5q18 0 18 -22v-355q0 -14 8.5 -20.5t19 -11t19 -9.5t8.5 -16q0 -13 -16 -20l-111 -49q-8 -4 -16 -4q-19 0 -19 23
v37q-74 -59 -169 -59q-66 0 -103 37t-37 113v214q0 11 -5 17t-12.5 10t-15.5 7t-14 7q-9 6 -9 16t16 20zM195 703q20 -34 41.5 -49t58.5 -15q36 0 57.5 15t42.5 49q7 11 17 11q7 0 12.5 -6.5t3.5 -18.5q-3 -30 -14.5 -52.5t-29.5 -38t-41 -23.5t-48 -8q-51 0 -88.5 31
t-44.5 91q-2 12 3.5 18.5t12.5 6.5q10 0 17 -11z" />
    <glyph glyph-name="uni016E" unicode="&#x16e;" horiz-adv-x="737" 
d="M45 686q0 16 20 16h182q20 0 20 -16q0 -13 -25 -28q-25 -16 -25 -40v-365q0 -97 48.5 -145.5t139.5 -48.5q90 0 133.5 47.5t43.5 150.5v344q0 26 -26 47q-26 20 -26 38q0 16 22 16h113q19 0 19 -15q0 -9 -20 -34q-21 -24 -21 -51v-349q0 -265 -261 -265q-66 0 -119 17.5
t-90.5 50t-57.5 79t-20 103.5v380q0 14 -8 22.5t-17 15.5t-17 13.5t-8 16.5zM340 880q28 26 64 26q37 0 65 -26q26 -26 26 -61.5t-26 -61.5q-28 -26 -65 -26q-38 0 -64 26q-27 25 -27 61t27 62zM404 775q21 0 32 13.5t11 29.5t-11 29.5t-32 13.5q-18 0 -30 -12
q-10 -10 -12 -23t2.5 -24.5t15 -19t24.5 -7.5z" />
    <glyph glyph-name="uni016F" unicode="&#x16f;" horiz-adv-x="597" 
d="M50 429l112 59q10 5 17 5q18 0 18 -22v-308q0 -57 20 -81.5t71 -24.5q58 0 111 35v261q0 14 -8.5 21t-19 11.5t-19 9.5t-8.5 16q0 14 16 21l111 57q8 5 17 5q18 0 18 -22v-355q0 -14 8.5 -20.5t19 -11t19 -9.5t8.5 -16q0 -13 -16 -20l-111 -49q-8 -4 -16 -4q-19 0 -19 23
v37q-74 -59 -169 -59q-66 0 -103 37t-37 113v214q0 11 -5 17t-12.5 10t-15.5 7t-14 7q-9 6 -9 16t16 20zM238 690q12 12 27.5 18t31.5 6q17 0 32.5 -6t28.5 -18q26 -24 26 -58t-26 -58q-13 -12 -28.5 -18t-32.5 -6q-16 0 -31.5 6t-27.5 18q-25 24 -25 58t25 58zM266 600
q13 -13 31 -13q19 0 32 13q12 13 12 32t-12 32t-32 13q-19 0 -31 -13t-12 -32t12 -32z" />
    <glyph glyph-name="uni0170" unicode="&#x170;" horiz-adv-x="737" 
d="M65 702h182q20 0 20 -16q0 -13 -25 -28q-25 -16 -25 -40v-365q0 -97 48.5 -145.5t139.5 -48.5q90 0 133.5 47.5t43.5 150.5v344q0 26 -26 47q-26 20 -26 38q0 16 22 16h113q19 0 19 -15q0 -9 -20 -34q-21 -24 -21 -51v-349q0 -265 -261 -265q-66 0 -119 17.5t-90.5 50
t-57.5 79t-20 103.5v380q0 14 -8 22.5t-17 15.5t-17 13.5t-8 16.5q0 16 20 16zM458 765l73 70q17 16 29 21.5t32 5.5h74q14 0 16.5 -11t-18.5 -21l-187 -89q-7 -3 -13 -3q-11 0 -14 8.5t8 18.5zM292 765l73 70q29 27 62 27h74q12 0 15 -11t-18 -21l-187 -89q-7 -3 -13 -3
q-11 0 -13.5 8.5t7.5 18.5z" />
    <glyph glyph-name="uni0171" unicode="&#x171;" horiz-adv-x="597" 
d="M50 429l112 59q10 5 17 5q18 0 18 -22v-308q0 -57 20 -81.5t71 -24.5q58 0 111 35v261q0 14 -8.5 21t-19 11.5t-19 9.5t-8.5 16q0 14 16 21l111 57q8 5 17 5q18 0 18 -22v-355q0 -14 8.5 -20.5t19 -11t19 -9.5t8.5 -16q0 -13 -16 -20l-111 -49q-8 -4 -16 -4q-19 0 -19 23
v37q-74 -59 -169 -59q-66 0 -103 37t-37 113v214q0 11 -5 17t-12.5 10t-15.5 7t-14 7q-9 6 -9 16t16 20zM329 578l53 86q23 38 52 38h76q18 0 22 -8.5t-8 -18.5l-160 -122q-9 -8 -21 -8q-11 0 -16.5 9.5t2.5 23.5zM184 577l41 83q23 42 60 42h58q36 0 9 -27l-133 -121
q-10 -10 -21 -10t-16.5 9.5t2.5 23.5z" />
    <glyph glyph-name="uni0172" unicode="&#x172;" horiz-adv-x="737" 
d="M45 686q0 16 20 16h182q20 0 20 -16q0 -13 -25 -28q-25 -16 -25 -40v-320q0 -239 188 -239q88 0 133 57.5t45 186.5v311q0 23 -25 41q-25 16 -25 31q0 16 20 16h115q19 0 19 -15q0 -10 -21 -30q-22 -19 -22 -43v-311q0 -129 -41.5 -200.5t-129.5 -103.5q-98 -36 -98 -93
q0 -20 13 -30.5t35 -10.5q12 0 24.5 3.5t23.5 7t19 7t10 3.5q7 0 7 -7q0 -17 -17 -31.5t-40.5 -25t-47 -17t-37.5 -6.5q-37 0 -59 17t-22 50q0 34 29.5 66.5t78.5 55.5q-146 1 -221.5 73t-75.5 207v350q0 14 -8 22.5t-17 15.5t-17 13.5t-8 16.5z" />
    <glyph glyph-name="uni0173" unicode="&#x173;" horiz-adv-x="597" 
d="M50 428l112 60q10 5 16 5q19 0 19 -23v-307q0 -57 20 -81.5t71 -24.5q56 0 111 35v261q0 16 -8.5 23t-19 11.5t-19 8.5t-8.5 14t16 20l111 59q8 5 17 5q18 0 18 -22v-355q0 -14 8.5 -20.5t19 -11t19 -9.5t8.5 -16q0 -12 -15 -20l-109 -47q-31 -14 -48 -35.5t-17 -42.5
q0 -20 13 -31t34 -11q31 0 68 18q6 3 11 3t6.5 -4t-3.5 -10q-9 -16 -23.5 -29t-32.5 -22t-39 -14t-42 -5q-38 0 -60.5 17.5t-22.5 50.5q0 36 32 68.5t86 56.5v48q-73 -63 -169 -63q-66 0 -103 37t-37 113v213q0 11 -5 17t-12.5 10t-15.5 7t-14 7q-9 6 -9 16t16 20z" />
    <glyph glyph-name="uni0174" unicode="&#x174;" horiz-adv-x="932" 
d="M1 688q0 14 18 14h191q18 0 18 -14q0 -8 -23 -28t-23 -38q0 -11 6 -26l123 -420l124 486q6 22 20.5 35.5t37.5 13.5q24 0 37.5 -13t19.5 -36l132 -491l115 422q4 17 4 24q0 20 -21 39q-21 18 -21 31q0 15 18 15h126q20 0 20 -15q0 -6 -7.5 -12t-18 -15t-20.5 -22t-16 -33
l-166 -583q-9 -34 -41 -34q-33 0 -43 34l-139 521l-136 -521q-10 -34 -43 -34q-32 0 -42 34l-190 582q-7 24 -34 51q-26 26 -26 33zM352 765l112 89q11 10 23 10t22 -10l113 -89q12 -10 9.5 -20t-14.5 -10q-2 0 -10 2l-121 44l-119 -44q-6 -2 -9 -2q-11 0 -14.5 10t8.5 20z
" />
    <glyph glyph-name="uni0175" unicode="&#x175;" horiz-adv-x="762" 
d="M23 482h175q15 0 15 -12q0 -5 -21 -25q-21 -19 -21 -39q0 -9 5 -26l84 -251l99 320q6 18 17 31t32 13q17 0 31 -11q13 -11 20 -33l105 -316l79 247q5 18 5 27q0 17 -19 37t-19 26q0 12 15 12h113q15 0 15 -12q0 -5 -6.5 -10.5t-15.5 -14t-19 -22t-16 -34.5l-120 -369
q-11 -32 -39 -32q-29 0 -40 32l-116 352l-109 -352q-9 -32 -38 -32q-27 0 -39 32l-131 368q-7 21 -17 35t-19 22.5t-15 14t-6 9.5q0 13 16 13zM256 571q0 10 9 20l81 92q30 31 48 31q17 0 47 -31l81 -92q9 -10 9 -20q0 -16 -16 -16q-8 0 -17 6l-104 63l-105 -63
q-9 -6 -17 -6q-16 0 -16 16z" />
    <glyph glyph-name="uni0176" unicode="&#x176;" horiz-adv-x="634" 
d="M24 702h195q18 0 18 -14q0 -9 -22 -28t-22 -33q0 -11 11 -28l141 -198l140 211q9 14 9 25q0 6 -5 13.5t-10.5 14.5t-10.5 13t-5 10q0 14 17 14h130q18 0 18 -13q0 -5 -7.5 -11.5t-19 -16t-25 -22.5t-25.5 -31l-170 -250v-274q0 -23 25 -38t25 -30q0 -16 -20 -16h-178
q-20 0 -20 16q0 9 8 15t17.5 13t17.5 16t8 24v250l-187 262q-8 11 -16.5 22t-18.5 21q-19 20 -27.5 30t-8.5 18q0 15 18 15zM212 765l111 89q11 10 23 10t23 -10l112 -89q13 -10 9.5 -20t-14.5 -10q-3 0 -9 2l-121 44l-120 -44q-6 -2 -9 -2q-11 0 -14 10t9 20z" />
    <glyph glyph-name="uni0177" unicode="&#x177;" horiz-adv-x="516" 
d="M-5 -138q0 23 18 41t45 18q10 0 21.5 -4t23 -9.5t22 -9.5t17.5 -4q24 0 36 21q13 22 54 124l-166 350q-9 19 -19.5 32t-19.5 21.5t-15 14.5t-6 12q0 13 16 13h189q15 0 15 -12q0 -9 -23 -27q-23 -20 -23 -35q0 -7 8 -28l100 -230l101 230q6 15 6 26q0 18 -19 38
q-20 20 -20 27q0 11 15 11h125q15 0 15 -12q0 -3 -6.5 -10t-15.5 -17t-18 -22t-15 -25l-208 -455q-36 -81 -74.5 -116t-87.5 -35q-40 0 -65.5 19t-25.5 53zM145 571q0 10 9 20l81 92q28 31 47 31q20 0 47 -31l82 -92q9 -10 9 -20q0 -16 -16 -16q-8 0 -17 6l-105 63l-104 -63
q-9 -6 -17 -6q-16 0 -16 16z" />
    <glyph glyph-name="uni0178" unicode="&#x178;" horiz-adv-x="634" 
d="M6 687q0 15 18 15h195q18 0 18 -14q0 -9 -22 -28t-22 -33q0 -11 11 -28l141 -198l140 211q9 14 9 25q0 6 -5 13.5t-10.5 14.5t-10.5 13t-5 10q0 14 17 14h130q18 0 18 -13q0 -5 -7.5 -11.5t-19 -16t-25 -22.5t-25.5 -31l-170 -250v-274q0 -23 25 -38t25 -30
q0 -16 -20 -16h-178q-20 0 -20 16q0 9 8 15t17.5 13t17.5 16t8 24v250l-187 262q-8 11 -16.5 22t-18.5 21q-19 20 -27.5 30t-8.5 18zM386 812q0 28 19.5 47.5t47.5 19.5q26 0 45.5 -19.5t19.5 -47.5q0 -26 -19.5 -45.5t-45.5 -19.5q-28 0 -47.5 19.5t-19.5 45.5zM174 812
q0 28 19.5 47.5t46.5 19.5t46.5 -19.5t19.5 -47.5q0 -26 -19.5 -45.5t-46.5 -19.5t-46.5 19.5t-19.5 45.5z" />
    <glyph glyph-name="uni0179" unicode="&#x179;" horiz-adv-x="623" 
d="M63 0q-17 0 -22 10t4 24l394 624h-188q-58 0 -92 -49l-63 -91q-9 -14 -23 -11t-14 19v136q0 40 42 40h457q17 0 22 -10t-4 -24l-388 -624h191q59 0 93 51l58 86q10 13 23.5 10t13.5 -19v-132q0 -40 -41 -40h-463zM237 736q-24 -4 -30.5 11.5t16.5 28.5l119 62
q26 13 49 13q21 0 34 -11t13 -29q0 -19 -16 -34t-47 -19z" />
    <glyph glyph-name="uni017A" unicode="&#x17a;" horiz-adv-x="477" 
d="M64 0q-17 0 -22 10t4 24l251 408h-77q-33 0 -59 -18t-38.5 -39.5t-26.5 -39.5t-26 -18q-19 0 -19 22v104q0 29 30 29h322q17 0 22 -10t-4 -24l-252 -409h99q32 0 57.5 18.5t37.5 41t26 41t26 18.5q18 0 18 -21v-111q0 -26 -27 -26h-342zM190 557q-20 -9 -31.5 5.5
t3.5 33.5l65 74q39 44 69 44q23 0 37 -14.5t14 -36.5q0 -38 -50 -59z" />
    <glyph glyph-name="uni017B" unicode="&#x17b;" horiz-adv-x="623" 
d="M63 0q-17 0 -22 10t4 24l394 624h-188q-58 0 -92 -49l-63 -91q-9 -14 -23 -11t-14 19v136q0 40 42 40h457q17 0 22 -10t-4 -24l-388 -624h191q59 0 93 51l58 86q10 13 23.5 10t13.5 -19v-132q0 -40 -41 -40h-463zM269 762q-21 20 -21 50t21 50.5t50 20.5t49.5 -20.5
t20.5 -50.5t-20.5 -50t-49.5 -20q-30 0 -50 20z" />
    <glyph glyph-name="uni017C" unicode="&#x17c;" horiz-adv-x="477" 
d="M64 0q-17 0 -22 10t4 24l251 408h-77q-33 0 -59 -18t-38.5 -39.5t-26.5 -39.5t-26 -18q-19 0 -19 22v104q0 29 30 29h322q17 0 22 -10t-4 -24l-252 -409h99q32 0 57.5 18.5t37.5 41t26 41t26 18.5q18 0 18 -21v-111q0 -26 -27 -26h-342zM193 591q-21 21 -21 51t21 51
t50 21q30 0 51.5 -21t21.5 -51t-21.5 -51.5t-51.5 -21.5q-29 0 -50 22z" />
    <glyph glyph-name="uni017D" unicode="&#x17d;" horiz-adv-x="623" 
d="M63 0q-17 0 -22 10t4 24l394 624h-188q-58 0 -92 -49l-63 -91q-9 -14 -23 -11t-14 19v136q0 40 42 40h457q17 0 22 -10t-4 -24l-388 -624h191q59 0 93 51l58 86q10 13 23.5 10t13.5 -19v-132q0 -40 -41 -40h-463zM183 835q-13 10 -6.5 21t22.5 5l119 -44l120 44
q15 5 21.5 -4t-5.5 -21l-113 -92q-23 -18 -46 0z" />
    <glyph glyph-name="uni017E" unicode="&#x17e;" horiz-adv-x="477" 
d="M64 0q-17 0 -22 10t4 24l251 408h-77q-33 0 -59 -18t-38.5 -39.5t-26.5 -39.5t-26 -18q-19 0 -19 22v104q0 29 30 29h322q17 0 22 -10t-4 -24l-252 -409h99q32 0 57.5 18.5t37.5 41t26 41t26 18.5q18 0 18 -21v-111q0 -26 -27 -26h-342zM107 698q0 11 10 14.5t23 -3.5
l104 -62l104 62q14 7 24 3.5t10 -14.5q0 -10 -9 -19l-82 -92q-28 -31 -47 -31q-17 0 -47 31l-81 92q-9 9 -9 19z" />
    <glyph glyph-name="uni017F" unicode="&#x17f;" horiz-adv-x="320" 
d="M24 450v16q0 16 16 16h65l-10 69q-11 75 26 119t102 44q49 0 85.5 -30.5t36.5 -71.5q0 -23 -13.5 -38.5t-35.5 -15.5q-26 0 -41 16.5t-19 36t-14 36t-28 16.5q-23 0 -31 -22.5t7 -62.5l24 -55q19 -44 19 -87v-368q0 -14 22 -26t22 -25q0 -7 -5.5 -12t-14.5 -5h-157
q-9 0 -14.5 5t-5.5 12q0 13 22.5 25t22.5 26v366h-65q-16 0 -16 16z" />
    <glyph glyph-name="uni018F" unicode="&#x18f;" horiz-adv-x="749" 
d="M52 257q-4 30 10.5 46t42.5 16h468q-6 301 -213 301q-62 0 -117 -25.5t-85.5 -55.5t-57 -55.5t-36.5 -25.5q-18 0 -7 27q39 108 126 168.5t202 60.5q143 0 227.5 -92.5t84.5 -252.5q0 -164 -94 -272.5t-247 -108.5q-128 0 -208.5 70.5t-95.5 198.5zM190 203
q9 -84 56 -130t127 -46q85 0 137.5 58.5t60.5 173.5h-335q-53 0 -46 -56z" />
    <glyph glyph-name="uni0192" unicode="&#x192;" horiz-adv-x="584" 
d="M26 -119q0 25 16 40.5t40 15.5t53 -26t51 -26q36 0 36 34q0 8 -15 45.5t-7 76.5l64 343l-62 -1q-13 -1 -21.5 5.5t-8.5 16.5v4q0 11 9 17t22 5l70 -2l7 39q18 85 65.5 130.5t112.5 45.5q43 0 69.5 -19t26.5 -49q0 -23 -16 -36.5t-39 -13.5q-25 0 -52.5 24t-48.5 24
q-23 0 -36 -17t-4 -55l18 -75l106 1q29 0 29 -22v-6q0 -10 -8.5 -16.5t-21.5 -5.5l-111 5l-71 -390q-15 -82 -62.5 -132t-115.5 -50q-43 0 -69 19.5t-26 50.5z" />
    <glyph glyph-name="uni01B5" unicode="&#x1b5;" horiz-adv-x="628" 
d="M65 0q-17 0 -22 10t4 24l186 295l-106 -2q-30 0 -30 23v4q0 22 31 22l133 -3l180 285h-188q-58 0 -92 -49l-63 -91q-9 -14 -22.5 -11t-13.5 19v136q0 40 41 40h457q16 0 21.5 -10t-2.5 -24l-184 -296l114 1q29 0 29 -22v-6q0 -24 -30 -22l-141 5l-177 -284h191
q59 0 93 51l58 86q10 13 23.5 10t13.5 -19v-132q0 -40 -41 -40h-463z" />
    <glyph glyph-name="uni01B6" unicode="&#x1b6;" horiz-adv-x="481" 
d="M66 0q-17 0 -22 10t4 24l121 196l-74 -2q-30 0 -30 23v4q0 22 31 22l100 -3l104 168h-77q-34 0 -60 -18t-38.5 -39.5t-26.5 -39.5t-26 -18q-19 0 -19 22v104q0 29 30 29h322q17 0 22 -10t-4 -24l-107 -174h66q29 0 29 -22v-6q0 -24 -30 -22l-93 4l-117 -189h99
q32 0 57.5 18.5t37.5 41t26 41t26 18.5q18 0 18 -21v-111q0 -26 -27 -26h-342z" />
    <glyph glyph-name="uni01EA" unicode="&#x1ea;" horiz-adv-x="792" 
d="M52 351q0 150 95 256.5t249 106.5q103 0 183 -51t121 -133t41 -179q0 -119 -63 -215t-171 -131q-50 -18 -76.5 -39t-26.5 -53q0 -19 13 -30t34 -11q27 0 67 19q11 5 15.5 0t-2.5 -15q-52 -70 -138 -70q-36 0 -58 17.5t-22 50.5q0 65 89 114q-158 1 -254 105.5t-96 257.5z
M192 335q0 -141 53.5 -218.5t150.5 -77.5q98 0 151.5 77.5t53.5 218.5v34q0 140 -54 217t-151 77t-150.5 -77t-53.5 -217v-34z" />
    <glyph glyph-name="uni01EB" unicode="&#x1eb;" horiz-adv-x="583" 
d="M43 241q0 113 70.5 182.5t178.5 69.5t178 -69.5t70 -182.5q0 -86 -44 -150t-122 -91q-44 -20 -66.5 -39t-22.5 -48q0 -20 13 -31t34 -11q25 0 68 18q11 5 15.5 0.5t-2.5 -14.5q-52 -70 -139 -70q-36 0 -58 17.5t-22 50.5q0 65 93 115q-106 2 -175 71.5t-69 181.5z
M167 232q0 -102 30.5 -150t94.5 -48q63 0 93.5 48.5t30.5 150.5v16q0 102 -30.5 150t-93.5 48q-64 0 -94.5 -48t-30.5 -150v-17z" />
    <glyph glyph-name="uni01FA" unicode="&#x1fa;" horiz-adv-x="679" 
d="M3 14q0 12 25 31t36 46l202 508q7 25 6 37q-2 12 -8 27.5t-6 21.5q0 17 19 17h74q26 0 35 -20l231 -588q6 -13 15.5 -25.5t18.5 -22.5t16 -18t7 -13q0 -15 -17 -15h-199q-18 0 -18 14q0 11 24 30q23 20 23 36q0 13 -7 26l-33 87h-278l-33 -87q-7 -15 -7 -32q0 -18 23 -33
q22 -16 22 -27q0 -14 -18 -14h-135q-18 0 -18 14zM189 243h239l-119 312zM264 880q28 26 64 26q37 0 65 -26q26 -26 26 -61.5t-26 -61.5q-28 -26 -65 -26q-38 0 -64 26q-27 25 -27 61t27 62zM232 959l119 62q27 14 50 14q20 0 33 -11q11 -9 13 -21.5t-4.5 -25t-21 -22.5
t-37.5 -14l-138 -22q-2 0 -3.5 -0.5t-3.5 -0.5q-10 0 -16.5 4.5t-8 10.5t2.5 13t15 13zM298 788q13 -13 30 -13q18 0 31 13q12 12 12 30t-12 31q-12 12 -31 12q-18 0 -30 -12q-13 -13 -13 -31t13 -30z" />
    <glyph glyph-name="uni01FB" unicode="&#x1fb;" horiz-adv-x="520" 
d="M46 101q0 72 69 119t211 59v94q0 78 -61 78q-27 0 -44.5 -11.5t-30 -28t-22.5 -35t-22 -31.5q-20 -20 -44 -20q-21 0 -37 14.5t-16 37.5q0 22 15.5 43t44 37.5t69 26.5t89.5 10q87 0 126.5 -33.5t39.5 -102.5v-285q0 -24 17 -24q4 0 11 1.5t11 1.5q11 0 11 -14
q0 -19 -22.5 -34.5t-55.5 -15.5q-65 0 -76 74q-57 -74 -156 -74q-60 0 -93.5 31t-33.5 82zM158 127q0 -29 19 -45.5t55 -16.5q48 0 94 40v132q-168 -21 -168 -110zM200 688q12 12 27.5 17.5t31.5 5.5q17 0 32.5 -5.5t27.5 -17.5t18 -27t6 -31t-6 -30.5t-18 -26.5t-27.5 -18
t-32.5 -6q-16 0 -31.5 6t-27.5 18t-18.5 26.5t-6.5 30.5t6.5 31t18.5 27zM178 756l63 72q38 44 67 44q22 0 36 -14.5t14 -35.5q0 -38 -49 -57l-104 -47q-6 -3 -13 -3q-14 0 -20.5 13t6.5 28zM259 585q19 0 31 13t12 32q0 18 -12.5 31t-30.5 13t-30.5 -13t-12.5 -31
q0 -19 12 -32t31 -13z" />
    <glyph glyph-name="uni01FC" unicode="&#x1fc;" horiz-adv-x="974" 
d="M65 96l287 505q12 30 4 41q-4 5 -11.5 11t-14 11.5t-11.5 11t-5 10.5q0 6 5.5 11t14.5 5h527q50 0 50 -47v-129q0 -11 -5 -16t-12 -5q-12 0 -20 12l-59 93q-27 42 -80 42h-163q-28 0 -28 -28v-224h118q36 0 56 32l38 60q8 15 19 15q16 0 16 -25v-215q0 -24 -16 -24
q-10 0 -19 15l-38 60q-20 32 -56 32h-118v-263q0 -20 8.5 -28.5t28.5 -8.5h150q31 0 50 9t34 34l58 94q9 13 20 13q7 0 12 -5t5 -16v-130q0 -49 -51 -49h-464q-20 0 -20 16q0 13 25 29q25 15 25 39v139h-220l-67 -120q-13 -31 -5 -42q4 -5 11 -10.5t13.5 -11.5t11 -12.5
t4.5 -12.5q0 -14 -18 -14h-139q-18 0 -18 14q0 7 6.5 13.5t16.5 15.5t22 22t22 31zM233 273h192v346zM562 776l118 62q25 13 49 13q21 0 34 -11t13 -29q0 -19 -16 -34t-47 -19l-138 -22q-2 0 -3.5 -0.5t-3.5 -0.5q-20 0 -24 14.5t18 26.5z" />
    <glyph glyph-name="uni01FD" unicode="&#x1fd;" horiz-adv-x="809" 
d="M44 103q0 74 72.5 128t213.5 76v61q0 83 -62 83q-33 0 -56 -19.5t-34 -43.5t-29.5 -43.5t-42.5 -19.5t-38.5 14t-14.5 38q0 44 59 80.5t158 36.5q100 0 142 -64q64 64 156 64q89 0 141 -51.5t52 -122.5q0 -29 -12 -41.5t-37 -12.5h-285q3 -89 50.5 -139t125.5 -50
q33 0 60.5 10t42 21.5t28 21.5t21.5 10q20 0 8 -28q-21 -56 -73 -90t-125 -34q-67 0 -118 27t-78 73q-86 -100 -192 -100q-62 0 -97.5 32t-35.5 83zM156 134q0 -29 20 -48.5t58 -19.5q64 0 117 59q-20 57 -20 137q-91 -17 -133 -51.5t-42 -76.5zM365 557q-20 -9 -32 6t4 33
l65 74q38 44 68 44q23 0 37.5 -15t14.5 -36q0 -37 -51 -59zM428 312h196q29 0 29 27q0 47 -24.5 78t-75.5 31q-52 0 -86 -35.5t-39 -100.5z" />
    <glyph glyph-name="uni01FE" unicode="&#x1fe;" horiz-adv-x="796" 
d="M51 351q0 150 96 256.5t251 106.5q112 0 197 -59l27 47q16 29 42 20q22 -6 19 -28q-2 -10 -9 -19l-40 -52q53 -51 82 -122t29 -150q0 -150 -95.5 -256.5t-251.5 -106.5q-94 0 -170 43l-29 -49q-11 -19 -30.5 -19t-26 15t6.5 36l35 46q-63 50 -98 126.5t-35 164.5z
M194 330q0 -127 45 -202l160 226l149 235q-54 74 -150 74q-98 0 -151 -76t-53 -213v-44zM269 89q50 -50 129 -50q98 0 151.5 76.5t53.5 214.5v44q0 99 -29 168l-161 -224zM317 736q-24 -4 -30.5 11.5t16.5 28.5l119 62q26 13 49 13q21 0 34 -11t13 -29q0 -19 -16 -34
t-47 -19z" />
    <glyph glyph-name="uni01FF" unicode="&#x1ff;" horiz-adv-x="586" 
d="M43 241q0 113 70.5 182.5t179.5 69.5q71 0 131 -33l26 41q16 24 40 14q21 -9 14 -31q-3 -6 -8 -13l-32 -41q78 -70 78 -189q0 -113 -70.5 -183t-178.5 -70q-73 0 -132 34l-24 -39q-12 -18 -30 -17t-23 15.5t7 34.5l29 36q-77 72 -77 189zM167 216q0 -53 13 -94l113 142
l90 139q-31 43 -90 43q-60 0 -93 -46t-33 -135v-49zM203 77q33 -41 90 -41q60 0 92.5 45.5t32.5 135.5v48q0 54 -13 96l-98 -126zM239 557q-20 -9 -32 6t4 33l65 74q38 44 69 44q22 0 36.5 -15t14.5 -36q0 -37 -50 -59z" />
    <glyph glyph-name="uni0218" unicode="&#x218;" horiz-adv-x="570" 
d="M54 116q0 32 20 51t51 19q59 0 80 -71q22 -77 107 -77q50 0 77.5 24.5t27.5 69.5q0 46 -36.5 87t-127.5 88q-108 56 -151 108t-43 116q0 78 58.5 130.5t164.5 52.5q96 0 160 -38.5t64 -93.5q0 -28 -18 -43t-45 -15q-52 0 -73 64q-25 76 -107 76q-50 0 -77.5 -23.5
t-27.5 -63.5t33 -76t116 -78q114 -59 163 -117t49 -128q0 -80 -58 -135t-176 -55q-93 0 -162 34.5t-69 93.5zM204 -266q-6 6 -3.5 13.5t12.5 10.5q57 17 66 44q7 18 -17 24q-30 7 -44.5 21.5t-14.5 44.5t21 50t54 20q32 0 56 -23.5t24 -62.5q0 -59 -38.5 -100.5t-97.5 -46.5
q-12 -1 -18 5z" />
    <glyph glyph-name="uni0219" unicode="&#x219;" horiz-adv-x="450" 
d="M48 93q0 23 13 37t34 14q18 0 30.5 -11.5t20.5 -27.5t18 -32t29 -27.5t48 -11.5q34 0 54 15.5t20 43.5q0 27 -25.5 50.5t-93.5 56.5q-77 38 -108.5 75.5t-31.5 85.5q0 64 46 98.5t121 34.5q67 0 118 -27t51 -74q0 -21 -11 -33t-30 -12t-35.5 15.5t-27 34.5t-32.5 34.5
t-51 15.5q-30 0 -48 -15t-18 -39q0 -50 102 -95q93 -41 127 -81.5t34 -86.5q0 -69 -47.5 -106t-126.5 -37q-71 0 -125.5 29t-54.5 76zM161 -271q-18 -2 -21 11t13 18q56 17 66 44q6 18 -17 24q-30 7 -45 21.5t-15 44.5t21 50t54 20q32 0 56 -23.5t24 -62.5
q0 -59 -38.5 -100.5t-97.5 -46.5z" />
    <glyph glyph-name="uni021A" unicode="&#x21a;" horiz-adv-x="640" 
d="M23 546l23 115q5 26 13.5 33.5t33.5 7.5q36 0 108 -2.5t119 -1.5q44 0 115 2t111 2q26 0 34.5 -7.5t13.5 -33.5l23 -115q4 -18 -9.5 -22t-26.5 8l-90 82q-26 24 -47.5 31t-64.5 7v-568q0 -18 12.5 -28t25 -18.5t12.5 -21.5q0 -16 -20 -16h-178q-20 0 -20 16q0 13 25 28.5
t25 39.5v568q-43 0 -64.5 -7t-47.5 -31l-90 -82q-13 -12 -26.5 -8t-9.5 22zM261 -271q-18 -2 -21 11t13 18q56 17 66 44q6 18 -17 24q-30 7 -45 21.5t-15 44.5t21 50t54 20t57 -23.5t24 -62.5q0 -59 -39 -100.5t-98 -46.5z" />
    <glyph glyph-name="uni021B" unicode="&#x21b;" horiz-adv-x="386" 
d="M26 479l148 121q10 8 17 8q17 0 17 -23v-103h150q18 0 18 -17v-14q0 -17 -18 -17h-150v-321q0 -33 15 -47t49 -14q12 0 25 1.5t23.5 4t18.5 4t9 1.5q13 0 13 -12q0 -16 -17.5 -28t-41 -19.5t-47 -11.5t-35.5 -4q-119 0 -119 124v300q0 28 -28 28h-34q-20 0 -24.5 13
t11.5 26zM154 -242q57 16 66 44q7 18 -17 24q-30 7 -44.5 21.5t-14.5 44.5t21 50t54 20q32 0 56 -23.5t24 -62.5q0 -30 -10 -55.5t-28 -45t-43 -31.5t-55 -15q-5 0 -9.5 0.5t-8.5 4.5q-6 6 -3.5 13.5t12.5 10.5z" />
    <glyph glyph-name="uni0237" unicode="&#x237;" horiz-adv-x="277" 
d="M-96 -122q0 25 16 42t44 17q24 0 40 -15.5t22.5 -34t16 -34t21.5 -15.5q27 0 27 77v444q0 19 -27 30t-27 25q0 13 16 20l109 55q16 8 26 2.5t10 -20.5v-472q0 -97 -47 -153t-125 -56q-55 0 -88.5 25.5t-33.5 62.5z" />
    <glyph glyph-name="uni0259" unicode="&#x259;" horiz-adv-x="524" 
d="M45 370q21 56 73 90t124 34q104 0 171 -69t67 -184q0 -112 -65.5 -182.5t-168.5 -70.5q-89 0 -144 51.5t-55 121.5q0 31 11.5 43.5t35.5 12.5h287q-3 90 -49.5 139t-124.5 49q-33 0 -61 -10t-43 -21.5t-28.5 -21.5t-21.5 -10q-20 0 -8 28zM154 143q0 -46 24.5 -77.5
t75.5 -31.5q53 0 87 35.5t39 100.5h-196q-30 0 -30 -27z" />
    <glyph glyph-name="uni02C6" unicode="&#x2c6;" horiz-adv-x="318" 
d="M17 563q0 9 9 19l81 92q27 31 47 31t47 -31l82 -92q9 -10 9 -19q0 -11 -10 -14.5t-23 3.5l-105 63l-104 -63q-13 -7 -23 -3.5t-10 14.5z" />
    <glyph glyph-name="uni02C7" unicode="&#x2c7;" horiz-adv-x="292" 
d="M9 689q0 11 10 14.5t23 -3.5l105 -62l104 62q13 7 23 3.5t10 -14.5q0 -9 -9 -19l-81 -91q-28 -31 -47 -31q-20 0 -48 31l-81 91q-9 10 -9 19z" />
    <glyph glyph-name="uni02C9" unicode="&#x2c9;" horiz-adv-x="384" 
d="M58 592q-19 0 -27 14t0 28.5t27 14.5h275q18 0 26 -14.5t0 -28.5t-26 -14h-275z" />
    <glyph glyph-name="uni02D8" unicode="&#x2d8;" horiz-adv-x="328" 
d="M27 689q-2 19 11 24t22 -10q19 -34 41 -49t59 -15q36 0 57.5 15t42.5 49q9 15 22 10t11 -24q-6 -59 -44.5 -90.5t-88.5 -31.5t-88 31.5t-45 90.5z" />
    <glyph glyph-name="uni02D9" unicode="&#x2d9;" horiz-adv-x="266" 
d="M82 591q-21 21 -21 51t21 51t51 21q29 0 50.5 -21t21.5 -51t-21.5 -51.5t-50.5 -21.5q-30 0 -51 22z" />
    <glyph glyph-name="uni02DA" unicode="&#x2da;" horiz-adv-x="318" 
d="M99 565q-25 24 -25 58t25 58t60 24t60 -24t25 -58t-25 -58.5t-60 -24.5t-60 25zM116 623q0 -19 12.5 -32.5t30.5 -13.5q19 0 31.5 13.5t12.5 32.5q0 18 -12.5 31.5t-31.5 13.5q-18 0 -30.5 -13.5t-12.5 -31.5z" />
    <glyph glyph-name="uni02DB" unicode="&#x2db;" horiz-adv-x="391" 
d="M101 -128q0 40 33 73t89 55h89q-52 -4 -83.5 -32.5t-31.5 -62.5q0 -40 41 -40q19 0 55 18q10 6 15 1.5t0 -14.5q-17 -32 -49 -51.5t-73 -19.5q-38 0 -61.5 20t-23.5 53z" />
    <glyph glyph-name="uni02DC" unicode="&#x2dc;" horiz-adv-x="461" 
d="M84 585q-11 -7 -17 -1.5t0 17.5q36 87 102 87q18 0 38 -7.5t50.5 -21.5t56.5 -23l61 40q10 6 16.5 1.5t2.5 -16.5q-35 -89 -104 -89q-20 0 -38 7t-47.5 21.5t-60.5 24.5z" />
    <glyph glyph-name="uni02DD" unicode="&#x2dd;" horiz-adv-x="451" 
d="M211 578l53 86q23 38 52 38h76q18 0 22 -8.5t-8 -18.5l-160 -122q-9 -8 -21 -8q-11 0 -16.5 9.5t2.5 23.5zM66 577l41 83q23 42 60 42h58q36 0 9 -27l-133 -121q-10 -10 -21 -10t-16.5 9.5t2.5 23.5z" />
    <glyph glyph-name="uni0300" unicode="&#x300;" horiz-adv-x="0" 
d="M-278 663q0 21 14.5 36t36.5 15q30 0 69 -44l65 -74q15 -19 3.5 -33.5t-31.5 -5.5l-107 47q-50 21 -50 59z" />
    <glyph glyph-name="uni0301" unicode="&#x301;" horiz-adv-x="0" 
d="M-216 557q-20 -9 -32 6t4 33l64 74q39 44 69 44q23 0 37.5 -15t14.5 -36q0 -37 -51 -59z" />
    <glyph glyph-name="uni0302" unicode="&#x302;" horiz-adv-x="0" 
d="M-295 571q0 9 9 20l81 92q28 31 47 31t47 -31l82 -92q9 -11 9 -20q0 -11 -10 -14.5t-23 4.5l-105 63l-104 -63q-13 -8 -23 -4.5t-10 14.5z" />
    <glyph glyph-name="uni0303" unicode="&#x303;" horiz-adv-x="0" 
d="M-377 585q-11 -7 -17 -1.5t0 17.5q36 87 102 87q18 0 38 -7.5t50.5 -21.5t56.5 -23l61 40q10 6 16.5 1.5t2.5 -16.5q-35 -89 -104 -89q-20 0 -38 7t-47.5 21.5t-60.5 24.5z" />
    <glyph glyph-name="uni0304" unicode="&#x304;" horiz-adv-x="0" 
d="M-333 592q-19 0 -27 14t0 28.5t27 14.5h276q18 0 25.5 -14.5t0 -28.5t-25.5 -14h-276z" />
    <glyph glyph-name="uni0306" unicode="&#x306;" horiz-adv-x="0" 
d="M-301 689q-2 19 11 24t22 -10q19 -34 41 -49t59 -15q36 0 57.5 15t42.5 49q9 15 22 10t11 -24q-6 -59 -44.5 -90.5t-88.5 -31.5t-88 31.5t-45 90.5z" />
    <glyph glyph-name="uni0307" unicode="&#x307;" horiz-adv-x="0" 
d="M-184 591q-21 21 -21 51t21 51t51 21q29 0 50.5 -21t21.5 -51t-21.5 -51.5t-50.5 -21.5q-30 0 -51 22z" />
    <glyph glyph-name="uni0308" unicode="&#x308;" horiz-adv-x="0" 
d="M-392 596q-20 20 -20 49t20.5 49t49.5 20t49.5 -20t20.5 -49t-20.5 -49.5t-49.5 -20.5t-50 21zM-189 596q-20 20 -20 49t20.5 49t49.5 20t49 -20t20 -49t-20 -49.5t-49 -20.5t-50 21z" />
    <glyph glyph-name="uni030A" unicode="&#x30a;" horiz-adv-x="0" 
d="M-219 574q-25 24 -25 58t25 58t60 24t60 -24t25 -58t-25 -58t-60 -24t-60 24zM-190 664q-12 -13 -12 -32t12 -32t31 -13t31.5 13t12.5 32t-12.5 32t-31.5 13t-31 -13z" />
    <glyph glyph-name="uni030B" unicode="&#x30b;" horiz-adv-x="0" 
d="M-240 578l53 86q23 38 53 38h75q18 0 22 -8.5t-8 -18.5l-160 -122q-9 -8 -21 -8q-11 0 -16.5 9.5t2.5 23.5zM-385 577l41 83q22 42 60 42h59q35 0 8 -27l-133 -121q-10 -10 -21 -10t-16.5 9.5t2.5 23.5z" />
    <glyph glyph-name="uni030C" unicode="&#x30c;" horiz-adv-x="0" 
d="M-284 698q0 11 10 14.5t23 -3.5l105 -62l104 62q13 7 23 3.5t10 -14.5q0 -10 -9 -19l-81 -92q-30 -31 -47 -31q-18 0 -48 31l-81 92q-9 9 -9 19z" />
    <glyph glyph-name="uni0312" unicode="&#x312;" horiz-adv-x="0" 
d="M-185 603q0 60 38 101t98 47q12 1 18 -5.5t3.5 -14t-12.5 -10.5q-58 -17 -67 -44q-5 -18 18 -23q30 -7 44.5 -22t14.5 -45t-20.5 -50t-53.5 -20t-57 23.5t-24 62.5z" />
    <glyph glyph-name="uni0326" unicode="&#x326;" horiz-adv-x="0" 
d="M-199 -266q-6 6 -3.5 13.5t12.5 10.5q57 17 66 44q7 18 -17 24q-30 6 -44.5 21t-14.5 45t20.5 50t53.5 20t57 -23.5t24 -62.5q0 -59 -38.5 -100.5t-97.5 -46.5q-12 -1 -18 5z" />
    <glyph glyph-name="uni0327" unicode="&#x327;" horiz-adv-x="0" 
d="M-276 -157q0 17 11.5 28.5t29.5 11.5q14 0 44 -13.5t51 -13.5q41 0 41 31q0 24 -32 24q-8 0 -24.5 -2t-24.5 -2q-34 0 -34 25q0 14 18 36l37 39h42l-44 -56q58 0 90.5 -20.5t32.5 -53.5q0 -37 -38 -62t-104 -25q-46 0 -71 15t-25 38z" />
    <glyph glyph-name="uni0328" unicode="&#x328;" horiz-adv-x="0" 
d="M-290 -128q0 40 33 73t89 55h89q-52 -4 -83.5 -32.5t-31.5 -62.5q0 -40 41 -40q19 0 55 18q10 6 15 1.5t0 -14.5q-17 -32 -49 -51.5t-73 -19.5q-38 0 -61.5 20t-23.5 53z" />
    <glyph glyph-name="uni0335" unicode="&#x335;" horiz-adv-x="0" 
d="M-530 276v22q0 17 17 17h428q17 0 17 -17v-22q0 -17 -17 -17h-428q-17 0 -17 17z" />
    <glyph glyph-name="uni0336" unicode="&#x336;" horiz-adv-x="0" 
d="M-854 276v23q0 17 17 17h750q17 0 17 -17v-23q0 -17 -17 -17h-750q-17 0 -17 17z" />
    <glyph glyph-name="uni0337" unicode="&#x337;" horiz-adv-x="0" 
d="M-369 20l237 667q6 15 20 15h25q22 0 14 -20l-236 -666q-6 -16 -22 -16h-24q-19 0 -14 20z" />
    <glyph glyph-name="uni0338" unicode="&#x338;" horiz-adv-x="0" 
d="M-422 -130l290 817q6 15 20 15h25q20 0 14 -20l-289 -816q-6 -16 -22 -16h-24q-19 0 -14 20z" />
    <glyph glyph-name="uni0394" unicode="&#x394;" horiz-adv-x="715" 
d="M29 0q-16 0 -21.5 9t1.5 24l329 649q8 16 19 16t19 -16l330 -649q7 -15 1.5 -24t-21.5 -9h-657zM66 66h490l-246 486z" />
    <glyph glyph-name="uni03A9" unicode="&#x3a9;" horiz-adv-x="821" 
d="M63 152q0 17 11 17q7 0 13 -8l68 -82h120q-52 54 -89 99t-59 81q-44 73 -44 158q0 67 27 122t72.5 94t104.5 60t123 21t123 -21t104.5 -60t73 -93.5t27.5 -122.5q0 -85 -44 -158q-44 -70 -149 -180h121l68 82q6 8 13 8q11 0 11 -17v-118q0 -34 -34 -34h-253
q-12 0 -16.5 7t1.5 17q26 45 52 92.5t47 97.5t34 101.5t13 104.5q0 46 -10.5 90.5t-33 80t-59 57.5t-89.5 22q-51 0 -87 -21.5t-59.5 -56.5t-34 -80t-10.5 -92q0 -53 13 -105t34 -102t47 -97.5t52 -91.5q5 -10 0.5 -17t-15.5 -7h-253q-34 0 -34 34v118z" />
    <glyph glyph-name="uni03BC" unicode="&#x3bc;" horiz-adv-x="598" 
d="M36 409q0 11 15 20l112 59q10 5 17 5q18 0 18 -22v-308q0 -57 20.5 -81.5t71.5 -24.5q59 0 111 36v260q0 14 -8.5 21t-19 11.5t-19.5 9.5t-9 16q0 12 16 21l112 57q8 5 17 5q18 0 18 -22v-355q0 -14 8.5 -20.5t18.5 -11t18.5 -9.5t8.5 -16q0 -12 -15 -20l-112 -49
q-8 -4 -16 -4q-18 0 -18 23v37q-74 -59 -170 -59q-59 0 -93 28q3 -18 8 -38t10.5 -38t9 -32.5t3.5 -22.5q0 -28 -15.5 -46.5t-42.5 -18.5q-28 0 -43.5 18.5t-15.5 46.5q0 12 19 78q20 68 21 156q-1 4 -1 19v214q0 15 -8.5 21.5t-19 10.5t-19 9t-8.5 16z" />
    <glyph glyph-name="uni03C0" unicode="&#x3c0;" horiz-adv-x="625" 
d="M25 427v25q0 17 18 17h540q18 0 18 -17v-25q0 -17 -18 -17h-42q-28 0 -28 -28v-317q0 -11 23 -23q22 -12 22 -25q0 -17 -20 -17h-157q-20 0 -20 17q0 13 23 25q22 12 22 23v345h-187v-345q0 -11 23 -23t23 -25q0 -7 -5.5 -12t-14.5 -5h-158q-20 0 -20 17q0 11 23 25
q22 12 22 23v317q0 28 -28 28h-41q-18 0 -18 17z" />
    <glyph glyph-name="uni1E80" unicode="&#x1e80;" horiz-adv-x="932" 
d="M1 688q0 14 18 14h191q18 0 18 -14q0 -8 -23 -28t-23 -38q0 -11 6 -26l123 -420l124 486q6 22 20.5 35.5t37.5 13.5q24 0 37.5 -13t19.5 -36l132 -491l115 422q4 17 4 24q0 20 -21 39q-21 18 -21 31q0 15 18 15h126q20 0 20 -15q0 -6 -7.5 -12t-18 -15t-20.5 -22t-16 -33
l-166 -583q-9 -34 -41 -34q-33 0 -43 34l-139 521l-136 -521q-10 -34 -43 -34q-32 0 -42 34l-190 582q-7 24 -34 51q-26 26 -26 33zM393 851q24 0 49 -13l118 -61q22 -12 18 -27t-24 -15q-2 0 -3.5 0.5t-3.5 0.5l-138 22q-31 4 -47 19t-16 34q0 18 13 29t34 11z" />
    <glyph glyph-name="uni1E81" unicode="&#x1e81;" horiz-adv-x="762" 
d="M7 469q0 13 16 13h175q15 0 15 -12q0 -5 -21 -25q-21 -19 -21 -39q0 -9 5 -26l84 -251l99 320q6 18 17 31t32 13q17 0 31 -11q13 -11 20 -33l105 -316l79 247q5 18 5 27q0 17 -19 37t-19 26q0 12 15 12h113q15 0 15 -12q0 -5 -6.5 -10.5t-15.5 -14t-19 -22t-16 -34.5
l-120 -369q-11 -32 -39 -32q-29 0 -40 32l-116 352l-109 -352q-9 -32 -38 -32q-27 0 -39 32l-131 368q-7 21 -17 35t-19 22.5t-15 14t-6 9.5zM338 714q30 0 69 -44l65 -74q13 -16 6.5 -29t-21.5 -13q-5 0 -13 3l-107 47q-50 21 -50 59q0 21 14.5 36t36.5 15z" />
    <glyph glyph-name="uni1E82" unicode="&#x1e82;" horiz-adv-x="932" 
d="M1 688q0 14 18 14h191q18 0 18 -14q0 -8 -23 -28t-23 -38q0 -11 6 -26l123 -420l124 486q6 22 20.5 35.5t37.5 13.5q24 0 37.5 -13t19.5 -36l132 -491l115 422q4 17 4 24q0 20 -21 39q-21 18 -21 31q0 15 18 15h126q20 0 20 -15q0 -6 -7.5 -12t-18 -15t-20.5 -22t-16 -33
l-166 -583q-9 -34 -41 -34q-33 0 -43 34l-139 521l-136 -521q-10 -34 -43 -34q-32 0 -42 34l-190 582q-7 24 -34 51q-26 26 -26 33zM391 776l119 62q25 13 48 13q21 0 34 -11t13 -29q0 -19 -15.5 -34t-46.5 -19l-139 -22q-2 0 -3.5 -0.5t-3.5 -0.5q-20 0 -24 14.5t18 26.5z
" />
    <glyph glyph-name="uni1E83" unicode="&#x1e83;" horiz-adv-x="762" 
d="M7 469q0 13 16 13h175q15 0 15 -12q0 -5 -21 -25q-21 -19 -21 -39q0 -9 5 -26l84 -251l99 320q6 18 17 31t32 13q17 0 31 -11q13 -11 20 -33l105 -316l79 247q5 18 5 27q0 17 -19 37t-19 26q0 12 15 12h113q15 0 15 -12q0 -5 -6.5 -10.5t-15.5 -14t-19 -22t-16 -34.5
l-120 -369q-11 -32 -39 -32q-29 0 -40 32l-116 352l-109 -352q-9 -32 -38 -32q-27 0 -39 32l-131 368q-7 21 -17 35t-19 22.5t-15 14t-6 9.5zM311 596l65 74q39 44 69 44q23 0 37.5 -15t14.5 -36q0 -36 -51 -59l-106 -47q-7 -3 -14 -3q-15 0 -21.5 13t6.5 29z" />
    <glyph glyph-name="uni1E84" unicode="&#x1e84;" horiz-adv-x="932" 
d="M1 688q0 14 18 14h191q18 0 18 -14q0 -8 -23 -28t-23 -38q0 -11 6 -26l123 -420l124 486q6 22 20.5 35.5t37.5 13.5q24 0 37.5 -13t19.5 -36l132 -491l115 422q4 17 4 24q0 20 -21 39q-21 18 -21 31q0 15 18 15h126q20 0 20 -15q0 -6 -7.5 -12t-18 -15t-20.5 -22t-16 -33
l-166 -583q-9 -34 -41 -34q-33 0 -43 34l-139 521l-136 -521q-10 -34 -43 -34q-32 0 -42 34l-190 582q-7 24 -34 51q-26 26 -26 33zM381 879q27 0 46.5 -19.5t19.5 -47.5q0 -26 -19.5 -45.5t-46.5 -19.5t-46.5 19.5t-19.5 45.5q0 28 19 47.5t47 19.5zM593 879
q26 0 45.5 -19.5t19.5 -47.5q0 -26 -19.5 -45.5t-45.5 -19.5q-28 0 -47.5 19.5t-19.5 45.5q0 28 19.5 47.5t47.5 19.5z" />
    <glyph glyph-name="uni1E85" unicode="&#x1e85;" horiz-adv-x="762" 
d="M23 482h175q15 0 15 -12q0 -5 -21 -25q-21 -19 -21 -39q0 -9 5 -26l84 -251l99 320q6 18 17 31t32 13q17 0 31 -11q13 -11 20 -33l105 -316l79 247q5 18 5 27q0 17 -19 37t-19 26q0 12 15 12h113q15 0 15 -12q0 -5 -6.5 -10.5t-15.5 -14t-19 -22t-16 -34.5l-120 -369
q-11 -32 -39 -32q-29 0 -40 32l-116 352l-109 -352q-9 -32 -38 -32q-27 0 -39 32l-131 368q-7 21 -17 35t-19 22.5t-15 14t-6 9.5q0 13 16 13zM243 694q20 20 49 20q14 0 26.5 -4.5t23.5 -15.5q20 -20 20 -49t-20 -49q-21 -21 -50 -21q-28 0 -49 21q-21 20 -21 49t21 49z
M446 694q20 20 49 20q14 0 26.5 -4.5t22.5 -15.5q20 -20 20 -49t-20 -49q-10 -11 -22.5 -16t-26.5 -5q-28 0 -49 21q-21 20 -21 49t21 49z" />
    <glyph glyph-name="uni1E8A" unicode="&#x1e8a;" horiz-adv-x="639" 
d="M99 94l168 246l-168 259q-14 22 -33 43q-18 19 -26.5 28t-8.5 17q0 15 18 15h200q17 0 17 -14q0 -10 -22 -29t-22 -32q0 -10 12 -28l107 -167l114 181q10 16 10 25q0 5 -5 11.5t-11 13.5t-11 14t-5 12q0 13 18 13h141q18 0 18 -14q0 -7 -9 -14t-22.5 -15.5t-28.5 -20.5
t-27 -30l-151 -223l183 -282q16 -25 34 -42q18 -19 27 -28t9 -17q0 -16 -19 -16h-200q-18 0 -18 14q0 9 22 28t22 33q0 8 -11 28l-121 187l-124 -194q-11 -17 -11 -28q0 -13 22 -28q22 -16 22 -27q0 -13 -17 -13h-162q-18 0 -18 14q0 9 8.5 15t21.5 14.5t28.5 20t28.5 30.5z
M348 883q29 0 49.5 -20.5t20.5 -50.5t-20.5 -50t-49.5 -20q-30 0 -50 20q-16 16 -19 37t5 39.5t25 31.5t39 13z" />
    <glyph glyph-name="uni1E8B" unicode="&#x1e8b;" horiz-adv-x="516" 
d="M98 90l114 140l-111 152q-19 27 -37 45q-20 20 -28.5 27.5t-8.5 14.5q0 13 17 13h195q15 0 15 -13q0 -8 -22 -24t-22 -35q0 -13 11 -27l57 -82l64 82q23 29 23 40q0 5 -5 12t-11 13.5t-11 12.5t-5 9q0 12 15 12h126q15 0 15 -13q0 -7 -10 -14q-11 -9 -32 -25.5t-38 -37.5
l-104 -130l119 -162q8 -12 17.5 -22.5t19.5 -20.5q20 -19 28.5 -27.5t8.5 -16.5q0 -13 -17 -13h-195q-15 0 -15 12q0 10 22 26t22 33q0 12 -11 28l-64 92l-71 -92q-21 -28 -21 -42q0 -6 5 -12t10.5 -12t10.5 -11t5 -10q0 -12 -16 -12h-131q-15 0 -15 13q0 6 7.5 12.5
t19.5 15t26.5 20.5t27.5 29zM239 693q11 11 24 16t27 5q30 0 51 -21t21 -51t-21 -51q-22 -22 -51 -22t-51 22q-21 21 -21 51t21 51z" />
    <glyph glyph-name="uni1E9E" unicode="&#x1e9e;" horiz-adv-x="624" 
d="M47 16q0 13 25.5 28.5t25.5 39.5v441q0 91 56.5 140t155.5 49h19q194 0 194 -107q0 -41 -47 -68q-36 -20 -36 -59q0 -32 21 -75t46.5 -80.5t46.5 -91.5t21 -104q0 -61 -30 -101t-92 -40q-35 0 -59 16t-24 35q0 14 12 14q3 0 11.5 -2t17.5 -2q28 0 40.5 16t12.5 53
q0 42 -30.5 100.5t-61 114.5t-30.5 93q0 41 17 68.5t34 49t17 48.5q0 40 -21 60t-71 20q-54 0 -78.5 -31.5t-24.5 -94.5v-462q0 -19 12.5 -29.5t25 -18.5t12.5 -20q0 -16 -20 -16h-178q-9 0 -14.5 5t-5.5 11z" />
    <glyph glyph-name="uni1EF2" unicode="&#x1ef2;" horiz-adv-x="634" 
d="M6 687q0 15 18 15h195q18 0 18 -14q0 -9 -22 -28t-22 -33q0 -11 11 -28l141 -198l140 211q9 14 9 25q0 6 -5 13.5t-10.5 14.5t-10.5 13t-5 10q0 14 17 14h130q18 0 18 -13q0 -5 -7.5 -11.5t-19 -16t-25 -22.5t-25.5 -31l-170 -250v-274q0 -23 25 -38t25 -30
q0 -16 -20 -16h-178q-20 0 -20 16q0 9 8 15t17.5 13t17.5 16t8 24v250l-187 262q-8 11 -16.5 22t-18.5 21q-19 20 -27.5 30t-8.5 18zM206 811q0 18 13 29t34 11q23 0 48 -13l118 -61q11 -6 15 -13.5t3 -13.5t-7 -10.5t-16 -4.5q-2 0 -3.5 0.5t-3.5 0.5l-139 22
q-31 4 -46.5 19t-15.5 34z" />
    <glyph glyph-name="uni1EF3" unicode="&#x1ef3;" horiz-adv-x="516" 
d="M-5 -138q0 23 18 41t45 18q10 0 21.5 -4t23 -9.5t22 -9.5t17.5 -4q24 0 36 21q13 22 54 124l-166 350q-9 19 -19.5 32t-19.5 21.5t-15 14.5t-6 12q0 13 16 13h189q15 0 15 -12q0 -9 -23 -27q-23 -20 -23 -35q0 -7 8 -28l100 -230l101 230q6 15 6 26q0 18 -19 38
q-20 20 -20 27q0 11 15 11h125q15 0 15 -12q0 -3 -6.5 -10t-15.5 -17t-18 -22t-15 -25l-208 -455q-36 -81 -74.5 -116t-87.5 -35q-40 0 -65.5 19t-25.5 53zM176 663q0 22 14 36.5t37 14.5q30 0 69 -44l65 -74q13 -16 6.5 -29t-21.5 -13q-5 0 -13 3l-107 47q-50 21 -50 59z
" />
    <glyph glyph-name="uni2013" unicode="&#x2013;" horiz-adv-x="579" 
d="M58 276v22q0 17 17 17h428q17 0 17 -17v-22q0 -17 -17 -17h-428q-17 0 -17 17z" />
    <glyph glyph-name="uni2014" unicode="&#x2014;" horiz-adv-x="901" 
d="M58 276v23q0 17 17 17h751q17 0 17 -17v-23q0 -17 -17 -17h-751q-17 0 -17 17z" />
    <glyph glyph-name="uni2018" unicode="&#x2018;" horiz-adv-x="260" 
d="M49 566q0 60 38.5 101.5t98.5 46.5q18 1 21 -12t-13 -18q-57 -17 -66 -44q-6 -18 17 -23q30 -6 45 -21.5t15 -45.5q0 -29 -21.5 -49.5t-53.5 -20.5q-33 0 -57 23.5t-24 62.5z" />
    <glyph glyph-name="uni2019" unicode="&#x2019;" horiz-adv-x="266" 
d="M84 481q-18 -2 -21 11t13 18q56 17 66 44q6 18 -17 24q-30 6 -45 21t-15 45t21 50t54 20t57 -23.5t24 -62.5q0 -59 -39 -100.5t-98 -46.5z" />
    <glyph glyph-name="uni201A" unicode="&#x201a;" horiz-adv-x="272" 
d="M77 -94q-18 -1 -21 12t13 18q57 17 66 44q6 18 -17 23q-30 6 -45 21.5t-15 45.5q0 29 21 49t54 20t57 -23.5t24 -62.5q0 -59 -39 -100.5t-98 -46.5z" />
    <glyph glyph-name="uni201C" unicode="&#x201c;" horiz-adv-x="439" 
d="M50 567q0 60 38.5 101.5t97.5 46.5q12 1 18 -5.5t3.5 -14t-12.5 -10.5q-57 -17 -66 -44q-6 -18 17 -23q30 -6 44.5 -21t14.5 -46q0 -30 -20.5 -50t-53.5 -20t-57 23.5t-24 62.5zM227 567q0 60 38.5 101.5t97.5 46.5q12 1 18 -5.5t3.5 -14t-12.5 -10.5q-58 -17 -67 -44
q-5 -18 18 -23q30 -6 44.5 -21t14.5 -46q0 -30 -21 -50t-54 -20q-32 0 -56 23.5t-24 62.5z" />
    <glyph glyph-name="uni201D" unicode="&#x201d;" horiz-adv-x="441" 
d="M66 489q-6 6 -3.5 13.5t12.5 10.5q59 18 67 45q5 17 -18 23q-30 6 -44.5 21t-14.5 46q0 29 21 49t53 20q33 0 57 -23.5t24 -62.5q0 -59 -38.5 -100.5t-97.5 -46.5q-12 -1 -18 5zM260 484q-18 -1 -21 11.5t13 17.5q58 18 66 45q6 17 -17 23q-30 6 -45 21.5t-15 45.5
q0 29 21 49t54 20t57 -23.5t24 -62.5q0 -59 -39 -100.5t-98 -46.5z" />
    <glyph glyph-name="uni201E" unicode="&#x201e;" horiz-adv-x="440" 
d="M54 -58q-2 4 -2 8.5t3.5 8t9.5 5.5q58 17 67 44q5 18 -18 23q-29 7 -44 22t-15 45t21 50t54 20q32 0 56 -23.5t24 -62.5q0 -60 -38.5 -101.5t-97.5 -46.5q-7 -1 -12.5 1.5t-7.5 6.5zM231 -58q-2 4 -2 8.5t3.5 8t9.5 5.5q58 17 67 44q5 18 -18 23q-29 7 -44 22t-15 45
t21 50t54 20q32 0 56 -23.5t24 -62.5q0 -60 -38.5 -101.5t-97.5 -46.5q-7 -1 -12.5 1.5t-7.5 6.5z" />
    <glyph glyph-name="uni2020" unicode="&#x2020;" horiz-adv-x="485" 
d="M45 463q-17 12 -17 37t16.5 37t39.5 12q18 0 61.5 -15.5t78.5 -15.5q0 35 -15 78.5t-15 61.5q0 24 12 40t37 16t37 -16t12 -40q0 -19 -15.5 -62t-15.5 -78q35 0 78.5 15.5t61.5 15.5q23 0 39.5 -12t16.5 -37t-16.5 -37t-39.5 -12q-18 0 -61.5 15t-78.5 15l29 -486
q3 -65 -47 -65t-47 65l28 486q-35 0 -78.5 -15t-61.5 -15q-23 0 -39 12z" />
    <glyph glyph-name="uni2021" unicode="&#x2021;" horiz-adv-x="513" 
d="M62 99q-17 11 -17 34t16.5 34.5t37.5 11.5q15 0 56 -13.5t80 -13.5q1 60 -13 109t-14 66q0 7 13.5 55t13.5 110q-39 0 -80 -13.5t-56 -13.5q-21 0 -37.5 11.5t-16.5 34.5t16.5 34.5t37.5 11.5q14 0 56 -13.5t81 -13.5q0 34 -14 76t-14 57q0 21 12 36t36 15q25 0 36.5 -15
t11.5 -36q0 -15 -13.5 -57t-13.5 -76q39 0 80.5 13.5t55.5 13.5q22 0 38 -11.5t16 -34.5t-16 -34.5t-38 -11.5q-14 0 -55.5 13.5t-80.5 13.5q0 -61 14 -105.5t14 -58.5q0 -15 -14 -65.5t-14 -110.5q39 0 80.5 13.5t55.5 13.5q22 0 38 -11.5t16 -34.5t-16 -34.5t-38 -11.5
q-14 0 -55.5 13.5t-80.5 13.5q0 -34 13.5 -76t13.5 -57q0 -21 -11.5 -36t-36.5 -15q-24 0 -36 15t-12 36q0 15 14 57t14 76q-39 0 -81 -13.5t-56 -13.5q-21 0 -37 12z" />
    <glyph glyph-name="uni2022" unicode="&#x2022;" horiz-adv-x="390" 
d="M103 250q-38 38 -38 92t38 92t92 38t92 -38t38 -92t-38 -92t-92 -38t-92 38z" />
    <glyph glyph-name="uni2026" unicode="&#x2026;" horiz-adv-x="657" 
d="M57 57q0 30 20.5 50.5t50.5 20.5q29 0 49.5 -20.5t20.5 -50.5q0 -29 -20.5 -49.5t-49.5 -20.5q-30 0 -50.5 20.5t-20.5 49.5zM258 57q0 30 20.5 50.5t49.5 20.5q30 0 50.5 -20.5t20.5 -50.5q0 -29 -20.5 -49.5t-50.5 -20.5q-29 0 -49.5 20.5t-20.5 49.5zM459 57
q0 30 20.5 50.5t50.5 20.5q29 0 50 -20.5t21 -50.5q0 -29 -21 -49.5t-50 -20.5q-30 0 -50.5 20.5t-20.5 49.5z" />
    <glyph glyph-name="uni2030" unicode="&#x2030;" horiz-adv-x="1210" 
d="M91 297q-50 58 -50 145t49.5 145.5t122.5 58.5q72 0 121.5 -58.5t49.5 -145.5t-49.5 -145.5t-121.5 -58.5q-73 0 -122 59zM143 391q0 -117 70 -117q69 0 69 117v102q0 117 -69 117q-70 0 -70 -117v-102zM216 -7q-18 0 -23.5 13.5t5.5 32.5l215 295l181 297q10 18 27.5 18
t23.5 -13.5t-5 -32.5l-215 -297l-181 -295q-11 -17 -28 -18zM493 47q-50 58 -50 145t49.5 145.5t122.5 58.5q72 0 121.5 -58.5t49.5 -145.5t-49.5 -145.5t-121.5 -58.5q-73 0 -122 59zM546 141q0 -117 69 -117t69 117v102q0 117 -69 117t-69 -117v-102zM866 47
q-50 58 -50 145t49.5 145.5t122.5 58.5t122.5 -58.5t49.5 -145.5t-49.5 -145.5t-122.5 -58.5t-122 59zM919 141q0 -117 69 -117t69 117v102q0 117 -69 117t-69 -117v-102z" />
    <glyph glyph-name="uni2039" unicode="&#x2039;" horiz-adv-x="336" 
d="M67 237q-33 30 0 60l199 177q7 6 12.5 2t1.5 -12l-84 -157q-19 -40 0 -80l84 -157q4 -8 -1.5 -12t-12.5 2z" />
    <glyph glyph-name="uni203A" unicode="&#x203a;" horiz-adv-x="336" 
d="M56 70l83 157q21 40 0 80l-83 157q-4 8 1 12t13 -2l199 -177q33 -30 0 -60l-199 -177q-8 -6 -13 -2t-1 12z" />
    <glyph glyph-name="uni2044" unicode="&#x2044;" horiz-adv-x="147" 
d="M-134 -7q-17 0 -22.5 13.5t5.5 32.5l214 295l181 297q10 18 27.5 18t23.5 -13.5t-5 -32.5l-214 -297l-181 -295q-11 -17 -29 -18z" />
    <glyph glyph-name="uni2070" unicode="&#x2070;" horiz-adv-x="427" 
d="M92 441q-50 58 -50 145t49.5 145.5t121.5 58.5q73 0 122.5 -58.5t49.5 -145.5t-49.5 -145.5t-122.5 -58.5q-72 0 -121 59zM144 535q0 -117 69 -117q70 0 70 117v102q0 117 -70 117q-69 0 -69 -117v-102z" />
    <glyph glyph-name="uni2074" unicode="&#x2074;" horiz-adv-x="383" 
d="M24 540q0 10 6 19l181 212q6 9 18 9h41q16 0 16 -17v-212h54q12 0 9 -13l-9 -32q-1 -9 -13 -9h-41v-39q0 -17 22 -30q21 -13 21 -24q0 -12 -16 -12h-133q-16 0 -16 12q0 10 21 23q21 14 21 31v39h-168q-14 0 -14 15v28zM205 551v154l-131 -154h131z" />
    <glyph glyph-name="uni2075" unicode="&#x2075;" horiz-adv-x="359" 
d="M43 469q0 20 11.5 34t33.5 14q26 0 36.5 -17t9 -37t6.5 -37t31 -17q62 0 62 95q0 47 -16.5 70t-54.5 23q-24 0 -54.5 -11.5t-38.5 -11.5q-17 0 -15 18l15 164q3 22 25 22h201q15 0 12 -15l-5 -32q-2 -20 -31 -20h-167l-8 -99q45 32 104 32q53 0 84 -27.5t31 -84.5
q0 -66 -40 -108t-108 -42q-57 0 -90.5 25t-33.5 62z" />
    <glyph glyph-name="uni2076" unicode="&#x2076;" horiz-adv-x="361" 
d="M40 533q0 91 66.5 167t162.5 95q12 2 14.5 -4.5t-6.5 -11.5q-97 -54 -136 -151q35 24 75 24q47 0 77 -30.5t30 -87.5q0 -68 -40 -110t-101 -42q-66 0 -104 41.5t-38 109.5zM122 526q0 -117 62 -117q58 0 58 117q1 44 -16.5 67.5t-50.5 23.5q-21 0 -42 -12
q-11 -39 -11 -79z" />
    <glyph glyph-name="uni2077" unicode="&#x2077;" horiz-adv-x="319" 
d="M30 710l16 55q3 13 17 13h218q11 0 15.5 -6.5t0.5 -16.5l-138 -347q-6 -16 -23 -16h-61q-10 0 -13 6.5t2 15.5l184 297h-149q-20 0 -37 -8l-16 -7q-9 -5 -14 -0.5t-2 14.5z" />
    <glyph glyph-name="uni2078" unicode="&#x2078;" horiz-adv-x="370" 
d="M45 481q0 38 24 64.5t64 33.5q-40 24 -59 47.5t-19 55.5q0 48 36 78t94 30q56 0 91 -26t35 -68q0 -64 -74 -90q49 -28 70 -54t21 -57q0 -51 -37.5 -82t-100.5 -31q-70 0 -107.5 28t-37.5 71zM120 713q0 -26 19 -44t74 -49q30 25 30 73q0 30 -16 50t-48 20q-27 0 -43 -14
t-16 -36zM122 484q0 -35 19 -55t51 -20q30 0 47 16t17 44q0 26 -21.5 46t-74.5 49q-38 -30 -38 -80z" />
    <glyph glyph-name="uni2079" unicode="&#x2079;" horiz-adv-x="359" 
d="M40 647q0 64 39.5 103.5t99.5 39.5q66 0 103 -41.5t37 -109.5q0 -100 -69 -171.5t-180 -90.5q-7 -1 -11 1.5t-3 7t6 6.5q127 66 162 164q-38 -21 -78 -21q-47 0 -76.5 29t-29.5 83zM119 655q0 -40 16.5 -61.5t46.5 -21.5q28 0 51 15q6 29 6 60q0 116 -57 116
q-61 0 -63 -108z" />
    <glyph glyph-name="uni2080" unicode="&#x2080;" horiz-adv-x="427" 
d="M92 -93q-50 59 -50 146t49.5 145.5t121.5 58.5q73 0 122.5 -58.5t49.5 -145.5t-49.5 -145.5t-122.5 -58.5q-72 0 -121 58zM144 2q0 -116 69 -116q70 0 70 116v103q0 116 -70 116q-69 0 -69 -116v-103z" />
    <glyph glyph-name="uni2081" unicode="&#x2081;" horiz-adv-x="266" 
d="M44 174q-13 4 -12.5 13t11.5 14l115 53q11 5 18 2t7 -12v-315q0 -17 21.5 -30.5t21.5 -23.5q0 -12 -17 -12h-142q-16 0 -16 12q0 9 21 23t21 31v232z" />
    <glyph glyph-name="uni2082" unicode="&#x2082;" horiz-adv-x="372" 
d="M55 -138q-13 0 -16 10t9 20q94 77 134.5 135.5t40.5 125.5q0 73 -48 73q-42 0 -42 -40q0 -12 7.5 -27.5t7.5 -25.5q0 -18 -13 -30t-36 -12q-26 0 -40.5 15.5t-14.5 42.5q0 45 39.5 77.5t100.5 32.5q64 0 101 -32t37 -83q0 -49 -42.5 -101t-143.5 -123h100q25 0 36 19
l25 43q4 6 9 7.5t9 -2t4 -9.5v-101q0 -15 -17 -15h-247z" />
    <glyph glyph-name="uni2083" unicode="&#x2083;" horiz-adv-x="366" 
d="M43 -69q0 23 13 36t35 13q45 0 45 -48q0 -25 7.5 -37t31.5 -12q28 0 42.5 22t14.5 57q0 74 -80 84q-13 1 -14 12t11 14q42 12 57.5 30.5t15.5 53.5q0 70 -51 70q-20 0 -32.5 -9.5t-12.5 -21.5q0 -7 10 -21t10 -28q0 -18 -12.5 -29.5t-33.5 -11.5q-25 0 -39 15.5t-14 40.5
q0 44 38 69.5t95 25.5q56 0 93.5 -26t37.5 -71q0 -33 -21.5 -56t-59.5 -32q43 -9 68 -35t25 -65q0 -54 -42 -87.5t-113 -33.5q-61 0 -93 23.5t-32 57.5z" />
    <glyph glyph-name="uni2084" unicode="&#x2084;" horiz-adv-x="383" 
d="M24 10q0 10 6 19l181 212q6 9 18 9h41q16 0 16 -17v-212h54q12 0 9 -13l-9 -32q-1 -9 -13 -9h-41v-39q0 -18 22 -31q21 -14 21 -23q0 -12 -16 -12h-133q-16 0 -16 12q0 9 21 23q21 13 21 31v39h-168q-14 0 -14 15v28zM205 21v154l-131 -154h131z" />
    <glyph glyph-name="uni2085" unicode="&#x2085;" horiz-adv-x="359" 
d="M43 -62q0 20 11.5 34t33.5 14q26 0 36.5 -17t9 -37.5t6.5 -37.5t31 -17q62 0 62 95q0 48 -16.5 71t-54.5 23q-24 0 -54.5 -11.5t-38.5 -11.5q-17 0 -15 18l15 164q3 22 25 22h201q15 0 12 -15l-5 -32q-2 -20 -31 -20h-167l-8 -99q45 32 104 32q115 0 115 -113
q0 -65 -40 -107t-108 -42q-57 0 -90.5 25t-33.5 62z" />
    <glyph glyph-name="uni2086" unicode="&#x2086;" horiz-adv-x="361" 
d="M40 2q0 91 66.5 166.5t162.5 94.5q12 3 14.5 -4t-6.5 -12q-99 -55 -136 -151q35 24 75 24q47 0 77 -30t30 -88q0 -68 -40 -110t-101 -42q-66 0 -104 42t-38 110zM122 -6q0 -117 62 -117q58 0 58 117q1 44 -16.5 67.5t-50.5 23.5q-21 0 -42 -13q-11 -38 -11 -78z" />
    <glyph glyph-name="uni2087" unicode="&#x2087;" horiz-adv-x="319" 
d="M30 180l15 55q3 13 18 13h218q11 0 15.5 -6.5t0.5 -16.5l-138 -347q-6 -16 -23 -16h-61q-10 0 -13 6.5t2 15.5l184 297h-149q-21 0 -37 -8l-17 -7q-8 -5 -13 -0.5t-2 14.5z" />
    <glyph glyph-name="uni2088" unicode="&#x2088;" horiz-adv-x="370" 
d="M45 -51q0 38 24 64.5t64 33.5q-40 24 -59 47.5t-19 55.5q0 48 36 78t94 30q56 0 91 -26t35 -68q0 -64 -74 -90q49 -28 70 -54t21 -57q0 -51 -37.5 -82t-100.5 -31q-70 0 -107.5 28t-37.5 71zM120 181q0 -26 19 -44t74 -49q30 25 30 73q0 30 -16 50t-48 20q-27 0 -43 -14
t-16 -36zM122 -48q0 -35 19 -55t51 -20q30 0 47 16t17 44q0 26 -21.5 46t-74.5 49q-38 -30 -38 -80z" />
    <glyph glyph-name="uni2089" unicode="&#x2089;" horiz-adv-x="359" 
d="M40 115q0 64 39.5 103t99.5 39q66 1 103 -41t37 -109q0 -100 -69.5 -172t-179.5 -91q-11 -2 -13.5 4.5t5.5 11.5q127 66 162 162q-37 -19 -78 -19q-47 0 -76.5 29t-29.5 83zM119 122q0 -39 16.5 -60.5t46.5 -21.5q28 0 51 15q6 27 6 59q0 116 -57 117q-61 0 -63 -109z
" />
    <glyph glyph-name="uni20A3" unicode="&#x20a3;" horiz-adv-x="683" 
d="M59 158q-18 -1 -25.5 12t0.5 25.5t26 11.5l107 -6v417q0 18 -12.5 28t-25 18.5t-12.5 21.5q0 16 20 16h457q51 0 51 -47v-129q0 -18 -14 -21t-23 12l-59 93q-28 42 -81 42h-156q-28 0 -28 -28v-224h116q39 0 56 32l38 61q10 17 22.5 13.5t12.5 -23.5v-215
q0 -21 -12.5 -24.5t-22.5 14.5l-38 60q-17 32 -56 32h-116v-149l118 3q19 0 26.5 -12.5t-0.5 -25.5t-27 -12l-117 7v-77q0 -16 8 -26t17 -14t17 -11t8 -17q0 -16 -20 -16h-177q-20 0 -20 16q0 13 12.5 21.5t25 18.5t12.5 28v79z" />
    <glyph glyph-name="uni20A4" unicode="&#x20a4;" horiz-adv-x="589" 
d="M44 55q0 31 22.5 48t63.5 17q78 0 78 141q0 26 -6 50l-114 -5q-23 -1 -28 17.5t11 27.5q-17 9 -11 28t29 18l87 -5q-21 57 -21 90q0 69 55.5 116t139.5 47q76 0 123.5 -32t47.5 -91q0 -30 -14 -46.5t-38 -16.5q-53 0 -53 60q0 47 -14 68.5t-49 21.5q-93 0 -93 -82
q0 -16 4 -36t6.5 -29.5t12 -38t10.5 -32.5l128 3q24 0 29 -18.5t-12 -27.5q17 -10 11.5 -28.5t-29.5 -17.5l-110 6q1 -6 1 -19q0 -64 -23 -101.5t-76 -69.5q31 11 94.5 -15t97.5 -26q67 0 67 41q0 10 -14 33.5t-14 40.5q0 20 12.5 33t31.5 13q22 0 35.5 -17t13.5 -48
q0 -71 -49.5 -128t-122.5 -57q-77 0 -158 66q-16 13 -33 9t-25 -24q-18 -39 -52 -39q-23 0 -37.5 15t-14.5 40zM160 351l31 -2q0 2 -1 3zM304 349h16l-16 1v-1z" />
    <glyph glyph-name="uni20A7" unicode="&#x20a7;" horiz-adv-x="717" 
d="M65 506l104 -7v119q0 14 -8 22.5t-17 15.5t-17 13.5t-8 16.5q0 16 20 16h204q163 0 245 -57.5t82 -156.5q0 -56 -23 -96.5t-60.5 -67t-85 -39t-97.5 -12.5q-28 0 -57.5 3t-60.5 10v-202q0 -16 8 -24t17.5 -13.5t17.5 -12t8 -18.5q0 -16 -20 -16h-178q-20 0 -20 16
q0 9 8 15.5t17 13.5t17 15.5t8 23.5v379l-105 -5h-2q-13 0 -20 7.5t-6.5 16.5t7.5 16.5t20 7.5h2zM286 498l169 5q14 0 20.5 -8t6.5 -17t-6.5 -17t-19.5 -8h-2l-168 9v-128q53 -11 89 -11q78 0 123 37t45 115q0 88 -58 133.5t-169 45.5q-30 0 -30 -28v-128z" />
    <glyph glyph-name="uni20AC" unicode="&#x20ac;" horiz-adv-x="715" 
d="M78 258q-18 -1 -25.5 11.5t0.5 25.5t26 12l84 -6v10q0 27 3 52l-88 -5q-18 -1 -25.5 11.5t0.5 25.5t26 12l93 -7q23 111 97 178.5t182 67.5q87 0 143.5 -41.5t56.5 -108.5q0 -34 -17 -52.5t-46 -18.5t-47 21.5t-18 57.5q0 11 1.5 25t1.5 20q0 48 -77 48q-80 0 -129.5 -54
t-57.5 -146l207 6q17 1 24 -12t-0.5 -25.5t-24.5 -11.5l-207 11v-2q0 -38 4 -66l204 6q17 1 24 -12t-0.5 -25.5t-24.5 -11.5l-197 10q19 -84 71 -128.5t128 -44.5q45 0 79.5 16.5t55 32.5t31.5 16q14 0 14 -16q0 -34 -38 -77q-63 -75 -170 -75q-112 0 -188 74t-89 200z" />
    <glyph glyph-name="uni20BA" unicode="&#x20ba;" horiz-adv-x="613" 
d="M75 355l100 32v103q0 19 -27 31q-28 10 -28 24q0 12 17 20l110 56q10 5 17 5q18 0 18 -23v-178l104 39q9 3 17 3q17 0 21 -17q8 -23 -23 -33l-119 -38v-36l104 39q9 3 17 3q17 0 21 -17q8 -26 -23 -33l-119 -38v-105q0 -42 -26 -74q9 3 20 3q29 0 74 -18q66 -26 99 -26
q66 0 66 41q0 5 -4.5 14t-9.5 19.5t-9.5 21t-4.5 19.5q0 20 12.5 33t32.5 13q22 0 35 -17t13 -48q0 -36 -13 -69t-35.5 -59t-54 -41.5t-68.5 -15.5q-75 0 -158 66q-12 9 -24 9q-22 0 -34 -24q-18 -39 -52 -39q-23 0 -38 15t-15 40q0 57 70 64q17 2 17 18v122l-84 -33
q-9 -4 -19 -4q-16 0 -21 17q-8 23 24 34l100 32v36l-84 -33q-10 -3 -18 -3q-18 0 -22 16q-8 23 24 34z" />
    <glyph glyph-name="uni20BD" unicode="&#x20bd;" horiz-adv-x="671" 
d="M56 173q0 22 31 22l63 -2v36l-64 -1q-30 0 -30 23v4q0 12 10.5 17t20.5 5l63 -3v274q0 14 -8 22.5t-17 15.5t-17 13.5t-8 16.5q0 16 20 16h204q147 0 222 -53.5t75 -143.5q0 -97 -73 -151t-208 -54h-73v-39l130 1q29 0 29 -22v-6q0 -9 -8 -15.5t-20 -6.5h-2l-129 6v-64
q0 -16 8 -24t17.5 -13.5t17.5 -12t8 -18.5q0 -6 -5.5 -11t-14.5 -5h-178q-20 0 -20 16q0 13 25 29q25 15 25 39v64l-64 -1q-30 0 -30 22v4zM267 272h62q82 0 123.5 35.5t41.5 114.5q0 81 -51 121.5t-148 40.5q-28 0 -28 -28v-284z" />
    <glyph glyph-name="uni2113" unicode="&#x2113;" horiz-adv-x="545" 
d="M38 150v8q0 13 13 20l64 32q7 101 42.5 199t101 167.5t142.5 69.5q56 0 87 -31.5t31 -83.5q0 -156 -298 -322q-2 -32 -2 -41q0 -102 78 -102q36 0 68.5 16.5t54 33.5t30.5 17q7 0 10 -6t-1 -17.5t-15 -24.5q-37 -44 -88.5 -70.5t-101.5 -26.5q-64 0 -101.5 43t-38.5 134
l-56 -27q-8 -4 -14 -0.5t-6 12.5zM227 262q95 63 141 130t46 146q0 62 -33 62q-28 0 -54 -32.5t-45 -85.5t-32.5 -108.5t-22.5 -111.5z" />
    <glyph glyph-name="uni2122" unicode="&#x2122;" horiz-adv-x="996" 
d="M441 332q0 5 4.5 9.5l10.5 10.5t10.5 12.5t4.5 15.5v251q0 11 -4.5 20t-10 16.5t-10 13t-4.5 8.5q0 13 18 13h100q14 0 22 -14l107 -236l104 236q8 14 21 14h97q18 0 18 -13q0 -3 -4.5 -8.5t-10 -13t-10 -16.5t-4.5 -20v-254q0 -9 4 -15.5t9 -12t9 -10t4 -7.5
q0 -12 -14 -12h-111q-15 0 -15 12q0 4 4.5 8.5l9.5 9.5t9.5 12t4.5 16v239l-125 -284q-2 -7 -7 -12.5t-13 -5.5q-5 0 -12 5q-5 5 -9 13l-130 283v-236q0 -9 5 -16t10.5 -13t10.5 -10.5t5 -8.5q0 -12 -13 -12h-82q-13 0 -13 12zM39 589l11 81q3 19 8.5 25t19.5 6t32.5 -0.5
t38 -1.5t37.5 -1.5t30 -0.5q9 0 28 0.5t40 1.5t41 1.5t31 0.5q14 0 19 -6t8 -25l11 -81q2 -8 -2.5 -12t-10.5 -4q-7 0 -13 7l-29 39q-11 14 -19.5 22t-17 12.5t-18.5 6t-24 1.5v-281q0 -9 4.5 -16.5t9.5 -13.5t9.5 -11t4.5 -8q0 -11 -13 -11h-116q-13 0 -13 11q0 3 4 7.5
t9.5 10.5t9.5 14t4 17v281q-14 0 -24 -1.5t-19 -6t-17.5 -12.5t-19.5 -22l-29 -39q-6 -7 -13 -7q-6 0 -10 4t-2 12z" />
    <glyph glyph-name="uni2126" unicode="&#x2126;" horiz-adv-x="807" 
d="M55 152q0 17 12 17q8 0 13 -8l68 -82h120q-52 54 -89 99t-59 81q-44 73 -44 158q0 67 27 122t72.5 94t104.5 60t123 21t123 -21t104.5 -60t73 -93.5t27.5 -122.5q0 -85 -44 -158q-44 -70 -149 -180h121l68 82q6 8 13 8q11 0 11 -17v-118q0 -34 -34 -34h-253
q-12 0 -16.5 7t1.5 17q26 45 52 92.5t46.5 97.5t33.5 102t13 104q0 46 -10 90.5t-32.5 80t-59 57.5t-89.5 22q-51 0 -87 -21.5t-59.5 -56.5t-34 -80t-10.5 -92q0 -53 13 -105t34 -102t47 -97.5t52 -91.5q5 -10 0.5 -17t-15.5 -7h-253q-35 0 -35 34v118z" />
    <glyph glyph-name="uni212E" unicode="&#x212e;" horiz-adv-x="730" 
d="M61 315q0 70 22.5 130.5t63.5 105t99.5 70t130.5 25.5q66 0 120.5 -20.5t94.5 -58.5t64.5 -91.5t30.5 -119.5q2 -20 -8.5 -30.5t-29.5 -10.5h-443v-217q27 -30 75 -47.5t96 -17.5q84 0 139 29.5t89 96.5q7 13 18 13q5 0 11 -3l3 -1q18 -9 8 -31q-74 -149 -268 -149
q-71 0 -129.5 25t-100 68.5t-64 103.5t-22.5 130zM206 370h336v178q-65 58 -165 58q-107 0 -171 -59v-177z" />
    <glyph glyph-name="uni2153" unicode="&#x2153;" horiz-adv-x="714" 
d="M56 560q-14 4 -13 13t12 14l115 53q10 5 17.5 2t7.5 -12v-315q0 -17 21 -30.5t21 -23.5q0 -12 -16 -12h-142q-17 0 -17 12q0 9 21.5 23t21.5 31v232zM130 -7q-18 0 -23.5 13.5t5.5 32.5l214 295l181 297q10 18 27.5 18t23.5 -13.5t-5 -32.5l-214 -297l-181 -295
q-11 -17 -28 -18zM390 69q0 23 13.5 36t35.5 13q44 0 44 -48q0 -25 7.5 -37t31.5 -12q28 0 42.5 22t14.5 57q0 73 -79 84q-9 1 -12.5 6.5t-1 11.5t10.5 8q41 12 57 30.5t16 53.5q0 70 -52 70q-20 0 -32.5 -10t-12.5 -21q0 -7 10.5 -21t10.5 -28q0 -17 -13 -29t-33 -12
q-26 0 -39.5 15.5t-13.5 40.5q0 44 37.5 69.5t94.5 25.5q56 0 93.5 -25.5t37.5 -71.5q0 -33 -21.5 -56t-59.5 -32q43 -9 68 -35t25 -65q0 -54 -42 -87.5t-113 -33.5q-61 0 -93 23.5t-32 57.5z" />
    <glyph glyph-name="uni2154" unicode="&#x2154;" horiz-adv-x="796" 
d="M61 249q-12 0 -15 10t9 20q94 77 134.5 135.5t40.5 125.5q0 73 -48 73q-42 0 -42 -40q0 -13 7.5 -28.5t7.5 -24.5q0 -18 -13 -30.5t-36 -12.5q-26 0 -40.5 16t-14.5 42q0 46 39.5 78.5t100.5 32.5q64 0 100.5 -32t36.5 -83q0 -49 -42 -101t-143 -123h100q25 0 36 18
l25 44q4 6 9 7.5t9 -2t4 -9.5v-102q0 -14 -17 -14h-248zM213 -7q-18 0 -23.5 13.5t5.5 32.5l215 295l181 297q10 18 27.5 18t23.5 -13.5t-5 -32.5l-215 -297l-181 -295q-11 -17 -28 -18zM472 69q0 23 13 36t35 13q45 0 45 -48q0 -25 7.5 -37t31.5 -12q28 0 42.5 22t14.5 57
q0 74 -80 84q-13 1 -14 12t11 14q42 12 57.5 30.5t15.5 53.5q0 70 -51 70q-20 0 -32.5 -9.5t-12.5 -21.5q0 -7 10 -21t10 -28q0 -18 -12.5 -29.5t-33.5 -11.5q-25 0 -39 15.5t-14 40.5q0 44 38 69.5t95 25.5q56 0 93.5 -26t37.5 -71q0 -33 -21.5 -56t-59.5 -32q43 -9 68 -35
t25 -65q0 -54 -42 -87.5t-113 -33.5q-61 0 -93 23.5t-32 57.5z" />
    <glyph glyph-name="uni215B" unicode="&#x215b;" horiz-adv-x="712" 
d="M56 560q-14 4 -13 13t12 14l115 53q10 5 17.5 2t7.5 -12v-315q0 -17 21 -30.5t21 -23.5q0 -12 -16 -12h-142q-17 0 -17 12q0 9 21.5 23t21.5 31v232zM132 -7q-18 0 -23.5 13.5t5.5 32.5l215 295l180 297q10 18 27.5 18t23.5 -13.5t-5 -32.5l-214 -297l-181 -295
q-11 -17 -28 -18zM385 87q0 37 24 64t64 34q-40 24 -58.5 47.5t-18.5 55.5q0 48 35.5 78t93.5 30q57 0 92 -26t35 -68q0 -64 -74 -90q91 -52 91 -111q0 -51 -37.5 -82t-101.5 -31q-69 0 -107 28t-38 71zM460 319q0 -26 19.5 -44.5t74.5 -48.5q30 25 30 73q0 30 -16 50
t-49 20q-26 0 -42.5 -14t-16.5 -36zM463 90q0 -35 19 -55t51 -20q30 0 47 16t17 44q0 26 -21.5 46t-74.5 49q-38 -30 -38 -80z" />
    <glyph glyph-name="uni215C" unicode="&#x215c;" horiz-adv-x="768" 
d="M46 321q0 23 13 36t35 13q45 0 45 -48q0 -25 7.5 -37t31.5 -12q27 0 41.5 22t14.5 57q0 74 -79 84q-13 1 -14 12t11 14q42 12 57.5 30.5t15.5 53.5q0 70 -52 70q-20 0 -32 -9.5t-12 -21.5q0 -7 10 -21t10 -28q0 -18 -12.5 -29.5t-33.5 -11.5q-25 0 -39 15.5t-14 40.5
q0 44 38 69.5t95 25.5q56 0 93 -25.5t37 -71.5q0 -33 -21.5 -56t-59.5 -32q43 -9 68.5 -35t25.5 -65q0 -54 -42 -87.5t-113 -33.5q-61 0 -93 23.5t-32 57.5zM190 -7q-18 0 -23.5 13.5t5.5 32.5l214 295l181 297q10 18 27.5 18t23.5 -13.5t-5 -32.5l-214 -297l-181 -295
q-11 -17 -28 -18zM442 87q0 38 24 64.5t64 33.5q-40 24 -59 47.5t-19 55.5q0 48 36 78t94 30q57 0 91.5 -26t34.5 -68q0 -64 -73 -90q49 -28 69.5 -54t20.5 -57q0 -51 -37.5 -82t-100.5 -31q-70 0 -107.5 28t-37.5 71zM517 319q0 -26 19 -44t74 -49q30 25 30 73
q0 31 -15.5 50.5t-48.5 19.5q-27 0 -43 -14t-16 -36zM519 90q0 -35 19 -55t52 -20q30 0 46.5 15.5t16.5 44.5q0 26 -21.5 46.5t-74.5 48.5q-38 -31 -38 -80z" />
    <glyph glyph-name="uni215D" unicode="&#x215d;" horiz-adv-x="760" 
d="M46 325q0 20 12 34t34 14q26 0 36 -17t9 -37t7 -37t31 -17q61 0 61 95q0 93 -70 93q-25 0 -55.5 -11.5t-38.5 -11.5q-17 0 -15 18l15 164q3 22 25 22h201q14 0 13 -15l-5 -32q-4 -20 -32 -20h-167l-9 -99q49 32 105 32q116 0 116 -112q0 -66 -40 -108t-109 -42
q-57 0 -90.5 25t-33.5 62zM177 -7q-18 0 -23.5 13.5t5.5 32.5l215 295l181 297q10 18 27.5 18t23.5 -13.5t-5 -32.5l-215 -297l-181 -295q-11 -17 -28 -18zM435 87q0 37 24 63.5t64 34.5q-40 24 -59 47.5t-19 55.5q0 48 36 78t94 30q57 0 92 -26t35 -68q0 -64 -74 -90
q91 -52 91 -111q0 -51 -37.5 -82t-101.5 -31q-70 0 -107.5 28t-37.5 71zM510 319q0 -26 19.5 -44.5t74.5 -48.5q30 25 30 73q0 30 -16 50t-49 20q-26 0 -42.5 -14t-16.5 -36zM512 90q0 -35 19 -55t52 -20q30 0 47 16t17 44q0 26 -21.5 46t-74.5 49q-39 -30 -39 -80z" />
    <glyph glyph-name="uni215E" unicode="&#x215e;" horiz-adv-x="706" 
d="M45 566l16 55q3 13 17 13h218q25 0 17 -23l-138 -347q-7 -16 -24 -16h-61q-10 0 -13 6.5t2 15.5l184 297h-149q-20 0 -37 -8l-16 -7q-9 -5 -14 -0.5t-2 14.5zM111 -7q-18 0 -23.5 13.5t5.5 32.5l215 295l180 297q10 18 27.5 18t23.5 -13.5t-5 -32.5l-214 -297l-181 -295
q-11 -17 -28 -18zM384 87q0 38 24 64.5t64 33.5q-40 24 -59 47.5t-19 55.5q0 48 36 78t94 30q56 0 91 -26t35 -68q0 -64 -74 -90q49 -28 70 -54t21 -57q0 -51 -37.5 -82t-100.5 -31q-70 0 -107.5 28t-37.5 71zM459 319q0 -26 19 -44t74 -49q30 25 30 73q0 30 -16 50t-48 20
q-27 0 -43 -14t-16 -36zM461 90q0 -35 19 -55t51 -20q30 0 47 16t17 44q0 26 -21.5 46t-74.5 49q-38 -30 -38 -80z" />
    <glyph glyph-name="uni2190" unicode="&#x2190;" horiz-adv-x="832" 
d="M61 266q-11 8 -11 17t11 17l205 148q17 12 26.5 5t3.5 -25l-42 -128l476 22q30 1 42 -19t0 -40t-42 -19l-476 22l42 -128q6 -18 -3.5 -25t-25.5 4z" />
    <glyph glyph-name="uni2191" unicode="&#x2191;" horiz-adv-x="412" 
d="M61 469q-18 -6 -25 3.5t4 25.5l149 206q17 22 34 0l148 -205q12 -17 5 -26.5t-25 -3.5l-128 42l22 -477q1 -29 -19 -41t-40.5 0t-18.5 41l22 477z" />
    <glyph glyph-name="uni2192" unicode="&#x2192;" horiz-adv-x="832" 
d="M102 244q-30 -1 -42 19t0 40t42 19l477 -22l-43 128q-5 18 4 25t25 -4l206 -149q11 -8 11 -17t-11 -17l-204 -148q-17 -12 -26.5 -5t-4.5 25l43 128z" />
    <glyph glyph-name="uni2193" unicode="&#x2193;" horiz-adv-x="412" 
d="M40 194q-11 16 -4 25.5t25 3.5l128 -42l-22 477q-2 29 18.5 41t40.5 0t19 -41l-22 -477l128 42q18 6 25 -3.5t-5 -26.5l-148 -205q-17 -22 -34 0z" />
    </font>
</defs>
</svg>
