<?xml version="1.0" standalone="no"?>
<!DOCTYPE svg PUBLIC "-//W3C//DTD SVG 1.1//EN" "http://www.w3.org/Graphics/SVG/1.1/DTD/svg11.dtd" >
<svg xmlns="http://www.w3.org/2000/svg" xmlns:xlink="http://www.w3.org/1999/xlink" version="1.1">
<metadata>
Created by FontForge 20170731 at Sat Feb 27 04:00:47 2021
 By Aleksey,,,
Copyright (c) 2016 Swiss Typefaces Sa`rl. All rights reserved.
</metadata>
<defs>
<font id="SuisseIntl-Regular" horiz-adv-x="0" >
  <font-face 
    font-family="Suisse Int'l"
    font-weight="400"
    font-stretch="normal"
    units-per-em="1000"
    panose-1="2 11 5 4 0 0 0 0 0 0"
    ascent="774"
    descent="-226"
    x-height="538"
    cap-height="725"
    bbox="-372 -650 2813 1121"
    underline-thickness="70"
    underline-position="-180"
    unicode-range="U+000D-FEFC"
  />
<missing-glyph horiz-adv-x="500" 
d="M500 725v-725h-500v725h500zM466 706h-433l217 -328zM19 29l220 333l-220 334v-667zM481 696l-221 -334l221 -333v667zM466 19l-216 327l-217 -327h433z" />
    <glyph glyph-name="uniFB51" unicode="&#x671;" horiz-adv-x="289" arabic-form="final" 
d="M271 725q0 -48 -40 -74q-39 -26 -113 -26q-33 0 -69 8q-37 7 -75 22l18 54q20 -7 38 -12q46 62 81 89q35 28 69 27q39 -1 65 -25q25 -25 26 -63zM76 688q22 -3 40 -3q42 0 65 11q22 10 22 29q0 13 -10 21q-9 8 -24 8q-17 1 -39 -14q-21 -15 -54 -52zM289 90q5 0 7 -3
q3 -2 3 -7v-69q0 -5 -3 -8q-2 -3 -7 -3q-103 1 -153 52q-51 50 -51 139v409h85v-406q-1 -52 27 -78t92 -26z" />
    <glyph glyph-name="uniFB57" unicode="&#x67e;" horiz-adv-x="837" arabic-form="final" 
d="M837 90q5 0 7 -3q3 -2 3 -7v-69q0 -5 -3 -8q-2 -3 -7 -3q-45 0 -83 13q-38 14 -76 46q-22 -26 -53 -41q-32 -15 -70 -17q-3 -1 -4 -1h-258q-120 0 -186 59t-67 170q0 35 8 90q7 54 22 121h80q-13 -62 -19 -107q-6 -46 -6 -83q-1 -83 42 -122q43 -38 145 -38h225
q74 0 101 54q14 28 20 80q6 53 6 146h78q0 -83 -7 -144t-21 -103q29 -18 58 -26q29 -7 65 -7zM426 -151l-76 -77l-76 77l75 75zM514 -76l76 -75l-76 -77l-77 77zM433 -213l61 -61l-60 -60l-61 60z" />
    <glyph glyph-name="uniFB58" unicode="&#x67e;" horiz-adv-x="333" arabic-form="initial" 
d="M252 485q16 -109 23 -177t7 -117q0 -89 -51 -139q-50 -51 -153 -52h-78q-5 0 -7 3q-3 3 -3 8v69q0 5 3 7q2 3 7 3h78q64 0 93 26t28 78q0 42 -7 107q-7 64 -25 184h85zM123 -148l-76 -77l-76 77l75 75zM287 -148l-76 -77l-77 77l77 75zM191 -271l-60 -60l-61 60l60 61z
" />
    <glyph glyph-name="uniFB59" unicode="&#x67e;" horiz-adv-x="370" arabic-form="medial" 
d="M370 90q5 0 7 -3q3 -2 3 -7v-69q0 -5 -3 -8q-2 -3 -7 -3q-48 0 -95 20q-46 19 -90 58q-28 -38 -74 -58t-111 -20q-5 0 -7 3q-3 3 -3 8v69q0 5 3 7q2 3 7 3q51 0 83 13q31 13 46 40q17 29 23 81q5 52 4 146h79q0 -75 -4 -131q-5 -56 -16 -95q35 -26 73 -40q39 -14 82 -14z
M157 -150l-76 -77l-76 77l75 75zM245 -75l76 -75l-76 -77l-77 77zM164 -212l61 -61l-60 -60l-61 60z" />
    <glyph glyph-name="uniFB67" unicode="&#x679;" horiz-adv-x="837" arabic-form="final" 
d="M282 498h63v172h55v-96l-2 -13q38 43 69 60q30 18 55 17q44 -1 70 -27q27 -25 28 -64q-1 -50 -48 -78q-48 -28 -131 -29h-126zM509 581q-24 0 -49 -20q-26 -21 -67 -63h46q54 0 84 12t30 37q0 15 -12 24q-12 10 -32 10zM837 90q5 0 7 -3q3 -2 3 -7v-69q0 -5 -3 -8
q-2 -3 -7 -3q-45 0 -83 13q-38 14 -76 46q-22 -26 -53 -41q-32 -15 -70 -17q-3 -1 -4 -1h-258q-120 0 -186 59t-67 170q0 35 8 90q7 54 22 121h80q-13 -62 -19 -107q-6 -46 -6 -83q-1 -83 42 -122q43 -38 145 -38h225q74 0 101 54q14 28 20 80q6 53 6 146h78q0 -83 -7 -144
t-21 -103q29 -18 58 -26q29 -7 65 -7z" />
    <glyph glyph-name="uniFB68" unicode="&#x679;" horiz-adv-x="380" arabic-form="initial" 
d="M-10 80q0 6 3 7q1 3 7 3h78q64 0 93 26t28 78q0 21 -1.5 48t-5.5 59t-10 78t-15 106h85q8 -55 13.5 -99t9.5 -78t5.5 -63t1.5 -54q0 -49 -14.5 -84.5t-41 -59t-64 -35t-84.5 -12.5h-78q-6 0 -7 3q-3 3 -3 8v69zM17 596h63v172h55v-96l-2 -13q11 13 25 26.5t30 25
t33.5 18.5t35.5 7q41 -2 68.5 -25.5t29.5 -65.5q-1 -33 -19.5 -54t-45.5 -32.5t-57.5 -16t-56.5 -4.5h-126zM128 596h46q12 0 31.5 1t37.5 6t31.5 14.5t13.5 27.5q0 15 -12 24q-11 10 -32 10q-23 0 -49 -20q-13 -11 -30 -26.5t-37 -36.5z" />
    <glyph glyph-name="uniFB69" unicode="&#x679;" horiz-adv-x="370" arabic-form="medial" 
d="M17 498h63v172h55v-96l-2 -13q11 13 25 26.5t30 25t33.5 18.5t35.5 7q41 -2 68.5 -25.5t29.5 -65.5q-1 -33 -19.5 -54t-45.5 -32.5t-57.5 -16t-56.5 -4.5h-126zM-10 80q0 6 3 7q1 3 7 3q37 0 63.5 6.5t44.5 22t29 41t15 64.5q2 26 3.5 62t0.5 84h79q0 -57 -2.5 -114
t-17.5 -112q35 -26 73 -40t82 -14q6 0 7 -3q3 -1 3 -7v-69q0 -5 -3 -8q-1 -3 -7 -3q-52 0 -99.5 22t-85.5 56q-34 -45 -82.5 -61.5t-102.5 -16.5q-6 0 -7 3q-3 3 -3 8v69zM128 498h46q12 0 31.5 1t37.5 6t31.5 14.5t13.5 27.5q0 15 -12 24q-11 10 -32 10q-23 0 -49 -20
q-13 -11 -30 -26.5t-37 -36.5z" />
    <glyph glyph-name="uniFB6B" unicode="&#x6a4;" horiz-adv-x="964" arabic-form="final" 
d="M694 695l-61 60l60 61l61 -61zM611 559l-76 75l75 77l77 -77zM698 634l77 77l76 -77l-76 -75zM964 90q5 0 7 -3q3 -2 3 -7v-69q0 -5 -3 -8q-2 -3 -7 -3q-67 0 -136 9q-70 9 -132 26q-60 -18 -128 -26q-69 -8 -138 -9h-138q-120 0 -186 59q-66 58 -67 169q0 36 5 75
q6 39 16 85h80q-8 -44 -12 -77q-4 -34 -4 -61q-1 -83 42 -122q43 -38 145 -38h109q37 0 72 1t68 5q-41 32 -64 74q-22 43 -22 94q2 96 63 157q61 62 155 64q95 -2 155 -62q60 -61 62 -158q0 -50 -24 -93t-66 -76q35 -4 71 -5q37 -1 74 -1zM689 395q-56 -1 -92 -37
q-37 -36 -38 -100q0 -53 33 -94q32 -42 92 -62q71 21 105 62t34 94q-1 61 -37 99q-37 37 -97 38z" />
    <glyph glyph-name="uniFB6C" unicode="&#x6a4;" horiz-adv-x="521" arabic-form="initial" 
d="M-7 87q1 3 7 3h111q-3 5 -6 11t-6 11q-7 11 -15 24q-22 34 -33.5 67t-11.5 73q1 47 19 85.5t48 65.5t70.5 42t85.5 16q48 -1 87.5 -18.5t67 -48t43 -71.5t16.5 -88q-2 -125 -72.5 -191t-193.5 -68h-210q-6 2 -7 4q-3 2 -3 7v69q0 6 3 7zM124 265q0 -24 9 -50
q8 -25 27 -57q11 -17 19 -32q4 -8 8 -17t8 -19h24q77 0 123 39.5t48 118.5q-2 63 -36 103.5t-100 42.5q-57 -2 -92.5 -37t-37.5 -92zM275 634l77 77l76 -77l-76 -75zM112 634l75 77l77 -77l-76 -75zM210 755l60 61l61 -61l-60 -60z" />
    <glyph glyph-name="uniFB6D" unicode="&#x6a4;" horiz-adv-x="544" arabic-form="medial" 
d="M276 695l-61 60l60 61l61 -61zM193 559l-76 75l75 77l77 -77zM280 634l77 77l76 -77l-76 -75zM544 90q5 0 7 -3q3 -2 3 -7v-69q0 -5 -3 -8q-2 -3 -7 -3q-67 0 -136 9q-70 9 -132 26q-62 -19 -133 -27q-72 -8 -143 -8q-5 1 -7 4q-3 2 -3 7v69q0 5 3 7q2 3 7 3q37 0 72 1
t68 5q-41 32 -64 74q-22 43 -22 94q2 96 63 157q61 62 155 64q95 -2 155 -62q60 -61 62 -158q0 -50 -24 -93t-66 -76q35 -4 71 -5q37 -1 74 -1zM269 395q-56 -1 -92 -37q-37 -36 -38 -100q0 -53 33 -94q32 -42 92 -62q71 21 105 62t34 94q-1 61 -37 99q-37 37 -97 38z" />
    <glyph glyph-name="uniFB7B" unicode="&#x686;" horiz-adv-x="651" arabic-form="final" 
d="M651 90q5 0 7 -3q3 -2 3 -7v-69q0 -5 -3 -8q-2 -3 -7 -3q-88 0 -136 38t-49 116v58q-141 -24 -237 -90q-95 -66 -99 -158q0 -41 18 -78q18 -36 60 -75l-78 -33q-41 35 -63 81t-22 97q2 128 115 215q114 87 316 112q-92 58 -153 110q-61 51 -128 55q-29 0 -58 -6
q-30 -7 -62 -18v80q24 15 58 24q35 10 67 10q96 -8 184 -88q87 -81 228 -143l-23 -85q-30 0 -60 -2v-52q0 -40 32 -59t90 -19zM395 -111l-76 -77l-76 77l75 75zM483 -36l76 -75l-76 -77l-77 77zM402 -173l61 -61l-60 -60l-61 60z" />
    <glyph glyph-name="uniFB7C" unicode="&#x686;" horiz-adv-x="609" arabic-form="initial" 
d="M189 475q96 -6 175 -78q80 -71 220 -131l-23 -85q-163 -41 -249 -108q-85 -66 -311 -73q-5 0 -8 3t-3 8v69q0 5 3 7q3 3 8 3q180 4 274 51t194 88q-98 55 -157 104t-128 52q-29 0 -58 -6q-30 -7 -62 -18v80q24 15 58 24q35 10 67 10zM279 -153l-76 -77l-76 77l75 75z
M367 -78l76 -75l-76 -77l-77 77zM286 -215l61 -61l-60 -60l-61 60z" />
    <glyph glyph-name="uniFB7D" unicode="&#x686;" horiz-adv-x="631" arabic-form="medial" 
d="M631 90q5 0 7 -3q3 -2 3 -7v-69q0 -5 -3 -8q-2 -3 -7 -3q-89 1 -132 41q-43 39 -46 109q-96 -47 -179 -97q-82 -49 -273 -53q-5 0 -8 3t-3 8v69q0 5 3 7q3 3 8 3q180 4 274 51t194 88q-98 55 -157 104t-128 52q-29 0 -58 -6q-30 -7 -62 -18v80q24 15 58 24q35 10 67 10
q96 -6 175 -78q80 -71 220 -131l-23 -85q-12 -2 -24 -5l-22 -6q-1 -36 25 -58q26 -21 91 -22zM279 -153l-76 -77l-76 77l75 75zM367 -78l76 -75l-76 -77l-77 77zM286 -215l61 -61l-60 -60l-61 60z" />
    <glyph glyph-name="uniFB89" unicode="&#x688;" horiz-adv-x="518" arabic-form="final" 
d="M15 119q45 -14 89.5 -21.5t91.5 -7.5q38 0 76 5t75 16q-7 14 -13.5 30t-12.5 33q-25 75 -42.5 154t-31.5 157h90q7 -41 14 -81t15 -80q8 -41 17 -75t18 -63q14 -44 41 -70t76 -26q6 0 7 -3q3 -1 3 -7v-69q0 -5 -3 -8q-1 -3 -7 -3q-77 0 -128 52q-91 -52 -194 -52
q-52 0 -92 8.5t-89 25.5v85zM94 596h63v172h55v-96l-2 -13q11 13 25 26.5t30 25t33.5 18.5t35.5 7q41 -2 68.5 -25.5t29.5 -65.5q-1 -33 -19.5 -54t-45.5 -32.5t-57.5 -16t-56.5 -4.5h-126zM251 596q12 0 31.5 1t37.5 6t31.5 14.5t13.5 27.5q0 15 -12 24q-11 10 -32 10
q-23 0 -49 -20q-13 -11 -30 -26.5t-37 -36.5h46z" />
    <glyph glyph-name="uniFB8B" unicode="&#x698;" horiz-adv-x="341" arabic-form="final" 
d="M154 654l-61 60l60 61l61 -61zM71 518l-76 75l75 77l77 -77zM158 593l77 77l76 -77l-76 -75zM340 90q5 0 7 -3q3 -2 3 -7v-69q0 -5 -3 -8q-2 -3 -7 -3q-35 0 -60 11q-26 12 -42 34v-19q-2 -119 -70 -180t-183 -61v82q76 0 123 41q48 40 49 122q0 81 -10 184
q-10 104 -27 226h85q8 -52 15 -115q6 -63 11 -128l3 -22q8 -55 37 -71q30 -16 69 -14z" />
    <glyph glyph-name="uniFB8D" unicode="&#x691;" horiz-adv-x="341" arabic-form="final" 
d="M-15 -133q78 0 124 41.5t48 121.5q0 103 -11.5 205.5t-25.5 204.5h85q9 -61 15 -121.5t11 -121.5l3 -22q7 -50 32.5 -67.5t73.5 -17.5q6 0 7 -3q3 -1 3 -7v-69q0 -5 -3 -8q-1 -3 -7 -3q-30 0 -56.5 9.5t-45.5 35.5v-19q-2 -119 -69.5 -180t-183.5 -61v82zM48 553v172h55
v-96l-2 -13q11 13 25 26.5t30 25t33.5 18.5t35.5 7q41 -2 68.5 -25.5t29.5 -65.5q-1 -33 -19.5 -54t-45.5 -32.5t-57.5 -16t-56.5 -4.5h-126l-33 58h63zM96 553h46q12 0 31.5 1t37.5 6t31.5 14.5t13.5 27.5q0 15 -12 24q-11 10 -32 10q-23 0 -49 -20q-13 -11 -30 -26.5
t-37 -36.5z" />
    <glyph glyph-name="uniFB8F" unicode="&#x6a9;" horiz-adv-x="987" arabic-form="final" 
d="M987 90q5 0 7 -3q3 -2 3 -7v-69q0 -5 -3 -8q-2 -3 -7 -3q-49 0 -90 16t-82 55q-35 -34 -88 -52q-53 -19 -122 -19h-312q-120 0 -186 59t-67 170q0 35 8 90q7 54 22 121h80q-13 -62 -19 -107q-6 -46 -6 -83q-1 -83 42 -122q43 -38 145 -38h301q75 1 122 30t48 76
q1 40 -37 75q-37 35 -124 73l-240 106v68l350 277h128v-4l-370 -291l174 -77q101 -44 153 -99q51 -56 51 -124q0 -19 -3 -37q-4 -17 -10 -34q32 -22 62 -31q31 -8 70 -8z" />
    <glyph glyph-name="uniFB90" unicode="&#x6a9;" horiz-adv-x="581" arabic-form="initial" 
d="M342 423q101 -44 153 -99q51 -56 51 -124q-1 -91 -71 -145q-69 -54 -192 -55h-283q-5 0 -7 3q-3 3 -3 8v69q0 5 3 7q2 3 7 3h291q75 1 122 30t48 76q1 40 -37 75q-37 35 -124 73l-240 106v68l350 277h128v-4l-370 -291z" />
    <glyph glyph-name="uniFB91" unicode="&#x6a9;" horiz-adv-x="649" arabic-form="medial" 
d="M649 90q5 0 7 -3q3 -2 3 -7v-69q0 -5 -3 -8q-2 -3 -7 -3q-47 0 -86 14q-39 15 -78 49q-35 -30 -86 -46q-51 -17 -116 -17h-283q-5 0 -7 3q-3 3 -3 8v69q0 5 3 7q2 3 7 3h291q75 1 122 30t48 76q1 40 -37 75q-37 35 -124 73l-240 106v68l350 277h128v-4l-370 -291l174 -77
q101 -44 153 -99q51 -56 51 -124q0 -43 -17 -79q28 -17 56 -24q29 -7 64 -7z" />
    <glyph glyph-name="uniFB93" unicode="&#x6af;" horiz-adv-x="987" arabic-form="final" 
d="M40 229q0 53 9.5 106.5t20.5 104.5h80q-11 -47 -18 -94.5t-7 -95.5q-2 -83 42 -122q44 -38 145 -38h301q24 0 53.5 5.5t55 17.5t43 32t18.5 51q1 40 -37 75q-19 17 -49.5 35.5t-74.5 37.5l-240 106v68l350 277h128v-4l-370 -291l174 -77q35 -15 71.5 -36t66 -48t48 -61.5
t18.5 -77.5q0 -19 -3 -37q-2 -8 -4.5 -17t-5.5 -17q30 -21 62 -31q16 -4 33 -6t37 -2q6 0 7 -3q3 -1 3 -7v-69q0 -5 -3 -8q-1 -3 -7 -3q-53 0 -93.5 17.5t-78.5 53.5q-20 -20 -45 -33.5t-53 -22t-56.5 -12t-55.5 -3.5h-312q-56 0 -102.5 13.5t-79.5 42t-51.5 71.5t-19.5 102
zM270 626l208 169h90v-4l-261 -209z" />
    <glyph glyph-name="uniFB94" unicode="&#x6af;" horiz-adv-x="716" arabic-form="initial" 
d="M-10 80q0 6 3 7q1 3 7 3h426q24 0 53.5 5.5t55 17.5t43 32t18.5 51q1 40 -37 75q-19 17 -49.5 35.5t-74.5 37.5l-240 106v68l350 277h128v-4l-370 -291l174 -77q35 -15 71.5 -36t66 -48t48 -61.5t18.5 -77.5q-1 -55 -24 -93t-60 -61.5t-84 -34t-95 -11.5h-418q-6 0 -7 3
q-3 3 -3 8v69zM260 795h90v-4l-261 -209l-37 44z" />
    <glyph glyph-name="uniFB95" unicode="&#x6af;" horiz-adv-x="784" arabic-form="medial" 
d="M-7 87q1 3 7 3h426q24 0 53.5 5.5t55 17.5t43 32t18.5 51q1 40 -37 75q-19 17 -49.5 35.5t-74.5 37.5l-240 106v68l350 277h128v-4l-370 -291l174 -77q35 -15 71.5 -36t66 -48t48 -61.5t18.5 -77.5q0 -42 -17 -79q30 -17 57.5 -24t62.5 -7q6 0 7 -3q3 -1 3 -7v-69
q0 -5 -3 -8q-1 -3 -7 -3q-50 0 -88.5 15t-75.5 48q-40 -35 -95 -49t-107 -14h-418q-6 0 -7 3q-3 3 -3 8v69q0 6 3 7zM260 795h90v-4l-261 -209l-37 44z" />
    <glyph glyph-name="uniFB9F" unicode="&#x6ba;" horiz-adv-x="677" arabic-form="final" 
d="M676 90q5 0 7 -3q3 -2 3 -7v-69q0 -5 -3 -8q-2 -3 -7 -3q-74 0 -106 51q-11 -120 -80 -192q-70 -72 -202 -74q-119 1 -183 71t-65 201q0 60 12 114t33 114h80q-21 -54 -33 -108t-12 -105q0 -92 42 -144q43 -52 134 -53q100 0 148 54q47 55 47 170q0 61 -10 141
q-11 80 -29 200h85q11 -71 19 -135q8 -63 13 -120l1 -10q8 -55 37 -71q30 -16 69 -14z" />
    <glyph glyph-name="uniFBA7" unicode="&#x6c1;" horiz-adv-x="620" arabic-form="final" 
d="M297 430q66 1 112 -44q46 -46 89 -150q19 -51 47 -97t75 -49q5 0 7 -3q3 -2 3 -7v-69q0 -5 -3 -8q-2 -3 -7 -3q-63 -1 -108 43q-46 43 -85 144q-29 80 -57 117t-73 36q-42 1 -77 -37q-34 -38 -76 -133l-37 -84l-72 34l37 84q52 121 105 174q54 53 120 52z" />
    <glyph glyph-name="uniFBA8" unicode="&#x6c1;" horiz-adv-x="274" arabic-form="initial" 
d="M174 485q16 -109 23 -177t7 -117q0 -89 -51 -139q-50 -51 -153 -52q-5 0 -7 3q-3 3 -3 8v69q0 5 3 7q2 3 7 3q65 0 94 26t28 78q0 42 -7 107q-8 64 -26 184h85zM107 -170h55l-18 -105h-110v103l54 110h69z" />
    <glyph glyph-name="uniFBA9" unicode="&#x6c1;" horiz-adv-x="725" arabic-form="medial" 
d="M-10 11v69q0 6 3 7q1 3 7 3q21 0 43 3.5t41 12.5t31.5 25t13.5 41v198h85v-347q0 -107 53.5 -156t158.5 -52v65q1 46 12 84t33.5 66t57 43.5t83.5 16.5h113q6 0 7 -3q3 -3 3 -8v-69q0 -5 -3 -7q-1 -3 -7 -3h-113q-30 0 -50.5 -10t-33 -27.5t-17.5 -41.5t-5 -51v-63
l-70 -82q-156 0 -231.5 73.5t-75.5 230.5v12q-29 -26 -60 -33.5t-69 -7.5q-6 0 -7 3q-3 3 -3 8zM616 -62h69l-50 -108h55l-18 -105h-110v103z" />
    <glyph glyph-name="uniFBAB" unicode="&#x6be;" horiz-adv-x="617" arabic-form="final" 
d="M617 90q5 0 7 -3q3 -3 3 -8v-69q0 -5 -3 -7q-2 -3 -7 -3q-25 0 -48 4q-24 4 -49 13q20 -25 30 -49q9 -24 9 -48q-1 -62 -46 -98q-44 -36 -121 -37q-85 1 -146 45q-62 45 -93 125q-45 -29 -89 -65l-49 63q28 25 56 47q29 22 60 41q-2 17 -4 35q-1 17 -1 36q0 124 54 239
q54 116 156 209h67q67 -62 108 -135q41 -72 42 -144q0 -52 -21 -95q-22 -42 -61 -74q30 -11 67 -17q38 -5 79 -5zM210 126q0 -22 2 -42q42 20 94 39q82 29 122 67t40 88q-1 60 -32 113q-30 53 -74 94q-65 -61 -108 -154q-42 -94 -44 -205zM394 -126q40 0 63 15q23 16 24 45
q0 31 -18 63q-19 32 -59 71q-34 -16 -73 -30q-54 -18 -100 -40q25 -63 69 -93q44 -31 94 -31z" />
    <glyph glyph-name="uniFBAC" unicode="&#x6be;" horiz-adv-x="752" arabic-form="initial" 
d="M239 670q225 -3 346 -103t122 -265q0 -43 -14 -104q-14 -62 -40 -132l-85 -79q-72 0 -142 13t-142 38q-64 -21 -137 -29q-73 -9 -147 -9q-5 1 -7 4q-3 2 -3 7v69q0 5 3 7q2 3 7 3q37 0 72 1q35 2 67 6q-41 31 -63 73q-22 43 -22 94q2 96 62 157q60 62 153 64
q95 -2 154 -62q59 -61 61 -158q0 -51 -25 -94q-24 -44 -67 -77q52 -9 94 -13q43 -4 84 -4q24 51 37 110q14 58 14 107q1 112 -91 197t-292 89zM266 395q-55 -1 -90 -37q-36 -36 -37 -100q1 -53 33 -94q32 -42 89 -62q70 21 103 62q34 41 34 94q-1 61 -36 99q-36 37 -96 38z
" />
    <glyph glyph-name="uniFBAD" unicode="&#x6be;" horiz-adv-x="553" arabic-form="medial" 
d="M553 90q5 0 7 -3q3 -3 3 -8v-69q0 -5 -3 -7q-2 -3 -7 -3q-24 0 -47 4q-24 4 -49 13q19 -25 29 -49q9 -24 9 -48q-1 -62 -46 -98q-44 -36 -121 -37q-96 1 -163 59t-91 158q-36 -2 -74 -2q-5 0 -7 3q-3 3 -3 8v69q0 5 3 7q2 3 7 3q33 0 63 1v8q-1 112 48 235
q50 123 161 226h67q67 -58 108 -131t42 -148q0 -53 -20 -95q-20 -43 -58 -75q30 -10 66 -16q36 -5 76 -5zM143 98q132 18 197 65q64 48 64 115q-1 63 -31 115t-74 92q-80 -75 -118 -176q-38 -102 -38 -191v-20zM331 -126q40 0 63 15q23 16 24 45q0 30 -18 61q-18 32 -57 70
q-77 -39 -185 -54q24 -71 71 -104t102 -33z" />
    <glyph glyph-name="uniFBAF" unicode="&#x6d2;" horiz-adv-x="734" arabic-form="final" 
d="M734 90q5 0 7 -3q3 -2 3 -7v-69q0 -5 -3 -8q-2 -3 -7 -3h-494q-110 0 -110 -63q0 -33 35 -48q35 -14 100 -14h348l-38 -90h-286q-125 0 -185 36q-59 37 -59 114q0 76 56 115q56 40 166 40h467z" />
    <glyph glyph-name="uniFBB1" unicode="&#x6d3;" horiz-adv-x="734" arabic-form="final" 
d="M314 229q-24 0 -47 -3q-24 -4 -59 -14v70q20 7 34 12q14 4 26 5q-22 24 -22 55q0 41 28 68t77 28q15 0 34 -5q19 -4 39 -14v-67q-21 7 -37 10t-31 3q-21 0 -34 -10q-14 -10 -14 -27q0 -19 17 -28q16 -10 44 -10h92l-22 -73h-125zM734 90q5 0 7 -3q3 -2 3 -7v-69
q0 -5 -3 -8q-2 -3 -7 -3h-494q-110 0 -110 -63q0 -33 35 -48q35 -14 100 -14h348l-38 -90h-286q-125 0 -185 36q-59 37 -59 114q0 76 56 115q56 40 166 40h467z" />
    <glyph glyph-name="uniFBFD" unicode="&#x6cc;" horiz-adv-x="679" arabic-form="final" 
d="M679 90q5 0 7 -3q3 -2 3 -7v-69q0 -5 -3 -8q-2 -3 -7 -3h-9q-46 -106 -134 -160q-88 -55 -213 -55q-134 0 -208 69q-74 68 -75 203q0 60 12 114t33 114h80q-21 -54 -33 -108t-12 -105q0 -102 56 -149q55 -48 166 -48q82 0 147 32q66 33 104 101q-23 4 -49 11
q-27 6 -59 15v85q74 -17 114 -23t80 -6z" />
    <glyph glyph-name="uniFBFE" unicode="&#x6cc;" horiz-adv-x="333" arabic-form="initial" 
d="M0 0q-5 0 -7 3q-3 3 -3 8v69q0 5 3 7q2 3 7 3h78q64 0 93 26t28 78q0 42 -7 107q-7 64 -25 184h85q16 -109 23 -177t7 -117q0 -89 -51 -139q-50 -51 -153 -52h-78zM209 -229l-75 74l-75 -74l-76 76l75 75l76 -73l75 73l76 -75z" />
    <glyph glyph-name="uniFBFF" unicode="&#x6cc;" horiz-adv-x="370" arabic-form="medial" 
d="M370 90q5 0 7 -3q3 -2 3 -7v-69q0 -5 -3 -8q-2 -3 -7 -3q-48 0 -95 20q-46 19 -90 58q-28 -38 -74 -58t-111 -20q-5 0 -7 3q-3 3 -3 8v69q0 5 3 7q2 3 7 3q51 0 83 13q31 13 46 40q17 29 23 81q5 52 4 146h79q0 -75 -4 -131q-5 -56 -16 -95q35 -26 73 -40q39 -14 82 -14z
M244 -78l76 -75l-76 -76l-75 74l-75 -74l-76 76l75 75l76 -73z" />
    <glyph glyph-name="uniFC02" unicode="&#xfc02;" horiz-adv-x="542" arabic-form="isolated" 
d="M371 605q-24 0 -47 -3q-24 -4 -59 -14v70q20 7 34 12q14 4 26 5q-22 24 -22 55q0 41 28 68t77 28q15 0 34 -5q19 -4 39 -14v-67q-21 7 -37 10t-31 3q-21 0 -34 -10q-14 -10 -14 -27q0 -19 17 -28q16 -10 44 -10h92l-22 -73h-125zM356 291q0 -46 20 -83q20 -38 58 -74
q37 -18 73 -42l-43 -79q-39 7 -71 23q-33 17 -60 40q-36 13 -67 19q-30 5 -58 5q-45 0 -66 -22q-22 -22 -22 -72q0 -47 8 -111q8 -65 25 -170h-85q-18 110 -25 176q-8 67 -8 116q1 82 47 127t120 46q23 0 50 -4t55 -12q-18 32 -27 65q-9 32 -9 63q1 67 35 126q35 59 96 104
h10l53 -54q-59 -51 -84 -94q-26 -43 -25 -93z" />
    <glyph glyph-name="uniFC03" unicode="&#xfc03;" horiz-adv-x="881" arabic-form="isolated" 
d="M857 609l-22 -73h-125q-24 0 -47 -3q-24 -4 -59 -14v70q20 7 34 12q14 4 26 5q-22 24 -22 55q0 41 28 68t77 28q15 0 34 -5q19 -4 39 -14v-67q-21 7 -37 10t-31 3q-21 0 -34 -10q-14 -10 -14 -27q0 -19 17 -28q16 -10 44 -10h92zM780 485q16 -109 23 -177t7 -117
q0 -78 -37 -125q-37 -48 -111 -61q-45 -108 -131 -164q-87 -56 -213 -56q-134 0 -206 69q-71 68 -72 203q0 60 12 114t33 114h80q-21 -54 -33 -108t-12 -105q0 -102 53 -149q53 -48 164 -48q79 0 142 30q62 31 99 95h-152l15 90h165q65 0 94 26t28 78q0 42 -7 107
q-8 64 -26 184h85z" />
    <glyph glyph-name="uniFC04" unicode="&#xfc04;" horiz-adv-x="881" arabic-form="isolated" 
d="M857 609l-22 -73h-125q-24 0 -47 -3q-24 -4 -59 -14v70q20 7 34 12q14 4 26 5q-22 24 -22 55q0 41 28 68t77 28q15 0 34 -5q19 -4 39 -14v-67q-21 7 -37 10t-31 3q-21 0 -34 -10q-14 -10 -14 -27q0 -19 17 -28q16 -10 44 -10h92zM780 485q16 -109 23 -177t7 -117
q0 -78 -37 -125q-37 -48 -111 -61q-45 -108 -131 -164q-87 -56 -213 -56q-134 0 -206 69q-71 68 -72 203q0 60 12 114t33 114h80q-21 -54 -33 -108t-12 -105q0 -102 53 -149q53 -48 164 -48q79 0 142 30q62 31 99 95h-152l15 90h165q65 0 94 26t28 78q0 42 -7 107
q-8 64 -26 184h85zM483 -274l76 -75l-76 -76l-75 74l-75 -74l-76 76l75 75l76 -73z" />
    <glyph glyph-name="uniFC08" unicode="&#xfc08;" horiz-adv-x="542" arabic-form="isolated" 
d="M434 134q37 -18 73 -42l-43 -79q-39 7 -71 23q-33 17 -60 40q-36 13 -67 19q-30 5 -58 5q-45 0 -66 -22q-22 -22 -22 -72q0 -47 8 -111q8 -65 25 -170h-85q-18 110 -25 176q-8 67 -8 116q1 82 47 127t120 46q23 0 50 -4t55 -12q-18 32 -27 65q-9 32 -9 63q1 67 35 126
q35 59 96 104h10l53 -54q-59 -51 -84 -94q-26 -43 -25 -93q0 -46 20 -83q20 -38 58 -74zM318 -78l77 -75l-75 -76l-77 76z" />
    <glyph glyph-name="uniFC09" unicode="&#xfc09;" horiz-adv-x="871" arabic-form="isolated" 
d="M810 191q0 -78 -37 -125q-37 -48 -111 -61q-45 -108 -131 -164q-87 -56 -213 -56q-134 0 -206 69q-71 68 -72 203q0 60 12 114t33 114h80q-21 -54 -33 -108t-12 -105q0 -102 53 -149q53 -48 164 -48q79 0 142 30q62 31 99 95h-152l15 90h165q65 0 94 26t28 78
q0 42 -7 107q-8 64 -26 184h85q16 -109 23 -177t7 -117zM728 -78l77 -75l-75 -76l-77 76z" />
    <glyph glyph-name="uniFC0A" unicode="&#xfc0a;" horiz-adv-x="871" arabic-form="isolated" 
d="M810 191q0 -78 -37 -125q-37 -48 -111 -61q-45 -108 -131 -164q-87 -56 -213 -56q-134 0 -206 69q-71 68 -72 203q0 60 12 114t33 114h80q-21 -54 -33 -108t-12 -105q0 -102 53 -149q53 -48 164 -48q79 0 142 30q62 31 99 95h-152l15 90h165q65 0 94 26t28 78
q0 42 -7 107q-8 64 -26 184h85q16 -109 23 -177t7 -117zM728 -78l77 -75l-75 -76l-77 76zM483 -274l76 -75l-76 -76l-75 74l-75 -74l-76 76l75 75l76 -73z" />
    <glyph glyph-name="uniFC0E" unicode="&#xfc0e;" horiz-adv-x="542" arabic-form="isolated" 
d="M334 597l-76 75l75 76l76 -74l75 74l76 -76l-76 -75l-75 73zM356 291q0 -46 20 -83q20 -38 58 -74q37 -18 73 -42l-43 -79q-39 7 -71 23q-33 17 -60 40q-36 13 -67 19q-30 5 -58 5q-45 0 -66 -22q-22 -22 -22 -72q0 -47 8 -111q8 -65 25 -170h-85q-18 110 -25 176
q-8 67 -8 116q1 82 47 127t120 46q23 0 50 -4t55 -12q-18 32 -27 65q-9 32 -9 63q1 67 35 126q35 59 96 104h10l53 -54q-59 -51 -84 -94q-26 -43 -25 -93z" />
    <glyph glyph-name="uniFC0F" unicode="&#xfc0f;" horiz-adv-x="909" arabic-form="isolated" 
d="M659 562l-76 75l75 76l76 -74l75 74l76 -76l-76 -75l-75 73zM780 485q16 -109 23 -177t7 -117q0 -78 -37 -125q-37 -48 -111 -61q-45 -108 -131 -164q-87 -56 -213 -56q-134 0 -206 69q-71 68 -72 203q0 60 12 114t33 114h80q-21 -54 -33 -108t-12 -105q0 -102 53 -149
q53 -48 164 -48q79 0 142 30q62 31 99 95h-152l15 90h165q65 0 94 26t28 78q0 42 -7 107q-8 64 -26 184h85z" />
    <glyph glyph-name="uniFC10" unicode="&#xfc10;" horiz-adv-x="909" arabic-form="isolated" 
d="M659 562l-76 75l75 76l76 -74l75 74l76 -76l-76 -75l-75 73zM780 485q16 -109 23 -177t7 -117q0 -78 -37 -125q-37 -48 -111 -61q-45 -108 -131 -164q-87 -56 -213 -56q-134 0 -206 69q-71 68 -72 203q0 60 12 114t33 114h80q-21 -54 -33 -108t-12 -105q0 -102 53 -149
q53 -48 164 -48q79 0 142 30q62 31 99 95h-152l15 90h165q65 0 94 26t28 78q0 42 -7 107q-8 64 -26 184h85zM483 -274l76 -75l-76 -76l-75 74l-75 -74l-76 76l75 75l76 -73z" />
    <glyph glyph-name="uniFC12" unicode="&#xfc12;" horiz-adv-x="542" arabic-form="isolated" 
d="M411 746l-61 60l60 61l61 -61zM328 610l-76 75l75 77l77 -77zM415 685l77 77l76 -77l-76 -75zM356 291q0 -46 20 -83q20 -38 58 -74q37 -18 73 -42l-43 -79q-39 7 -71 23q-33 17 -60 40q-36 13 -67 19q-30 5 -58 5q-45 0 -66 -22q-22 -22 -22 -72q0 -47 8 -111
q8 -65 25 -170h-85q-18 110 -25 176q-8 67 -8 116q1 82 47 127t120 46q23 0 50 -4t55 -12q-18 32 -27 65q-9 32 -9 63q1 67 35 126q35 59 96 104h10l53 -54q-59 -51 -84 -94q-26 -43 -25 -93z" />
    <glyph glyph-name="uniFC13" unicode="&#xfc13;" horiz-adv-x="918" arabic-form="isolated" 
d="M736 694l-61 60l60 61l61 -61zM653 558l-76 75l75 77l77 -77zM893 633l-76 -75l-77 75l77 77zM780 485q16 -109 23 -177t7 -117q0 -78 -37 -125q-37 -48 -111 -61q-45 -108 -131 -164q-87 -56 -213 -56q-134 0 -206 69q-71 68 -72 203q0 60 12 114t33 114h80
q-21 -54 -33 -108t-12 -105q0 -102 53 -149q53 -48 164 -48q79 0 142 30q62 31 99 95h-152l15 90h165q65 0 94 26t28 78q0 42 -7 107q-8 64 -26 184h85z" />
    <glyph glyph-name="uniFC14" unicode="&#xfc14;" horiz-adv-x="918" arabic-form="isolated" 
d="M736 694l-61 60l60 61l61 -61zM653 558l-76 75l75 77l77 -77zM893 633l-76 -75l-77 75l77 77zM780 485q16 -109 23 -177t7 -117q0 -78 -37 -125q-37 -48 -111 -61q-45 -108 -131 -164q-87 -56 -213 -56q-134 0 -206 69q-71 68 -72 203q0 60 12 114t33 114h80
q-21 -54 -33 -108t-12 -105q0 -102 53 -149q53 -48 164 -48q79 0 142 30q62 31 99 95h-152l15 90h165q65 0 94 26t28 78q0 42 -7 107q-8 64 -26 184h85zM483 -274l76 -75l-76 -76l-75 74l-75 -74l-76 76l75 75l76 -73z" />
    <glyph glyph-name="uniFC31" unicode="&#xfc31;" horiz-adv-x="861" arabic-form="isolated" 
d="M688 727l-75 -75l-77 75l75 76zM611 590q85 -1 138 -55t59 -147q3 -43 6 -92q2 -50 2 -90q0 -78 -38 -128t-114 -68q-43 -108 -130 -166q-86 -58 -221 -59q-130 0 -201 69q-71 68 -72 203q0 60 12 114t33 114h80q-21 -54 -33 -108t-12 -105q0 -102 53 -149
q53 -48 159 -48q84 0 147 31q62 32 99 94h-157l15 90h147q79 -1 113 27q35 28 37 93q-31 -14 -63 -22q-31 -8 -61 -8q-92 0 -143 49q-52 49 -53 143q2 98 57 157q54 59 141 61zM605 500q-47 -1 -76 -34q-30 -34 -31 -90q1 -58 34 -87t90 -29q29 0 57 4q27 5 51 13
q-2 27 -3 53q-2 26 -4 49q-4 59 -36 90t-82 31z" />
    <glyph glyph-name="uniFC32" unicode="&#xfc32;" horiz-adv-x="861" arabic-form="isolated" 
d="M608 652l-77 75l75 76l77 -76zM808 388q3 -43 6 -92q2 -50 2 -90q0 -78 -38 -128t-114 -68q-43 -108 -130 -166q-86 -58 -221 -59q-130 0 -201 69q-71 68 -72 203q0 60 12 114t33 114h80q-21 -54 -33 -108t-12 -105q0 -102 53 -149q53 -48 159 -48q84 0 147 31
q62 32 99 94h-157l15 90h147q79 -1 113 27q35 28 37 93q-31 -14 -63 -22q-31 -8 -61 -8q-92 0 -143 49q-52 49 -53 143q2 98 57 157q54 59 141 61q85 -1 138 -55t59 -147zM622 260q29 0 57 4q27 5 51 13q-2 27 -3 53q-2 26 -4 49q-4 59 -36 90t-82 31q-47 -1 -76 -34
q-30 -34 -31 -90q1 -58 34 -87t90 -29zM453 -274l76 -75l-76 -76l-75 74l-75 -74l-76 76l75 75l76 -73z" />
    <glyph glyph-name="uniFC35" unicode="&#xfc35;" horiz-adv-x="861" arabic-form="isolated" 
d="M539 653l-76 75l75 76l76 -74l75 74l76 -76l-76 -75l-75 73zM808 388q3 -43 6 -92q2 -50 2 -90q0 -78 -38 -128t-114 -68q-43 -108 -130 -166q-86 -58 -221 -59q-130 0 -201 69q-71 68 -72 203q0 60 12 114t33 114h80q-21 -54 -33 -108t-12 -105q0 -102 53 -149
q53 -48 159 -48q84 0 147 31q62 32 99 94h-157l15 90h147q79 -1 113 27q35 28 37 93q-31 -14 -63 -22q-31 -8 -61 -8q-92 0 -143 49q-52 49 -53 143q2 98 57 157q54 59 141 61q85 -1 138 -55t59 -147zM622 260q29 0 57 4q27 5 51 13q-2 27 -3 53q-2 26 -4 49q-4 59 -36 90
t-82 31q-47 -1 -76 -34q-30 -34 -31 -90q1 -58 34 -87t90 -29z" />
    <glyph glyph-name="uniFC36" unicode="&#xfc36;" horiz-adv-x="861" arabic-form="isolated" 
d="M539 653l-76 75l75 76l76 -74l75 74l76 -76l-76 -75l-75 73zM808 388q3 -43 6 -92q2 -50 2 -90q0 -78 -38 -128t-114 -68q-43 -108 -130 -166q-86 -58 -221 -59q-130 0 -201 69q-71 68 -72 203q0 60 12 114t33 114h80q-21 -54 -33 -108t-12 -105q0 -102 53 -149
q53 -48 159 -48q84 0 147 31q62 32 99 94h-157l15 90h147q79 -1 113 27q35 28 37 93q-31 -14 -63 -22q-31 -8 -61 -8q-92 0 -143 49q-52 49 -53 143q2 98 57 157q54 59 141 61q85 -1 138 -55t59 -147zM622 260q29 0 57 4q27 5 51 13q-2 27 -3 53q-2 26 -4 49q-4 59 -36 90
t-82 31q-47 -1 -76 -34q-30 -34 -31 -90q1 -58 34 -87t90 -29zM468 -274l76 -75l-76 -76l-75 74l-75 -74l-76 76l75 75l76 -73z" />
    <glyph glyph-name="uniFC3D" unicode="&#xfc3d;" horiz-adv-x="1412" arabic-form="isolated" 
d="M1173 423q101 -44 153 -99q51 -56 51 -124q-1 -91 -71 -145q-69 -54 -192 -55h-220h-1q-107 0 -165 56q-57 56 -58 164q0 34 5 77q5 42 15 96q-132 -10 -204 -51q-73 -41 -74 -91q-1 -24 16 -43q18 -20 64 -50l44 -29q55 -36 79 -73q25 -37 24 -79q-1 -86 -77 -138
q-76 -53 -214 -54q-143 -1 -224 66q-82 66 -84 206q0 60 12 114t33 114h80q-21 -54 -33 -108t-12 -105q-1 -99 63 -148q64 -50 198 -50q83 1 130 27q47 25 48 66q0 20 -19 40t-58 47l-46 31q-55 37 -80 73t-25 84q-1 89 89 155q91 67 284 88l71 -56q-13 -60 -21 -111
q-8 -50 -8 -87q0 -69 37 -105t110 -36h1h1h227q75 1 122 30t48 76q1 40 -37 75q-37 35 -124 73l-240 106v68l349 277h127v-4l-368 -291z" />
    <glyph glyph-name="uniFC3E" unicode="&#xfc3e;" horiz-adv-x="1412" arabic-form="isolated" 
d="M1173 423q101 -44 153 -99q51 -56 51 -124q-1 -91 -71 -145q-69 -54 -192 -55h-220h-1q-107 0 -165 56q-57 56 -58 164q0 34 5 77q5 42 15 96q-132 -10 -204 -51q-73 -41 -74 -91q-1 -24 16 -43q18 -20 64 -50l44 -29q55 -36 79 -73q25 -37 24 -79q-1 -86 -77 -138
q-76 -53 -214 -54q-143 -1 -224 66q-82 66 -84 206q0 60 12 114t33 114h80q-21 -54 -33 -108t-12 -105q-1 -99 63 -148q64 -50 198 -50q83 1 130 27q47 25 48 66q0 20 -19 40t-58 47l-46 31q-55 37 -80 73t-25 84q-1 89 89 155q91 67 284 88l71 -56q-13 -60 -21 -111
q-8 -50 -8 -87q0 -69 37 -105t110 -36h1h1h227q75 1 122 30t48 76q1 40 -37 75q-37 35 -124 73l-240 106v68l349 277h127v-4l-368 -291zM483 -274l76 -75l-76 -76l-75 74l-75 -74l-76 76l75 75l76 -73z" />
    <glyph glyph-name="uniFC42" unicode="&#xfc42;" horiz-adv-x="517" arabic-form="isolated" 
d="M474 13q-39 7 -71 23q-33 17 -60 40q-36 13 -67 19q-30 5 -58 5q-45 0 -66 -22q-22 -22 -22 -72q0 -47 8 -111q8 -65 25 -170h-85q-18 110 -25 176q-8 67 -8 116q1 82 47 127t120 46q21 0 47 -4q25 -3 52 -10q-3 23 -5 46q-2 22 -2 45v458h85v-567q30 -11 63 -28t65 -38z
" />
    <glyph glyph-name="uniFC43" unicode="&#xfc43;" horiz-adv-x="865" arabic-form="isolated" 
d="M780 725v-534q0 -66 -29 -112q-28 -45 -86 -66q-42 -109 -129 -168q-88 -59 -223 -60q-130 0 -201 69q-71 68 -72 203q0 60 12 114t33 114h80q-21 -54 -33 -108t-12 -105q0 -102 53 -149q53 -48 159 -48q85 0 147 31q63 32 99 94h-2h-150l15 90h135q65 0 92 26
q28 26 27 78v531h85z" />
    <glyph glyph-name="uniFC44" unicode="&#xfc44;" horiz-adv-x="865" arabic-form="isolated" 
d="M780 725v-534q0 -66 -29 -112q-28 -45 -86 -66q-42 -109 -129 -168q-88 -59 -223 -60q-130 0 -201 69q-71 68 -72 203q0 60 12 114t33 114h80q-21 -54 -33 -108t-12 -105q0 -102 53 -149q53 -48 159 -48q85 0 147 31q63 32 99 94h-2h-150l15 90h135q65 0 92 26
q28 26 27 78v531h85zM461 -264l76 -75l-76 -76l-75 74l-75 -74l-76 76l75 75l76 -73z" />
    <glyph glyph-name="uniFC4E" unicode="&#xfc4e;" horiz-adv-x="542" arabic-form="isolated" 
d="M411 604l-77 75l75 76l77 -76zM464 13q-39 7 -71 23q-33 17 -60 40q-36 13 -67 19q-30 5 -58 5q-45 0 -66 -22q-22 -22 -22 -72q0 -47 8 -111q8 -65 25 -170h-85q-18 110 -25 176q-8 67 -8 116q1 82 47 127t120 46q23 0 50 -4t55 -12q-18 32 -27 65q-9 32 -9 63
q1 67 35 126q35 59 96 104h10l53 -54q-59 -51 -84 -94q-26 -43 -25 -93q0 -46 20 -83q20 -38 58 -74q37 -18 73 -42z" />
    <glyph glyph-name="uniFC4F" unicode="&#xfc4f;" horiz-adv-x="865" arabic-form="isolated" 
d="M731 556l-77 75l75 76l77 -76zM810 191q0 -78 -37 -125q-37 -48 -111 -61q-45 -108 -131 -164q-87 -56 -213 -56q-134 0 -206 69q-71 68 -72 203q0 60 12 114t33 114h80q-21 -54 -33 -108t-12 -105q0 -102 53 -149q53 -48 164 -48q79 0 142 30q62 31 99 95h-152l15 90
h165q65 0 94 26t28 78q0 42 -7 107q-8 64 -26 184h85q16 -109 23 -177t7 -117z" />
    <glyph glyph-name="uniFC50" unicode="&#xfc50;" horiz-adv-x="865" arabic-form="isolated" 
d="M731 556l-77 75l75 76l77 -76zM810 191q0 -78 -37 -125q-37 -48 -111 -61q-45 -108 -131 -164q-87 -56 -213 -56q-134 0 -206 69q-71 68 -72 203q0 60 12 114t33 114h80q-21 -54 -33 -108t-12 -105q0 -102 53 -149q53 -48 164 -48q79 0 142 30q62 31 99 95h-152l15 90
h165q65 0 94 26t28 78q0 42 -7 107q-8 64 -26 184h85q16 -109 23 -177t7 -117zM483 -274l76 -75l-76 -76l-75 74l-75 -74l-76 76l75 75l76 -73z" />
    <glyph glyph-name="uniFC58" unicode="&#xfc58;" horiz-adv-x="542" arabic-form="isolated" 
d="M208 100q-45 0 -66 -22q-22 -22 -22 -72q0 -47 8 -111q8 -65 25 -170h-85q-18 110 -25 176q-8 67 -8 116q1 82 47 127t120 46q23 0 50 -4t55 -12q-18 32 -27 65q-9 32 -9 63q1 67 35 126q35 59 96 104h10l53 -54q-59 -51 -84 -94q-26 -43 -25 -93q0 -46 20 -83
q20 -38 58 -74q37 -18 73 -42l-43 -79q-39 7 -71 23q-33 17 -60 40q-36 13 -67 19q-30 5 -58 5zM406 -74l76 -75l-76 -76l-75 74l-75 -74l-76 76l75 75l76 -73z" />
    <glyph glyph-name="uniFC64" unicode="&#xfc64;" horiz-adv-x="603" arabic-form="final" 
d="M424 562q-24 0 -47 -3q-24 -4 -59 -14v70q20 7 34 12q14 4 26 5q-22 24 -22 55q0 41 28 68t77 28q15 0 34 -5q19 -4 39 -14v-67q-21 7 -37 10t-31 3q-21 0 -34 -10q-14 -10 -14 -27q0 -19 17 -28q16 -10 44 -10h92l-22 -73h-125zM603 90q5 0 7 -3q3 -2 3 -7v-69
q0 -5 -3 -8q-2 -3 -7 -3q-89 0 -136 50q-46 49 -46 143q0 39 4 84q5 45 13 90q-54 -27 -109 -46t-107 -27q7 -67 11 -131q5 -65 5 -137q-2 -119 -72 -180q-69 -61 -181 -61v82q72 0 121 41q49 40 51 122q0 72 -6 147q-7 75 -21 181l10 12q96 9 166 32q71 22 139 57l79 -44
q-11 -50 -18 -100q-6 -49 -6 -88q0 -70 24 -104q25 -33 79 -33z" />
    <glyph glyph-name="uniFC65" unicode="&#xfc65;" horiz-adv-x="603" arabic-form="final" 
d="M434 562q-24 0 -47 -3q-24 -4 -59 -14v70q20 7 34 12q14 4 26 5q-22 24 -22 55q0 41 28 68t77 28q15 0 34 -5q19 -4 39 -14v-67q-21 7 -37 10t-31 3q-21 0 -34 -10q-14 -10 -14 -27q0 -19 17 -28q16 -10 44 -10h92l-22 -73h-125zM145 479l-77 75l75 76l77 -76zM603 90
q5 0 7 -3q3 -2 3 -7v-69q0 -5 -3 -8q-2 -3 -7 -3q-89 0 -136 50q-46 49 -46 143q0 39 4 84q5 45 13 90q-54 -27 -109 -46t-107 -27q7 -67 11 -131q5 -65 5 -137q-2 -119 -72 -180q-69 -61 -181 -61v82q72 0 121 41q49 40 51 122q0 72 -6 147q-7 75 -21 181l10 12
q96 9 166 32q71 22 139 57l79 -44q-11 -50 -18 -100q-6 -49 -6 -88q0 -70 24 -104q25 -33 79 -33z" />
    <glyph glyph-name="uniFC67" unicode="&#xfc67;" horiz-adv-x="938" arabic-form="final" 
d="M746 561q-24 0 -47 -3q-24 -4 -59 -14v70q20 7 34 12q14 4 26 5q-22 24 -22 55q0 41 28 68t77 28q15 0 34 -5q19 -4 39 -14v-67q-21 7 -37 10t-31 3q-21 0 -34 -10q-14 -10 -14 -27q0 -19 17 -28q16 -10 44 -10h92l-22 -73h-125zM296 395l-77 75l75 76l77 -76zM938 90
q5 0 7 -3q3 -2 3 -7v-69q0 -5 -3 -8q-2 -3 -7 -3q-89 0 -136 50q-46 49 -46 143q0 39 5 84t13 90q-53 -27 -108 -45q-56 -19 -108 -27q7 -53 10 -102q4 -48 4 -94q1 -139 -69 -225q-69 -86 -215 -89q-119 1 -183 71t-65 201q0 60 12 114t33 114h80q-21 -54 -33 -108
t-12 -105q0 -92 42 -144q43 -52 134 -53q100 0 147 54q47 55 46 170q0 54 -6 113q-7 59 -18 146l10 12q96 9 166 32q71 22 139 57l79 -44q-11 -50 -17 -100q-6 -49 -6 -88q0 -70 24 -104q24 -33 78 -33z" />
    <glyph glyph-name="uniFC68" unicode="&#xfc68;" horiz-adv-x="904" arabic-form="final" 
d="M642 582q-24 0 -47 -3q-24 -4 -59 -14v70q20 7 34 12q14 4 26 5q-22 24 -22 55q0 41 28 68t77 28q15 0 34 -5q19 -4 39 -14v-67q-21 7 -37 10t-31 3q-21 0 -34 -10q-14 -10 -14 -27q0 -19 17 -28q16 -10 44 -10h92l-22 -73h-125zM904 90q5 0 7 -3q3 -2 3 -7v-69
q0 -5 -3 -8q-2 -3 -7 -3q-108 0 -170 56q-63 56 -64 164q0 34 5 77q5 42 15 96q-132 -10 -204 -51q-73 -41 -74 -91q-1 -24 16 -43q18 -20 64 -50l44 -29q55 -36 79 -73q25 -37 24 -79q-1 -86 -77 -138q-76 -53 -214 -54q-143 -1 -224 66q-82 66 -84 206q0 60 12 114t33 114
h80q-21 -54 -33 -108t-12 -105q-1 -99 63 -148q64 -50 198 -50q83 1 130 27q47 25 48 66q0 20 -19 40t-58 47l-46 31q-55 37 -80 73t-25 84q-1 89 89 155q91 67 284 88l71 -50q-13 -60 -21 -113t-8 -91q1 -69 43 -105q41 -36 115 -36z" />
    <glyph glyph-name="uniFC69" unicode="&#xfc69;" horiz-adv-x="904" arabic-form="final" 
d="M642 582q-24 0 -47 -3q-24 -4 -59 -14v70q20 7 34 12q14 4 26 5q-22 24 -22 55q0 41 28 68t77 28q15 0 34 -5q19 -4 39 -14v-67q-21 7 -37 10t-31 3q-21 0 -34 -10q-14 -10 -14 -27q0 -19 17 -28q16 -10 44 -10h92l-22 -73h-125zM904 90q5 0 7 -3q3 -2 3 -7v-69
q0 -5 -3 -8q-2 -3 -7 -3q-108 0 -170 56q-63 56 -64 164q0 34 5 77q5 42 15 96q-132 -10 -204 -51q-73 -41 -74 -91q-1 -24 16 -43q18 -20 64 -50l44 -29q55 -36 79 -73q25 -37 24 -79q-1 -86 -77 -138q-76 -53 -214 -54q-143 -1 -224 66q-82 66 -84 206q0 60 12 114t33 114
h80q-21 -54 -33 -108t-12 -105q-1 -99 63 -148q64 -50 198 -50q83 1 130 27q47 25 48 66q0 20 -19 40t-58 47l-46 31q-55 37 -80 73t-25 84q-1 89 89 155q91 67 284 88l71 -50q-13 -60 -21 -113t-8 -91q1 -69 43 -105q41 -36 115 -36zM483 -274l76 -75l-76 -76l-75 74
l-75 -74l-76 76l75 75l76 -73z" />
    <glyph glyph-name="uniFC6A" unicode="&#xfc6a;" horiz-adv-x="603" arabic-form="final" 
d="M603 90q5 0 7 -3q3 -2 3 -7v-69q0 -5 -3 -8q-2 -3 -7 -3q-89 0 -136 50q-46 49 -46 143q0 39 4 84q5 45 13 90q-54 -27 -109 -46t-107 -27q7 -67 11 -131q5 -65 5 -137q-2 -119 -72 -180q-69 -61 -181 -61v82q72 0 121 41q49 40 51 122q0 72 -6 147q-7 75 -21 181l10 12
q96 9 166 32q71 22 139 57l79 -44q-11 -50 -18 -100q-6 -49 -6 -88q0 -70 24 -104q25 -33 79 -33zM377 -78l77 -75l-75 -76l-77 76z" />
    <glyph glyph-name="uniFC6B" unicode="&#xfc6b;" horiz-adv-x="603" arabic-form="final" 
d="M145 479l-77 75l75 76l77 -76zM603 90q5 0 7 -3q3 -2 3 -7v-69q0 -5 -3 -8q-2 -3 -7 -3q-89 0 -136 50q-46 49 -46 143q0 39 4 84q5 45 13 90q-54 -27 -109 -46t-107 -27q7 -67 11 -131q5 -65 5 -137q-2 -119 -72 -180q-69 -61 -181 -61v82q72 0 121 41q49 40 51 122
q0 72 -6 147q-7 75 -21 181l10 12q96 9 166 32q71 22 139 57l79 -44q-11 -50 -18 -100q-6 -49 -6 -88q0 -70 24 -104q25 -33 79 -33zM377 -78l77 -75l-75 -76l-77 76z" />
    <glyph glyph-name="uniFC6D" unicode="&#xfc6d;" horiz-adv-x="938" arabic-form="final" 
d="M296 395l-77 75l75 76l77 -76zM938 90q5 0 7 -3q3 -2 3 -7v-69q0 -5 -3 -8q-2 -3 -7 -3q-89 0 -136 50q-46 49 -46 143q0 39 5 84t13 90q-53 -27 -108 -45q-56 -19 -108 -27q7 -53 10 -102q4 -48 4 -94q1 -139 -69 -225q-69 -86 -215 -89q-119 1 -183 71t-65 201
q0 60 12 114t33 114h80q-21 -54 -33 -108t-12 -105q0 -92 42 -144q43 -52 134 -53q100 0 147 54q47 55 46 170q0 54 -6 113q-7 59 -18 146l10 12q96 9 166 32q71 22 139 57l79 -44q-11 -50 -17 -100q-6 -49 -6 -88q0 -70 24 -104q24 -33 78 -33zM693 -78l77 -75l-75 -76
l-77 76z" />
    <glyph glyph-name="uniFC6E" unicode="&#xfc6e;" horiz-adv-x="904" arabic-form="final" 
d="M904 90q5 0 7 -3q3 -2 3 -7v-69q0 -5 -3 -8q-2 -3 -7 -3q-108 0 -170 56q-63 56 -64 164q0 34 5 77q5 42 15 96q-132 -10 -204 -51q-73 -41 -74 -91q-1 -24 16 -43q18 -20 64 -50l44 -29q55 -36 79 -73q25 -37 24 -79q-1 -86 -77 -138q-76 -53 -214 -54q-143 -1 -224 66
q-82 66 -84 206q0 60 12 114t33 114h80q-21 -54 -33 -108t-12 -105q-1 -99 63 -148q64 -50 198 -50q83 1 130 27q47 25 48 66q0 20 -19 40t-58 47l-46 31q-55 37 -80 73t-25 84q-1 89 89 155q91 67 284 88l71 -50q-13 -60 -21 -113t-8 -91q1 -69 43 -105q41 -36 115 -36z
M763 -78l77 -75l-75 -76l-77 76z" />
    <glyph glyph-name="uniFC6F" unicode="&#xfc6f;" horiz-adv-x="904" arabic-form="final" 
d="M904 90q5 0 7 -3q3 -2 3 -7v-69q0 -5 -3 -8q-2 -3 -7 -3q-108 0 -170 56q-63 56 -64 164q0 34 5 77q5 42 15 96q-132 -10 -204 -51q-73 -41 -74 -91q-1 -24 16 -43q18 -20 64 -50l44 -29q55 -36 79 -73q25 -37 24 -79q-1 -86 -77 -138q-76 -53 -214 -54q-143 -1 -224 66
q-82 66 -84 206q0 60 12 114t33 114h80q-21 -54 -33 -108t-12 -105q-1 -99 63 -148q64 -50 198 -50q83 1 130 27q47 25 48 66q0 20 -19 40t-58 47l-46 31q-55 37 -80 73t-25 84q-1 89 89 155q91 67 284 88l71 -50q-13 -60 -21 -113t-8 -91q1 -69 43 -105q41 -36 115 -36z
M763 -78l77 -75l-75 -76l-77 76zM483 -274l76 -75l-76 -76l-75 74l-75 -74l-76 76l75 75l76 -73z" />
    <glyph glyph-name="uniFC70" unicode="&#xfc70;" horiz-adv-x="603" arabic-form="final" 
d="M330 555l-76 75l75 76l76 -74l75 74l76 -76l-76 -75l-75 73zM603 90q5 0 7 -3q3 -2 3 -7v-69q0 -5 -3 -8q-2 -3 -7 -3q-89 0 -136 50q-46 49 -46 143q0 39 4 84q5 45 13 90q-54 -27 -109 -46t-107 -27q7 -67 11 -131q5 -65 5 -137q-2 -119 -72 -180q-69 -61 -181 -61v82
q72 0 121 41q49 40 51 122q0 72 -6 147q-7 75 -21 181l10 12q96 9 166 32q71 22 139 57l79 -44q-11 -50 -18 -100q-6 -49 -6 -88q0 -70 24 -104q25 -33 79 -33z" />
    <glyph glyph-name="uniFC71" unicode="&#xfc71;" horiz-adv-x="603" arabic-form="final" 
d="M383 555l-76 75l75 76l76 -74l75 74l76 -76l-76 -75l-75 73zM145 479l-77 75l75 76l77 -76zM603 90q5 0 7 -3q3 -2 3 -7v-69q0 -5 -3 -8q-2 -3 -7 -3q-89 0 -136 50q-46 49 -46 143q0 39 4 84q5 45 13 90q-54 -27 -109 -46t-107 -27q7 -67 11 -131q5 -65 5 -137
q-2 -119 -72 -180q-69 -61 -181 -61v82q72 0 121 41q49 40 51 122q0 72 -6 147q-7 75 -21 181l10 12q96 9 166 32q71 22 139 57l79 -44q-11 -50 -18 -100q-6 -49 -6 -88q0 -70 24 -104q25 -33 79 -33z" />
    <glyph glyph-name="uniFC73" unicode="&#xfc73;" horiz-adv-x="938" arabic-form="final" 
d="M663 556l-76 75l75 76l76 -74l75 74l76 -76l-76 -75l-75 73zM296 395l-77 75l75 76l77 -76zM938 90q5 0 7 -3q3 -2 3 -7v-69q0 -5 -3 -8q-2 -3 -7 -3q-89 0 -136 50q-46 49 -46 143q0 39 5 84t13 90q-53 -27 -108 -45q-56 -19 -108 -27q7 -53 10 -102q4 -48 4 -94
q1 -139 -69 -225q-69 -86 -215 -89q-119 1 -183 71t-65 201q0 60 12 114t33 114h80q-21 -54 -33 -108t-12 -105q0 -92 42 -144q43 -52 134 -53q100 0 147 54q47 55 46 170q0 54 -6 113q-7 59 -18 146l10 12q96 9 166 32q71 22 139 57l79 -44q-11 -50 -17 -100q-6 -49 -6 -88
q0 -70 24 -104q24 -33 78 -33z" />
    <glyph glyph-name="uniFC74" unicode="&#xfc74;" horiz-adv-x="904" arabic-form="final" 
d="M587 588l-76 75l75 76l76 -74l75 74l76 -76l-76 -75l-75 73zM904 90q5 0 7 -3q3 -2 3 -7v-69q0 -5 -3 -8q-2 -3 -7 -3q-108 0 -170 56q-63 56 -64 164q0 34 5 77q5 42 15 96q-132 -10 -204 -51q-73 -41 -74 -91q-1 -24 16 -43q18 -20 64 -50l44 -29q55 -36 79 -73
q25 -37 24 -79q-1 -86 -77 -138q-76 -53 -214 -54q-143 -1 -224 66q-82 66 -84 206q0 60 12 114t33 114h80q-21 -54 -33 -108t-12 -105q-1 -99 63 -148q64 -50 198 -50q83 1 130 27q47 25 48 66q0 20 -19 40t-58 47l-46 31q-55 37 -80 73t-25 84q-1 89 89 155q91 67 284 88
l71 -50q-13 -60 -21 -113t-8 -91q1 -69 43 -105q41 -36 115 -36z" />
    <glyph glyph-name="uniFC75" unicode="&#xfc75;" horiz-adv-x="904" arabic-form="final" 
d="M587 588l-76 75l75 76l76 -74l75 74l76 -76l-76 -75l-75 73zM904 90q5 0 7 -3q3 -2 3 -7v-69q0 -5 -3 -8q-2 -3 -7 -3q-108 0 -170 56q-63 56 -64 164q0 34 5 77q5 42 15 96q-132 -10 -204 -51q-73 -41 -74 -91q-1 -24 16 -43q18 -20 64 -50l44 -29q55 -36 79 -73
q25 -37 24 -79q-1 -86 -77 -138q-76 -53 -214 -54q-143 -1 -224 66q-82 66 -84 206q0 60 12 114t33 114h80q-21 -54 -33 -108t-12 -105q-1 -99 63 -148q64 -50 198 -50q83 1 130 27q47 25 48 66q0 20 -19 40t-58 47l-46 31q-55 37 -80 73t-25 84q-1 89 89 155q91 67 284 88
l71 -50q-13 -60 -21 -113t-8 -91q1 -69 43 -105q41 -36 115 -36zM484 -274l76 -75l-76 -76l-75 74l-75 -74l-76 76l75 75l76 -73z" />
    <glyph glyph-name="uniFC76" unicode="&#xfc76;" horiz-adv-x="603" arabic-form="final" 
d="M404 695l-61 60l60 61l61 -61zM321 559l-76 75l75 77l77 -77zM408 634l77 77l76 -77l-76 -75zM603 90q5 0 7 -3q3 -2 3 -7v-69q0 -5 -3 -8q-2 -3 -7 -3q-89 0 -136 50q-46 49 -46 143q0 39 4 84q5 45 13 90q-54 -27 -109 -46t-107 -27q7 -67 11 -131q5 -65 5 -137
q-2 -119 -72 -180q-69 -61 -181 -61v82q72 0 121 41q49 40 51 122q0 72 -6 147q-7 75 -21 181l10 12q96 9 166 32q71 22 139 57l79 -44q-11 -50 -18 -100q-6 -49 -6 -88q0 -70 24 -104q25 -33 79 -33z" />
    <glyph glyph-name="uniFC77" unicode="&#xfc77;" horiz-adv-x="603" arabic-form="final" 
d="M450 695l-61 60l60 61l61 -61zM367 559l-76 75l75 77l77 -77zM454 634l77 77l76 -77l-76 -75zM145 479l-77 75l75 76l77 -76zM603 90q5 0 7 -3q3 -2 3 -7v-69q0 -5 -3 -8q-2 -3 -7 -3q-89 0 -136 50q-46 49 -46 143q0 39 4 84q5 45 13 90q-54 -27 -109 -46t-107 -27
q7 -67 11 -131q5 -65 5 -137q-2 -119 -72 -180q-69 -61 -181 -61v82q72 0 121 41q49 40 51 122q0 72 -6 147q-7 75 -21 181l10 12q96 9 166 32q71 22 139 57l79 -44q-11 -50 -18 -100q-6 -49 -6 -88q0 -70 24 -104q25 -33 79 -33z" />
    <glyph glyph-name="uniFC79" unicode="&#xfc79;" horiz-adv-x="938" arabic-form="final" 
d="M736 682l-61 60l60 61l61 -61zM653 546l-76 75l75 77l77 -77zM740 621l77 77l76 -77l-76 -75zM296 395l-77 75l75 76l77 -76zM938 90q5 0 7 -3q3 -2 3 -7v-69q0 -5 -3 -8q-2 -3 -7 -3q-89 0 -136 50q-46 49 -46 143q0 39 5 84t13 90q-53 -27 -108 -45q-56 -19 -108 -27
q7 -53 10 -102q4 -48 4 -94q1 -139 -69 -225q-69 -86 -215 -89q-119 1 -183 71t-65 201q0 60 12 114t33 114h80q-21 -54 -33 -108t-12 -105q0 -92 42 -144q43 -52 134 -53q100 0 147 54q47 55 46 170q0 54 -6 113q-7 59 -18 146l10 12q96 9 166 32q71 22 139 57l79 -44
q-11 -50 -17 -100q-6 -49 -6 -88q0 -70 24 -104q24 -33 78 -33z" />
    <glyph glyph-name="uniFC7A" unicode="&#xfc7a;" horiz-adv-x="904" arabic-form="final" 
d="M657 685l-61 60l60 61l61 -61zM574 549l-76 75l75 77l77 -77zM661 624l77 77l76 -77l-76 -75zM904 90q5 0 7 -3q3 -2 3 -7v-69q0 -5 -3 -8q-2 -3 -7 -3q-108 0 -170 56q-63 56 -64 164q0 34 5 77q5 42 15 96q-132 -10 -204 -51q-73 -41 -74 -91q-1 -24 16 -43
q18 -20 64 -50l44 -29q55 -36 79 -73q25 -37 24 -79q-1 -86 -77 -138q-76 -53 -214 -54q-143 -1 -224 66q-82 66 -84 206q0 60 12 114t33 114h80q-21 -54 -33 -108t-12 -105q-1 -99 63 -148q64 -50 198 -50q83 1 130 27q47 25 48 66q0 20 -19 40t-58 47l-46 31
q-55 37 -80 73t-25 84q-1 89 89 155q91 67 284 88l71 -50q-13 -60 -21 -113t-8 -91q1 -69 43 -105q41 -36 115 -36z" />
    <glyph glyph-name="uniFC7B" unicode="&#xfc7b;" horiz-adv-x="904" arabic-form="final" 
d="M657 685l-61 60l60 61l61 -61zM574 549l-76 75l75 77l77 -77zM661 624l77 77l76 -77l-76 -75zM904 90q5 0 7 -3q3 -2 3 -7v-69q0 -5 -3 -8q-2 -3 -7 -3q-108 0 -170 56q-63 56 -64 164q0 34 5 77q5 42 15 96q-132 -10 -204 -51q-73 -41 -74 -91q-1 -24 16 -43
q18 -20 64 -50l44 -29q55 -36 79 -73q25 -37 24 -79q-1 -86 -77 -138q-76 -53 -214 -54q-143 -1 -224 66q-82 66 -84 206q0 60 12 114t33 114h80q-21 -54 -33 -108t-12 -105q-1 -99 63 -148q64 -50 198 -50q83 1 130 27q47 25 48 66q0 20 -19 40t-58 47l-46 31
q-55 37 -80 73t-25 84q-1 89 89 155q91 67 284 88l71 -50q-13 -60 -21 -113t-8 -91q1 -69 43 -105q41 -36 115 -36zM483 -274l76 -75l-76 -76l-75 74l-75 -74l-76 76l75 75l76 -73z" />
    <glyph glyph-name="uniFC83" unicode="&#xfc83;" horiz-adv-x="1488" arabic-form="final" 
d="M1488 90q5 0 7 -3q3 -2 3 -7v-69q0 -5 -3 -8q-2 -3 -7 -3q-48 0 -88 15q-40 16 -80 52q-35 -32 -87 -49q-52 -18 -119 -18h-220h-1q-107 0 -165 56q-57 56 -58 164q0 34 5 77q5 42 15 96q-132 -10 -204 -51q-73 -41 -74 -91q-1 -24 16 -43q18 -20 64 -50l44 -29
q55 -36 79 -73q25 -37 24 -79q-1 -86 -77 -138q-76 -53 -214 -54q-143 -1 -224 66q-82 66 -84 206q0 60 12 114t33 114h80q-21 -54 -33 -108t-12 -105q-1 -99 63 -148q64 -50 198 -50q83 1 130 27q47 25 48 66q0 20 -19 40t-58 47l-46 31q-55 37 -80 73t-25 84q-1 89 89 155
q91 67 284 88l71 -56q-13 -60 -21 -111q-8 -50 -8 -87q0 -69 37 -105t110 -36h1h1h227q75 1 122 30t48 76q1 40 -37 75q-37 35 -124 73l-240 106v68l349 277h127v-4l-368 -291l174 -77q101 -44 153 -99q51 -56 51 -124q0 -40 -15 -75q30 -20 60 -28q29 -7 66 -7z" />
    <glyph glyph-name="uniFC84" unicode="&#xfc84;" horiz-adv-x="1488" arabic-form="final" 
d="M1488 90q5 0 7 -3q3 -2 3 -7v-69q0 -5 -3 -8q-2 -3 -7 -3q-48 0 -88 15q-40 16 -80 52q-35 -32 -87 -49q-52 -18 -119 -18h-220h-1q-107 0 -165 56q-57 56 -58 164q0 34 5 77q5 42 15 96q-132 -10 -204 -51q-73 -41 -74 -91q-1 -24 16 -43q18 -20 64 -50l44 -29
q55 -36 79 -73q25 -37 24 -79q-1 -86 -77 -138q-76 -53 -214 -54q-143 -1 -224 66q-82 66 -84 206q0 60 12 114t33 114h80q-21 -54 -33 -108t-12 -105q-1 -99 63 -148q64 -50 198 -50q83 1 130 27q47 25 48 66q0 20 -19 40t-58 47l-46 31q-55 37 -80 73t-25 84q-1 89 89 155
q91 67 284 88l71 -56q-13 -60 -21 -111q-8 -50 -8 -87q0 -69 37 -105t110 -36h1h1h227q75 1 122 30t48 76q1 40 -37 75q-37 35 -124 73l-240 106v68l349 277h127v-4l-368 -291l174 -77q101 -44 153 -99q51 -56 51 -124q0 -40 -15 -75q30 -20 60 -28q29 -7 66 -7zM483 -274
l76 -75l-76 -76l-75 74l-75 -74l-76 76l75 75l76 -73z" />
    <glyph glyph-name="uniFC86" unicode="&#xfc86;" horiz-adv-x="894" arabic-form="final" 
d="M893 90q5 0 7 -3q3 -2 3 -7v-69q0 -5 -3 -8q-2 -3 -7 -3q-58 0 -99 17q-41 16 -66 47q-14 -14 -29 -25q-15 -12 -31 -20q-43 -112 -131 -173q-87 -60 -224 -61q-130 0 -201 69q-71 68 -72 203q0 60 12 114t33 114h80q-21 -54 -33 -108t-12 -105q0 -102 53 -149
q53 -48 159 -48q85 0 147 31q63 32 99 94h-2h-150l15 90h135q36 0 67 11q30 10 53 29q-7 28 -7 61v534h85v-531q-1 -52 27 -78t92 -26z" />
    <glyph glyph-name="uniFC87" unicode="&#xfc87;" horiz-adv-x="894" arabic-form="final" 
d="M893 90q5 0 7 -3q3 -2 3 -7v-69q0 -5 -3 -8q-2 -3 -7 -3q-58 0 -99 17q-41 16 -66 47q-14 -14 -29 -25q-15 -12 -31 -20q-43 -112 -131 -173q-87 -60 -224 -61q-130 0 -201 69q-71 68 -72 203q0 60 12 114t33 114h80q-21 -54 -33 -108t-12 -105q0 -102 53 -149
q53 -48 159 -48q85 0 147 31q63 32 99 94h-2h-150l15 90h135q36 0 67 11q30 10 53 29q-7 28 -7 61v534h85v-531q-1 -52 27 -78t92 -26zM462 -264l76 -75l-76 -76l-75 74l-75 -74l-76 76l75 75l76 -73z" />
    <glyph glyph-name="uniFC8A" unicode="&#xfc8a;" horiz-adv-x="603" arabic-form="final" 
d="M449 559l-77 75l75 76l77 -76zM603 90q5 0 7 -3q3 -2 3 -7v-69q0 -5 -3 -8q-2 -3 -7 -3q-89 0 -136 50q-46 49 -46 143q0 39 4 84q5 45 13 90q-54 -27 -109 -46t-107 -27q7 -67 11 -131q5 -65 5 -137q-2 -119 -72 -180q-69 -61 -181 -61v82q72 0 121 41q49 40 51 122
q0 72 -6 147q-7 75 -21 181l10 12q96 9 166 32q71 22 139 57l79 -44q-11 -50 -18 -100q-6 -49 -6 -88q0 -70 24 -104q25 -33 79 -33z" />
    <glyph glyph-name="uniFC8B" unicode="&#xfc8b;" horiz-adv-x="603" arabic-form="final" 
d="M449 559l-77 75l75 76l77 -76zM145 479l-77 75l75 76l77 -76zM603 90q5 0 7 -3q3 -2 3 -7v-69q0 -5 -3 -8q-2 -3 -7 -3q-89 0 -136 50q-46 49 -46 143q0 39 4 84q5 45 13 90q-54 -27 -109 -46t-107 -27q7 -67 11 -131q5 -65 5 -137q-2 -119 -72 -180q-69 -61 -181 -61v82
q72 0 121 41q49 40 51 122q0 72 -6 147q-7 75 -21 181l10 12q96 9 166 32q71 22 139 57l79 -44q-11 -50 -18 -100q-6 -49 -6 -88q0 -70 24 -104q25 -33 79 -33z" />
    <glyph glyph-name="uniFC8D" unicode="&#xfc8d;" horiz-adv-x="938" arabic-form="final" 
d="M782 571l-77 75l75 76l77 -76zM296 395l-77 75l75 76l77 -76zM938 90q5 0 7 -3q3 -2 3 -7v-69q0 -5 -3 -8q-2 -3 -7 -3q-89 0 -136 50q-46 49 -46 143q0 39 5 84t13 90q-53 -27 -108 -45q-56 -19 -108 -27q7 -53 10 -102q4 -48 4 -94q1 -139 -69 -225q-69 -86 -215 -89
q-119 1 -183 71t-65 201q0 60 12 114t33 114h80q-21 -54 -33 -108t-12 -105q0 -92 42 -144q43 -52 134 -53q100 0 147 54q47 55 46 170q0 54 -6 113q-7 59 -18 146l10 12q96 9 166 32q71 22 139 57l79 -44q-11 -50 -17 -100q-6 -49 -6 -88q0 -70 24 -104q24 -33 78 -33z" />
    <glyph glyph-name="uniFC8E" unicode="&#xfc8e;" horiz-adv-x="904" arabic-form="final" 
d="M703 596l-77 75l75 76l77 -76zM904 90q5 0 7 -3q3 -2 3 -7v-69q0 -5 -3 -8q-2 -3 -7 -3q-108 0 -170 56q-63 56 -64 164q0 34 5 77q5 42 15 96q-132 -10 -204 -51q-73 -41 -74 -91q-1 -24 16 -43q18 -20 64 -50l44 -29q55 -36 79 -73q25 -37 24 -79q-1 -86 -77 -138
q-76 -53 -214 -54q-143 -1 -224 66q-82 66 -84 206q0 60 12 114t33 114h80q-21 -54 -33 -108t-12 -105q-1 -99 63 -148q64 -50 198 -50q83 1 130 27q47 25 48 66q0 20 -19 40t-58 47l-46 31q-55 37 -80 73t-25 84q-1 89 89 155q91 67 284 88l71 -50q-13 -60 -21 -113t-8 -91
q1 -69 43 -105q41 -36 115 -36z" />
    <glyph glyph-name="uniFC8F" unicode="&#xfc8f;" horiz-adv-x="904" arabic-form="final" 
d="M703 596l-77 75l75 76l77 -76zM904 90q5 0 7 -3q3 -2 3 -7v-69q0 -5 -3 -8q-2 -3 -7 -3q-108 0 -170 56q-63 56 -64 164q0 34 5 77q5 42 15 96q-132 -10 -204 -51q-73 -41 -74 -91q-1 -24 16 -43q18 -20 64 -50l44 -29q55 -36 79 -73q25 -37 24 -79q-1 -86 -77 -138
q-76 -53 -214 -54q-143 -1 -224 66q-82 66 -84 206q0 60 12 114t33 114h80q-21 -54 -33 -108t-12 -105q-1 -99 63 -148q64 -50 198 -50q83 1 130 27q47 25 48 66q0 20 -19 40t-58 47l-46 31q-55 37 -80 73t-25 84q-1 89 89 155q91 67 284 88l71 -50q-13 -60 -21 -113t-8 -91
q1 -69 43 -105q41 -36 115 -36zM483 -274l76 -75l-76 -76l-75 74l-75 -74l-76 76l75 75l76 -73z" />
    <glyph glyph-name="uniFC91" unicode="&#xfc91;" horiz-adv-x="603" arabic-form="final" 
d="M603 90q5 0 7 -3q3 -2 3 -7v-69q0 -5 -3 -8q-2 -3 -7 -3q-89 0 -136 50q-46 49 -46 143q0 39 4 84q5 45 13 90q-54 -27 -109 -46t-107 -27q7 -67 11 -131q5 -65 5 -137q-2 -119 -72 -180q-69 -61 -181 -61v82q72 0 121 41q49 40 51 122q0 72 -6 147q-7 75 -21 181l10 12
q96 9 166 32q71 22 139 57l79 -44q-11 -50 -18 -100q-6 -49 -6 -88q0 -70 24 -104q25 -33 79 -33zM470 -74l76 -75l-76 -76l-75 74l-75 -74l-76 76l75 75l76 -73z" />
    <glyph glyph-name="uniFC92" unicode="&#xfc92;" horiz-adv-x="603" arabic-form="final" 
d="M145 479l-77 75l75 76l77 -76zM603 90q5 0 7 -3q3 -2 3 -7v-69q0 -5 -3 -8q-2 -3 -7 -3q-89 0 -136 50q-46 49 -46 143q0 39 4 84q5 45 13 90q-54 -27 -109 -46t-107 -27q7 -67 11 -131q5 -65 5 -137q-2 -119 -72 -180q-69 -61 -181 -61v82q72 0 121 41q49 40 51 122
q0 72 -6 147q-7 75 -21 181l10 12q96 9 166 32q71 22 139 57l79 -44q-11 -50 -18 -100q-6 -49 -6 -88q0 -70 24 -104q25 -33 79 -33zM470 -74l76 -75l-76 -76l-75 74l-75 -74l-76 76l75 75l76 -73z" />
    <glyph glyph-name="uniFC94" unicode="&#xfc94;" horiz-adv-x="938" arabic-form="final" 
d="M296 395l-77 75l75 76l77 -76zM938 90q5 0 7 -3q3 -2 3 -7v-69q0 -5 -3 -8q-2 -3 -7 -3q-89 0 -136 50q-46 49 -46 143q0 39 5 84t13 90q-53 -27 -108 -45q-56 -19 -108 -27q7 -53 10 -102q4 -48 4 -94q1 -139 -69 -225q-69 -86 -215 -89q-119 1 -183 71t-65 201
q0 60 12 114t33 114h80q-21 -54 -33 -108t-12 -105q0 -92 42 -144q43 -52 134 -53q100 0 147 54q47 55 46 170q0 54 -6 113q-7 59 -18 146l10 12q96 9 166 32q71 22 139 57l79 -44q-11 -50 -17 -100q-6 -49 -6 -88q0 -70 24 -104q24 -33 78 -33zM807 -74l76 -75l-76 -76
l-75 74l-75 -74l-76 76l75 75l76 -73z" />
    <glyph glyph-name="uniFCCC" unicode="&#xfccc;" horiz-adv-x="293" arabic-form="initial" 
d="M267 -77q-37 8 -67 22q-31 14 -59 35q-39 11 -77 16q-38 4 -64 4q-5 0 -7 3q-3 2 -3 7v69q0 5 3 8q2 3 7 3q28 0 56 -2q29 -3 56 -8q-4 25 -7 51q-2 25 -2 51v543h85v-662q28 -11 59 -27t61 -36z" />
    <glyph glyph-name="uniFCFB" unicode="&#xfcfb;" horiz-adv-x="1464" arabic-form="isolated" 
d="M1379 485q16 -107 23 -178q7 -70 7 -118q-1 -87 -53 -137q-53 -51 -141 -52q-41 0 -85 14q-43 14 -91 43q-27 -27 -65 -42q-39 -15 -87 -15q-101 0 -158 56q-58 56 -59 164q0 34 5 77q5 42 15 96q-132 -10 -204 -51q-73 -41 -74 -91q-1 -24 16 -43q18 -20 64 -50l44 -29
q55 -36 79 -73q25 -37 24 -79q-1 -86 -77 -138q-76 -53 -214 -54q-143 -1 -224 66q-82 66 -84 206q0 60 12 114t33 114h80q-21 -54 -33 -108t-12 -105q-1 -99 63 -148q64 -50 198 -50q83 1 130 27q47 25 48 66q0 20 -19 40t-58 47l-46 31q-55 37 -80 73t-25 84q-1 89 89 155
q91 67 284 88l71 -50q-13 -60 -21 -113t-8 -91q0 -69 36 -105t103 -36q50 0 76 14q26 13 39 40q15 28 21 80q5 53 5 146h79q0 -84 -7 -145q-7 -62 -22 -104q36 -16 67 -24q31 -7 62 -7q121 0 121 102q0 38 -6 101q-7 63 -26 192h85z" />
    <glyph glyph-name="uniFCFC" unicode="&#xfcfc;" horiz-adv-x="1464" arabic-form="isolated" 
d="M1379 485q16 -107 23 -178q7 -70 7 -118q-1 -87 -53 -137q-53 -51 -141 -52q-41 0 -85 14q-43 14 -91 43q-27 -27 -65 -42q-39 -15 -87 -15q-101 0 -158 56q-58 56 -59 164q0 34 5 77q5 42 15 96q-132 -10 -204 -51q-73 -41 -74 -91q-1 -24 16 -43q18 -20 64 -50l44 -29
q55 -36 79 -73q25 -37 24 -79q-1 -86 -77 -138q-76 -53 -214 -54q-143 -1 -224 66q-82 66 -84 206q0 60 12 114t33 114h80q-21 -54 -33 -108t-12 -105q-1 -99 63 -148q64 -50 198 -50q83 1 130 27q47 25 48 66q0 20 -19 40t-58 47l-46 31q-55 37 -80 73t-25 84q-1 89 89 155
q91 67 284 88l71 -50q-13 -60 -21 -113t-8 -91q0 -69 36 -105t103 -36q50 0 76 14q26 13 39 40q15 28 21 80q5 53 5 146h79q0 -84 -7 -145q-7 -62 -22 -104q36 -16 67 -24q31 -7 62 -7q121 0 121 102q0 38 -6 101q-7 63 -26 192h85zM483 -274l76 -75l-76 -76l-75 74l-75 -74
l-76 76l75 75l76 -73z" />
    <glyph glyph-name="uniFCFD" unicode="&#xfcfd;" horiz-adv-x="1464" arabic-form="isolated" 
d="M1074 608l-61 60l60 61l61 -61zM991 472l-76 75l75 77l77 -77zM1078 547l77 77l76 -77l-76 -75zM1379 485q16 -107 23 -178q7 -70 7 -118q-1 -87 -53 -137q-53 -51 -141 -52q-41 0 -85 14q-43 14 -91 43q-27 -27 -65 -42q-39 -15 -87 -15q-101 0 -158 56q-58 56 -59 164
q0 34 5 77q5 42 15 96q-132 -10 -204 -51q-73 -41 -74 -91q-1 -24 16 -43q18 -20 64 -50l44 -29q55 -36 79 -73q25 -37 24 -79q-1 -86 -77 -138q-76 -53 -214 -54q-143 -1 -224 66q-82 66 -84 206q0 60 12 114t33 114h80q-21 -54 -33 -108t-12 -105q-1 -99 63 -148
q64 -50 198 -50q83 1 130 27q47 25 48 66q0 20 -19 40t-58 47l-46 31q-55 37 -80 73t-25 84q-1 89 89 155q91 67 284 88l71 -50q-13 -60 -21 -113t-8 -91q0 -69 36 -105t103 -36q50 0 76 14q26 13 39 40q15 28 21 80q5 53 5 146h79q0 -84 -7 -145q-7 -62 -22 -104
q36 -16 67 -24q31 -7 62 -7q121 0 121 102q0 38 -6 101q-7 63 -26 192h85z" />
    <glyph glyph-name="uniFCFE" unicode="&#xfcfe;" horiz-adv-x="1464" arabic-form="isolated" 
d="M1066 608l-61 60l60 61l61 -61zM983 472l-76 75l75 77l77 -77zM1070 547l77 77l76 -77l-76 -75zM1379 485q16 -107 23 -178q7 -70 7 -118q-1 -87 -53 -137q-53 -51 -141 -52q-41 0 -85 14q-43 14 -91 43q-27 -27 -65 -42q-39 -15 -87 -15q-101 0 -158 56q-58 56 -59 164
q0 34 5 77q5 42 15 96q-132 -10 -204 -51q-73 -41 -74 -91q-1 -24 16 -43q18 -20 64 -50l44 -29q55 -36 79 -73q25 -37 24 -79q-1 -86 -77 -138q-76 -53 -214 -54q-143 -1 -224 66q-82 66 -84 206q0 60 12 114t33 114h80q-21 -54 -33 -108t-12 -105q-1 -99 63 -148
q64 -50 198 -50q83 1 130 27q47 25 48 66q0 20 -19 40t-58 47l-46 31q-55 37 -80 73t-25 84q-1 89 89 155q91 67 284 88l71 -50q-13 -60 -21 -113t-8 -91q0 -69 36 -105t103 -36q50 0 76 14q26 13 39 40q15 28 21 80q5 53 5 146h79q0 -84 -7 -145q-7 -62 -22 -104
q36 -16 67 -24q31 -7 62 -7q121 0 121 102q0 38 -6 101q-7 63 -26 192h85zM483 -274l76 -75l-76 -76l-75 74l-75 -74l-76 76l75 75l76 -73z" />
    <glyph glyph-name="uniFD05" unicode="&#xfd05;" horiz-adv-x="1496" arabic-form="isolated" 
d="M1240 518q93 -2 151 -61t60 -152q-2 -140 -110 -222q-107 -81 -291 -83h-152q-109 0 -168 55t-60 165q0 34 5 77q5 42 15 96q-132 -10 -204 -51q-73 -41 -74 -91q-1 -24 16 -43q18 -20 64 -50l44 -29q55 -36 79 -73q25 -37 24 -79q-1 -86 -77 -138q-76 -53 -214 -54
q-143 -1 -224 66q-82 66 -84 206q0 60 12 114t33 114h80q-21 -54 -33 -108t-12 -105q-1 -99 63 -148q64 -50 198 -50q83 1 130 27q47 25 48 66q0 20 -19 40t-58 47l-46 31q-55 37 -80 73t-25 84q-1 89 89 155q91 67 284 88l71 -50q-17 -78 -23 -121q-6 -44 -6 -83
q0 -34 7 -59q7 -26 21 -42q194 238 291 316t175 72zM1038 90q150 1 237 54q88 54 90 147q-1 60 -39 98t-98 39q-67 3 -149 -72q-81 -75 -233 -263q9 -1 20 -2t22 -1h150z" />
    <glyph glyph-name="uniFD06" unicode="&#xfd06;" horiz-adv-x="1496" arabic-form="isolated" 
d="M1240 518q93 -2 151 -61t60 -152q-2 -140 -110 -222q-107 -81 -291 -83h-152q-109 0 -168 55t-60 165q0 34 5 77q5 42 15 96q-132 -10 -204 -51q-73 -41 -74 -91q-1 -24 16 -43q18 -20 64 -50l44 -29q55 -36 79 -73q25 -37 24 -79q-1 -86 -77 -138q-76 -53 -214 -54
q-143 -1 -224 66q-82 66 -84 206q0 60 12 114t33 114h80q-21 -54 -33 -108t-12 -105q-1 -99 63 -148q64 -50 198 -50q83 1 130 27q47 25 48 66q0 20 -19 40t-58 47l-46 31q-55 37 -80 73t-25 84q-1 89 89 155q91 67 284 88l71 -50q-17 -78 -23 -121q-6 -44 -6 -83
q0 -34 7 -59q7 -26 21 -42q194 238 291 316t175 72zM1038 90q150 1 237 54q88 54 90 147q-1 60 -39 98t-98 39q-67 3 -149 -72q-81 -75 -233 -263q9 -1 20 -2t22 -1h150zM483 -274l76 -75l-76 -76l-75 74l-75 -74l-76 76l75 75l76 -73z" />
    <glyph glyph-name="uniFD07" unicode="&#xfd07;" horiz-adv-x="1496" arabic-form="isolated" 
d="M1012 562l-77 75l75 76l77 -76zM1240 518q93 -2 151 -61t60 -152q-2 -140 -110 -222q-107 -81 -291 -83h-152q-109 0 -168 55t-60 165q0 34 5 77q5 42 15 96q-132 -10 -204 -51q-73 -41 -74 -91q-1 -24 16 -43q18 -20 64 -50l44 -29q55 -36 79 -73q25 -37 24 -79
q-1 -86 -77 -138q-76 -53 -214 -54q-143 -1 -224 66q-82 66 -84 206q0 60 12 114t33 114h80q-21 -54 -33 -108t-12 -105q-1 -99 63 -148q64 -50 198 -50q83 1 130 27q47 25 48 66q0 20 -19 40t-58 47l-46 31q-55 37 -80 73t-25 84q-1 89 89 155q91 67 284 88l71 -50
q-17 -78 -23 -121q-6 -44 -6 -83q0 -34 7 -59q7 -26 21 -42q194 238 291 316t175 72zM1038 90q150 1 237 54q88 54 90 147q-1 60 -39 98t-98 39q-67 3 -149 -72q-81 -75 -233 -263q9 -1 20 -2t22 -1h150z" />
    <glyph glyph-name="uniFD08" unicode="&#xfd08;" horiz-adv-x="1496" arabic-form="isolated" 
d="M1012 562l-77 75l75 76l77 -76zM1240 518q93 -2 151 -61t60 -152q-2 -140 -110 -222q-107 -81 -291 -83h-152q-109 0 -168 55t-60 165q0 34 5 77q5 42 15 96q-132 -10 -204 -51q-73 -41 -74 -91q-1 -24 16 -43q18 -20 64 -50l44 -29q55 -36 79 -73q25 -37 24 -79
q-1 -86 -77 -138q-76 -53 -214 -54q-143 -1 -224 66q-82 66 -84 206q0 60 12 114t33 114h80q-21 -54 -33 -108t-12 -105q-1 -99 63 -148q64 -50 198 -50q83 1 130 27q47 25 48 66q0 20 -19 40t-58 47l-46 31q-55 37 -80 73t-25 84q-1 89 89 155q91 67 284 88l71 -50
q-17 -78 -23 -121q-6 -44 -6 -83q0 -34 7 -59q7 -26 21 -42q194 238 291 316t175 72zM1038 90q150 1 237 54q88 54 90 147q-1 60 -39 98t-98 39q-67 3 -149 -72q-81 -75 -233 -263q9 -1 20 -2t22 -1h150zM483 -274l76 -75l-76 -76l-75 74l-75 -74l-76 76l75 75l76 -73z" />
    <glyph glyph-name="uniFD0D" unicode="&#xfd0d;" horiz-adv-x="1218" arabic-form="isolated" 
d="M819 608l-61 60l60 61l61 -61zM736 472l-76 75l75 77l77 -77zM823 547l77 77l76 -77l-76 -75zM1133 485q16 -107 23 -178q7 -70 7 -118q-1 -87 -53 -137q-53 -51 -141 -52q-41 0 -85 14q-43 14 -91 43q-25 -27 -61 -42t-81 -15q-113 0 -171 61t-58 181q0 25 3 51
q2 25 6 52q-56 -12 -112 -27q-56 -16 -96 -31q8 -69 11 -129q4 -60 4 -132q-2 -119 -72 -180q-69 -61 -181 -61v82q72 0 121 41q49 40 51 122q0 64 -4 127q-5 63 -16 150l63 65q63 18 127 32t120 22q6 33 14 69h78q-21 -90 -30 -149t-9 -96q0 -82 35 -121t111 -39
q44 0 69 14q26 13 39 40q15 28 21 80q5 53 5 146h79q0 -84 -7 -145q-7 -62 -22 -104q36 -16 67 -24q31 -7 62 -7q121 0 121 102q0 38 -6 101q-7 63 -26 192h85z" />
    <glyph glyph-name="uniFD0E" unicode="&#xfd0e;" horiz-adv-x="1218" arabic-form="isolated" 
d="M1133 485q16 -107 23 -178q7 -70 7 -118q-1 -87 -53 -137q-53 -51 -141 -52q-41 0 -85 14q-43 14 -91 43q-25 -27 -61 -42t-81 -15q-113 0 -171 61t-58 181q0 25 3 51q2 25 6 52q-56 -12 -112 -27q-56 -16 -96 -31q8 -69 11 -129q4 -60 4 -132q-2 -119 -72 -180
q-69 -61 -181 -61v82q72 0 121 41q49 40 51 122q0 64 -4 127q-5 63 -16 150l63 65q63 18 127 32t120 22q6 33 14 69h78q-21 -90 -30 -149t-9 -96q0 -82 35 -121t111 -39q44 0 69 14q26 13 39 40q15 28 21 80q5 53 5 146h79q0 -84 -7 -145q-7 -62 -22 -104q36 -16 67 -24
q31 -7 62 -7q121 0 121 102q0 38 -6 101q-7 63 -26 192h85z" />
    <glyph glyph-name="uniFD0F" unicode="&#xfd0f;" horiz-adv-x="1272" arabic-form="isolated" 
d="M1016 518q93 -2 151 -61t60 -152q-2 -140 -110 -222q-107 -81 -291 -83h-120q-140 0 -212 60q-72 59 -72 182q0 25 3 51q2 25 6 52q-56 -12 -112 -27q-56 -16 -96 -31q8 -69 11 -129q4 -60 4 -132q-2 -119 -72 -180q-69 -61 -181 -61v82q72 0 121 41q49 40 51 122
q0 64 -4 127q-5 63 -16 150l63 65q63 18 127 32t120 22q6 33 14 69h78q-21 -90 -30 -149t-9 -96q0 -43 11 -74t36 -50q196 240 294 319t175 73zM814 90q150 1 237 54q88 54 90 147q-1 60 -39 98t-98 39q-67 3 -148 -72t-232 -261q33 -5 75 -5h115z" />
    <glyph glyph-name="uniFD10" unicode="&#xfd10;" horiz-adv-x="1272" arabic-form="isolated" 
d="M761 551l-77 75l75 76l77 -76zM1016 518q93 -2 151 -61t60 -152q-2 -140 -110 -222q-107 -81 -291 -83h-120q-140 0 -212 60q-72 59 -72 182q0 25 3 51q2 25 6 52q-56 -12 -112 -27q-56 -16 -96 -31q8 -69 11 -129q4 -60 4 -132q-2 -119 -72 -180q-69 -61 -181 -61v82
q72 0 121 41q49 40 51 122q0 64 -4 127q-5 63 -16 150l63 65q63 18 127 32t120 22q6 33 14 69h78q-21 -90 -30 -149t-9 -96q0 -43 11 -74t36 -50q196 240 294 319t175 73zM814 90q150 1 237 54q88 54 90 147q-1 60 -39 98t-98 39q-67 3 -148 -72t-232 -261q33 -5 75 -5h115z
" />
    <glyph glyph-name="uniFD17" unicode="&#xfd17;" horiz-adv-x="1505" arabic-form="final" 
d="M1507 90q5 0 7 -3q3 -2 3 -7v-69q0 -5 -3 -8q-2 -3 -7 -3q-47 0 -87 15t-80 51q-25 -32 -63 -49q-37 -17 -84 -17q-37 0 -77 13q-41 13 -87 40q-25 -26 -59 -39q-35 -14 -77 -14q-107 0 -165 56q-57 56 -58 164q0 34 5 77q5 42 15 96q-132 -10 -204 -51q-73 -41 -74 -91
q-1 -24 16 -43q18 -20 64 -50l44 -29q55 -36 79 -73q25 -37 24 -79q-1 -86 -77 -138q-76 -53 -214 -54q-143 -1 -224 66q-82 66 -84 206q0 60 12 114t33 114h80q-21 -54 -33 -108t-12 -105q-1 -99 63 -148q64 -50 198 -50q83 1 130 27q47 25 48 66q0 20 -19 40t-58 47
l-46 31q-55 37 -80 73t-25 84q-1 89 89 155q91 67 284 88l71 -50q-13 -60 -21 -113t-8 -91q0 -69 36 -105q35 -36 106 -36q44 0 68 14q24 13 37 40q15 28 21 80q5 53 5 146h79q0 -86 -7 -148t-23 -104q29 -14 62 -21q32 -7 58 -7q44 0 68 14q24 13 37 40q15 28 21 80
q5 53 5 146v70h79v-70q0 -79 -6 -138q-7 -59 -20 -101q33 -23 64 -32t71 -9z" />
    <glyph glyph-name="uniFD18" unicode="&#xfd18;" horiz-adv-x="1505" arabic-form="final" 
d="M1507 90q5 0 7 -3q3 -2 3 -7v-69q0 -5 -3 -8q-2 -3 -7 -3q-47 0 -87 15t-80 51q-25 -32 -63 -49q-37 -17 -84 -17q-37 0 -77 13q-41 13 -87 40q-25 -26 -59 -39q-35 -14 -77 -14q-107 0 -165 56q-57 56 -58 164q0 34 5 77q5 42 15 96q-132 -10 -204 -51q-73 -41 -74 -91
q-1 -24 16 -43q18 -20 64 -50l44 -29q55 -36 79 -73q25 -37 24 -79q-1 -86 -77 -138q-76 -53 -214 -54q-143 -1 -224 66q-82 66 -84 206q0 60 12 114t33 114h80q-21 -54 -33 -108t-12 -105q-1 -99 63 -148q64 -50 198 -50q83 1 130 27q47 25 48 66q0 20 -19 40t-58 47
l-46 31q-55 37 -80 73t-25 84q-1 89 89 155q91 67 284 88l71 -50q-13 -60 -21 -113t-8 -91q0 -69 36 -105q35 -36 106 -36q44 0 68 14q24 13 37 40q15 28 21 80q5 53 5 146h79q0 -86 -7 -148t-23 -104q29 -14 62 -21q32 -7 58 -7q44 0 68 14q24 13 37 40q15 28 21 80
q5 53 5 146v70h79v-70q0 -79 -6 -138q-7 -59 -20 -101q33 -23 64 -32t71 -9zM483 -274l76 -75l-76 -76l-75 74l-75 -74l-76 76l75 75l76 -73z" />
    <glyph glyph-name="uniFD19" unicode="&#xfd19;" horiz-adv-x="1505" arabic-form="final" 
d="M1058 608l-61 60l60 61l61 -61zM975 472l-76 75l75 77l77 -77zM1062 547l77 77l76 -77l-76 -75zM1507 90q5 0 7 -3q3 -2 3 -7v-69q0 -5 -3 -8q-2 -3 -7 -3q-47 0 -87 15t-80 51q-25 -32 -63 -49q-37 -17 -84 -17q-37 0 -77 13q-41 13 -87 40q-25 -26 -59 -39
q-35 -14 -77 -14q-107 0 -165 56q-57 56 -58 164q0 34 5 77q5 42 15 96q-132 -10 -204 -51q-73 -41 -74 -91q-1 -24 16 -43q18 -20 64 -50l44 -29q55 -36 79 -73q25 -37 24 -79q-1 -86 -77 -138q-76 -53 -214 -54q-143 -1 -224 66q-82 66 -84 206q0 60 12 114t33 114h80
q-21 -54 -33 -108t-12 -105q-1 -99 63 -148q64 -50 198 -50q83 1 130 27q47 25 48 66q0 20 -19 40t-58 47l-46 31q-55 37 -80 73t-25 84q-1 89 89 155q91 67 284 88l71 -50q-13 -60 -21 -113t-8 -91q0 -69 36 -105q35 -36 106 -36q44 0 68 14q24 13 37 40q15 28 21 80
q5 53 5 146h79q0 -86 -7 -148t-23 -104q29 -14 62 -21q32 -7 58 -7q44 0 68 14q24 13 37 40q15 28 21 80q5 53 5 146v70h79v-70q0 -79 -6 -138q-7 -59 -20 -101q33 -23 64 -32t71 -9z" />
    <glyph glyph-name="uniFD1A" unicode="&#xfd1a;" horiz-adv-x="1505" arabic-form="final" 
d="M1055 608l-61 60l60 61l61 -61zM972 472l-76 75l75 77l77 -77zM1059 547l77 77l76 -77l-76 -75zM1507 90q5 0 7 -3q3 -2 3 -7v-69q0 -5 -3 -8q-2 -3 -7 -3q-47 0 -87 15t-80 51q-25 -32 -63 -49q-37 -17 -84 -17q-37 0 -77 13q-41 13 -87 40q-25 -26 -59 -39
q-35 -14 -77 -14q-107 0 -165 56q-57 56 -58 164q0 34 5 77q5 42 15 96q-132 -10 -204 -51q-73 -41 -74 -91q-1 -24 16 -43q18 -20 64 -50l44 -29q55 -36 79 -73q25 -37 24 -79q-1 -86 -77 -138q-76 -53 -214 -54q-143 -1 -224 66q-82 66 -84 206q0 60 12 114t33 114h80
q-21 -54 -33 -108t-12 -105q-1 -99 63 -148q64 -50 198 -50q83 1 130 27q47 25 48 66q0 20 -19 40t-58 47l-46 31q-55 37 -80 73t-25 84q-1 89 89 155q91 67 284 88l71 -50q-13 -60 -21 -113t-8 -91q0 -69 36 -105q35 -36 106 -36q44 0 68 14q24 13 37 40q15 28 21 80
q5 53 5 146h79q0 -86 -7 -148t-23 -104q29 -14 62 -21q32 -7 58 -7q44 0 68 14q24 13 37 40q15 28 21 80q5 53 5 146v70h79v-70q0 -79 -6 -138q-7 -59 -20 -101q33 -23 64 -32t71 -9zM483 -274l76 -75l-76 -76l-75 74l-75 -74l-76 76l75 75l76 -73z" />
    <glyph glyph-name="uniFD21" unicode="&#xfd21;" horiz-adv-x="1517" arabic-form="final" 
d="M1517 90q5 0 7 -3q3 -2 3 -7v-69q0 -5 -3 -8q-2 -3 -7 -3q-52 0 -94 18q-43 18 -87 61q-53 -38 -125 -59q-72 -20 -161 -20h-152q-109 0 -168 55t-60 165q0 34 5 77q5 42 15 96q-132 -10 -204 -51q-73 -41 -74 -91q-1 -24 16 -43q18 -20 64 -50l44 -29q55 -36 79 -73
q25 -37 24 -79q-1 -86 -77 -138q-76 -53 -214 -54q-143 -1 -224 66q-82 66 -84 206q0 60 12 114t33 114h80q-21 -54 -33 -108t-12 -105q-1 -99 63 -148q64 -50 198 -50q83 1 130 27q47 25 48 66q0 20 -19 40t-58 47l-46 31q-55 37 -80 73t-25 84q-1 89 89 155q91 67 284 88
l71 -50q-17 -78 -23 -121q-6 -44 -6 -83q0 -34 7 -59q7 -26 21 -42q194 238 291 316t175 72q93 -2 151 -61t60 -152q0 -52 -16 -97t-47 -81q31 -21 61 -29t68 -8zM1038 90q150 1 237 54q88 54 90 147q-1 60 -39 98t-98 39q-67 3 -149 -72q-81 -75 -233 -263q9 -1 20 -2
t22 -1h150z" />
    <glyph glyph-name="uniFD22" unicode="&#xfd22;" horiz-adv-x="1517" arabic-form="final" 
d="M1517 90q5 0 7 -3q3 -2 3 -7v-69q0 -5 -3 -8q-2 -3 -7 -3q-52 0 -94 18q-43 18 -87 61q-53 -38 -125 -59q-72 -20 -161 -20h-152q-109 0 -168 55t-60 165q0 34 5 77q5 42 15 96q-132 -10 -204 -51q-73 -41 -74 -91q-1 -24 16 -43q18 -20 64 -50l44 -29q55 -36 79 -73
q25 -37 24 -79q-1 -86 -77 -138q-76 -53 -214 -54q-143 -1 -224 66q-82 66 -84 206q0 60 12 114t33 114h80q-21 -54 -33 -108t-12 -105q-1 -99 63 -148q64 -50 198 -50q83 1 130 27q47 25 48 66q0 20 -19 40t-58 47l-46 31q-55 37 -80 73t-25 84q-1 89 89 155q91 67 284 88
l71 -50q-17 -78 -23 -121q-6 -44 -6 -83q0 -34 7 -59q7 -26 21 -42q194 238 291 316t175 72q93 -2 151 -61t60 -152q0 -52 -16 -97t-47 -81q31 -21 61 -29t68 -8zM1038 90q150 1 237 54q88 54 90 147q-1 60 -39 98t-98 39q-67 3 -149 -72q-81 -75 -233 -263q9 -1 20 -2
t22 -1h150zM483 -274l76 -75l-76 -76l-75 74l-75 -74l-76 76l75 75l76 -73z" />
    <glyph glyph-name="uniFD23" unicode="&#xfd23;" horiz-adv-x="1517" arabic-form="final" 
d="M1012 562l-77 75l75 76l77 -76zM1517 90q5 0 7 -3q3 -2 3 -7v-69q0 -5 -3 -8q-2 -3 -7 -3q-52 0 -94 18q-43 18 -87 61q-53 -38 -125 -59q-72 -20 -161 -20h-152q-109 0 -168 55t-60 165q0 34 5 77q5 42 15 96q-132 -10 -204 -51q-73 -41 -74 -91q-1 -24 16 -43
q18 -20 64 -50l44 -29q55 -36 79 -73q25 -37 24 -79q-1 -86 -77 -138q-76 -53 -214 -54q-143 -1 -224 66q-82 66 -84 206q0 60 12 114t33 114h80q-21 -54 -33 -108t-12 -105q-1 -99 63 -148q64 -50 198 -50q83 1 130 27q47 25 48 66q0 20 -19 40t-58 47l-46 31
q-55 37 -80 73t-25 84q-1 89 89 155q91 67 284 88l71 -50q-17 -78 -23 -121q-6 -44 -6 -83q0 -34 7 -59q7 -26 21 -42q194 238 291 316t175 72q93 -2 151 -61t60 -152q0 -52 -16 -97t-47 -81q31 -21 61 -29t68 -8zM1038 90q150 1 237 54q88 54 90 147q-1 60 -39 98t-98 39
q-67 3 -149 -72q-81 -75 -233 -263q9 -1 20 -2t22 -1h150z" />
    <glyph glyph-name="uniFD24" unicode="&#xfd24;" horiz-adv-x="1517" arabic-form="final" 
d="M1012 562l-77 75l75 76l77 -76zM1517 90q5 0 7 -3q3 -2 3 -7v-69q0 -5 -3 -8q-2 -3 -7 -3q-52 0 -94 18q-43 18 -87 61q-53 -38 -125 -59q-72 -20 -161 -20h-152q-109 0 -168 55t-60 165q0 34 5 77q5 42 15 96q-132 -10 -204 -51q-73 -41 -74 -91q-1 -24 16 -43
q18 -20 64 -50l44 -29q55 -36 79 -73q25 -37 24 -79q-1 -86 -77 -138q-76 -53 -214 -54q-143 -1 -224 66q-82 66 -84 206q0 60 12 114t33 114h80q-21 -54 -33 -108t-12 -105q-1 -99 63 -148q64 -50 198 -50q83 1 130 27q47 25 48 66q0 20 -19 40t-58 47l-46 31
q-55 37 -80 73t-25 84q-1 89 89 155q91 67 284 88l71 -50q-17 -78 -23 -121q-6 -44 -6 -83q0 -34 7 -59q7 -26 21 -42q194 238 291 316t175 72q93 -2 151 -61t60 -152q0 -52 -16 -97t-47 -81q31 -21 61 -29t68 -8zM1038 90q150 1 237 54q88 54 90 147q-1 60 -39 98t-98 39
q-67 3 -149 -72q-81 -75 -233 -263q9 -1 20 -2t22 -1h150zM483 -274l76 -75l-76 -76l-75 74l-75 -74l-76 76l75 75l76 -73z" />
    <glyph glyph-name="uniFD29" unicode="&#xfd29;" horiz-adv-x="1259" arabic-form="final" 
d="M814 608l-61 60l60 61l61 -61zM731 472l-76 75l75 77l77 -77zM818 547l77 77l76 -77l-76 -75zM1261 90q5 0 7 -3q3 -2 3 -7v-69q0 -5 -3 -8q-2 -3 -7 -3q-47 0 -87 15t-80 51q-25 -32 -63 -49q-37 -17 -84 -17q-38 0 -78 13t-86 41q-25 -26 -59 -40q-35 -14 -78 -14
q-107 0 -165 59q-58 60 -59 183q0 25 2 51q3 25 7 52q-56 -12 -112 -27q-56 -16 -96 -31q8 -69 11 -129q4 -60 4 -132q-2 -119 -72 -180q-69 -61 -181 -61v82q72 0 121 41q49 40 51 122q0 64 -4 127q-5 63 -16 150l63 65q63 17 127 32q64 14 119 22l15 69h77
q-20 -90 -30 -149q-9 -59 -9 -96q1 -83 37 -122q35 -38 105 -38q44 0 68 14q25 13 38 40q14 28 20 80q6 53 6 146h78q0 -86 -7 -148t-23 -104q30 -14 62 -21q33 -7 59 -7q44 0 68 14q24 13 37 40q15 28 21 80q5 53 5 146v70h79v-70q0 -79 -6 -138q-7 -59 -20 -101
q33 -23 64 -32t71 -9z" />
    <glyph glyph-name="uniFD2A" unicode="&#xfd2a;" horiz-adv-x="1259" arabic-form="final" 
d="M1261 90q5 0 7 -3q3 -2 3 -7v-69q0 -5 -3 -8q-2 -3 -7 -3q-47 0 -87 15t-80 51q-25 -32 -63 -49q-37 -17 -84 -17q-38 0 -78 13t-86 41q-25 -26 -59 -40q-35 -14 -78 -14q-107 0 -165 59q-58 60 -59 183q0 25 2 51q3 25 7 52q-56 -12 -112 -27q-56 -16 -96 -31
q8 -69 11 -129q4 -60 4 -132q-2 -119 -72 -180q-69 -61 -181 -61v82q72 0 121 41q49 40 51 122q0 64 -4 127q-5 63 -16 150l63 65q63 17 127 32q64 14 119 22l15 69h77q-20 -90 -30 -149q-9 -59 -9 -96q1 -83 37 -122q35 -38 105 -38q44 0 68 14q25 13 38 40q14 28 20 80
q6 53 6 146h78q0 -86 -7 -148t-23 -104q30 -14 62 -21q33 -7 59 -7q44 0 68 14q24 13 37 40q15 28 21 80q5 53 5 146v70h79v-70q0 -79 -6 -138q-7 -59 -20 -101q33 -23 64 -32t71 -9z" />
    <glyph glyph-name="uniFD2B" unicode="&#xfd2b;" horiz-adv-x="1287" arabic-form="final" 
d="M1287 90q5 0 7 -3q3 -2 3 -7v-69q0 -5 -3 -8q-2 -3 -7 -3q-51 -1 -93 17q-43 18 -86 60q-52 -37 -123 -57q-72 -20 -159 -20h-120q-140 0 -212 60q-72 59 -72 182q0 25 3 51q2 25 6 52q-56 -12 -112 -27q-56 -16 -96 -31q8 -69 11 -129q4 -60 4 -132q-2 -119 -72 -180
q-69 -61 -181 -61v82q72 0 121 41q49 40 51 122q0 64 -4 127q-5 63 -16 150l63 65q63 18 127 32t120 22q6 33 14 69h78q-21 -90 -30 -149t-9 -96q0 -43 11 -74t36 -50q196 240 294 319t175 73q93 -2 151 -61t60 -152q0 -53 -17 -99q-16 -45 -48 -81q29 -20 59 -28
q29 -7 66 -7zM814 90q150 1 237 54q88 54 90 147q-1 60 -39 98t-98 39q-67 3 -148 -72t-232 -261q33 -5 75 -5h115z" />
    <glyph glyph-name="uniFD2C" unicode="&#xfd2c;" horiz-adv-x="1287" arabic-form="final" 
d="M761 551l-77 75l75 76l77 -76zM1287 90q5 0 7 -3q3 -2 3 -7v-69q0 -5 -3 -8q-2 -3 -7 -3q-51 -1 -93 17q-43 18 -86 60q-52 -37 -123 -57q-72 -20 -159 -20h-120q-140 0 -212 60q-72 59 -72 182q0 25 3 51q2 25 6 52q-56 -12 -112 -27q-56 -16 -96 -31q8 -69 11 -129
q4 -60 4 -132q-2 -119 -72 -180q-69 -61 -181 -61v82q72 0 121 41q49 40 51 122q0 64 -4 127q-5 63 -16 150l63 65q63 18 127 32t120 22q6 33 14 69h78q-21 -90 -30 -149t-9 -96q0 -43 11 -74t36 -50q196 240 294 319t175 73q93 -2 151 -61t60 -152q0 -53 -17 -99
q-16 -45 -48 -81q29 -20 59 -28q29 -7 66 -7zM814 90q150 1 237 54q88 54 90 147q-1 60 -39 98t-98 39q-67 3 -148 -72t-232 -261q33 -5 75 -5h115z" />
    <glyph glyph-name="uniFE82" unicode="&#x622;" horiz-adv-x="289" arabic-form="final" 
d="M58 754q33 -2 64 -18q30 -17 63 -19q16 0 39 7q23 6 41 19l-1 -66q-15 -11 -35 -18t-42 -7q-33 2 -60 19q-28 16 -57 18q-20 0 -33 -10t-16 -29h-55q0 44 24 73q24 30 68 31zM170 194q-1 -52 27 -78t92 -26q5 0 7 -3q3 -2 3 -7v-69q0 -5 -3 -8q-2 -3 -7 -3
q-103 1 -153 52q-51 50 -51 139v409h85v-406z" />
    <glyph glyph-name="uniFE84" unicode="&#x623;" horiz-adv-x="289" arabic-form="final" 
d="M237 655h-162q-17 0 -33 -2q-17 -3 -42 -10v58q23 8 38 11t33 3q-12 12 -18 27q-6 14 -6 30q1 40 27 65q26 24 67 25q21 0 40 -6q18 -6 36 -14v-58q-22 9 -36 12q-15 3 -27 3q-22 0 -36 -12q-14 -11 -14 -31q1 -18 14 -29q13 -12 33 -12h104zM289 90q5 0 7 -3q3 -2 3 -7
v-69q0 -5 -3 -8q-2 -3 -7 -3q-103 1 -153 52q-51 50 -51 139v409h85v-406q-1 -52 27 -78t92 -26z" />
    <glyph glyph-name="uniFE86" unicode="&#x624;" horiz-adv-x="531" arabic-form="final" 
d="M45 232q1 50 15.5 94t42.5 77t68.5 52t93.5 20q49 -1 84.5 -17.5t59.5 -45.5t37.5 -68t16.5 -84q1 -17 2 -35.5t2 -40.5t1.5 -45.5t1.5 -48.5h61q6 0 7 -3q3 -1 3 -7v-69q0 -5 -3 -8q-1 -3 -7 -3h-62q-7 -66 -41.5 -108t-84.5 -65.5t-108.5 -32.5t-114.5 -9v82
q36 0 78.5 5t81.5 19t68.5 40t38.5 69h-82q-56 1 -103.5 14.5t-82 42t-54 72t-20.5 103.5zM130 236q0 -41 14.5 -69t39.5 -45t58 -24.5t69 -7.5h78q-1 22 -2 43t-3 42q-4 41 -6 75q-2 27 -9 51.5t-21 43t-35.5 29.5t-52.5 11q-32 -1 -56 -13t-40 -32t-24.5 -47t-9.5 -57z
M130 622q15 6 29.5 10.5t30.5 6.5q-22 23 -22 55q0 47 30.5 70.5t74.5 25.5q16 0 37.5 -5.5t35.5 -13.5v-67q-17 6 -34 9.5t-34 3.5t-32.5 -8.5t-15.5 -28.5q0 -19 17 -28q16 -10 44 -10h92l-22 -73h-125q-24 0 -47 -3q-12 -2 -27 -5.5t-32 -8.5v70z" />
    <glyph glyph-name="uniFE88" unicode="&#x625;" horiz-adv-x="289" arabic-form="final" 
d="M289 90q5 0 7 -3q3 -2 3 -7v-69q0 -5 -3 -8q-2 -3 -7 -3q-103 1 -153 52q-51 50 -51 139v534h85v-531q-1 -52 27 -78t92 -26zM104 -154q1 -18 14 -29q13 -12 33 -12h105l-18 -60h-162q-17 0 -33 -2q-17 -3 -42 -10v58q23 8 38 11q14 3 32 3q-12 12 -18 27q-6 14 -6 30
q1 40 27 64t67 25q21 0 40 -5q18 -6 36 -14v-58q-22 8 -36 12q-15 3 -27 3q-22 0 -36 -12t-14 -31z" />
    <glyph glyph-name="uniFE8A" unicode="&#x626;" horiz-adv-x="679" arabic-form="final" 
d="M468 239q-24 0 -47 -3q-24 -4 -59 -14v70q20 7 34 12q14 4 26 5q-22 24 -22 55q0 41 28 68t77 28q15 0 34 -5q19 -4 39 -14v-67q-21 7 -37 10t-31 3q-21 0 -34 -10q-14 -10 -14 -27q0 -19 17 -28q16 -10 44 -10h92l-22 -73h-125zM679 90q5 0 7 -3q3 -2 3 -7v-69
q0 -5 -3 -8q-2 -3 -7 -3h-9q-46 -106 -134 -160q-88 -55 -213 -55q-134 0 -208 69q-74 68 -75 203q0 60 12 114t33 114h80q-21 -54 -33 -108t-12 -105q0 -102 56 -149q55 -48 166 -48q82 0 147 32q66 33 104 101q-23 4 -49 11q-27 6 -59 15v85q74 -17 114 -23t80 -6z" />
    <glyph glyph-name="uniFE8B" unicode="&#x626;" horiz-adv-x="333" arabic-form="initial" 
d="M330 612l-22 -73h-125q-24 0 -47 -3q-24 -4 -59 -14v70q20 7 34 12q14 4 26 5q-22 24 -22 55q0 41 28 68t77 28q15 0 34 -5q19 -4 39 -14v-67q-21 7 -37 10t-31 3q-21 0 -34 -10q-14 -10 -14 -27q0 -19 17 -28q16 -10 44 -10h92zM252 485q16 -109 23 -177t7 -117
q0 -89 -51 -139q-50 -51 -153 -52h-78q-5 0 -7 3q-3 3 -3 8v69q0 5 3 7q2 3 7 3h78q64 0 93 26t28 78q0 42 -7 107q-7 64 -25 184h85z" />
    <glyph glyph-name="uniFE8C" unicode="&#x626;" horiz-adv-x="370" arabic-form="medial" 
d="M175 441q-24 0 -47 -3q-24 -4 -59 -14v70q20 7 34 12q14 4 26 5q-22 24 -22 55q0 41 28 68t77 28q15 0 34 -5q19 -4 39 -14v-67q-21 7 -37 10t-31 3q-21 0 -34 -10q-14 -10 -14 -27q0 -19 17 -28q16 -10 44 -10h92l-22 -73h-125zM370 90q5 0 7 -3q3 -2 3 -7v-69
q0 -5 -3 -8q-2 -3 -7 -3q-48 0 -95 20q-46 19 -90 58q-28 -38 -74 -58t-111 -20q-5 0 -7 3q-3 3 -3 8v69q0 5 3 7q2 3 7 3q51 0 83 13q31 13 46 40q17 29 23 81q5 52 4 146h79q0 -75 -4 -131q-5 -56 -16 -95q35 -26 73 -40q39 -14 82 -14z" />
    <glyph glyph-name="uniFE8E" unicode="&#x627;" horiz-adv-x="289" arabic-form="final" 
d="M170 194q-1 -52 27 -78t92 -26q5 0 7 -3q3 -2 3 -7v-69q0 -5 -3 -8q-2 -3 -7 -3q-103 1 -153 52q-51 50 -51 139v534h85v-531z" />
    <glyph glyph-name="uniFE90" unicode="&#x628;" horiz-adv-x="837" arabic-form="final" 
d="M837 90q5 0 7 -3q3 -2 3 -7v-69q0 -5 -3 -8q-2 -3 -7 -3q-45 0 -83 13q-38 14 -76 46q-22 -26 -53 -41q-32 -15 -70 -17q-3 -1 -4 -1h-258q-120 0 -186 59t-67 170q0 35 8 90q7 54 22 121h80q-13 -62 -19 -107q-6 -46 -6 -83q-1 -83 42 -122q43 -38 145 -38h225
q74 0 101 54q14 28 20 80q6 53 6 146h78q0 -83 -7 -144t-21 -103q29 -18 58 -26q29 -7 65 -7zM423 -73l77 -75l-75 -76l-77 76z" />
    <glyph glyph-name="uniFE91" unicode="&#x628;" horiz-adv-x="259" arabic-form="initial" 
d="M174 485q16 -109 23 -177t7 -117q0 -89 -51 -139q-50 -51 -153 -52q-5 0 -7 3q-3 3 -3 8v69q0 5 3 7q2 3 7 3q65 0 94 26t28 78q0 42 -7 107q-8 64 -26 184h85zM175 -153l-75 -76l-77 76l75 75z" />
    <glyph glyph-name="uniFE92" unicode="&#x628;" horiz-adv-x="300" arabic-form="medial" 
d="M300 90q5 0 7 -3q3 -2 3 -7v-69q0 -5 -3 -8q-2 -3 -7 -3q-45 0 -83 13q-38 14 -76 46q-24 -29 -60 -44t-81 -15q-5 0 -7 3q-3 3 -3 8v69q0 5 3 7q2 3 7 3q74 0 101 54q14 28 20 80q6 53 6 146h78q0 -83 -7 -144t-21 -103q29 -18 58 -26q29 -7 65 -7zM143 -79l77 -75
l-75 -76l-77 76z" />
    <glyph glyph-name="uniFE94" unicode="&#x629;" horiz-adv-x="536" arabic-form="final" 
d="M107 359q70 83 255 115v64h85v-357q-1 -43 19 -68q20 -23 70 -23q6 0 7 -3q3 -1 3 -7v-69q0 -5 -3 -8q-1 -3 -7 -3q-38 0 -71.5 10.5t-59.5 39.5q-39 -22 -78.5 -36t-84.5 -14q-89 2 -144.5 51.5t-57.5 140.5q-3 82 67 167zM125 199q2 -56 33.5 -81.5t85.5 -27.5
q66 0 127 26q-9 33 -9 73v204q-40 -6 -82 -19.5t-76 -36.5t-56 -57t-23 -81zM282 762l76 -74l75 74l76 -76l-76 -75l-75 73l-75 -73l-76 75z" />
    <glyph glyph-name="uniFE96" unicode="&#x62a;" horiz-adv-x="837" arabic-form="final" 
d="M372 453l-76 75l75 76l76 -74l75 74l76 -76l-76 -75l-75 73zM837 90q5 0 7 -3q3 -2 3 -7v-69q0 -5 -3 -8q-2 -3 -7 -3q-45 0 -83 13q-38 14 -76 46q-22 -26 -53 -41q-32 -15 -70 -17q-3 -1 -4 -1h-258q-120 0 -186 59t-67 170q0 35 8 90q7 54 22 121h80q-13 -62 -19 -107
q-6 -46 -6 -83q-1 -83 42 -122q43 -38 145 -38h225q74 0 101 54q14 28 20 80q6 53 6 146h78q0 -83 -7 -144t-21 -103q29 -18 58 -26q29 -7 65 -7z" />
    <glyph glyph-name="uniFE97" unicode="&#x62a;" horiz-adv-x="373" arabic-form="initial" 
d="M122 562l-76 75l75 76l76 -74l75 74l76 -76l-76 -75l-75 73zM252 485q16 -109 23 -177t7 -117q0 -89 -51 -139q-50 -51 -153 -52h-78q-5 0 -7 3q-3 3 -3 8v69q0 5 3 7q2 3 7 3h78q64 0 93 26t28 78q0 42 -7 107q-7 64 -25 184h85z" />
    <glyph glyph-name="uniFE98" unicode="&#x62a;" horiz-adv-x="370" arabic-form="medial" 
d="M119 452l-76 75l75 76l76 -74l75 74l76 -76l-76 -75l-75 73zM370 90q5 0 7 -3q3 -2 3 -7v-69q0 -5 -3 -8q-2 -3 -7 -3q-48 0 -95 20q-46 19 -90 58q-28 -38 -74 -58t-111 -20q-5 0 -7 3q-3 3 -3 8v69q0 5 3 7q2 3 7 3q51 0 83 13q31 13 46 40q17 29 23 81q5 52 4 146h79
q0 -75 -4 -131q-5 -56 -16 -95q35 -26 73 -40q39 -14 82 -14z" />
    <glyph glyph-name="uniFE9A" unicode="&#x62b;" horiz-adv-x="837" arabic-form="final" 
d="M440 589l-61 60l60 61l61 -61zM357 453l-76 75l75 77l77 -77zM444 528l77 77l76 -77l-76 -75zM837 90q5 0 7 -3q3 -2 3 -7v-69q0 -5 -3 -8q-2 -3 -7 -3q-45 0 -83 13q-38 14 -76 46q-22 -26 -53 -41q-32 -15 -70 -17q-3 -1 -4 -1h-258q-120 0 -186 59t-67 170q0 35 8 90
q7 54 22 121h80q-13 -62 -19 -107q-6 -46 -6 -83q-1 -83 42 -122q43 -38 145 -38h225q74 0 101 54q14 28 20 80q6 53 6 146h78q0 -83 -7 -144t-21 -103q29 -18 58 -26q29 -7 65 -7z" />
    <glyph glyph-name="uniFE9B" unicode="&#x62b;" horiz-adv-x="380" arabic-form="initial" 
d="M258 759l-60 -60l-61 60l60 61zM191 638l-76 -75l-76 75l75 77zM355 638l-76 -75l-77 75l77 77zM252 485q16 -109 23 -177t7 -117q0 -89 -51 -139q-50 -51 -153 -52h-78q-5 0 -7 3q-3 3 -3 8v69q0 5 3 7q2 3 7 3h78q64 0 93 26t28 78q0 42 -7 107q-7 64 -25 184h85z" />
    <glyph glyph-name="uniFE9C" unicode="&#x62b;" horiz-adv-x="370" arabic-form="medial" 
d="M192 588l-61 60l60 61l61 -61zM109 452l-76 75l75 77l77 -77zM196 527l77 77l76 -77l-76 -75zM370 90q5 0 7 -3q3 -2 3 -7v-69q0 -5 -3 -8q-2 -3 -7 -3q-48 0 -95 20q-46 19 -90 58q-28 -38 -74 -58t-111 -20q-5 0 -7 3q-3 3 -3 8v69q0 5 3 7q2 3 7 3q51 0 83 13
q31 13 46 40q17 29 23 81q5 52 4 146h79q0 -75 -4 -131q-5 -56 -16 -95q35 -26 73 -40q39 -14 82 -14z" />
    <glyph glyph-name="uniFE9E" unicode="&#x62c;" horiz-adv-x="651" arabic-form="final" 
d="M651 90q5 0 7 -3q3 -2 3 -7v-69q0 -5 -3 -8q-2 -3 -7 -3q-88 0 -136 38t-49 116v59q-143 -24 -239 -90q-97 -66 -101 -159q1 -74 54 -111q54 -38 149 -38q51 0 105 8q54 9 123 29v-80q-74 -25 -127 -36q-54 -11 -106 -11q-135 0 -209 59q-74 58 -75 172q2 128 115 215
q114 87 316 112q-92 58 -153 110q-61 51 -128 55q-29 0 -58 -6q-30 -7 -62 -18v80q24 15 58 24q35 10 67 10q96 -8 184 -88q87 -81 228 -143l-23 -85q-14 0 -27 -1q-14 0 -28 -1v-52q0 -40 32 -59t90 -19zM282 6l75 75l77 -75l-75 -76z" />
    <glyph glyph-name="uniFE9F" unicode="&#x62c;" horiz-adv-x="609" arabic-form="initial" 
d="M189 475q96 -6 175 -78q80 -71 220 -131l-23 -85q-163 -41 -249 -108q-85 -66 -311 -73q-5 0 -8 3t-3 8v69q0 5 3 7q3 3 8 3q180 4 274 51t194 88q-98 55 -157 104t-128 52q-29 0 -58 -6q-30 -7 -62 -18v80q24 15 58 24q35 10 67 10zM256 -76l77 -75l-75 -76l-77 76z" />
    <glyph glyph-name="uniFEA0" unicode="&#x62c;" horiz-adv-x="631" arabic-form="medial" 
d="M631 90q5 0 7 -3q3 -2 3 -7v-69q0 -5 -3 -8q-2 -3 -7 -3q-89 1 -132 41q-43 39 -46 109q-96 -47 -179 -97q-82 -49 -273 -53q-5 0 -8 3t-3 8v69q0 5 3 7q3 3 8 3q180 4 274 51t194 88q-98 55 -157 104t-128 52q-29 0 -58 -6q-30 -7 -62 -18v80q24 15 58 24q35 10 67 10
q96 -6 175 -78q80 -71 220 -131l-23 -85q-12 -2 -24 -5l-22 -6q-1 -36 25 -58q26 -21 91 -22zM256 -76l77 -75l-75 -76l-77 76z" />
    <glyph glyph-name="uniFEA2" unicode="&#x62d;" horiz-adv-x="651" arabic-form="final" 
d="M651 90q5 0 7 -3q3 -2 3 -7v-69q0 -5 -3 -8q-2 -3 -7 -3q-88 0 -136 38t-49 116v59q-143 -24 -239 -90q-97 -66 -101 -159q1 -74 54 -111q54 -38 149 -38q51 0 105 8q54 9 123 29v-80q-74 -25 -127 -36q-54 -11 -106 -11q-135 0 -209 59q-74 58 -75 172q2 128 115 215
q114 87 316 112q-92 58 -153 110q-61 51 -128 55q-29 0 -58 -6q-30 -7 -62 -18v80q24 15 58 24q35 10 67 10q96 -8 184 -88q87 -81 228 -143l-23 -85q-14 0 -27 -1q-14 0 -28 -1v-52q0 -40 32 -59t90 -19z" />
    <glyph glyph-name="uniFEA3" unicode="&#x62d;" horiz-adv-x="609" arabic-form="initial" 
d="M189 475q96 -6 175 -78q80 -71 220 -131l-23 -85q-163 -41 -249 -108q-85 -66 -311 -73q-5 0 -8 3t-3 8v69q0 5 3 7q3 3 8 3q180 4 274 51t194 88q-98 55 -157 104t-128 52q-29 0 -58 -6q-30 -7 -62 -18v80q24 15 58 24q35 10 67 10z" />
    <glyph glyph-name="uniFEA4" unicode="&#x62d;" horiz-adv-x="631" arabic-form="medial" 
d="M631 90q5 0 7 -3q3 -2 3 -7v-69q0 -5 -3 -8q-2 -3 -7 -3q-89 1 -132 41q-43 39 -46 109q-96 -47 -179 -97q-82 -49 -273 -53q-5 0 -8 3t-3 8v69q0 5 3 7q3 3 8 3q180 4 274 51t194 88q-98 55 -157 104t-128 52q-29 0 -58 -6q-30 -7 -62 -18v80q24 15 58 24q35 10 67 10
q96 -6 175 -78q80 -71 220 -131l-23 -85q-12 -2 -24 -5l-22 -6q-1 -36 25 -58q26 -21 91 -22z" />
    <glyph glyph-name="uniFEA6" unicode="&#x62e;" horiz-adv-x="651" arabic-form="final" 
d="M426 551l-77 75l75 76l77 -76zM651 90q5 0 7 -3q3 -2 3 -7v-69q0 -5 -3 -8q-2 -3 -7 -3q-88 0 -136 38t-49 116v59q-143 -24 -239 -90q-97 -66 -101 -159q1 -74 54 -111q54 -38 149 -38q51 0 105 8q54 9 123 29v-80q-74 -25 -127 -36q-54 -11 -106 -11q-135 0 -209 59
q-74 58 -75 172q2 128 115 215q114 87 316 112q-92 58 -153 110q-61 51 -128 55q-29 0 -58 -6q-30 -7 -62 -18v80q24 15 58 24q35 10 67 10q96 -8 184 -88q87 -81 228 -143l-23 -85q-14 0 -27 -1q-14 0 -28 -1v-52q0 -40 32 -59t90 -19z" />
    <glyph glyph-name="uniFEA7" unicode="&#x62e;" horiz-adv-x="609" arabic-form="initial" 
d="M232 559l-77 75l75 76l77 -76zM189 475q96 -6 175 -78q80 -71 220 -131l-23 -85q-163 -41 -249 -108q-85 -66 -311 -73q-5 0 -8 3t-3 8v69q0 5 3 7q3 3 8 3q180 4 274 51t194 88q-98 55 -157 104t-128 52q-29 0 -58 -6q-30 -7 -62 -18v80q24 15 58 24q35 10 67 10z" />
    <glyph glyph-name="uniFEA8" unicode="&#x62e;" horiz-adv-x="631" arabic-form="medial" 
d="M232 559l-77 75l75 76l77 -76zM631 90q5 0 7 -3q3 -2 3 -7v-69q0 -5 -3 -8q-2 -3 -7 -3q-89 1 -132 41q-43 39 -46 109q-96 -47 -179 -97q-82 -49 -273 -53q-5 0 -8 3t-3 8v69q0 5 3 7q3 3 8 3q180 4 274 51t194 88q-98 55 -157 104t-128 52q-29 0 -58 -6q-30 -7 -62 -18
v80q24 15 58 24q35 10 67 10q96 -6 175 -78q80 -71 220 -131l-23 -85q-12 -2 -24 -5l-22 -6q-1 -36 25 -58q26 -21 91 -22z" />
    <glyph glyph-name="uniFEAA" unicode="&#x62f;" horiz-adv-x="518" arabic-form="final" 
d="M518 90q5 0 7 -3q3 -2 3 -7v-69q0 -5 -3 -8q-2 -3 -7 -3q-77 0 -128 52q-44 -26 -92 -39t-102 -13q-49 0 -86 7t-95 27v85q60 -18 101 -23q40 -6 80 -6q42 0 79 5q38 6 72 16q-14 29 -26 63q-19 58 -38 140q-20 82 -36 171h90q13 -81 29 -161q17 -81 35 -138
q17 -50 45 -73t72 -23z" />
    <glyph glyph-name="uniFEAC" unicode="&#x630;" horiz-adv-x="518" arabic-form="final" 
d="M289 557l-77 75l75 76l77 -76zM518 90q5 0 7 -3q3 -2 3 -7v-69q0 -5 -3 -8q-2 -3 -7 -3q-77 0 -128 52q-44 -26 -92 -39t-102 -13q-49 0 -86 7t-95 27v85q60 -18 101 -23q40 -6 80 -6q42 0 79 5q38 6 72 16q-14 29 -26 63q-19 58 -38 140q-20 82 -36 171h90
q13 -81 29 -161q17 -81 35 -138q17 -50 45 -73t72 -23z" />
    <glyph glyph-name="uniFEAE" unicode="&#x631;" horiz-adv-x="341" arabic-form="final" 
d="M340 90q5 0 7 -3q3 -2 3 -7v-69q0 -5 -3 -8q-2 -3 -7 -3q-35 0 -60 11q-26 12 -42 34v-19q-2 -119 -70 -180t-183 -61v82q76 0 123 41q48 40 49 122q0 81 -10 184q-10 104 -27 226h85q8 -52 15 -115q6 -63 11 -128l3 -22q8 -55 37 -71q30 -16 69 -14z" />
    <glyph glyph-name="uniFEB0" unicode="&#x632;" horiz-adv-x="341" arabic-form="final" 
d="M155 518l-77 75l75 76l77 -76zM340 90q5 0 7 -3q3 -2 3 -7v-69q0 -5 -3 -8q-2 -3 -7 -3q-35 0 -60 11q-26 12 -42 34v-19q-2 -119 -70 -180t-183 -61v82q76 0 123 41q48 40 49 122q0 81 -10 184q-10 104 -27 226h85q8 -52 15 -115q6 -63 11 -128l3 -22q8 -55 37 -71
q30 -16 69 -14z" />
    <glyph glyph-name="uniFEB2" unicode="&#x633;" horiz-adv-x="1320" arabic-form="final" 
d="M40 57q0 60 12.5 116t32.5 112h80q-20 -51 -32.5 -104.5t-12.5 -108.5q0 -89 41 -142.5t135 -54.5q56 0 93 15.5t60 45t32.5 71t9.5 92.5q0 31 -2.5 66t-7.5 75t-12.5 90l-16.5 110h85q7 -46 13 -88t11 -82t7.5 -77t3.5 -72q29 -14 62.5 -22.5t65.5 -8.5q34 0 56.5 9
t36.5 26t21.5 42t11.5 57q2 26 3.5 62.5t1.5 83.5h79q0 -28 -1 -61t-4 -67t-9 -66t-16 -58q27 -13 58.5 -20.5t61.5 -7.5q34 0 56.5 9t36.5 26t21.5 42t11.5 57q2 26 3.5 62.5t1.5 83.5v70h79v-70q0 -27 -1 -57.5t-3.5 -62t-7.5 -61.5t-13 -56q35 -24 65 -33.5t72 -9.5
q6 0 7 -3q3 -1 3 -7v-69q0 -5 -3 -8q-1 -3 -7 -3q-52 0 -91.5 16.5t-77.5 50.5q-26 -35 -65.5 -51t-82.5 -16q-44 0 -85 15.5t-79 37.5q-28 -28 -62.5 -40.5t-73.5 -12.5q-36 0 -70.5 10.5t-66.5 27.5q-14 -122 -85 -186.5t-195 -66.5q-64 1 -110.5 20.5t-77 55t-45 85.5
t-15.5 111z" />
    <glyph glyph-name="uniFEB3" unicode="&#x633;" horiz-adv-x="863" arabic-form="initial" 
d="M-10 11v69q0 6 3 7q1 3 7 3q30 0 50 11t33 29.5t19.5 42.5t9.5 51q2 26 3.5 62.5t1.5 83.5h79q0 -28 -1 -60.5t-4 -65.5t-8.5 -64.5t-15.5 -58.5q29 -14 62 -22.5t65 -8.5q34 0 56.5 9t36.5 26t21.5 42t11.5 57q2 26 3.5 62.5t1.5 83.5h79q0 -28 -1 -60.5t-4 -65.5
t-8.5 -64.5t-15.5 -58.5q32 -15 63 -23t66 -8q121 0 121 102q0 38 -6 101q-4 32 -10 79.5t-16 112.5h85q11 -73 20.5 -147.5t9.5 -148.5q-2 -90 -54 -138.5t-140 -50.5q-48 0 -91 16.5t-84 40.5q-28 -29 -64 -43t-76 -14q-46 0 -88 17t-81 40q-26 -28 -59 -42.5t-71 -14.5
q-6 0 -7 3q-3 3 -3 8z" />
    <glyph glyph-name="uniFEB4" unicode="&#x633;" horiz-adv-x="913" arabic-form="medial" 
d="M-10 11v69q0 6 3 7q1 3 7 3q30 0 50 11t33 29.5t19.5 42.5t9.5 51q2 26 3.5 62.5t1.5 83.5h79q0 -28 -1 -60.5t-4 -65.5t-8.5 -64.5t-15.5 -58.5q29 -14 62 -22.5t65 -8.5q34 0 56.5 9t36.5 26t21.5 42t11.5 57q2 26 3.5 62.5t1.5 83.5h79q0 -28 -1 -61t-4 -67t-9 -66
t-16 -58q27 -13 58.5 -20.5t61.5 -7.5q34 0 56.5 9t36.5 26t21.5 42t11.5 57q2 26 3.5 62.5t1.5 83.5v70h79v-70q0 -60 -4 -121t-22 -118q34 -23 64 -32t71 -9q6 0 7 -3q3 -1 3 -7v-69q0 -5 -3 -8q-1 -3 -7 -3q-51 0 -90 16t-77 50q-28 -35 -65.5 -50.5t-81.5 -15.5
t-85 15.5t-79 37.5q-28 -28 -62.5 -40.5t-73.5 -12.5q-46 0 -88 17t-81 40q-26 -28 -59 -42.5t-71 -14.5q-6 0 -7 3q-3 3 -3 8z" />
    <glyph glyph-name="uniFEB6" unicode="&#x634;" horiz-adv-x="1320" arabic-form="final" 
d="M40 57q0 60 12.5 116t32.5 112h80q-20 -51 -32.5 -104.5t-12.5 -108.5q0 -89 41 -142.5t135 -54.5q56 0 93 15.5t60 45t32.5 71t9.5 92.5q0 31 -2.5 66t-7.5 75t-12.5 90l-16.5 110h85q7 -46 13 -88t11 -82t7.5 -77t3.5 -72q29 -14 62.5 -22.5t65.5 -8.5q34 0 56.5 9
t36.5 26t21.5 42t11.5 57q2 26 3.5 62.5t1.5 83.5h79q0 -28 -1 -61t-4 -67t-9 -66t-16 -58q27 -13 58.5 -20.5t61.5 -7.5q34 0 56.5 9t36.5 26t21.5 42t11.5 57q2 26 3.5 62.5t1.5 83.5v70h79v-70q0 -27 -1 -57.5t-3.5 -62t-7.5 -61.5t-13 -56q35 -24 65 -33.5t72 -9.5
q6 0 7 -3q3 -1 3 -7v-69q0 -5 -3 -8q-1 -3 -7 -3q-52 0 -91.5 16.5t-77.5 50.5q-26 -35 -65.5 -51t-82.5 -16q-44 0 -85 15.5t-79 37.5q-28 -28 -62.5 -40.5t-73.5 -12.5q-36 0 -70.5 10.5t-66.5 27.5q-14 -122 -85 -186.5t-195 -66.5q-64 1 -110.5 20.5t-77 55t-45 85.5
t-15.5 111zM947 627l76 -77l-76 -75l-77 75zM782 627l77 -77l-76 -75l-76 75zM805 671l60 61l61 -61l-60 -60z" />
    <glyph glyph-name="uniFEB7" unicode="&#x634;" horiz-adv-x="863" arabic-form="initial" 
d="M-10 11v69q0 6 3 7q1 3 7 3q30 0 50 11t33 29.5t19.5 42.5t9.5 51q2 26 3.5 62.5t1.5 83.5h79q0 -28 -1 -60.5t-4 -65.5t-8.5 -64.5t-15.5 -58.5q29 -14 62 -22.5t65 -8.5q34 0 56.5 9t36.5 26t21.5 42t11.5 57q2 26 3.5 62.5t1.5 83.5h79q0 -28 -1 -60.5t-4 -65.5
t-8.5 -64.5t-15.5 -58.5q32 -15 63 -23t66 -8q121 0 121 102q0 38 -6 101q-4 32 -10 79.5t-16 112.5h85q11 -73 20.5 -147.5t9.5 -148.5q-2 -90 -54 -138.5t-140 -50.5q-48 0 -91 16.5t-84 40.5q-28 -29 -64 -43t-76 -14q-46 0 -88 17t-81 40q-26 -28 -59 -42.5t-71 -14.5
q-6 0 -7 3q-3 3 -3 8zM547 625l76 -77l-76 -75l-77 75zM307 548l75 77l77 -77l-76 -75zM405 669l60 61l61 -61l-60 -60z" />
    <glyph glyph-name="uniFEB8" unicode="&#x634;" horiz-adv-x="913" arabic-form="medial" 
d="M-10 11v69q0 6 3 7q1 3 7 3q30 0 50 11t33 29.5t19.5 42.5t9.5 51q2 26 3.5 62.5t1.5 83.5h79q0 -28 -1 -60.5t-4 -65.5t-8.5 -64.5t-15.5 -58.5q29 -14 62 -22.5t65 -8.5q34 0 56.5 9t36.5 26t21.5 42t11.5 57q2 26 3.5 62.5t1.5 83.5h79q0 -28 -1 -61t-4 -67t-9 -66
t-16 -58q27 -13 58.5 -20.5t61.5 -7.5q34 0 56.5 9t36.5 26t21.5 42t11.5 57q2 26 3.5 62.5t1.5 83.5v70h79v-70q0 -60 -4 -121t-22 -118q34 -23 64 -32t71 -9q6 0 7 -3q3 -1 3 -7v-69q0 -5 -3 -8q-1 -3 -7 -3q-51 0 -90 16t-77 50q-28 -35 -65.5 -50.5t-81.5 -15.5
t-85 15.5t-79 37.5q-28 -28 -62.5 -40.5t-73.5 -12.5q-46 0 -88 17t-81 40q-26 -28 -59 -42.5t-71 -14.5q-6 0 -7 3q-3 3 -3 8zM541 625l76 -77l-76 -75l-77 75zM376 625l77 -77l-76 -75l-76 75zM459 730l61 -61l-60 -60l-61 60z" />
    <glyph glyph-name="uniFEBA" unicode="&#x635;" horiz-adv-x="1271" arabic-form="final" 
d="M1271 90q5 0 7 -3q3 -2 3 -7v-69q0 -5 -3 -8q-2 -3 -7 -3q-52 0 -94 18q-43 18 -87 61q-53 -38 -125 -58q-72 -21 -159 -21q-59 1 -123 9q-64 9 -116 19q-15 -110 -84 -175q-69 -66 -195 -68q-119 1 -183 71t-65 201q0 60 12 114t33 114h80q-21 -54 -33 -108t-12 -105
q0 -92 42 -144q43 -52 134 -53q100 0 148 54q47 55 47 170q0 61 -10 141q-11 80 -29 200h85q9 -59 16 -112q7 -54 12 -103q144 159 243 227q100 68 189 66q92 -2 151 -61q58 -59 60 -152q0 -52 -17 -96q-17 -45 -49 -82q32 -21 62 -29t67 -8zM794 90q150 2 238 56
q88 55 90 145q-1 60 -39 98t-98 39q-85 0 -180 -74q-94 -74 -234 -220q1 -7 1 -13v-13q49 -8 108 -13q60 -5 114 -5z" />
    <glyph glyph-name="uniFEBB" unicode="&#x635;" horiz-adv-x="997" arabic-form="initial" 
d="M741 513q93 -2 151 -61t60 -152q-2 -137 -110 -217q-107 -81 -291 -83q-127 2 -226 29t-156 54q-31 -39 -75 -61q-45 -22 -94 -22q-5 0 -7 3q-3 3 -3 8v69q0 5 3 7q2 3 7 3q53 0 84 20t45 66q8 25 17 73q8 47 13 121h77q-7 -74 -14 -123q-8 -50 -18 -91v-1q26 -9 57 -20
q196 236 298 310q102 75 182 68zM539 90q150 1 237 54q88 52 90 142q-1 60 -39 98t-98 39q-67 3 -151 -65q-85 -69 -233 -246q44 -10 93 -16q48 -6 101 -6z" />
    <glyph glyph-name="uniFEBC" unicode="&#x635;" horiz-adv-x="1016" arabic-form="medial" 
d="M1016 90q5 0 7 -3q3 -2 3 -7v-69q0 -5 -3 -8q-2 -3 -7 -3q-51 -1 -94 17q-42 18 -86 61q-53 -38 -125 -58t-160 -20q-127 2 -226 29t-156 54q-31 -39 -75 -61q-45 -22 -94 -22q-5 0 -7 3q-3 3 -3 8v69q0 5 3 7q2 3 7 3q53 0 84 20t45 66q8 25 17 73q8 47 13 121h77
q-7 -74 -14 -123q-8 -50 -18 -91v-1q26 -9 57 -20q196 236 298 310q102 75 182 68q93 -2 151 -61t60 -152q0 -51 -16 -95t-47 -79q30 -20 60 -28q29 -8 67 -8zM539 90q150 1 237 54q88 52 90 142q-1 60 -39 98t-98 39q-67 3 -151 -65q-85 -69 -233 -246q44 -10 93 -16
q48 -6 101 -6z" />
    <glyph glyph-name="uniFEBE" unicode="&#x636;" horiz-adv-x="1271" arabic-form="final" 
d="M770 557l-77 75l75 76l77 -76zM1271 90q5 0 7 -3q3 -2 3 -7v-69q0 -5 -3 -8q-2 -3 -7 -3q-52 0 -94 18q-43 18 -87 61q-53 -38 -125 -58q-72 -21 -159 -21q-59 1 -123 9q-64 9 -116 19q-15 -110 -84 -175q-69 -66 -195 -68q-119 1 -183 71t-65 201q0 60 12 114t33 114h80
q-21 -54 -33 -108t-12 -105q0 -92 42 -144q43 -52 134 -53q100 0 148 54q47 55 47 170q0 61 -10 141q-11 80 -29 200h85q9 -59 16 -112q7 -54 12 -103q144 159 243 227q100 68 189 66q92 -2 151 -61q58 -59 60 -152q0 -52 -17 -96q-17 -45 -49 -82q32 -21 62 -29t67 -8z
M794 90q150 2 238 56q88 55 90 145q-1 60 -39 98t-98 39q-85 0 -180 -74q-94 -74 -234 -220q1 -7 1 -13v-13q49 -8 108 -13q60 -5 114 -5z" />
    <glyph glyph-name="uniFEBF" unicode="&#x636;" horiz-adv-x="997" arabic-form="initial" 
d="M471 553l-77 75l75 76l77 -76zM741 513q93 -2 151 -61t60 -152q-2 -137 -110 -217q-107 -81 -291 -83q-127 2 -226 29t-156 54q-31 -39 -75 -61q-45 -22 -94 -22q-5 0 -7 3q-3 3 -3 8v69q0 5 3 7q2 3 7 3q53 0 84 20t45 66q8 25 17 73q8 47 13 121h77q-7 -74 -14 -123
q-8 -50 -18 -91v-1q26 -9 57 -20q196 236 298 310q102 75 182 68zM539 90q150 1 237 54q88 52 90 142q-1 60 -39 98t-98 39q-67 3 -151 -65q-85 -69 -233 -246q44 -10 93 -16q48 -6 101 -6z" />
    <glyph glyph-name="uniFEC0" unicode="&#x636;" horiz-adv-x="1016" arabic-form="medial" 
d="M471 553l-77 75l75 76l77 -76zM1016 90q5 0 7 -3q3 -2 3 -7v-69q0 -5 -3 -8q-2 -3 -7 -3q-51 -1 -94 17q-42 18 -86 61q-53 -38 -125 -58t-160 -20q-127 2 -226 29t-156 54q-31 -39 -75 -61q-45 -22 -94 -22q-5 0 -7 3q-3 3 -3 8v69q0 5 3 7q2 3 7 3q53 0 84 20t45 66
q8 25 17 73q8 47 13 121h77q-7 -74 -14 -123q-8 -50 -18 -91v-1q26 -9 57 -20q196 236 298 310q102 75 182 68q93 -2 151 -61t60 -152q0 -51 -16 -95t-47 -79q30 -20 60 -28q29 -8 67 -8zM539 90q150 1 237 54q88 52 90 142q-1 60 -39 98t-98 39q-67 3 -151 -65
q-85 -69 -233 -246q44 -10 93 -16q48 -6 101 -6z" />
    <glyph glyph-name="uniFEC2" unicode="&#x637;" horiz-adv-x="880" arabic-form="final" 
d="M880 90q5 0 7 -3q3 -2 3 -7v-69q0 -5 -3 -8q-2 -3 -7 -3q-51 -1 -93 17q-43 18 -86 60q-53 -37 -124 -57t-157 -20q-114 0 -219 11q-105 12 -186 32v85l52 -10q27 -5 54 -9l32 38q15 18 30 35v543h85v-285q0 -39 -6 -87q-6 -47 -14 -97q134 152 214 209q80 56 151 53
q91 -2 149 -61t60 -152q0 -53 -17 -98q-18 -45 -50 -82q29 -20 59 -28q29 -7 66 -7zM408 90q150 2 238 56q88 55 90 145q-1 60 -39 98t-96 39q-66 2 -151 -74t-240 -255q48 -4 98 -7q50 -2 100 -2z" />
    <glyph glyph-name="uniFEC3" unicode="&#x637;" horiz-adv-x="792" arabic-form="initial" 
d="M-10 80q0 6 3 7q1 3 7 3h46q17 23 34 43.5t33 40.5v551h85v-285q0 -48 -6.5 -95t-14.5 -94q67 79 120 132.5t93 81.5q35 24 70.5 38.5t78.5 14.5q47 -1 85 -17t65 -44.5t42 -67t16 -84.5q-1 -82 -37 -140t-93.5 -94.5t-129 -53t-142.5 -17.5h-345q-6 0 -7 3q-3 3 -3 8v69
zM135 90h198q47 0 103.5 9t106 31.5t83.5 61.5t35 99q-2 61 -38.5 99t-98.5 38q-66 0 -150 -78q-43 -40 -102.5 -104.5t-136.5 -155.5z" />
    <glyph glyph-name="uniFEC4" unicode="&#x637;" horiz-adv-x="806" arabic-form="medial" 
d="M-10 80q0 6 3 7q1 3 7 3h46q17 23 34 43.5t33 40.5v551h85v-285q0 -48 -6.5 -95t-14.5 -94q67 79 120 132.5t93 81.5q35 24 70.5 38.5t78.5 14.5q47 -1 85 -17t65 -44.5t42 -67t16 -84.5q0 -52 -17 -96t-50 -84q32 -21 60 -28t66 -7q6 0 7 -3q3 -1 3 -7v-69q0 -5 -3 -8
q-1 -3 -7 -3q-57 0 -98 19t-82 58q-61 -44 -134.5 -60.5t-146.5 -16.5h-345q-6 0 -7 3q-3 3 -3 8v69zM135 90h198q47 0 103.5 9t106 31.5t83.5 61.5t35 99q-2 61 -38.5 99t-98.5 38q-66 0 -150 -78q-43 -40 -102.5 -104.5t-136.5 -155.5z" />
    <glyph glyph-name="uniFEC6" unicode="&#x638;" horiz-adv-x="880" arabic-form="final" 
d="M880 90q5 0 7 -3q3 -2 3 -7v-69q0 -5 -3 -8q-2 -3 -7 -3q-51 -1 -93 17q-43 18 -86 60q-53 -37 -124 -57t-157 -20q-114 0 -219 11q-105 12 -186 32v85l52 -10q27 -5 54 -9l32 38q15 18 30 35v543h85v-285q0 -39 -6 -87q-6 -47 -14 -97q134 152 214 209q80 56 151 53
q91 -2 149 -61t60 -152q0 -53 -17 -98q-18 -45 -50 -82q29 -20 59 -28q29 -7 66 -7zM437 557l-77 75l75 76l77 -76zM408 90q150 2 238 56q88 55 90 145q-1 60 -39 98t-96 39q-66 2 -151 -74t-240 -255q48 -4 98 -7q50 -2 100 -2z" />
    <glyph glyph-name="uniFEC7" unicode="&#x638;" horiz-adv-x="792" arabic-form="initial" 
d="M-7 87q1 3 7 3h46q17 23 34 43.5t33 40.5v551h85v-285q0 -48 -6.5 -95t-14.5 -94q67 79 120 132.5t93 81.5q35 24 70.5 38.5t78.5 14.5q47 -1 85 -17t65 -44.5t42 -67t16 -84.5q-1 -82 -37 -140t-93.5 -94.5t-129 -53t-142.5 -17.5h-345q-6 0 -7 3q-3 3 -3 8v69q0 6 3 7z
M135 90h198q47 0 103.5 9t106 31.5t83.5 61.5t35 99q-2 61 -38.5 99t-98.5 38q-66 0 -150 -78q-43 -40 -102.5 -104.5t-136.5 -155.5zM361 708l77 -76l-75 -75l-77 75z" />
    <glyph glyph-name="uniFEC8" unicode="&#x638;" horiz-adv-x="806" arabic-form="medial" 
d="M-10 11v69q0 6 3 7q1 3 7 3h46q17 23 34 43.5t33 40.5v551h85v-285q0 -48 -6.5 -95t-14.5 -94q67 79 120 132.5t93 81.5q35 24 70.5 38.5t78.5 14.5q47 -1 85 -17t65 -44.5t42 -67t16 -84.5q0 -52 -17 -96t-50 -84q32 -21 60 -28t66 -7q6 0 7 -3q3 -1 3 -7v-69
q0 -5 -3 -8q-1 -3 -7 -3q-57 0 -98 19t-82 58q-61 -44 -134.5 -60.5t-146.5 -16.5h-345q-6 0 -7 3q-3 3 -3 8zM135 90h198q47 0 103.5 9t106 31.5t83.5 61.5t35 99q-2 61 -38.5 99t-98.5 38q-66 0 -150 -78q-43 -40 -102.5 -104.5t-136.5 -155.5zM286 632l75 76l77 -76
l-75 -75z" />
    <glyph glyph-name="uniFECA" unicode="&#x639;" horiz-adv-x="596" arabic-form="final" 
d="M596 90q5 0 8 -3q2 -2 2 -7v-69q0 -5 -3 -8q-2 -3 -7 -3q-89 1 -159 28t-132 74q-77 -43 -122 -86q-45 -42 -46 -92q0 -52 53 -80q52 -29 151 -29q52 0 105 8q53 9 122 29v-80q-73 -25 -127 -36q-53 -11 -105 -11q-141 1 -212 50q-72 49 -72 141q2 70 51 127
q50 56 129 103q-45 78 -83 130q-39 52 -80 94q-8 -4 -17 -8t-17 -9v80q61 42 138 68q76 26 146 27q96 -2 155 -52t61 -128q-2 -66 -48 -115q-47 -50 -111 -89q51 -28 105 -41q53 -13 115 -13zM306 438q-35 0 -76 -9q-42 -10 -88 -27q38 -39 78 -94t80 -123q66 38 107 75
q41 36 42 73q-1 47 -40 75q-39 29 -103 30z" />
    <glyph glyph-name="uniFECB" unicode="&#x639;" horiz-adv-x="543" arabic-form="initial" 
d="M339 106q42 5 86 11q44 7 93 15l-18 -89q-98 -19 -216 -31t-284 -12q-5 0 -7 3q-3 3 -3 8v69q0 5 3 7q2 3 7 3q42 0 79 1q37 0 70 1q-55 36 -79 83q-24 46 -24 97q2 92 64 152q62 59 161 61q34 0 75 -10q42 -10 95 -31v-80q-51 17 -90 25q-38 7 -67 7q-70 -1 -110 -36
q-41 -35 -42 -96q0 -56 50 -107t157 -51z" />
    <glyph glyph-name="uniFECC" unicode="&#x639;" horiz-adv-x="590" arabic-form="medial" 
d="M590 90q5 0 7 -3q3 -2 3 -7v-69q0 -5 -3 -8q-2 -3 -7 -3q-81 0 -145 13t-115 34q-75 -27 -148 -37q-74 -11 -182 -10q-5 1 -7 4q-3 2 -3 7v69q0 5 3 7q2 3 7 3q64 0 120 3q57 3 105 10q-44 77 -83 130q-38 52 -79 94q-18 -8 -34 -17v80q61 42 138 68q76 26 146 27
q96 -2 155 -52t61 -128q0 -48 -25 -102q-26 -54 -83 -100q39 -7 80 -10t89 -3zM300 395q-35 0 -77 -9q-42 -10 -88 -27q42 -44 86 -105q43 -62 85 -141q59 28 97 77q39 49 40 94q-1 51 -39 81q-38 29 -104 30z" />
    <glyph glyph-name="uniFECE" unicode="&#x63a;" horiz-adv-x="596" arabic-form="final" 
d="M306 603l-77 75l75 76l77 -76zM596 90q5 0 8 -3q2 -2 2 -7v-69q0 -5 -3 -8q-2 -3 -7 -3q-89 1 -159 28t-132 74q-77 -43 -122 -86q-45 -42 -46 -92q0 -52 53 -80q52 -29 151 -29q52 0 105 8q53 9 122 29v-80q-73 -25 -127 -36q-53 -11 -105 -11q-141 1 -212 50
q-72 49 -72 141q2 70 51 127q50 56 129 103q-45 78 -83 130q-39 52 -80 94q-8 -4 -17 -8t-17 -9v80q61 42 138 68q76 26 146 27q96 -2 155 -52t61 -128q-2 -66 -48 -115q-47 -50 -111 -89q51 -28 105 -41q53 -13 115 -13zM306 438q-35 0 -76 -9q-42 -10 -88 -27
q38 -39 78 -94t80 -123q66 38 107 75q41 36 42 73q-1 47 -40 75q-39 29 -103 30z" />
    <glyph glyph-name="uniFECF" unicode="&#x63a;" horiz-adv-x="543" arabic-form="initial" 
d="M259 559l-77 75l75 76l77 -76zM339 106q42 5 86 11q44 7 93 15l-18 -89q-98 -19 -216 -31t-284 -12q-5 0 -7 3q-3 3 -3 8v69q0 5 3 7q2 3 7 3q42 0 79 1q37 0 70 1q-55 36 -79 83q-24 46 -24 97q2 92 64 152q62 59 161 61q34 0 75 -10q42 -10 95 -31v-80q-51 17 -90 25
q-38 7 -67 7q-70 -1 -110 -36q-41 -35 -42 -96q0 -56 50 -107t157 -51z" />
    <glyph glyph-name="uniFED0" unicode="&#x63a;" horiz-adv-x="590" arabic-form="medial" 
d="M297 559l-77 75l75 76l77 -76zM590 90q5 0 7 -3q3 -2 3 -7v-69q0 -5 -3 -8q-2 -3 -7 -3q-81 0 -145 13t-115 34q-75 -27 -148 -37q-74 -11 -182 -10q-5 1 -7 4q-3 2 -3 7v69q0 5 3 7q2 3 7 3q64 0 120 3q57 3 105 10q-44 77 -83 130q-38 52 -79 94q-18 -8 -34 -17v80
q61 42 138 68q76 26 146 27q96 -2 155 -52t61 -128q0 -48 -25 -102q-26 -54 -83 -100q39 -7 80 -10t89 -3zM300 395q-35 0 -77 -9q-42 -10 -88 -27q42 -44 86 -105q43 -62 85 -141q59 28 97 77q39 49 40 94q-1 51 -39 81q-38 29 -104 30z" />
    <glyph glyph-name="uniFED2" unicode="&#x641;" horiz-adv-x="964" arabic-form="final" 
d="M690 557l-77 75l75 76l77 -76zM964 90q5 0 7 -3q3 -2 3 -7v-69q0 -5 -3 -8q-2 -3 -7 -3q-67 0 -136 9q-70 9 -132 26q-60 -18 -128 -26q-69 -8 -138 -9h-138q-120 0 -186 59q-66 58 -67 169q0 36 5 75q6 39 16 85h80q-8 -44 -12 -77q-4 -34 -4 -61q-1 -83 42 -122
q43 -38 145 -38h109q37 0 72 1t68 5q-41 32 -64 74q-22 43 -22 94q2 96 63 157q61 62 155 64q95 -2 155 -62q60 -61 62 -158q0 -50 -24 -93t-66 -76q35 -4 71 -5q37 -1 74 -1zM689 395q-56 -1 -92 -37q-37 -36 -38 -100q0 -53 33 -94q32 -42 92 -62q71 21 105 62t34 94
q-1 61 -37 99q-37 37 -97 38z" />
    <glyph glyph-name="uniFED3" unicode="&#x641;" horiz-adv-x="521" arabic-form="initial" 
d="M-10 11v69q0 6 3 7q1 3 7 3h111q-3 5 -6 11t-6 11q-7 11 -15 24q-22 34 -33.5 67t-11.5 73q1 47 19 85.5t48 65.5t70.5 42t85.5 16q48 -1 87.5 -18.5t67 -48t43 -71.5t16.5 -88q-2 -125 -72.5 -191t-193.5 -68h-210q-6 2 -7 4q-3 2 -3 7zM124 265q0 -24 9 -50
q8 -25 27 -57q11 -17 19 -32q4 -8 8 -17t8 -19h24q77 0 123 39.5t48 118.5q-2 63 -36 103.5t-100 42.5q-57 -2 -92.5 -37t-37.5 -92zM188 632l75 76l77 -76l-75 -75z" />
    <glyph glyph-name="uniFED4" unicode="&#x641;" horiz-adv-x="544" arabic-form="medial" 
d="M273 557l-77 75l75 76l77 -76zM544 90q5 0 7 -3q3 -2 3 -7v-69q0 -5 -3 -8q-2 -3 -7 -3q-67 0 -136 9q-70 9 -132 26q-62 -19 -133 -27q-72 -8 -143 -8q-5 1 -7 4q-3 2 -3 7v69q0 5 3 7q2 3 7 3q37 0 72 1t68 5q-41 32 -64 74q-22 43 -22 94q2 96 63 157q61 62 155 64
q95 -2 155 -62q60 -61 62 -158q0 -50 -24 -93t-66 -76q35 -4 71 -5q37 -1 74 -1zM269 395q-56 -1 -92 -37q-37 -36 -38 -100q0 -53 33 -94q32 -42 92 -62q71 21 105 62t34 94q-1 61 -37 99q-37 37 -97 38z" />
    <glyph glyph-name="uniFED6" unicode="&#x642;" horiz-adv-x="760" arabic-form="final" 
d="M40 57q0 60 12.5 116t32.5 112h80q-20 -51 -32.5 -104.5t-12.5 -108.5q-1 -60 20.5 -98t58 -60.5t84 -31t98.5 -8.5q33 0 70 6t70 20t58.5 38.5t35.5 61.5h-81q-56 1 -103.5 14.5t-82 42t-54 72t-20.5 103.5q1 50 15.5 94t42.5 77t68.5 52t93.5 20q49 -1 84.5 -17.5
t59.5 -45.5t37.5 -68t16.5 -84q1 -17 2 -36t2 -41q2 -43 3 -93h61q6 0 7 -3q3 -1 3 -7v-69q0 -5 -3 -8q-1 -3 -7 -3h-62q-9 -65 -44 -106.5t-85 -65.5t-108.5 -33.5t-113.5 -9.5q-68 0 -124 15.5t-96.5 48.5t-63 84.5t-23.5 123.5zM359 236q0 -41 14.5 -69t39.5 -45
t58 -24.5t69 -7.5h78q-1 22 -2 43t-3 42q-4 41 -6 75q-2 27 -9 51.5t-21 43t-35.5 29.5t-52.5 11q-32 -1 -56 -13t-40 -32t-24.5 -47t-9.5 -57zM339 631l75 76l76 -74l75 74l76 -76l-76 -75l-75 73l-75 -73z" />
    <glyph glyph-name="uniFED7" unicode="&#x642;" horiz-adv-x="521" arabic-form="initial" 
d="M-10 11v69q0 6 3 7q1 3 7 3h111q-3 5 -6 11t-6 11q-7 11 -15 24q-22 34 -33.5 67t-11.5 73q1 47 19 85.5t48 65.5t70.5 42t85.5 16q48 -1 87.5 -18.5t67 -48t43 -71.5t16.5 -88q-2 -125 -72.5 -191t-193.5 -68h-210q-6 2 -7 4q-3 2 -3 7zM124 265q0 -24 9 -50
q8 -25 27 -57q11 -17 19 -32q4 -8 8 -17t8 -19h24q77 0 123 39.5t48 118.5q-2 63 -36 103.5t-100 42.5q-57 -2 -92.5 -37t-37.5 -92zM189 707l76 -74l75 74l76 -76l-76 -75l-75 73l-75 -73l-76 75z" />
    <glyph glyph-name="uniFED8" unicode="&#x642;" horiz-adv-x="544" arabic-form="medial" 
d="M198 556l-76 75l75 76l76 -74l75 74l76 -76l-76 -75l-75 73zM544 90q5 0 7 -3q3 -2 3 -7v-69q0 -5 -3 -8q-2 -3 -7 -3q-67 0 -136 9q-70 9 -132 26q-62 -19 -133 -27q-72 -8 -143 -8q-5 1 -7 4q-3 2 -3 7v69q0 5 3 7q2 3 7 3q37 0 72 1t68 5q-41 32 -64 74q-22 43 -22 94
q2 96 63 157q61 62 155 64q95 -2 155 -62q60 -61 62 -158q0 -50 -24 -93t-66 -76q35 -4 71 -5q37 -1 74 -1zM269 395q-56 -1 -92 -37q-37 -36 -38 -100q0 -53 33 -94q32 -42 92 -62q71 21 105 62t34 94q-1 61 -37 99q-37 37 -97 38z" />
    <glyph glyph-name="uniFEDA" unicode="&#x643;" horiz-adv-x="877" arabic-form="final" 
d="M877 90q5 0 7 -3q3 -2 3 -7v-69q0 -5 -3 -8q-2 -3 -7 -3q-61 0 -103 19q-43 18 -68 53q-56 -37 -123 -54q-68 -18 -154 -18h-137q-120 0 -186 59q-66 58 -67 169q0 36 5 75q6 39 16 85h80q-8 -44 -12 -77q-4 -34 -4 -61q-1 -83 42 -122q43 -38 145 -38h114q87 0 150 12
q63 11 104 33q-6 26 -6 56v534h85v-531q-1 -52 27 -78t92 -26zM397 357q-24 0 -47 -3q-24 -4 -59 -14v70q20 7 34 12q14 4 26 5q-22 24 -22 55q0 41 28 68t77 28q15 0 34 -5q19 -4 39 -14v-67q-21 7 -37 10t-31 3q-21 0 -34 -10q-14 -10 -14 -27q0 -19 17 -28q16 -10 44 -10
h92l-22 -73h-125z" />
    <glyph glyph-name="uniFEDB" unicode="&#x643;" horiz-adv-x="581" arabic-form="initial" 
d="M342 423q101 -44 153 -99q51 -56 51 -124q-1 -91 -71 -145q-69 -54 -192 -55h-283q-5 0 -7 3q-3 3 -3 8v69q0 5 3 7q2 3 7 3h291q75 1 122 30t48 76q1 40 -37 75q-37 35 -124 73l-240 106v68l350 277h128v-4l-370 -291z" />
    <glyph glyph-name="uniFEDC" unicode="&#x643;" horiz-adv-x="649" arabic-form="medial" 
d="M649 90q5 0 7 -3q3 -2 3 -7v-69q0 -5 -3 -8q-2 -3 -7 -3q-47 0 -86 14q-39 15 -78 49q-35 -30 -86 -46q-51 -17 -116 -17h-283q-5 0 -7 3q-3 3 -3 8v69q0 5 3 7q2 3 7 3h291q75 1 122 30t48 76q1 40 -37 75q-37 35 -124 73l-240 106v68l350 277h128v-4l-370 -291l174 -77
q101 -44 153 -99q51 -56 51 -124q0 -43 -17 -79q28 -17 56 -24q29 -7 64 -7z" />
    <glyph glyph-name="uniFEDE" unicode="&#x644;" horiz-adv-x="686" arabic-form="final" 
d="M686 90q5 0 7 -3q3 -2 3 -7v-69q0 -5 -3 -8q-2 -3 -7 -3q-37 0 -66 10t-49 32q-13 -116 -81 -185q-68 -70 -197 -72q-121 1 -186 71q-66 70 -67 201q0 60 12 114t33 114h80q-21 -54 -33 -108t-12 -105q0 -92 44 -144t137 -53q99 0 144 55q45 56 44 172v623h85v-550
q1 -41 31 -63q29 -22 81 -22z" />
    <glyph glyph-name="uniFEDF" unicode="&#x644;" horiz-adv-x="289" arabic-form="initial" 
d="M204 725v-534q0 -89 -51 -139q-50 -51 -153 -52q-5 0 -7 3q-3 3 -3 8v69q0 5 3 7q2 3 7 3q64 0 92 26t27 78v531h85z" />
    <glyph glyph-name="uniFEE0" unicode="&#x644;" horiz-adv-x="318" arabic-form="medial" 
d="M318 90q5 0 7 -3q3 -2 3 -7v-69q0 -5 -3 -8q-2 -3 -7 -3q-58 0 -99 17q-41 16 -66 48q-28 -30 -63 -47q-34 -18 -90 -18q-5 0 -7 3q-3 3 -3 8v69q0 5 3 7q2 3 7 3q37 0 68 11q30 11 53 30q-7 27 -7 60v534h85v-531q-1 -52 27 -78t92 -26z" />
    <glyph glyph-name="uniFEE2" unicode="&#x645;" horiz-adv-x="669" arabic-form="final" 
d="M669 90q5 0 7 -3q3 -2 3 -7v-69q0 -5 -3 -8q-2 -3 -7 -3q-42 0 -72 19t-51 53l-18 -72q-103 0 -183 16q-80 15 -128 48q-24 16 -37 37q-31 -7 -46 -31q-14 -23 -14 -64q0 -47 8 -111q8 -65 25 -170h-85q-18 110 -25 176q-8 67 -8 116q1 71 35 116q35 45 94 58
q10 91 67 180q56 88 150 95q60 0 100 -36q40 -37 62 -114l29 -99q20 -70 42 -99t55 -28zM231 157q49 -30 121 -48q72 -17 184 -19q-12 21 -21 46q-10 25 -19 54l-25 78q-17 55 -40 82q-22 26 -55 26q-41 0 -81 -54q-40 -55 -64 -165z" />
    <glyph glyph-name="uniFEE3" unicode="&#x645;" horiz-adv-x="551" arabic-form="initial" 
d="M449 -13q-97 0 -189 17q-92 18 -163 50q-18 -28 -41 -41t-56 -13q-5 1 -7 4q-3 2 -3 7v69q0 5 3 7q2 3 7 3q32 0 52 40t51 123q42 108 91 158q48 51 119 50q96 -2 144 -98q47 -97 59 -270zM138 134q68 -30 146 -43t153 -13q-9 146 -43 219t-86 73q-39 2 -72 -34
q-32 -36 -69 -131q-8 -20 -15 -38q-7 -17 -14 -33z" />
    <glyph glyph-name="uniFEE4" unicode="&#x645;" horiz-adv-x="572" arabic-form="medial" 
d="M571 90q5 0 7 -3q3 -2 3 -7v-69q0 -5 -3 -8q-2 -3 -7 -3q-42 0 -72 19t-51 53l-18 -72q-94 0 -169 13t-124 40q-28 -24 -61 -38q-33 -15 -76 -15q-5 0 -7 3q-3 3 -3 8v69q0 5 3 7q2 3 7 3q45 0 80 14q-15 26 -16 57q1 93 59 195q58 101 160 110q60 0 100 -36
q40 -37 62 -114l29 -99q20 -70 42 -99t55 -28zM133 157q49 -30 121 -48q72 -17 184 -19q-12 21 -21 46q-10 25 -19 54l-25 78q-17 55 -40 82q-22 26 -55 26q-41 0 -81 -54q-40 -55 -64 -165z" />
    <glyph glyph-name="uniFEE6" unicode="&#x646;" horiz-adv-x="677" arabic-form="final" 
d="M306 395l-77 75l75 76l77 -76zM676 90q5 0 7 -3q3 -2 3 -7v-69q0 -5 -3 -8q-2 -3 -7 -3q-74 0 -106 51q-11 -120 -80 -192q-70 -72 -202 -74q-119 1 -183 71t-65 201q0 60 12 114t33 114h80q-21 -54 -33 -108t-12 -105q0 -92 42 -144q43 -52 134 -53q100 0 148 54
q47 55 47 170q0 61 -10 141q-11 80 -29 200h85q11 -71 19 -135q8 -63 13 -120l1 -10q8 -55 37 -71q30 -16 69 -14z" />
    <glyph glyph-name="uniFEE7" unicode="&#x646;" horiz-adv-x="259" arabic-form="initial" 
d="M200 632l-75 -75l-77 75l75 76zM174 485q16 -109 23 -177t7 -117q0 -89 -51 -139q-50 -51 -153 -52q-5 0 -7 3q-3 3 -3 8v69q0 5 3 7q2 3 7 3q65 0 94 26t28 78q0 42 -7 107q-8 64 -26 184h85z" />
    <glyph glyph-name="uniFEE8" unicode="&#x646;" horiz-adv-x="300" arabic-form="medial" 
d="M162 452l-77 75l75 76l77 -76zM300 90q5 0 7 -3q3 -2 3 -7v-69q0 -5 -3 -8q-2 -3 -7 -3q-45 0 -83 13q-38 14 -76 46q-24 -29 -60 -44t-81 -15q-5 0 -7 3q-3 3 -3 8v69q0 5 3 7q2 3 7 3q74 0 101 54q14 28 20 80q6 53 6 146h78q0 -83 -7 -144t-21 -103q29 -18 58 -26
q29 -7 65 -7z" />
    <glyph glyph-name="uniFEE9" unicode="&#x647;" horiz-adv-x="823" arabic-form="isolated" 
d="M310 670q225 -3 346 -103t122 -265q0 -43 -14 -104q-14 -62 -40 -132l-84 -79q-72 0 -142 13q-69 13 -141 38q-105 -38 -207 -38q-32 0 -66 6q-33 6 -69 17v85q33 -8 66 -13t64 -5q16 0 33 2q16 1 33 4q-41 32 -63 74t-22 94q2 96 62 157q60 62 153 64q95 -2 154 -62
q58 -61 60 -158q0 -51 -25 -94q-24 -44 -67 -77q52 -9 94 -13q43 -4 84 -4q24 51 38 110q14 58 14 107q1 112 -91 197q-93 85 -292 89v90zM338 395q-56 -1 -91 -37t-36 -100q0 -53 32 -94q32 -42 90 -62q69 21 103 62t34 94q-1 61 -36 99q-36 37 -96 38z" />
    <glyph glyph-name="uniFEEA" unicode="&#x647;" horiz-adv-x="536" arabic-form="final" 
d="M107 359q70 83 255 115v64h85v-357q-1 -43 19 -68q20 -23 70 -23q6 0 7 -3q3 -1 3 -7v-69q0 -5 -3 -8q-1 -3 -7 -3q-38 0 -71.5 10.5t-59.5 39.5q-39 -22 -78.5 -36t-84.5 -14q-89 2 -144.5 51.5t-57.5 140.5q-3 82 67 167zM125 199q2 -56 33.5 -81.5t85.5 -27.5
q66 0 127 26q-9 33 -9 73v204q-40 -6 -82 -19.5t-76 -36.5t-56 -57t-23 -81z" />
    <glyph glyph-name="uniFEEB" unicode="&#x647;" horiz-adv-x="752" arabic-form="initial" 
d="M239 670q225 -3 346 -103t122 -265q0 -43 -14 -104q-14 -62 -40 -132l-85 -79q-72 0 -142 13t-142 38q-64 -21 -137 -29q-73 -9 -147 -9q-5 1 -7 4q-3 2 -3 7v69q0 5 3 7q2 3 7 3q37 0 72 1q35 2 67 6q-41 31 -63 73q-22 43 -22 94q2 96 62 157q60 62 153 64
q95 -2 154 -62q59 -61 61 -158q0 -51 -25 -94q-24 -44 -67 -77q52 -9 94 -13q43 -4 84 -4q24 51 37 110q14 58 14 107q1 112 -91 197t-292 89zM266 395q-55 -1 -90 -37q-36 -36 -37 -100q1 -53 33 -94q32 -42 89 -62q70 21 103 62q34 41 34 94q-1 61 -36 99q-36 37 -96 38z
" />
    <glyph glyph-name="uniFEEC" unicode="&#x647;" horiz-adv-x="553" arabic-form="medial" 
d="M553 90q5 0 7 -3q3 -3 3 -8v-69q0 -5 -3 -7q-2 -3 -7 -3q-24 0 -47 4q-24 4 -49 13q19 -25 29 -49q9 -24 9 -48q-1 -62 -46 -98q-44 -36 -121 -37q-96 1 -163 59t-91 158q-36 -2 -74 -2q-5 0 -7 3q-3 3 -3 8v69q0 5 3 7q2 3 7 3q33 0 63 1v8q-1 112 48 235
q50 123 161 226h67q67 -58 108 -131t42 -148q0 -53 -20 -95q-20 -43 -58 -75q30 -10 66 -16q36 -5 76 -5zM143 98q132 18 197 65q64 48 64 115q-1 63 -31 115t-74 92q-80 -75 -118 -176q-38 -102 -38 -191v-20zM331 -126q40 0 63 15q23 16 24 45q0 30 -18 61q-18 32 -57 70
q-77 -39 -185 -54q24 -71 71 -104t102 -33z" />
    <glyph glyph-name="uniFEEE" unicode="&#x648;" horiz-adv-x="531" arabic-form="final" 
d="M45 232q1 50 15.5 94t42.5 77t68.5 52t93.5 20q49 -1 84.5 -17.5t59.5 -45.5t37.5 -68t16.5 -84q1 -17 2 -35.5t2 -40.5t1.5 -45.5t1.5 -48.5h61q6 0 7 -3q3 -1 3 -7v-69q0 -5 -3 -8q-1 -3 -7 -3h-62q-7 -66 -41.5 -108t-84.5 -65.5t-108.5 -32.5t-114.5 -9v82
q36 0 78.5 5t81.5 19t68.5 40t38.5 69h-82q-56 1 -103.5 14.5t-82 42t-54 72t-20.5 103.5zM130 236q0 -41 14.5 -69t39.5 -45t58 -24.5t69 -7.5h78q-1 22 -2 43t-3 42q-4 41 -6 75q-2 27 -9 51.5t-21 43t-35.5 29.5t-52.5 11q-32 -1 -56 -13t-40 -32t-24.5 -47t-9.5 -57z
" />
    <glyph glyph-name="uniFEF0" unicode="&#x649;" horiz-adv-x="679" arabic-form="final" 
d="M679 90q5 0 7 -3q3 -2 3 -7v-69q0 -5 -3 -8q-2 -3 -7 -3h-9q-46 -106 -134 -160q-88 -55 -213 -55q-134 0 -208 69q-74 68 -75 203q0 60 12 114t33 114h80q-21 -54 -33 -108t-12 -105q0 -102 56 -149q55 -48 166 -48q82 0 147 32q66 33 104 101q-23 4 -49 11
q-27 6 -59 15v85q74 -17 114 -23t80 -6z" />
    <glyph glyph-name="uniFEF2" unicode="&#x64a;" horiz-adv-x="679" arabic-form="final" 
d="M679 90q5 0 7 -3q3 -2 3 -7v-69q0 -5 -3 -8q-2 -3 -7 -3h-9q-46 -106 -134 -160q-88 -55 -213 -55q-134 0 -208 69q-74 68 -75 203q0 60 12 114t33 114h80q-21 -54 -33 -108t-12 -105q0 -102 56 -149q55 -48 166 -48q82 0 147 32q66 33 104 101q-23 4 -49 11
q-27 6 -59 15v85q74 -17 114 -23t80 -6zM468 -274l76 -75l-76 -76l-75 74l-75 -74l-76 76l75 75l76 -73z" />
    <glyph glyph-name="uniFEF3" unicode="&#x64a;" horiz-adv-x="333" arabic-form="initial" 
d="M0 0q-5 0 -7 3q-3 3 -3 8v69q0 5 3 7q2 3 7 3h78q64 0 93 26t28 78q0 42 -7 107q-7 64 -25 184h85q16 -109 23 -177t7 -117q0 -89 -51 -139q-50 -51 -153 -52h-78zM209 -229l-75 74l-75 -74l-76 76l75 75l76 -73l75 73l76 -75z" />
    <glyph glyph-name="uniFEF4" unicode="&#x64a;" horiz-adv-x="370" arabic-form="medial" 
d="M370 90q5 0 7 -3q3 -2 3 -7v-69q0 -5 -3 -8q-2 -3 -7 -3q-48 0 -95 20q-46 19 -90 58q-28 -38 -74 -58t-111 -20q-5 0 -7 3q-3 3 -3 8v69q0 5 3 7q2 3 7 3q51 0 83 13q31 13 46 40q17 29 23 81q5 52 4 146h79q0 -75 -4 -131q-5 -56 -16 -95q35 -26 73 -40q39 -14 82 -14z
M244 -78l76 -75l-76 -76l-75 74l-75 -74l-76 76l75 75l76 -73z" />
    <glyph glyph-name="uniFEF5" unicode="&#xfef5;" horiz-adv-x="589" arabic-form="isolated" 
d="M465 314q46 -41 67 -80q22 -39 22 -79q1 -64 -43 -109q-43 -44 -138 -46h-314l-39 90q106 61 180 120t115 128l-277 252l4 10h106l201 -182q16 54 16 120v237h85v-237q0 -98 -35 -179zM82 698q-20 0 -33 -10t-16 -29h-55q0 44 24 73q24 30 68 31q33 -2 64 -18
q30 -17 63 -19q16 0 39 7q23 6 41 19l-1 -66q-15 -11 -35 -18t-42 -7q-33 2 -60 19q-28 16 -57 18zM392 90q37 0 57 18q20 17 20 45q0 22 -13 46q-14 24 -38 46l-44 40q-38 -55 -96 -103q-58 -49 -135 -92h249z" />
    <glyph glyph-name="uniFEF6" unicode="&#xfef6;" horiz-adv-x="673" arabic-form="final" 
d="M157 701q-20 0 -33 -10t-16 -29h-55q0 44 24 73q24 30 68 31q33 -2 64 -18q30 -17 63 -19q16 0 39 7q23 6 41 19l-1 -66q-15 -11 -35 -18t-42 -7q-33 2 -60 19q-28 16 -57 18zM673 90q5 0 7 -3q3 -2 3 -7v-69q0 -5 -3 -8q-2 -3 -7 -3q-53 0 -92 14q-40 15 -65 41
q-57 -27 -123 -41q-65 -14 -127 -14q-59 0 -122 8t-119 26v85q54 -15 115 -22q60 -6 116 -7l-2 40q-2 19 -5 40q-6 37 -26 127q-21 90 -71 303h90q47 -209 65 -295q19 -86 23 -125q3 -19 3 -40q1 -22 -1 -48q41 3 78 9q36 6 70 16q-11 33 -11 74v534h85v-531q-1 -52 27 -78
t92 -26z" />
    <glyph glyph-name="uniFEF7" unicode="&#xfef7;" horiz-adv-x="589" arabic-form="isolated" 
d="M51 664q-17 0 -33 -2q-17 -3 -42 -10v58q23 8 38 11t33 3q-12 12 -18 27q-6 14 -6 30q1 40 27 65q26 24 67 25q21 0 40 -6q18 -6 36 -14v-58q-22 9 -36 12q-15 3 -27 3q-22 0 -36 -12q-14 -11 -14 -31q1 -18 14 -29q13 -12 33 -12h104l-18 -60h-162zM465 314
q46 -41 67 -80q22 -39 22 -79q1 -64 -43 -109q-43 -44 -138 -46h-314l-39 90q106 61 180 120t115 128l-277 252l4 10h106l201 -182q16 54 16 120v237h85v-237q0 -98 -35 -179zM392 90q37 0 57 18q20 17 20 45q0 22 -13 46q-14 24 -38 46l-44 40q-38 -55 -96 -103
q-58 -49 -135 -92h249z" />
    <glyph glyph-name="uniFEF8" unicode="&#xfef8;" horiz-adv-x="673" arabic-form="final" 
d="M132 664q-17 0 -33 -2q-17 -3 -42 -10v58q23 8 38 11t33 3q-12 12 -18 27q-6 14 -6 30q1 40 27 65q26 24 67 25q21 0 40 -6q18 -6 36 -14v-58q-22 9 -36 12q-15 3 -27 3q-22 0 -36 -12q-14 -11 -14 -31q1 -18 14 -29q13 -12 33 -12h104l-18 -60h-162zM673 90q5 0 7 -3
q3 -2 3 -7v-69q0 -5 -3 -8q-2 -3 -7 -3q-53 0 -92 14q-40 15 -65 41q-57 -27 -123 -41q-65 -14 -127 -14q-59 0 -122 8t-119 26v85q54 -15 115 -22q60 -6 116 -7l-2 40q-2 19 -5 40q-6 37 -26 127q-21 90 -71 303h90q47 -209 65 -295q19 -86 23 -125q3 -19 3 -40
q1 -22 -1 -48q41 3 78 9q36 6 70 16q-11 33 -11 74v534h85v-531q-1 -52 27 -78t92 -26z" />
    <glyph glyph-name="uniFEF9" unicode="&#xfef9;" horiz-adv-x="589" arabic-form="isolated" 
d="M465 314q46 -41 67 -80q22 -39 22 -79q1 -64 -43 -109q-43 -44 -138 -46h-314l-39 90q106 61 180 120t115 128l-277 252l4 10h106l201 -182q16 54 16 120v237h85v-237q0 -98 -35 -179zM392 90q37 0 57 18q20 17 20 45q0 22 -13 46q-14 24 -38 46l-44 40q-38 -55 -96 -103
q-58 -49 -135 -92h249zM274 -156q1 -18 14 -29q13 -12 33 -12h105l-18 -60h-162q-17 0 -33 -2q-17 -3 -42 -10v58q23 8 38 11q14 3 32 3q-12 12 -18 27q-6 14 -6 30q1 40 27 64t67 25q21 0 40 -5q18 -6 36 -14v-58q-22 8 -36 12q-15 3 -27 3q-22 0 -36 -12t-14 -31z" />
    <glyph glyph-name="uniFEFA" unicode="&#xfefa;" horiz-adv-x="673" arabic-form="final" 
d="M673 90q5 0 7 -3q3 -2 3 -7v-69q0 -5 -3 -8q-2 -3 -7 -3q-53 0 -92 14q-40 15 -65 41q-57 -27 -123 -41q-65 -14 -127 -14q-59 0 -122 8t-119 26v85q54 -15 115 -22q60 -6 116 -7l-2 40q-2 19 -5 40q-6 37 -26 127q-21 90 -71 303h90q47 -209 65 -295q19 -86 23 -125
q3 -19 3 -40q1 -22 -1 -48q41 3 78 9q36 6 70 16q-11 33 -11 74v534h85v-531q-1 -52 27 -78t92 -26zM264 -156q1 -18 14 -29q13 -12 33 -12h105l-18 -60h-162q-17 0 -33 -2q-17 -3 -42 -10v58q23 8 38 11q14 3 32 3q-12 12 -18 27q-6 14 -6 30q1 40 27 64t67 25q21 0 40 -5
q18 -6 36 -14v-58q-22 8 -36 12q-15 3 -27 3q-22 0 -36 -12t-14 -31z" />
    <glyph glyph-name="uniFEFB" unicode="&#xfefb;" horiz-adv-x="589" arabic-form="isolated" 
d="M465 314q46 -41 67 -80q22 -39 22 -79q1 -64 -43 -109q-43 -44 -138 -46h-314l-39 90q106 61 180 120t115 128l-277 252l4 10h106l201 -182q16 54 16 120v237h85v-237q0 -98 -35 -179zM392 90q37 0 57 18q20 17 20 45q0 22 -13 46q-14 24 -38 46l-44 40q-38 -55 -96 -103
q-58 -49 -135 -92h249z" />
    <glyph glyph-name="uniFEFC" unicode="&#xfefc;" horiz-adv-x="673" arabic-form="final" 
d="M673 90q5 0 7 -3q3 -2 3 -7v-69q0 -5 -3 -8q-2 -3 -7 -3q-53 0 -92 14q-40 15 -65 41q-57 -27 -123 -41q-65 -14 -127 -14q-59 0 -122 8t-119 26v85q54 -15 115 -22q60 -6 116 -7l-2 40q-2 19 -5 40q-6 37 -26 127q-21 90 -71 303h90q47 -209 65 -295q19 -86 23 -125
q3 -19 3 -40q1 -22 -1 -48q41 3 78 9q36 6 70 16q-11 33 -11 74v534h85v-531q-1 -52 27 -78t92 -26z" />
    <glyph glyph-name=".notdef" horiz-adv-x="500" 
d="M500 725v-725h-500v725h500zM466 706h-433l217 -328zM19 29l220 333l-220 334v-667zM481 696l-221 -334l221 -333v667zM466 19l-216 327l-217 -327h433z" />
    <glyph glyph-name="uni0000" 
 />
    <glyph glyph-name="uni0000" 
 />
    <glyph glyph-name="uni000D" unicode="&#xd;" horiz-adv-x="250" 
 />
    <glyph glyph-name="uni0020" unicode=" " horiz-adv-x="237" 
 />
    <glyph glyph-name="uni0021" unicode="!" horiz-adv-x="245" 
d="M74 506v219h97v-219l-20 -294h-57zM65 115h115v-115h-115v115z" />
    <glyph glyph-name="uni0022" unicode="&#x22;" horiz-adv-x="309" 
d="M282 725l-20 -240h-62l-20 240h102zM129 725l-20 -240h-62l-20 240h102z" />
    <glyph glyph-name="uni0023" unicode="#" horiz-adv-x="666" 
d="M22 222l10 71h141l24 174h-142l10 71h142l26 187h74l-26 -187h156l26 187h74l-26 -187h134l-10 -71h-134l-24 -174h135l-10 -71h-135l-30 -222h-74l30 222h-156l-30 -222h-74l30 222h-141zM403 293l24 174h-156l-24 -174h156z" />
    <glyph glyph-name="uni0024" unicode="$" horiz-adv-x="587" 
d="M33 230h94q1 -31 10 -59.5t26 -51t42 -37t58 -18.5v271l-22 6q-39 11 -73.5 28.5t-60 42.5t-40 59t-15.5 77q2 44 19.5 78t47 57.5t67 37t77.5 17.5v73h55v-73q101 -8 160.5 -66t59.5 -161h-94q-2 60 -32 102.5t-94 48.5v-248l15 -4q85 -19 152 -65q65 -45 70 -146
q-1 -52 -20.5 -90.5t-51.5 -64t-74.5 -39.5t-90.5 -17v-85h-55v85q-51 5 -93 24t-72.5 50t-47.5 73.5t-17 94.5zM318 63q27 2 52.5 10t45.5 22.5t32 36.5t13 53q-1 34 -12.5 56.5t-30.5 37.5t-45 24.5t-55 16.5v-257zM146 549q0 -26 9.5 -46t25.5 -34t37 -24t44 -16l1 -1
v235q-51 -3 -83 -32.5t-34 -81.5z" />
    <glyph glyph-name="uni0025" unicode="%" horiz-adv-x="998" 
d="M37 521q0 95 41 152t122 59q83 -2 124 -59t41 -152t-41 -152t-124 -59q-81 2 -122 59t-41 152zM699 725h101l-500 -725h-101zM289 521q0 75 -23 116q-22 41 -66 41q-42 0 -64 -41q-23 -41 -23 -116t23 -115q22 -41 64 -41q44 0 66 41q23 40 23 115zM637 204q0 95 41 152
t122 59q83 -2 124 -59t41 -152t-41 -152t-124 -59q-81 2 -122 59t-41 152zM889 204q0 75 -23 116q-22 41 -66 41q-42 0 -64 -41q-23 -41 -23 -116t23 -115q22 -41 64 -41q44 0 66 41q23 40 23 115z" />
    <glyph glyph-name="uni0026" unicode="&#x26;" horiz-adv-x="703" 
d="M28 199q1 83 51 139q49 55 132 83q-36 41 -58 81q-21 41 -22 83q2 71 55 112q54 41 140 42q69 1 126 -34q57 -36 60 -122q-1 -68 -42 -115q-40 -46 -108 -73l147 -156q14 33 23 71q9 39 12 83h94q-5 -60 -21 -116t-44 -105l162 -172h-131l-88 94q-47 -50 -108 -78
q-62 -28 -139 -29q-112 2 -176 61q-64 60 -65 151zM308 452q53 19 84 53q32 33 33 77q-1 44 -29 63q-27 18 -68 18q-40 0 -69 -17q-30 -17 -31 -54q1 -35 24 -71q24 -35 54 -66zM264 363q-65 -23 -102 -62q-36 -39 -37 -98q2 -64 44 -100q41 -36 100 -37q56 0 104 23
q48 22 85 66z" />
    <glyph glyph-name="uni0027" unicode="'" horiz-adv-x="156" 
d="M109 485h-62l-20 240h102z" />
    <glyph glyph-name="uni0028" unicode="(" horiz-adv-x="245" 
d="M245 725q-51 -81 -84 -194q-34 -114 -35 -256q1 -141 35 -255q33 -114 84 -195h-75q-49 66 -92 182q-43 115 -46 268q3 153 46 269q43 115 92 181h75z" />
    <glyph glyph-name="uni0029" unicode=")" horiz-adv-x="245" 
d="M0 -175q51 81 84 195q34 114 35 255q-1 142 -35 256q-33 113 -84 194h75q49 -66 92 -181q43 -116 46 -269q-3 -153 -46 -268q-43 -116 -92 -182h-75z" />
    <glyph glyph-name="uni002A" unicode="*" horiz-adv-x="352" 
d="M318 649l23 -56l-115 -40l69 -97l-46 -35l-74 101l-68 -101l-53 34l70 98l-113 40l20 56l113 -43v119h61v-119z" />
    <glyph glyph-name="uni002B" unicode="+" horiz-adv-x="678" 
d="M68 312h226v220h91v-220h226v-86h-226v-226h-91v226h-226v86z" />
    <glyph glyph-name="uni002C" unicode="," horiz-adv-x="245" 
d="M180 115v-123l-61 -131h-58l53 139h-49v115h115z" />
    <glyph glyph-name="uni002D" unicode="-" horiz-adv-x="405" 
d="M43 317h318v-86h-318v86z" />
    <glyph glyph-name="uni002E" unicode="." horiz-adv-x="245" 
d="M65 115h115v-115h-115v115z" />
    <glyph glyph-name="uni002F" unicode="/" horiz-adv-x="377" 
d="M285 725h92l-286 -725h-91z" />
    <glyph glyph-name="uni0030" unicode="0" horiz-adv-x="661" 
d="M330 -13q-144 2 -213 102t-69 274t69 273q69 100 213 102q144 -2 213 -102q69 -99 69 -273t-69 -274t-213 -102zM330 662q-86 0 -135 -74t-50 -225q1 -151 50 -226q49 -74 135 -74t135 74q49 75 50 226q-1 151 -50 225t-135 74z" />
    <glyph glyph-name="uni0031" unicode="1" horiz-adv-x="368" 
d="M180 567h-168v62q77 1 123 20q45 19 74 76h62v-725h-91v567z" />
    <glyph glyph-name="uni0032" unicode="2" horiz-adv-x="590" 
d="M532 548q-5 -125 -113 -240q-108 -114 -265 -223h398v-85h-522v82q193 140 299 250q106 109 107 204q0 57 -36 91q-35 34 -100 35q-61 1 -106 -36q-46 -38 -50 -127h-94q0 109 68 174q67 64 184 65q102 0 165 -49t65 -141z" />
    <glyph glyph-name="uni0033" unicode="3" horiz-adv-x="587" 
d="M446 203q-2 77 -61 108t-148 30h-15v83h12q95 0 144 28q49 29 49 92q-2 59 -42 88q-40 30 -99 30q-73 -1 -112 -40q-40 -38 -46 -101h-94q9 98 74 157q65 58 180 60q97 1 165 -42q67 -43 70 -142q0 -56 -30 -100q-31 -44 -88 -68q80 -27 110 -75q30 -49 28 -107
q-3 -109 -79 -163t-183 -54q-127 3 -189 68t-69 159h94q7 -68 48 -109t117 -42q73 0 118 36t46 104z" />
    <glyph glyph-name="uni0034" unicode="4" horiz-adv-x="624" 
d="M17 265l359 460h93v-460h133v-86h-133v-179h-92v179h-360v86zM377 265v335l-259 -335h259z" />
    <glyph glyph-name="uni0035" unicode="5" horiz-adv-x="607" 
d="M464 238q-3 90 -52 131q-49 42 -111 41q-56 -2 -92 -26q-36 -25 -48 -54l-91 5l47 390h416v-85h-342l-25 -206q29 28 70 41q40 14 86 14q98 -1 167 -65q68 -64 71 -185q-3 -125 -78 -188q-75 -64 -180 -64q-125 3 -187 68q-61 64 -71 155h94q10 -69 49 -108
q40 -38 115 -39q67 0 114 46q46 45 48 129z" />
    <glyph glyph-name="uni0036" unicode="6" horiz-adv-x="615" 
d="M142 382q25 44 72 72t119 29q103 -2 168 -69q64 -66 66 -177q-1 -104 -69 -176q-68 -71 -186 -74q-135 1 -200 91q-64 90 -64 259q-2 160 63 277q65 118 220 124q106 -3 160 -56q53 -53 64 -125h-99q-9 49 -45 77q-35 28 -91 28q-84 -2 -129 -77t-49 -203zM311 63
q71 1 114 47q44 46 45 122q-1 76 -44 123q-43 48 -114 49q-72 -1 -115 -49q-43 -47 -44 -123q1 -76 43 -122t115 -47z" />
    <glyph glyph-name="uni0037" unicode="7" horiz-adv-x="513" 
d="M513 725v-85q-135 -110 -214 -273t-93 -367h-110q13 196 94 359t217 281h-396v85h502z" />
    <glyph glyph-name="uni0038" unicode="8" horiz-adv-x="626" 
d="M555 553q1 -45 -23 -91q-23 -45 -77 -76q69 -30 96 -80q27 -51 26 -102q-3 -104 -76 -160q-74 -56 -188 -57q-115 1 -189 57q-73 56 -76 160q-1 51 26 102q27 50 97 80q-53 31 -77 76q-23 46 -23 91q1 82 65 133q64 50 177 52q112 -2 177 -52q64 -51 65 -133zM313 662
q-69 -1 -110 -33q-40 -32 -41 -87q1 -56 41 -91q41 -35 110 -36q68 1 109 36q40 35 41 91q-1 55 -41 87q-41 32 -109 33zM145 204q1 -65 45 -102q45 -38 123 -39q77 1 122 39q45 37 46 102q-1 65 -46 104t-122 40q-78 -1 -123 -40q-44 -39 -45 -104z" />
    <glyph glyph-name="uni0039" unicode="9" horiz-adv-x="610" 
d="M467 343q-25 -44 -72 -72q-48 -28 -120 -29q-102 2 -167 69q-64 67 -66 178q1 104 69 175t186 74q135 -1 200 -91q64 -90 64 -259q2 -160 -63 -277q-65 -118 -220 -124q-106 3 -160 56q-53 53 -64 125h99q9 -49 44 -77t91 -28q84 2 130 77q45 75 49 203zM298 662
q-72 -1 -115 -47t-44 -122q1 -76 44 -123q42 -47 114 -48q72 1 115 48q42 47 43 123q-1 76 -42 122q-42 46 -115 47z" />
    <glyph glyph-name="uni003A" unicode=":" horiz-adv-x="245" 
d="M65 538h115v-115h-115v115zM65 0v115h115v-115h-115z" />
    <glyph glyph-name="uni003B" unicode=";" horiz-adv-x="245" 
d="M61 -139l53 139h-49v115h115v-123l-61 -131h-58zM65 538h115v-115h-115v115z" />
    <glyph glyph-name="uni003C" unicode="&#x3c;" horiz-adv-x="678" 
d="M591 534v-98l-399 -168l399 -165v-97l-513 223v78z" />
    <glyph glyph-name="uni003D" unicode="=" horiz-adv-x="678" 
d="M89 419h501v-87h-501v87zM89 130v86h501v-86h-501z" />
    <glyph glyph-name="uni003E" unicode="&#x3e;" horiz-adv-x="678" 
d="M601 307v-78l-513 -223v97l399 165l-399 168v98z" />
    <glyph glyph-name="uni003F" unicode="?" horiz-adv-x="499" 
d="M484 562q-2 -71 -42 -122t-93 -84q-46 -28 -65 -51q-20 -23 -19 -62v-31h-93v34q0 61 31 99q31 37 93 75q40 24 66 57t27 81q-1 48 -38 76q-36 27 -95 28q-83 -3 -116 -47q-34 -43 -36 -92h-91q3 99 70 156q67 58 175 59q88 0 155 -43t71 -133zM163 115h115v-115h-115
v115z" />
    <glyph glyph-name="uni0040" unicode="@" horiz-adv-x="849" 
d="M508 245q-23 -44 -61 -67q-37 -22 -91 -22q-60 -1 -103 43q-43 43 -45 136q1 91 55 160q53 68 150 72q42 0 71 -21q30 -20 44 -55l8 59h71l-29 -218q-6 -29 -1 -66q4 -37 43 -41q39 1 67 47q27 46 28 130q-2 125 -77 189q-76 64 -201 64q-141 -3 -225 -88
q-84 -86 -86 -221q1 -125 72 -203q71 -79 200 -81q53 0 102 11q49 10 92 32l28 -69q-51 -24 -108 -36q-57 -13 -114 -13q-160 3 -255 103t-97 259q4 164 113 268q109 105 280 108q149 1 249 -77t104 -242q-3 -123 -55 -188q-53 -64 -123 -65q-41 0 -70 24q-29 23 -36 68z
M295 334q0 -52 22 -79q21 -26 61 -26q60 2 91 50q32 47 32 115q0 47 -23 72q-22 26 -64 26q-56 -2 -87 -48t-32 -110z" />
    <glyph glyph-name="uni0041" unicode="A" horiz-adv-x="660" 
d="M0 0l269 725h118l273 -725h-110l-57 157h-333l-56 -157h-104zM191 244h270l-136 378z" />
    <glyph glyph-name="uni0042" unicode="B" horiz-adv-x="672" 
d="M86 725h261q48 0 93.5 -6.5t80.5 -26t57.5 -54.5t23.5 -92q0 -48 -19 -91.5t-61 -68.5q57 -23 83.5 -67.5t26.5 -104.5q-3 -114 -76 -165q-42 -28 -88 -38.5t-96 -10.5h-286v725zM373 86q32 0 60 6.5t49 21.5t33 39t12 60q0 38 -13 61.5t-35 36.5t-51 18t-61 5h-179v-248
h185zM188 639v-224h175q61 0 98 26t38 91q-1 30 -12 50.5t-29.5 33t-43 18t-51.5 5.5h-175z" />
    <glyph glyph-name="uni0043" unicode="C" horiz-adv-x="726" 
d="M694 231q-26 -120 -110 -182t-204 -62q-157 3 -242 106q-86 102 -87 271q2 171 92 271q89 101 245 103q114 -1 196 -64q81 -63 106 -180h-99q-17 69 -69 113t-139 45q-98 0 -162 -73q-64 -74 -66 -215q2 -138 65 -214t166 -77q86 1 139 44t70 114h99z" />
    <glyph glyph-name="uni0044" unicode="D" horiz-adv-x="730" 
d="M284 725q176 3 284 -77q108 -81 111 -285q-3 -204 -111 -285t-284 -78h-198v725h198zM188 639v-553h93q117 -6 203 46q87 52 91 231q-4 179 -91 230q-86 52 -203 46h-93z" />
    <glyph glyph-name="uni0045" unicode="E" horiz-adv-x="613" 
d="M86 725h492v-88h-390v-220h367v-88h-367v-241h390v-88h-492v725z" />
    <glyph glyph-name="uni0046" unicode="F" horiz-adv-x="560" 
d="M86 725h471v-88h-369v-220h348v-88h-348v-329h-102v725z" />
    <glyph glyph-name="uni0047" unicode="G" horiz-adv-x="770" 
d="M589 514q-18 62 -68 99q-51 38 -138 39q-98 0 -162 -73q-64 -74 -66 -215q2 -138 64 -214t164 -77q77 -2 143 39q67 41 71 151v19h-192v88h288v-370h-80l-5 91q-36 -55 -96 -80q-59 -24 -133 -24q-158 3 -242 106q-85 102 -86 271q2 171 92 271q90 101 245 103
q114 -1 195 -59q81 -59 105 -165h-99z" />
    <glyph glyph-name="uni0048" unicode="H" horiz-adv-x="757" 
d="M86 0v725h102v-308h381v308h102v-725h-102v329h-381v-329h-102z" />
    <glyph glyph-name="uni0049" unicode="I" horiz-adv-x="274" 
d="M86 0v725h102v-725h-102z" />
    <glyph glyph-name="uni004A" unicode="J" horiz-adv-x="552" 
d="M466 725v-495q-1 -119 -61 -181t-167 -62t-166 60q-60 59 -61 177h95q2 -76 39 -115q38 -39 93 -39q47 -2 85 31q39 34 41 130v494h102z" />
    <glyph glyph-name="uni004B" unicode="K" horiz-adv-x="666" 
d="M86 725h102v-365l327 365h127l-271 -296l302 -429h-122l-249 354l-114 -126v-228h-102v725z" />
    <glyph glyph-name="uni004C" unicode="L" horiz-adv-x="571" 
d="M571 88v-88h-485v725h102v-637h383z" />
    <glyph glyph-name="uni004D" unicode="M" horiz-adv-x="884" 
d="M86 725h171l185 -604l185 604h171v-725h-102v632l-200 -632h-108l-200 632v-632h-102v725z" />
    <glyph glyph-name="uni004E" unicode="N" horiz-adv-x="755" 
d="M236 725l331 -617v617h102v-725h-149l-332 619v-619h-102v725h150z" />
    <glyph glyph-name="uni004F" unicode="O" horiz-adv-x="782" 
d="M391 -13q-158 3 -248 106t-92 270q2 167 92 270q90 102 248 105q158 -3 248 -105q90 -103 92 -270q-2 -167 -92 -270t-248 -106zM391 73q101 1 168 75q66 74 68 215q-2 141 -68 215q-67 73 -168 74q-101 -1 -167 -74q-67 -74 -69 -215q2 -141 69 -215q66 -74 167 -75z
" />
    <glyph glyph-name="uni0050" unicode="P" horiz-adv-x="636" 
d="M313 725q57 0 111.5 -7.5t105.5 -34.5q83 -46 84 -177q-1 -132 -84 -177q-51 -27 -105.5 -34.5t-111.5 -7.5h-125v-287h-102v725h227zM321 376q38 0 72 3t59.5 16t41 39t16.5 72q-1 46 -16.5 72.5t-41.5 40t-59.5 17t-71.5 3.5h-133v-263h133z" />
    <glyph glyph-name="uni0051" unicode="Q" horiz-adv-x="782" 
d="M51 363q1 80 23 147.5t64.5 118t106 79.5t146.5 30q83 -1 146.5 -30t106 -79.5t64.5 -118t23 -147.5q0 -72 -19.5 -139t-66.5 -124l86 -86l-62 -62l-89 89q-43 -28 -90.5 -41t-98.5 -13q-83 1 -146 30.5t-106 80t-65 118.5t-23 147zM155 363q1 -55 14.5 -107t42 -92.5
t73 -65t106.5 -25.5q67 0 122 35l-67 67l62 63l67 -68q29 41 40.5 92.5t11.5 100.5q-1 56 -14.5 108t-42 92t-72.5 64t-107 25q-62 -1 -106.5 -25t-73 -64t-42 -92t-14.5 -108z" />
    <glyph glyph-name="uni0052" unicode="R" horiz-adv-x="679" 
d="M86 725h230q58 0 112 -6.5t96 -28t67.5 -63t26.5 -111.5q-2 -75 -35 -125t-109 -69l168 -322h-114l-157 306q-14 -1 -27.5 -1h-27.5h-128v-305h-102v725zM188 391h136q36 0 69.5 3t60 15t42.5 36.5t17 68.5q-1 45 -17 70t-42.5 37t-60 15t-69.5 3h-136v-248z" />
    <glyph glyph-name="uni0053" unicode="S" horiz-adv-x="641" 
d="M318 738q100 1 176 -46q76 -48 99 -152h-99q-21 62 -72 88q-51 25 -108 24q-46 1 -98 -23q-52 -23 -56 -83q1 -48 34 -74t84 -37l84 -19q88 -15 164 -60q75 -45 80 -152q-4 -107 -84 -162t-192 -55q-129 1 -206 65q-77 63 -92 173h100q15 -75 66 -113q50 -39 134 -39
q81 1 125 34q43 34 44 88q-1 56 -44 85t-112 43l-90 19q-77 15 -137 62q-59 46 -62 136q5 103 87 151t175 47z" />
    <glyph glyph-name="uni0054" unicode="T" horiz-adv-x="574" 
d="M574 725v-88h-236v-637h-102v637h-236v88h574z" />
    <glyph glyph-name="uni0055" unicode="U" horiz-adv-x="731" 
d="M75 295v430h102v-441q-1 -104 43 -158q44 -51 144 -51q103 0 147 56q44 57 43 164v430h102v-422q2 -160 -67 -237q-21 -25 -48 -40.5t-57.5 -24t-62.5 -11.5t-63 -3q-145 0 -214 69q-71 71 -69 239z" />
    <glyph glyph-name="uni0056" unicode="V" horiz-adv-x="638" 
d="M123 725l201 -620l197 620h107l-246 -725h-122l-249 725h112z" />
    <glyph glyph-name="uni0057" unicode="W" horiz-adv-x="922" 
d="M16 725h112l140 -609l134 609h120l143 -609l134 609h107l-181 -725h-124l-140 596l-137 -596h-124z" />
    <glyph glyph-name="uni0058" unicode="X" horiz-adv-x="656" 
d="M269 373l-251 352h121l191 -268l193 268h115l-251 -348l269 -377h-120l-210 293l-211 -293h-115z" />
    <glyph glyph-name="uni0059" unicode="Y" horiz-adv-x="624" 
d="M0 725h112l198 -354l202 354h112l-266 -444v-281h-102v283z" />
    <glyph glyph-name="uni005A" unicode="Z" horiz-adv-x="633" 
d="M162 88h442v-88h-563v88l427 549h-394v88h514v-88z" />
    <glyph glyph-name="uni005B" unicode="[" horiz-adv-x="316" 
d="M306 725v-77h-137v-746h137v-77h-225v900h225z" />
    <glyph glyph-name="uni005C" unicode="\" horiz-adv-x="377" 
d="M285 0l-285 725h91l286 -725h-92z" />
    <glyph glyph-name="uni005D" unicode="]" horiz-adv-x="316" 
d="M235 725v-900h-225v77h137v746h-137v77h225z" />
    <glyph glyph-name="uni005E" unicode="^" horiz-adv-x="441" 
d="M179 725h78l205 -387h-98l-146 273l-143 -273h-97z" />
    <glyph glyph-name="uni005F" unicode="_" horiz-adv-x="458" 
d="M32 -1h394v-86h-394v86z" />
    <glyph glyph-name="uni0060" unicode="`" horiz-adv-x="251" 
d="M138 725l91 -116h-77l-130 116h116z" />
    <glyph glyph-name="uni0061" unicode="a" horiz-adv-x="559" 
d="M40 142q2 93 99 133t265 56v13q-1 73 -36 102q-34 30 -86 29q-57 0 -88 -29q-32 -28 -35 -78h-94q10 87 72 134t144 47q111 0 163 -54q52 -55 51 -168l-1 -124q-1 -67 3 -116q3 -49 11 -87h-92q-2 15 -4 33q-2 17 -3 41q-24 -42 -69 -64q-44 -23 -115 -23q-78 0 -130 40
q-53 40 -55 115zM411 259q-125 -11 -197 -36t-73 -79q0 -39 28 -62q27 -22 76 -23q66 -2 115 35t51 131v34z" />
    <glyph glyph-name="uni0062" unicode="b" horiz-adv-x="601" 
d="M72 725h91v-272q29 51 74 71.5t102 22.5q59 -1 102 -25t71 -63t42 -89t15 -103q-1 -53 -15 -103t-42 -89t-71 -63t-102 -25q-57 2 -102 22.5t-74 71.5v-81h-91v725zM159 267q0 -19 2.5 -40.5t8 -42t14.5 -39t23 -32.5q44 -48 109 -48q44 1 73 18.5t47 45.5t25.5 64
t8.5 74q-1 38 -9 74.5t-26 65t-48 45.5t-75 17q-60 0 -105 -48q-14 -14 -23 -32.5t-14.5 -39t-8 -42t-2.5 -40.5z" />
    <glyph glyph-name="uni0063" unicode="c" horiz-adv-x="557" 
d="M428 358q-11 49 -48 79q-38 29 -91 30q-63 0 -108 -48q-45 -49 -47 -150q2 -103 48 -152q45 -50 107 -50q58 1 95 33q38 31 48 75h94q-15 -78 -80 -132t-160 -56q-117 2 -183 79q-67 77 -68 202q1 122 70 200q69 77 190 79q98 -3 157 -60q58 -57 68 -129h-92z" />
    <glyph glyph-name="uni0064" unicode="d" horiz-adv-x="604" 
d="M35 267q1 53 15 103t42 89t71 63t102 25q57 -2 102 -22.5t74 -71.5v272h91v-725h-91v81q-29 -51 -74 -71.5t-102 -22.5q-59 1 -102 25t-71 63t-42 89t-15 103zM134 267q1 -38 9 -74.5t26 -65t48 -45.5t75 -17q60 0 105 48q14 14 23 32.5t14.5 39t8 42t2.5 40.5t-2.5 40.5
t-8 42t-14.5 39t-23 32.5q-44 48 -109 48q-43 -1 -72.5 -18.5t-47.5 -45.5t-25.5 -64t-8.5 -74z" />
    <glyph glyph-name="uni0065" unicode="e" horiz-adv-x="581" 
d="M133 239q6 -87 55 -129q49 -43 111 -43q60 1 95 25t52 64h94q-19 -72 -81 -119q-61 -48 -160 -50q-128 3 -196 81q-67 78 -68 200q3 129 75 203q73 75 186 76q124 -3 192 -90q67 -87 59 -218h-414zM451 317q-2 59 -42 105q-40 45 -113 47q-63 1 -108 -35
q-46 -37 -54 -117h317z" />
    <glyph glyph-name="uni0066" unicode="f" horiz-adv-x="313" 
d="M20 538h75v39q-2 83 27 116q9 11 23.5 17.5t31 9.5t33.5 4t30 1h47v-76h-45h-7q-30 0 -39 -12q-11 -15 -10 -55v-44h101v-73h-101v-465h-91v465h-75v73z" />
    <glyph glyph-name="uni0067" unicode="g" horiz-adv-x="597" 
d="M35 278q1 52 15.5 100t42.5 85.5t70.5 60t99.5 23.5q55 -2 99 -23t72 -71v85h91v-466q0 -23 -1.5 -49t-6.5 -51.5t-15.5 -48.5t-27.5 -40q-34 -39 -85 -55t-101 -16q-42 0 -79 9.5t-66.5 29.5t-49 51t-26.5 75h97q8 -38 36 -60q26 -23 89 -25q31 0 59.5 8.5t50.5 31.5
q12 11 19 25.5t10.5 30.5t4.5 32t1 31v51q-27 -50 -71.5 -71.5t-99.5 -21.5q-57 1 -99.5 23.5t-70.5 60t-42.5 85.5t-15.5 100zM134 278q1 -37 9.5 -72t27 -61.5t48 -42.5t71.5 -16q40 0 68 17t46 44t26 61.5t8 69.5q0 36 -8.5 70.5t-26.5 61.5t-47 43t-70 16t-69.5 -16.5
t-46.5 -43t-26.5 -61t-9.5 -70.5z" />
    <glyph glyph-name="uni0068" unicode="h" horiz-adv-x="578" 
d="M163 725v-268q28 49 74 68.5t100 21.5q97 -2 137 -57q41 -57 40 -150v-340h-91v313q2 66 -20 109q-23 45 -98 46q-40 0 -66.5 -14.5t-43 -38.5t-24 -56t-8.5 -67v-292h-91v725h91z" />
    <glyph glyph-name="uni0069" unicode="i" horiz-adv-x="235" 
d="M72 0v538h91v-538h-91zM163 725v-110h-91v110h91z" />
    <glyph glyph-name="uni006A" unicode="j" horiz-adv-x="235" 
d="M-10 -175v76h26q11 0 24.5 2t21.5 12q11 16 10 56v567h91v-565q2 -83 -24 -116q-9 -11 -21.5 -17.5t-26.5 -9.5t-28 -4t-27 -1h-46zM72 725h91v-110h-91v110z" />
    <glyph glyph-name="uni006B" unicode="k" horiz-adv-x="505" 
d="M163 725v-429l217 242h112l-205 -223l233 -315h-111l-183 248l-63 -68v-180h-91v725h91z" />
    <glyph glyph-name="uni006C" unicode="l" horiz-adv-x="235" 
d="M72 0v725h91v-725h-91z" />
    <glyph glyph-name="uni006D" unicode="m" horiz-adv-x="899" 
d="M163 538v-81q26 46 68 67t94 23q54 0 94.5 -22t60.5 -73q32 48 78 71.5t103 23.5q94 -2 134 -57q41 -57 40 -150v-340h-91v313q2 66 -20 109q-23 45 -95 46q-37 0 -62 -15.5t-40 -41t-21.5 -56.5t-6.5 -63v-292h-91v313q2 66 -20 109q-23 45 -95 46q-37 0 -62 -15.5
t-40 -41t-21.5 -56.5t-6.5 -63v-292h-91v538h91z" />
    <glyph glyph-name="uni006E" unicode="n" horiz-adv-x="578" 
d="M163 538v-81q28 49 74 68.5t100 21.5q97 -2 137 -57q41 -57 40 -150v-340h-91v313q2 66 -20 109q-23 45 -98 46q-40 0 -66.5 -14.5t-43 -38.5t-24 -56t-8.5 -67v-292h-91v538h91z" />
    <glyph glyph-name="uni006F" unicode="o" horiz-adv-x="590" 
d="M553 267q-4 -145 -82 -213t-176 -67q-98 -1 -176 67t-82 213q4 145 82 213t176 67q98 1 176 -67t82 -213zM295 67q64 0 111 48q48 49 50 152q-2 106 -50 154q-47 47 -111 46q-64 1 -111 -45q-48 -46 -50 -155q2 -106 50 -154q47 -47 111 -46z" />
    <glyph glyph-name="uni0070" unicode="p" horiz-adv-x="604" 
d="M72 538h91v-85q29 51 74 71.5t102 22.5q59 -1 102 -25t71 -63t42 -89t15 -103q-1 -53 -15 -103t-42 -89t-71 -63t-102 -25q-57 2 -102 22.5t-74 71.5v-256h-91v713zM159 267q0 -19 2.5 -40.5t8 -42t14.5 -39t23 -32.5q44 -48 109 -48q44 1 73 18.5t47 45.5t25.5 64
t8.5 74q-1 38 -9 74.5t-26 65t-48 45.5t-75 17q-60 0 -105 -48q-14 -14 -23 -32.5t-14.5 -39t-8 -42t-2.5 -40.5z" />
    <glyph glyph-name="uni0071" unicode="q" horiz-adv-x="604" 
d="M35 267q1 53 15 103t42 89t71 63t102 25q57 -2 102 -22.5t74 -71.5v85h91v-713h-91v256q-29 -51 -74 -71.5t-102 -22.5q-59 1 -102 25t-71 63t-42 89t-15 103zM134 267q1 -38 9 -74.5t26 -65t48 -45.5t75 -17q60 0 105 48q14 14 23 32.5t14.5 39t8 42t2.5 40.5t-2.5 40.5
t-8 42t-14.5 39t-23 32.5q-44 48 -109 48q-43 -1 -72.5 -18.5t-47.5 -45.5t-25.5 -64t-8.5 -74z" />
    <glyph glyph-name="uni0072" unicode="r" horiz-adv-x="355" 
d="M340 443q-28 4 -51 4q-63 1 -94 -38q-32 -39 -32 -127v-282h-91v538h89v-94q21 46 60 71q39 24 92 26h13q7 0 14 -1v-97z" />
    <glyph glyph-name="uni0073" unicode="s" horiz-adv-x="525" 
d="M380 381q-11 48 -45 69q-34 20 -82 20q-42 0 -76 -16q-35 -16 -37 -52q0 -32 22 -49q21 -17 60 -24l76 -15q76 -13 129 -48q53 -36 55 -112q-2 -80 -63 -123q-62 -43 -156 -44q-106 3 -165 58q-58 56 -66 129h96q10 -52 44 -81q33 -29 93 -29q53 0 88 21q36 21 37 59
q-1 40 -33 60q-31 21 -76 29l-80 16q-57 10 -104 43q-46 32 -49 106q2 72 63 111q60 39 152 39q88 -1 143 -45q55 -45 69 -122h-95z" />
    <glyph glyph-name="uni0074" unicode="t" horiz-adv-x="325" 
d="M13 465v73h85v135h91v-135h102v-73h-102v-319q-2 -41 9 -56q8 -14 41 -14h6h46v-76h-66q-12 0 -26 0.5t-28 3t-26.5 7.5t-21.5 15q-26 27 -25 109v330h-85z" />
    <glyph glyph-name="uni0075" unicode="u" horiz-adv-x="568" 
d="M64 194v344h91v-317q-2 -65 19 -109q23 -45 94 -46q39 0 65.5 14.5t42 39t22.5 56.5t7 66v296h91v-538h-91v77q-28 -48 -71.5 -68t-97.5 -22q-92 1 -133 57q-40 56 -39 150z" />
    <glyph glyph-name="uni0076" unicode="v" horiz-adv-x="487" 
d="M0 538h101l146 -412l146 412h94l-203 -538h-81z" />
    <glyph glyph-name="uni0077" unicode="w" horiz-adv-x="720" 
d="M103 538l103 -398l107 398h94l107 -398l103 398h98l-155 -538h-83l-119 433l-115 -433h-83l-155 538h98z" />
    <glyph glyph-name="uni0078" unicode="x" horiz-adv-x="520" 
d="M206 277l-186 261h109l131 -185l132 185h102l-183 -257l201 -281h-109l-146 205l-145 -205h-104z" />
    <glyph glyph-name="uni0079" unicode="y" horiz-adv-x="466" 
d="M101 538l137 -415l133 415h95l-192 -561q-12 -41 -26 -70t-35 -47t-51 -26.5t-75 -8.5h-47v76h37q27 0 45 4t31 13.5t21.5 26.5t15.5 44l4 11l-194 538h101z" />
    <glyph glyph-name="uni007A" unicode="z" horiz-adv-x="488" 
d="M344 459h-291v79h397v-79l-310 -380h316v-79h-423v79z" />
    <glyph glyph-name="uni007B" unicode="{" horiz-adv-x="290" 
d="M11 239v73q26 1 41.5 8.5t23 21t9.5 32.5t2 41v162q-2 83 27 116q10 11 24.5 17.5t31 9.5t33 4t30.5 1h47v-77h-45q-11 0 -25 -1.5t-21 -12.5q-11 -16 -10 -56v-165q0 -24 -3.5 -46t-12.5 -40t-25.5 -31t-42.5 -19v-3q26 -6 42.5 -19t25.5 -31t12.5 -40t3.5 -46v-166
q-1 -40 10 -56q7 -11 21 -12.5t25 -1.5h45v-77h-47q-14 0 -30.5 1t-33 4t-31 9.5t-24.5 17.5q-29 33 -27 116v163q0 23 -2 41.5t-9.5 32t-22.5 21t-42 8.5z" />
    <glyph glyph-name="uni007C" unicode="|" horiz-adv-x="255" 
d="M169 -90h-83v815h83v-815z" />
    <glyph glyph-name="uni007D" unicode="}" horiz-adv-x="290" 
d="M10 -98h45q11 0 25 1.5t21 12.5q11 16 10 56v166q0 24 3.5 46t12.5 40t25.5 31t42.5 19v3q-26 6 -42.5 19t-25.5 31t-12.5 40t-3.5 46v165q1 40 -10 56q-7 11 -21 12.5t-25 1.5h-45v77h47q14 0 30.5 -1t33 -4t31 -9.5t24.5 -17.5q29 -33 27 -116v-162q0 -23 2 -41.5
t9.5 -32t22.5 -21t42 -8.5v-73q-26 -1 -41.5 -8.5t-23 -21t-9.5 -32t-2 -41.5v-163q2 -83 -27 -116q-10 -11 -24.5 -17.5t-31 -9.5t-33 -4t-30.5 -1h-47v77z" />
    <glyph glyph-name="uni007E" unicode="~" horiz-adv-x="678" 
d="M606 355q-5 -66 -45 -107q-41 -40 -109 -41q-62 4 -118 34q-57 30 -108 34q-28 0 -47 -17q-19 -18 -22 -51h-85q4 66 45 107q40 40 109 41q71 -4 126 -34q55 -31 100 -35q28 0 47 18q18 18 22 51h85z" />
    <glyph glyph-name="uni00A0" unicode="&#xa0;" horiz-adv-x="237" 
 />
    <glyph glyph-name="uni00A1" unicode="&#xa1;" horiz-adv-x="245" 
d="M65 538h115v-115h-115v115zM74 -175v208l20 293h57l20 -293v-208h-97z" />
    <glyph glyph-name="uni00A2" unicode="&#xa2;" horiz-adv-x="546" 
d="M35 268q1 54 14.5 101.5t41.5 84t69.5 60.5t98.5 31v83h46v-81q41 -3 76.5 -17.5t63.5 -39t46 -58t23 -74.5h-92q-9 45 -40 73.5t-77 34.5v-398q47 5 78.5 32.5t42.5 74.5h94q-7 -40 -27 -72.5t-48.5 -56.5t-64.5 -39t-75 -19v-85h-46v85q-58 6 -100 30t-69.5 61.5
t-40.5 86t-14 102.5zM134 269q0 -32 6 -64.5t20.5 -60.5t38.5 -48t60 -27v395q-36 -6 -60 -25.5t-38 -46.5t-20.5 -59t-6.5 -64z" />
    <glyph glyph-name="uni00A3" unicode="&#xa3;" horiz-adv-x="571" 
d="M107 116q49 47 53 126q0 23 -5 45t-13 44h-121v65h91q-20 38 -34 76t-16 83q5 100 77 141q38 23 78 32.5t85 9.5q115 -1 180 -65q63 -63 62 -169h-94q-3 89 -46 123q-26 20 -52.5 27t-58.5 7q-54 0 -92.5 -26t-41.5 -84q1 -20 5 -39.5t12 -38.5t17.5 -38l19.5 -39h193
v-65h-164q6 -18 10 -36.5t4 -37.5q-2 -54 -30.5 -94.5t-75.5 -66.5l1 -2q8 3 16.5 5.5t16.5 4.5q17 3 35 3q21 -1 42 -6t41 -13q43 -19 95 -20q29 0 61 7.5t59 19.5l27 -79q-13 -8 -30.5 -14t-36.5 -10t-37.5 -6t-34.5 -3q-55 3 -103 20q-49 19 -106 20q-38 0 -75.5 -11
t-70.5 -29l-30 73q38 14 87 60z" />
    <glyph glyph-name="uni00A4" unicode="&#xa4;" horiz-adv-x="636" 
d="M54 555l49 49l68 -68q30 23 67 36q36 13 77 13q42 0 80 -13q37 -14 67 -38l71 70l49 -49l-72 -72q20 -29 32 -64t12 -73t-11 -73q-12 -35 -33 -64l72 -71l-49 -49l-71 70q-31 -23 -68 -36q-38 -13 -79 -13t-77 13q-36 12 -66 35l-69 -69l-49 49l69 70q-21 29 -32 64
q-12 35 -12 74t12 74q11 36 32 65zM314 185q72 2 115 47q44 45 45 114q-1 71 -45 117q-43 46 -115 48q-68 -2 -109 -48q-42 -46 -43 -117q1 -69 43 -114q41 -45 109 -47z" />
    <glyph glyph-name="uni00A5" unicode="&#xa5;" horiz-adv-x="603" 
d="M102 725l198 -375l202 375h106l-239 -410h145v-64h-171v-76h171v-64h-171v-111h-92v111h-163v64h163v76h-163v64h138l-231 410h107z" />
    <glyph glyph-name="uni00A6" unicode="&#xa6;" horiz-adv-x="227" 
d="M155 725v-305h-83v305h83zM72 -90v305h83v-305h-83z" />
    <glyph glyph-name="uni00A7" unicode="&#xa7;" horiz-adv-x="580" 
d="M396 -36q1 29 -19 53t-77 55l-130 69q-59 31 -96 74q-36 42 -37 100q1 53 38 91q37 37 92 55q-33 21 -57 55q-23 33 -24 81q3 71 61 106t134 35q90 -1 144 -44t66 -116h-95q-9 45 -41 65q-33 19 -78 19t-71 -17q-26 -16 -27 -44q-1 -26 18 -47q18 -21 63 -44l137 -74
q66 -33 106 -73t41 -100q-1 -55 -35 -97q-33 -41 -89 -65q32 -24 50 -53q19 -29 19 -70q-2 -80 -60 -122q-58 -41 -143 -41q-95 1 -152 50q-58 49 -66 136h94q7 -51 37 -80t89 -30q48 0 78 19q29 18 30 54zM239 421q-41 -11 -75 -37q-35 -25 -37 -63q0 -30 18 -53
q19 -23 61 -46l147 -80q38 16 68 42t32 63q0 34 -25 61q-25 26 -78 54z" />
    <glyph glyph-name="uni00A8" unicode="&#xa8;" horiz-adv-x="365" 
d="M251 725h92v-99h-92v99zM22 626v99h91v-99h-91z" />
    <glyph glyph-name="uni00A9" unicode="&#xa9;" horiz-adv-x="825" 
d="M413 738q159 -3 265 -104q105 -102 109 -273q-4 -169 -109 -270q-106 -101 -265 -104q-160 3 -265 104q-106 101 -110 270q4 171 110 273q105 101 265 104zM413 54q132 2 215 85q82 83 85 222q-3 141 -85 225q-83 83 -215 85q-130 -2 -214 -85q-84 -84 -87 -225
q3 -139 87 -222t214 -85zM589 282q-16 -49 -60 -83q-44 -35 -117 -36q-91 1 -139 56q-49 54 -49 152q1 97 51 151q51 53 140 54q71 -1 114 -36q43 -36 57 -91l-75 -21q-10 42 -37 64q-26 21 -62 21q-47 0 -76 -35q-29 -34 -30 -107q1 -73 30 -108q29 -36 76 -36q34 -1 61 17
q28 17 40 58z" />
    <glyph glyph-name="uni00AA" unicode="&#xaa;" horiz-adv-x="345" 
d="M29 519q2 35 24 55.5t52.5 32t64.5 15.5t61 5v13q-1 32 -18 46q-11 8 -21.5 10t-24.5 2q-22 0 -39 -12q-18 -14 -19 -40h-71q3 28 15.5 48t32 32.5t44 18.5t49.5 6q64 0 93.5 -33t31.5 -96q-1 -8 -1 -18v-21q-1 -11 -1 -23.5v-26.5q1 -13 1 -25.5t1 -24.5q1 -13 1.5 -24
t2.5 -21h-66q-1 7 -1 12v9v21q-15 -27 -43.5 -38t-57.5 -11q-21 1 -41 5.5t-35.5 15t-25 27t-9.5 40.5zM105 522q2 -19 15 -27.5t30 -8.5q44 2 63 22q18 23 18 55v12q-72 -7 -99 -18q-29 -12 -27 -35z" />
    <glyph glyph-name="uni00AB" unicode="&#xab;" horiz-adv-x="514" 
d="M235 273l159 228h98l-150 -228l150 -229h-98zM169 501h98l-150 -228l150 -229h-98l-159 229z" />
    <glyph glyph-name="uni00AC" unicode="&#xac;" horiz-adv-x="678" 
d="M58 430h522v-332h-92v246h-430v86z" />
    <glyph glyph-name="uni00AD" unicode="&#xad;" horiz-adv-x="405" 
d="M43 317h318v-86h-318v86z" />
    <glyph glyph-name="uni00AE" unicode="&#xae;" horiz-adv-x="825" 
d="M38 361q2 83 29.5 151.5t76.5 118t117 78t152 29.5q84 -1 152 -29.5t116.5 -78t76 -118t29.5 -151.5q-2 -82 -30 -150.5t-76.5 -117.5t-116.5 -77t-151 -29q-83 1 -151 29t-117 77t-77 117.5t-30 150.5zM112 361q2 -67 23.5 -123t60.5 -96.5t94 -63.5t123 -24
q69 1 123.5 23.5t93.5 63t60.5 97t22.5 123.5q-1 68 -22.5 124.5t-60 97.5t-93.5 64t-124 24q-69 -1 -124 -24t-94 -64.5t-60 -98t-23 -123.5zM267 176v399h122q36 0 69.5 -3t59.5 -15t42 -37t17 -69q0 -37 -19 -64t-53 -42l92 -169h-91l-81 152h-76v-152h-82zM349 391h58
q15 0 31 2t28.5 8.5t20.5 18t8 30.5q-1 21 -9.5 33t-21.5 18t-29 7.5t-33 1.5h-53v-119z" />
    <glyph glyph-name="uni00AF" unicode="&#xaf;" horiz-adv-x="344" 
d="M22 710h300v-75h-300v75z" />
    <glyph glyph-name="uni00B0" unicode="&#xb0;" horiz-adv-x="337" 
d="M168 738q63 -1 105 -43q41 -41 43 -104q-2 -62 -43 -104q-42 -41 -105 -43q-62 2 -103 43q-41 42 -43 104q2 63 43 104q41 42 103 43zM168 512q34 1 55 23q20 23 21 56q-1 34 -21 56q-21 22 -55 23q-33 -1 -53 -23q-19 -22 -20 -56q1 -33 20 -56q20 -22 53 -23z" />
    <glyph glyph-name="uni00B1" unicode="&#xb1;" horiz-adv-x="678" 
d="M78 377h215v155h92v-155h215v-86h-215v-156h-92v156h-215v86zM78 86h522v-86h-522v86z" />
    <glyph glyph-name="uni00B2" unicode="&#xb2;" horiz-adv-x="348" 
d="M312 745q-1 -60 -53 -120q-53 -60 -149 -124h211v-63h-299v59q101 78 157 136t57 107q0 29 -17 44t-45 15q-29 1 -50 -19t-21 -66h-73q0 63 39 101q40 37 108 38q58 0 96 -28t39 -80z" />
    <glyph glyph-name="uni00B3" unicode="&#xb3;" horiz-adv-x="361" 
d="M257 553q0 37 -26 53q-25 15 -69 15h-24v59h20q46 0 68 16q22 15 22 45q-1 30 -21 44t-47 14q-36 0 -56 -20q-20 -21 -25 -57h-70q5 61 45 96q41 34 111 35q53 0 94 -26t43 -83q0 -30 -16 -54q-16 -23 -41 -36q33 -14 50 -41t17 -58q-2 -63 -46 -93q-45 -31 -109 -31
q-71 2 -110 40q-39 39 -43 96h70q5 -33 25 -57q20 -23 59 -24q34 0 56 18q22 17 23 49z" />
    <glyph glyph-name="uni00B4" unicode="&#xb4;" horiz-adv-x="251" 
d="M22 609l90 116h117l-131 -116h-76z" />
    <glyph glyph-name="uni00B5" unicode="&#xb5;" horiz-adv-x="574" 
d="M59 -175q8 29 9 64q1 19 1.5 42t0.5 52v555h91v-316q0 -31 4 -59.5t16.5 -49.5t35.5 -33.5t60 -12.5q38 0 63.5 14.5t40.5 38.5t21.5 55t7.5 64v299h91v-538h-91v74q-22 -36 -53.5 -60.5t-75.5 -26.5q-36 2 -68 15t-52 45v-56q0 -64 -3 -101q-1 -36 -9 -65h-90z" />
    <glyph glyph-name="uni00B6" unicode="&#xb6;" horiz-adv-x="521" 
d="M0 537q0 54 20 90t53.5 57.5t77 30.5t90.5 10h208v-814h-76v744h-121v-744h-76v449q-77 8 -125 53t-51 124z" />
    <glyph glyph-name="uni00B7" unicode="&#xb7;" horiz-adv-x="245" 
d="M65 327h115v-115h-115v115z" />
    <glyph glyph-name="uni00B8" unicode="&#xb8;" horiz-adv-x="245" 
d="M38 -136q13 -6 28 -10q16 -4 30 -4q23 0 41 7q19 7 20 25q0 15 -13 23q-12 7 -31 7q-9 0 -19 -2q-11 -2 -19 -7l-30 17l51 83h53l-32 -51q8 2 15 2q8 1 15 1q36 0 56 -19q20 -18 20 -49q-2 -40 -35 -61t-73 -21q-20 0 -44 4q-24 3 -49 15z" />
    <glyph glyph-name="uni00B9" unicode="&#xb9;" horiz-adv-x="232" 
d="M102 746h-89v50q44 0 69 9t39 41h55v-408h-74v308z" />
    <glyph glyph-name="uni00BA" unicode="&#xba;" horiz-adv-x="355" 
d="M29 589q2 81 46 120q43 39 103 39q61 0 104 -39t45 -120q-2 -81 -45 -120q-43 -38 -104 -38q-60 0 -103 38q-44 39 -46 120zM253 589q0 50 -21 75q-20 26 -54 26q-33 0 -53 -26t-21 -75q1 -50 21 -75t53 -25q34 0 54 25q21 25 21 75z" />
    <glyph glyph-name="uni00BB" unicode="&#xbb;" horiz-adv-x="514" 
d="M22 44l151 229l-151 228h98l159 -228l-159 -229h-98zM247 44l151 229l-151 228h98l159 -228l-159 -229h-98z" />
    <glyph glyph-name="uni00BC" unicode="&#xbc;" horiz-adv-x="810" 
d="M32 0l500 725h101l-500 -725h-101zM449 94v58l202 256h73v-253h70v-61h-70v-94h-74v94h-201zM13 625v50q17 0 33.5 1t30.5 6t25.5 15t18.5 28h55v-408h-74v308h-89zM650 155v159l-122 -159h122z" />
    <glyph glyph-name="uni00BD" unicode="&#xbd;" horiz-adv-x="780" 
d="M532 725h101l-500 -725h-101zM455 0v59q51 39 90 73t67 63q56 59 57 107q0 32 -18.5 45.5t-47.5 13.5q-18 0 -31 -7t-21 -19t-11.5 -27.5t-3.5 -31.5h-73q0 69 40.5 103t106.5 36q26 0 50 -6t42.5 -19t30 -33.5t12.5 -49.5q-1 -39 -22 -75t-51 -67t-65 -56.5t-64 -45.5
h211v-63h-299zM13 625v50q17 0 33.5 1t30.5 6t25.5 15t18.5 28h55v-408h-74v308h-89z" />
    <glyph glyph-name="uni00BE" unicode="&#xbe;" horiz-adv-x="939" 
d="M661 725h101l-500 -725h-101zM578 94v58l202 256h73v-253h70v-61h-70v-94h-74v94h-201zM94 446q5 -36 26 -57.5t58 -23.5q32 0 54.5 16.5t24.5 50.5q0 21 -8 34.5t-21.5 21t-30.5 10t-35 2.5h-24v59h20q16 0 32 2.5t29 9t21 18.5t8 31q-2 29 -21 43.5t-47 14.5
q-37 0 -56.5 -21t-24.5 -56h-70q3 34 15.5 58.5t33 40.5t48 23.5t59.5 8.5q26 0 50.5 -6t43.5 -19.5t30.5 -34t12.5 -49.5q0 -30 -15.5 -53t-41.5 -37q31 -13 49 -39.5t18 -59.5q-1 -33 -14 -56.5t-34.5 -38.5t-49 -22t-57.5 -7q-63 2 -105.5 36t-47.5 100h70zM657 155h122
v159z" />
    <glyph glyph-name="uni00BF" unicode="&#xbf;" horiz-adv-x="499" 
d="M215 538h115v-115h-115v115zM13 -13q2 70 43 117q40 46 88 80q34 23 59 46q24 23 25 65v31h93v-34q-2 -67 -40 -103q-37 -35 -83 -65q-35 -24 -61 -55q-27 -30 -28 -79q1 -47 37 -73q37 -26 97 -26q80 3 113 47q32 43 33 88h91q-3 -98 -70 -156q-66 -58 -172 -59
q-88 0 -155 42q-67 43 -70 134z" />
    <glyph glyph-name="uni00C0" unicode="&#xc0;" horiz-adv-x="660" 
d="M269 725h118l273 -725h-110l-57 157h-333l-56 -157h-104zM191 244h270l-136 378zM137 886h129l110 -113h-91z" />
    <glyph glyph-name="uni00C1" unicode="&#xc1;" horiz-adv-x="660" 
d="M0 0l269 725h118l273 -725h-110l-57 157h-333l-56 -157h-104zM191 244h270l-136 378zM395 886h129l-149 -113h-90z" />
    <glyph glyph-name="uni00C2" unicode="&#xc2;" horiz-adv-x="660" 
d="M0 0l269 725h118l273 -725h-110l-57 157h-333l-56 -157h-104zM191 244h270l-136 378zM155 773l135 113h83l132 -113h-107l-68 56l-68 -56h-107z" />
    <glyph glyph-name="uni00C3" unicode="&#xc3;" horiz-adv-x="660" 
d="M269 725h118l273 -725h-110l-57 157h-333l-56 -157h-104zM191 244h270l-136 378zM146 775q8 47 35.5 79.5t79.5 32.5q44 -3 73 -23q28 -21 62 -24q21 0 32.5 12.5t14.5 32.5h71q-8 -49 -35.5 -81t-80.5 -32q-43 3 -75 24q-33 20 -61 23q-20 0 -31.5 -12t-13.5 -32h-71z
" />
    <glyph glyph-name="uni00C4" unicode="&#xc4;" horiz-adv-x="660" 
d="M0 0l269 725h118l273 -725h-110l-57 157h-333l-56 -157h-104zM461 244l-136 378l-134 -378h270zM399 780v99h92v-99h-92zM170 879h91v-99h-91v99z" />
    <glyph glyph-name="uni00C5" unicode="&#xc5;" horiz-adv-x="660" 
d="M0 0l269 725h118l273 -725h-110l-57 157h-333l-56 -157h-104zM461 244l-136 378l-134 -378h270zM240 850q2 39 27 61t63 24q38 -2 63.5 -24t27.5 -61q-2 -40 -27 -61.5t-64 -23.5q-38 2 -63 23.5t-27 61.5zM287 850q2 -18 13 -30t30 -12q18 0 30 12q11 10 13 30
q-2 18 -12.5 30.5t-30.5 12.5q-16 0 -30 -12q-11 -11 -13 -31z" />
    <glyph glyph-name="uni00C6" unicode="&#xc6;" horiz-adv-x="1050" 
d="M528 725h492v-88h-389v-220h366v-88h-366v-241h389v-88h-492v155h-305l-111 -155h-112zM528 244v335l-241 -335h241z" />
    <glyph glyph-name="uni00C7" unicode="&#xc7;" horiz-adv-x="726" 
d="M288 -136q13 -6 28 -10q16 -4 30 -4q23 0 41 7q19 7 20 25q0 15 -13 23q-12 7 -31 7q-9 0 -19 -2q-11 -2 -19 -7l-30 17l42 69q-137 17 -211 118q-74 100 -75 257q2 171 92 271q89 101 245 103q114 -1 196 -64q81 -63 106 -180h-99q-17 69 -69 113t-139 45
q-98 0 -162 -73q-64 -74 -66 -215q2 -138 65 -214t166 -77q86 1 139 44t70 114h99q-26 -118 -107 -180q-82 -61 -198 -64l-22 -35q8 2 15 2q8 1 15 1q36 0 56 -19q20 -18 20 -49q-2 -40 -35 -61t-73 -21q-20 0 -44 4q-24 3 -49 15z" />
    <glyph glyph-name="uni00C8" unicode="&#xc8;" horiz-adv-x="613" 
d="M86 725h492v-88h-390v-220h367v-88h-367v-241h390v-88h-492v725zM159 886h129l110 -113h-91z" />
    <glyph glyph-name="uni00C9" unicode="&#xc9;" horiz-adv-x="613" 
d="M86 725h492v-88h-390v-220h367v-88h-367v-241h390v-88h-492v725zM287 773l110 113h129l-149 -113h-90z" />
    <glyph glyph-name="uni00CA" unicode="&#xca;" horiz-adv-x="613" 
d="M86 725h492v-88h-390v-220h367v-88h-367v-241h390v-88h-492v725zM164 773l135 113h83l132 -113h-107l-68 56l-68 -56h-107z" />
    <glyph glyph-name="uni00CB" unicode="&#xcb;" horiz-adv-x="613" 
d="M86 725h492v-88h-390v-220h367v-88h-367v-241h390v-88h-492v725zM401 780v99h92v-99h-92zM263 879v-99h-91v99h91z" />
    <glyph glyph-name="uni00CC" unicode="&#xcc;" horiz-adv-x="274" 
d="M73 886l110 -113h-91l-148 113h129zM86 0v725h102v-725h-102z" />
    <glyph glyph-name="uni00CD" unicode="&#xcd;" horiz-adv-x="274" 
d="M92 773l110 113h129l-149 -113h-90zM86 0v725h102v-725h-102z" />
    <glyph glyph-name="uni00CE" unicode="&#xce;" horiz-adv-x="274" 
d="M86 0v725h102v-725h-102zM97 886h83l132 -113h-107l-68 56l-68 -56h-107z" />
    <glyph glyph-name="uni00CF" unicode="&#xcf;" horiz-adv-x="274" 
d="M188 725v-725h-102v725h102zM298 879v-99h-92v99h92zM-23 879h91v-99h-91v99z" />
    <glyph glyph-name="uni00D0" unicode="&#xd0;" horiz-adv-x="729" 
d="M22 413h64v312h198q95 0 167.5 -19.5t123 -63t77 -112t27.5 -167.5q-3 -204 -111 -285q-62 -47 -135 -62.5t-149 -15.5h-198v323h-64v90zM281 86q6 0 12 -0.5t12 -0.5q102 0 179 47q86 52 91 231q-5 179 -91 230q-77 47 -179 47q-6 0 -12 -0.5t-12 -0.5h-93v-226h159v-90
h-159v-237h93z" />
    <glyph glyph-name="uni00D1" unicode="&#xd1;" horiz-adv-x="755" 
d="M86 725h150l331 -617v617h102v-725h-149l-332 619v-619h-102v725zM213 775q8 47 35.5 79.5t79.5 32.5q44 -3 73 -23q28 -21 62 -24q21 0 32.5 12.5t14.5 32.5h71q-8 -49 -35.5 -81t-80.5 -32q-43 3 -75 24q-33 20 -61 23q-20 0 -31.5 -12t-13.5 -32h-71z" />
    <glyph glyph-name="uni00D2" unicode="&#xd2;" horiz-adv-x="782" 
d="M327 886l110 -113h-91l-148 113h129zM391 -13q-158 3 -248 106t-92 270q2 167 92 270q90 102 248 105q158 -3 248 -105q90 -103 92 -270q-2 -167 -92 -270t-248 -106zM391 73q101 1 168 75q66 74 68 215q-2 141 -68 215q-67 73 -168 74q-101 -1 -167 -74
q-67 -74 -69 -215q2 -141 69 -215q66 -74 167 -75z" />
    <glyph glyph-name="uni00D3" unicode="&#xd3;" horiz-adv-x="782" 
d="M346 773l110 113h129l-149 -113h-90zM391 -13q-158 3 -248 106t-92 270q2 167 92 270q90 102 248 105q158 -3 248 -105q90 -103 92 -270q-2 -167 -92 -270t-248 -106zM391 73q101 1 168 75q66 74 68 215q-2 141 -68 215q-67 73 -168 74q-101 -1 -167 -74
q-67 -74 -69 -215q2 -141 69 -215q66 -74 167 -75z" />
    <glyph glyph-name="uni00D4" unicode="&#xd4;" horiz-adv-x="782" 
d="M51 363q1 80 23 147.5t64.5 118t106 79.5t146.5 30q83 -1 146.5 -30t106 -79.5t64.5 -118t23 -147.5q-1 -79 -23 -147t-65 -118.5t-106 -80t-146 -30.5q-83 1 -146 30.5t-106 80t-65 118.5t-23 147zM155 363q1 -55 14.5 -107t42 -92.5t73 -65t106.5 -25.5
q62 1 106.5 25.5t73 64.5t42 92t14.5 108q-1 56 -14.5 108t-42 92t-72.5 64t-107 25q-62 -1 -106.5 -25t-73 -64t-42 -92t-14.5 -108zM216 773l135 113h83l132 -113h-107l-68 56l-68 -56h-107z" />
    <glyph glyph-name="uni00D5" unicode="&#xd5;" horiz-adv-x="782" 
d="M575 885q-11 -62 -43 -88t-73 -25q-44 3 -75 24q-31 20 -61 23q-20 0 -31 -11q-12 -12 -14 -33h-71q10 58 41 85t74 27q44 -3 73 -23q29 -21 62 -24q19 0 31 11q13 12 16 34h71zM391 -13q-158 3 -248 106t-92 270q2 167 92 270q90 102 248 105q158 -3 248 -105
q90 -103 92 -270q-2 -167 -92 -270t-248 -106zM391 73q101 1 168 75q66 74 68 215q-2 141 -68 215q-67 73 -168 74q-101 -1 -167 -74q-67 -74 -69 -215q2 -141 69 -215q66 -74 167 -75z" />
    <glyph glyph-name="uni00D6" unicode="&#xd6;" horiz-adv-x="782" 
d="M51 363q1 80 23 147.5t64.5 118t106 79.5t146.5 30q83 -1 146.5 -30t106 -79.5t64.5 -118t23 -147.5q-1 -79 -23 -147t-65 -118.5t-106 -80t-146 -30.5q-83 1 -146 30.5t-106 80t-65 118.5t-23 147zM155 363q1 -55 14.5 -107t42 -92.5t73 -65t106.5 -25.5
q62 1 106.5 25.5t73 64.5t42 92t14.5 108q-1 56 -14.5 108t-42 92t-72.5 64t-107 25q-62 -1 -106.5 -25t-73 -64t-42 -92t-14.5 -108zM460 879h92v-99h-92v99zM231 879h91v-99h-91v99z" />
    <glyph glyph-name="uni00D7" unicode="&#xd7;" horiz-adv-x="678" 
d="M336 203l-167 -166l-65 64l168 167l-168 169l65 64l167 -167l168 166l65 -64l-168 -168l173 -173l-64 -65z" />
    <glyph glyph-name="uni00D8" unicode="&#xd8;" horiz-adv-x="781" 
d="M391 -13q-67 0 -122 20q-56 20 -98 58l-67 -79l-40 36l69 81q-40 50 -61 116t-21 144q2 167 92 270q90 102 248 105q66 0 121 -20t98 -57l58 69l40 -35l-61 -72q41 -49 62 -115q22 -67 22 -145q-2 -167 -92 -270t-248 -106zM548 589q-32 31 -72 47t-85 16
q-101 -1 -167 -74q-67 -74 -69 -215q0 -56 12 -102q11 -45 32 -80zM233 137q31 -32 72 -48q40 -16 86 -16q101 1 168 75q66 74 68 215q0 56 -12 102t-34 81z" />
    <glyph glyph-name="uni00D9" unicode="&#xd9;" horiz-adv-x="731" 
d="M75 295v430h102v-441q-1 -104 43 -158q44 -51 144 -51q103 0 147 56q44 57 43 164v430h102v-422q2 -160 -67 -237q-21 -25 -48 -40.5t-57.5 -24t-62.5 -11.5t-63 -3q-145 0 -214 69q-71 71 -69 239zM172 886h129l110 -113h-91z" />
    <glyph glyph-name="uni00DA" unicode="&#xda;" horiz-adv-x="731" 
d="M75 295v430h102v-441q-1 -104 43 -158q44 -51 144 -51q103 0 147 56q44 57 43 164v430h102v-422q2 -160 -67 -237q-21 -25 -48 -40.5t-57.5 -24t-62.5 -11.5t-63 -3q-145 0 -214 69q-71 71 -69 239zM420 886h129l-149 -113h-90z" />
    <glyph glyph-name="uni00DB" unicode="&#xdb;" horiz-adv-x="731" 
d="M75 295v430h102v-441q-1 -104 43 -158q44 -51 144 -51q103 0 147 56q44 57 43 164v430h102v-422q2 -160 -67 -237q-21 -25 -48 -40.5t-57.5 -24t-62.5 -11.5t-63 -3q-145 0 -214 69q-71 71 -69 239zM190 773l135 113h83l132 -113h-107l-68 56l-68 -56h-107z" />
    <glyph glyph-name="uni00DC" unicode="&#xdc;" horiz-adv-x="731" 
d="M75 295v430h102v-441q-1 -104 43 -158q44 -51 144 -51q103 0 147 56q44 57 43 164v430h102v-422q2 -160 -67 -237q-21 -25 -48 -40.5t-57.5 -24t-62.5 -11.5t-63 -3q-145 0 -214 69q-71 71 -69 239zM434 879h92v-99h-92v99zM205 780v99h91v-99h-91z" />
    <glyph glyph-name="uni00DD" unicode="&#xdd;" horiz-adv-x="624" 
d="M112 725l198 -354l202 354h112l-266 -444v-281h-102v283l-256 442h112zM357 886h129l-149 -113h-90z" />
    <glyph glyph-name="uni00DE" unicode="&#xde;" horiz-adv-x="620" 
d="M86 725h102v-126h109q62 0 116 -8.5t95 -33t65 -68.5t25 -115q-2 -131 -84 -179q-50 -29 -105 -37t-112 -8h-109v-150h-102v725zM188 240h116q38 0 72 4t60 17.5t41.5 40.5t16.5 72q-1 86 -55 112q-32 15 -66 19t-69 4h-116v-269z" />
    <glyph glyph-name="uni00DF" unicode="&#xdf;" horiz-adv-x="633" 
d="M72 491q0 66 14 108q15 43 41 69q36 38 88 54q52 15 113 15q99 -1 161 -46q63 -46 65 -126q0 -54 -26 -94q-27 -40 -83 -63q65 -16 107 -61q43 -46 44 -133q-4 -125 -82 -177q-79 -52 -185 -50q-26 0 -54 3q-29 3 -55 8l20 86q21 -7 45 -11q25 -4 48 -4q65 -1 114 31
t51 113q-1 80 -56 113q-56 33 -147 32h-3v83h2q81 0 124 30q44 29 44 83q-1 49 -37 78q-37 29 -98 30q-42 1 -77 -10q-34 -10 -56 -39q-14 -17 -23 -46q-8 -29 -8 -76v-491h-91v491z" />
    <glyph glyph-name="uni00E0" unicode="&#xe0;" horiz-adv-x="559" 
d="M232 725l91 -116h-77l-130 116h116zM40 142q2 93 99 133t265 56v13q-1 73 -36 102q-34 30 -86 29q-57 0 -88 -29q-32 -28 -35 -78h-94q10 87 72 134t144 47q111 0 163 -54q52 -55 51 -168l-1 -124q-1 -67 3 -116q3 -49 11 -87h-92q-2 15 -4 33q-2 17 -3 41
q-24 -42 -69 -64q-44 -23 -115 -23q-78 0 -130 40q-53 40 -55 115zM411 259q-125 -11 -197 -36t-73 -79q0 -39 28 -62q27 -22 76 -23q66 -2 115 35t51 131v34z" />
    <glyph glyph-name="uni00E1" unicode="&#xe1;" horiz-adv-x="559" 
d="M236 609l90 116h117l-131 -116h-76zM40 142q2 93 99 133t265 56v13q-1 73 -36 102q-34 30 -86 29q-57 0 -88 -29q-32 -28 -35 -78h-94q10 87 72 134t144 47q111 0 163 -54q52 -55 51 -168l-1 -124q-1 -67 3 -116q3 -49 11 -87h-92q-2 15 -4 33q-2 17 -3 41
q-24 -42 -69 -64q-44 -23 -115 -23q-78 0 -130 40q-53 40 -55 115zM411 259q-125 -11 -197 -36t-73 -79q0 -39 28 -62q27 -22 76 -23q66 -2 115 35t51 131v34z" />
    <glyph glyph-name="uni00E2" unicode="&#xe2;" horiz-adv-x="559" 
d="M139 275q49 20 114.5 34t150.5 22v13q-2 61 -30 96t-92 35q-51 0 -85.5 -26.5t-37.5 -80.5h-94q5 43 24 76.5t47.5 57t65.5 35.5t79 12q111 0 163 -54q53 -55 51 -168l-1 -124q-1 -67 3 -116q2 -25 4.5 -46.5t6.5 -40.5h-92l-2 16t-2 17q-1 15 -3 41q-14 -25 -34.5 -42
t-44.5 -27t-51 -14t-54 -4q-36 0 -69 9.5t-58.5 28.5t-41 48.5t-16.5 68.5q1 92 99 133zM141 144q0 -24 9.5 -40.5t24.5 -26t34.5 -14t40.5 -4.5q80 0 119.5 44t41.5 122v34q-125 -11 -197 -36t-73 -79zM109 609l132 116h89l129 -116h-96l-79 54l-79 -54h-96z" />
    <glyph glyph-name="uni00E3" unicode="&#xe3;" horiz-adv-x="559" 
d="M458 725q-11 -61 -43 -87q-32 -27 -73 -26q-44 3 -75 24t-61 24q-20 0 -31 -11q-12 -12 -14 -33h-71q10 58 41 85t74 27q44 -3 73 -24t62 -24q19 0 31 11q13 12 16 34h71zM40 142q2 93 99 133t265 56v13q-1 73 -36 102q-34 30 -86 29q-57 0 -88 -29q-32 -28 -35 -78h-94
q10 87 72 134t144 47q111 0 163 -54q52 -55 51 -168l-1 -124q-1 -67 3 -116q3 -49 11 -87h-92q-2 15 -4 33q-2 17 -3 41q-24 -42 -69 -64q-44 -23 -115 -23q-78 0 -130 40q-53 40 -55 115zM411 259q-125 -11 -197 -36t-73 -79q0 -39 28 -62q27 -22 76 -23q66 -2 115 35
t51 131v34z" />
    <glyph glyph-name="uni00E4" unicode="&#xe4;" horiz-adv-x="559" 
d="M139 275q49 20 114.5 34t150.5 22v13q-2 61 -30 96t-92 35q-51 0 -85.5 -26.5t-37.5 -80.5h-94q5 43 24 76.5t47.5 57t65.5 35.5t79 12q111 0 163 -54q53 -55 51 -168l-1 -124q-1 -67 3 -116q2 -25 4.5 -46.5t6.5 -40.5h-92l-2 16t-2 17q-1 15 -3 41q-14 -25 -34.5 -42
t-44.5 -27t-51 -14t-54 -4q-36 0 -69 9.5t-58.5 28.5t-41 48.5t-16.5 68.5q1 92 99 133zM141 144q0 -24 9.5 -40.5t24.5 -26t34.5 -14t40.5 -4.5q80 0 119.5 44t41.5 122v34q-125 -11 -197 -36t-73 -79zM343 725h92v-99h-92v99zM205 725v-99h-91v99h91z" />
    <glyph glyph-name="uni00E5" unicode="&#xe5;" horiz-adv-x="559" 
d="M375 685q-1 -37 -26 -61q-26 -23 -65 -24q-38 1 -64 24q-25 24 -26 61q1 38 27 61q25 23 63 24q39 -1 64 -24q26 -23 27 -61zM241 685q1 -18 13 -30q13 -12 30 -12q18 0 30 12t13 30q-1 19 -13 31t-30 12q-17 0 -30 -12q-12 -12 -13 -31zM40 142q2 93 99 133t265 56v13
q-1 73 -36 102q-34 30 -86 29q-57 0 -88 -29q-32 -28 -35 -78h-94q10 87 72 134t144 47q111 0 163 -54q52 -55 51 -168l-1 -124q-1 -67 3 -116q3 -49 11 -87h-92q-2 15 -4 33q-2 17 -3 41q-24 -42 -69 -64q-44 -23 -115 -23q-78 0 -130 40q-53 40 -55 115zM411 259
q-125 -11 -197 -36t-73 -79q0 -39 28 -62q27 -22 76 -23q66 -2 115 35t51 131v34z" />
    <glyph glyph-name="uni00E6" unicode="&#xe6;" horiz-adv-x="950" 
d="M40 142q2 93 99 133t265 56v13q-1 73 -36 102q-34 30 -86 29q-57 0 -88 -29q-32 -28 -35 -78h-94q10 87 72 134t144 47q72 0 119 -23t70 -70q35 44 84 67q50 24 111 24q124 -3 192 -90q67 -87 59 -218h-414q6 -87 55 -129q49 -43 111 -43q60 1 95 25t52 64h94
q-19 -72 -81 -119q-61 -48 -160 -50q-76 1 -130 30q-53 30 -85 82q-36 -61 -97 -87t-131 -25q-78 0 -130 40q-53 40 -55 115zM820 317q-2 59 -42 105q-40 45 -113 47q-63 1 -108 -35q-46 -37 -54 -117h317zM411 259q-125 -11 -197 -36t-73 -79q0 -39 28 -62q27 -22 76 -23
q66 -2 115 35t51 131v34z" />
    <glyph glyph-name="uni00E7" unicode="&#xe7;" horiz-adv-x="557" 
d="M187 -136q13 -6 28 -10q16 -4 30 -4q23 0 41 7q19 7 20 25q0 15 -13 23q-12 7 -31 7q-9 0 -19 -2q-11 -2 -19 -7l-30 17l44 71q-95 18 -149 92q-53 74 -54 185q1 122 70 200q69 77 190 79q98 -3 157 -60q58 -57 68 -129h-92q-11 49 -48 79q-38 29 -91 30q-63 0 -108 -48
q-45 -49 -47 -150q2 -103 48 -152q45 -50 107 -50q58 1 95 33q38 31 48 75h94q-15 -78 -79 -131q-64 -54 -159 -57l-22 -35q8 2 15 2q8 1 15 1q36 0 56 -19q20 -18 20 -49q-2 -40 -35 -61t-73 -21q-20 0 -44 4q-24 3 -49 15z" />
    <glyph glyph-name="uni00E8" unicode="&#xe8;" horiz-adv-x="581" 
d="M236 725l91 -116h-77l-130 116h116zM133 239q6 -87 55 -129q49 -43 111 -43q60 1 95 25t52 64h94q-19 -72 -81 -119q-61 -48 -160 -50q-128 3 -196 81q-67 78 -68 200q3 129 75 203q73 75 186 76q124 -3 192 -90q67 -87 59 -218h-414zM451 317q-2 59 -42 105
q-40 45 -113 47q-63 1 -108 -35q-46 -37 -54 -117h317z" />
    <glyph glyph-name="uni00E9" unicode="&#xe9;" horiz-adv-x="581" 
d="M250 609l90 116h117l-131 -116h-76zM133 239q6 -87 55 -129q49 -43 111 -43q60 1 95 25t52 64h94q-19 -72 -81 -119q-61 -48 -160 -50q-128 3 -196 81q-67 78 -68 200q3 129 75 203q73 75 186 76q124 -3 192 -90q67 -87 59 -218h-414zM451 317q-2 59 -42 105
q-40 45 -113 47q-63 1 -108 -35q-46 -37 -54 -117h317z" />
    <glyph glyph-name="uni00EA" unicode="&#xea;" horiz-adv-x="581" 
d="M35 268q2 59 19.5 110t50.5 88t81 58.5t110 22.5q125 -3 192 -90q67 -86 59 -218h-414q3 -36 15 -67t33 -54.5t50.5 -37t67.5 -13.5q50 2 88.5 21.5t58.5 67.5h94q-11 -42 -34.5 -73.5t-55.5 -52.5t-70.5 -31.5t-80.5 -11.5q-64 1 -113 22t-82.5 58t-50.5 88t-18 113z
M134 317h317q-1 34 -13.5 62t-33.5 48t-50 31t-63 11q-71 0 -110.5 -41.5t-46.5 -110.5zM245 725h89l129 -116h-96l-79 54l-79 -54h-96z" />
    <glyph glyph-name="uni00EB" unicode="&#xeb;" horiz-adv-x="581" 
d="M35 268q2 59 19.5 110t50.5 88t81 58.5t110 22.5q125 -3 192 -90q67 -86 59 -218h-414q3 -36 15 -67t33 -54.5t50.5 -37t67.5 -13.5q50 2 88.5 21.5t58.5 67.5h94q-11 -42 -34.5 -73.5t-55.5 -52.5t-70.5 -31.5t-80.5 -11.5q-64 1 -113 22t-82.5 58t-50.5 88t-18 113z
M134 317h317q-1 34 -13.5 62t-33.5 48t-50 31t-63 11q-71 0 -110.5 -41.5t-46.5 -110.5zM449 725v-99h-92v99h92zM128 626v99h91v-99h-91z" />
    <glyph glyph-name="uni00EC" unicode="&#xec;" horiz-adv-x="235" 
d="M65 725l91 -116h-77l-130 116h116zM163 0h-91v538h91v-538z" />
    <glyph glyph-name="uni00ED" unicode="&#xed;" horiz-adv-x="235" 
d="M79 609l90 116h117l-131 -116h-76zM163 0h-91v538h91v-538z" />
    <glyph glyph-name="uni00EE" unicode="&#xee;" horiz-adv-x="235" 
d="M72 538h91v-538h-91v538zM74 725h89l129 -116h-96l-79 54l-79 -54h-96z" />
    <glyph glyph-name="uni00EF" unicode="&#xef;" horiz-adv-x="235" 
d="M72 0v538h91v-538h-91zM278 725v-99h-92v99h92zM-43 626v99h91v-99h-91z" />
    <glyph glyph-name="uni00F0" unicode="&#xf0;" horiz-adv-x="573" 
d="M437 722l-76 -47q74 -59 121 -148t49 -211q-2 -165 -70 -247t-182 -82q-114 1 -179 75q-64 74 -65 206q2 130 66 204t166 75q50 0 89 -21q39 -22 65 -58l1 1q-23 51 -58 90t-79 70l-74 -45l-45 24l78 48q-39 22 -79 40l66 60q47 -22 90 -51l70 43zM432 268
q-2 102 -44 152q-43 49 -108 49q-72 -1 -109 -55t-37 -146q0 -93 37 -148q36 -54 109 -55q66 0 108 50q43 50 44 153z" />
    <glyph glyph-name="uni00F1" unicode="&#xf1;" horiz-adv-x="578" 
d="M72 538h91v-81q28 49 74 68.5t100 21.5q97 -2 137 -57q41 -57 40 -150v-340h-91v313q2 66 -20 109q-23 45 -98 46q-40 0 -66.5 -14.5t-43 -38.5t-24 -56t-8.5 -67v-292h-91v538zM119 616q8 47 35.5 79.5t79.5 32.5q45 -3 73 -24t62 -24q21 0 32.5 12.5t14.5 32.5h71
q-8 -48 -35.5 -80.5t-80.5 -32.5q-43 3 -75 24t-61 24q-20 0 -31.5 -12t-13.5 -32h-71z" />
    <glyph glyph-name="uni00F2" unicode="&#xf2;" horiz-adv-x="590" 
d="M240 725l91 -116h-77l-130 116h116zM553 267q-4 -145 -82 -213t-176 -67q-98 -1 -176 67t-82 213q4 145 82 213t176 67q98 1 176 -67t82 -213zM295 67q64 0 111 48q48 49 50 152q-2 106 -50 154q-47 47 -111 46q-64 1 -111 -45q-48 -46 -50 -155q2 -106 50 -154
q47 -47 111 -46z" />
    <glyph glyph-name="uni00F3" unicode="&#xf3;" horiz-adv-x="590" 
d="M254 609l90 116h117l-131 -116h-76zM553 267q-4 -145 -82 -213t-176 -67q-98 -1 -176 67t-82 213q4 145 82 213t176 67q98 1 176 -67t82 -213zM295 67q64 0 111 48q48 49 50 152q-2 106 -50 154q-47 47 -111 46q-64 1 -111 -45q-48 -46 -50 -155q2 -106 50 -154
q47 -47 111 -46z" />
    <glyph glyph-name="uni00F4" unicode="&#xf4;" horiz-adv-x="590" 
d="M119 480q40 35 83.5 51t96.5 16q94 0 172 -67q77 -67 82 -213q-5 -146 -82 -213q-40 -35 -83.5 -51t-96.5 -16q-94 0 -172 67q-77 67 -82 213q5 146 82 213zM134 267q1 -105 50 -154q46 -46 111 -46q43 0 73 17t49.5 45.5t29 64.5t9.5 73q-1 105 -50 154
q-25 25 -52.5 35.5t-62.5 10.5q-62 0 -107 -45q-49 -47 -50 -155zM117 609l132 116h89l129 -116h-96l-79 54l-79 -54h-96z" />
    <glyph glyph-name="uni00F5" unicode="&#xf5;" horiz-adv-x="590" 
d="M476 725q-11 -61 -43 -87q-32 -27 -73 -26q-44 3 -75 24t-61 24q-20 0 -31 -11q-12 -12 -14 -33h-71q10 58 41 85t74 27q44 -3 73 -24t62 -24q19 0 31 11q13 12 16 34h71zM553 267q-4 -145 -82 -213t-176 -67q-98 -1 -176 67t-82 213q4 145 82 213t176 67q98 1 176 -67
t82 -213zM295 67q64 0 111 48q48 49 50 152q-2 106 -50 154q-47 47 -111 46q-64 1 -111 -45q-48 -46 -50 -155q2 -106 50 -154q47 -47 111 -46z" />
    <glyph glyph-name="uni00F6" unicode="&#xf6;" horiz-adv-x="590" 
d="M37 267q5 146 82 213q40 35 83.5 51t96.5 16q94 0 172 -67q77 -67 82 -213q-5 -146 -82 -213q-40 -35 -83.5 -51t-96.5 -16q-94 0 -172 67q-77 67 -82 213zM184 113q46 -46 111 -46q43 0 73 17t49.5 45.5t29 64.5t9.5 73q-1 105 -50 154q-25 25 -52.5 35.5t-62.5 10.5
q-62 0 -107 -45q-49 -47 -50 -155q1 -105 50 -154zM361 626v99h92v-99h-92zM132 725h91v-99h-91v99z" />
    <glyph glyph-name="uni00F7" unicode="&#xf7;" horiz-adv-x="678" 
d="M600 215h-522v86h522v-86zM284 495h115v-115h-115v115zM284 32v115h115v-115h-115z" />
    <glyph glyph-name="uni00F8" unicode="&#xf8;" horiz-adv-x="590" 
d="M492 537l41 -35l-40 -46q27 -34 44 -81q16 -47 16 -108q-4 -145 -82 -213t-176 -67q-43 0 -85 14q-42 13 -78 41l-48 -55l-39 36l50 57q-27 34 -42 80q-16 46 -16 107q4 145 82 213t176 67q42 0 83 -13t76 -40zM398 428q-22 20 -48 30q-27 9 -55 9q-64 1 -111 -45
q-48 -46 -50 -155q0 -36 6 -65q6 -28 17 -50zM189 107q23 -21 50 -30q27 -10 56 -10q64 0 111 48q48 49 50 152q0 37 -7 66q-7 30 -18 52z" />
    <glyph glyph-name="uni00F9" unicode="&#xf9;" horiz-adv-x="568" 
d="M64 194v344h91v-317q-2 -65 19 -109q23 -45 94 -46q39 0 65.5 14.5t42 39t22.5 56.5t7 66v296h91v-538h-91v77q-28 -48 -71.5 -68t-97.5 -22q-92 1 -133 57q-40 56 -39 150zM135 725h116l91 -116h-77z" />
    <glyph glyph-name="uni00FA" unicode="&#xfa;" horiz-adv-x="568" 
d="M64 194v344h91v-317q-2 -65 19 -109q23 -45 94 -46q39 0 65.5 14.5t42 39t22.5 56.5t7 66v296h91v-538h-91v77q-28 -48 -71.5 -68t-97.5 -22q-92 1 -133 57q-40 56 -39 150zM245 609l90 116h117l-131 -116h-76z" />
    <glyph glyph-name="uni00FB" unicode="&#xfb;" horiz-adv-x="568" 
d="M64 194v344h91v-317q-2 -65 19 -109q23 -45 94 -46q39 0 65.5 14.5t42 39t22.5 56.5t7 66v296h91v-538h-91v77q-28 -48 -71.5 -68t-97.5 -22q-92 1 -133 57q-40 56 -39 150zM108 609l132 116h89l129 -116h-96l-79 54l-79 -54h-96z" />
    <glyph glyph-name="uni00FC" unicode="&#xfc;" horiz-adv-x="568" 
d="M64 194v344h91v-317q-2 -65 19 -109q23 -45 94 -46q39 0 65.5 14.5t42 39t22.5 56.5t7 66v296h91v-538h-91v77q-28 -48 -71.5 -68t-97.5 -22q-92 1 -133 57q-40 56 -39 150zM352 725h92v-99h-92v99zM123 725h91v-99h-91v99z" />
    <glyph glyph-name="uni00FD" unicode="&#xfd;" horiz-adv-x="466" 
d="M101 538l137 -415l133 415h95l-192 -561q-12 -41 -26 -70t-35 -47t-51 -26.5t-75 -8.5h-47v76h37q27 0 45 4t31 13.5t21.5 26.5t15.5 44l4 11l-194 538h101zM192 609l90 116h117l-131 -116h-76z" />
    <glyph glyph-name="uni00FE" unicode="&#xfe;" horiz-adv-x="601" 
d="M72 725h91v-272q29 51 74 71.5t102 22.5q59 -1 101.5 -25t70.5 -63t41.5 -89t14.5 -103q-1 -53 -14.5 -103t-41.5 -89t-70.5 -63t-101.5 -25q-57 2 -102 22.5t-74 71.5v-256h-91v900zM159 267q0 -19 2.5 -40.5t8 -42t14.5 -39t23 -32.5q44 -48 109 -48q44 1 73 18.5
t47 45.5t25.5 64t8.5 74q-1 38 -9 74.5t-26 65t-48 45.5t-75 17q-60 0 -105 -48q-14 -14 -23 -32.5t-14.5 -39t-8 -42t-2.5 -40.5z" />
    <glyph glyph-name="uni00FF" unicode="&#xff;" horiz-adv-x="466" 
d="M0 538h101l137 -415l133 415h95l-192 -561q-12 -41 -26 -70t-35 -47t-51 -26.5t-75 -8.5h-47v76h37q27 0 45 4t31 13.5t21.5 26.5t15.5 44l4 11zM302 626v99h92v-99h-92zM73 725h91v-99h-91v99z" />
    <glyph glyph-name="uni0100" unicode="&#x100;" horiz-adv-x="660" 
d="M269 725h118l273 -725h-110l-57 157h-333l-56 -157h-104zM191 244h270l-136 378zM180 791v75h300v-75h-300z" />
    <glyph glyph-name="uni0101" unicode="&#x101;" horiz-adv-x="559" 
d="M134 710h300v-75h-300v75zM40 142q2 93 99 133t265 56v13q-1 73 -36 102q-34 30 -86 29q-57 0 -88 -29q-32 -28 -35 -78h-94q10 87 72 134t144 47q111 0 163 -54q52 -55 51 -168l-1 -124q-1 -67 3 -116q3 -49 11 -87h-92q-2 15 -4 33q-2 17 -3 41q-24 -42 -69 -64
q-44 -23 -115 -23q-78 0 -130 40q-53 40 -55 115zM411 259q-125 -11 -197 -36t-73 -79q0 -39 28 -62q27 -22 76 -23q66 -2 115 35t51 131v34z" />
    <glyph glyph-name="uni0102" unicode="&#x102;" horiz-adv-x="660" 
d="M0 0l269 725h118l273 -725h-110l-57 157h-333l-56 -157h-104zM191 244h270l-136 378zM173 886h77q5 -32 27.5 -45t52.5 -13t53 13t28 45h77q-4 -33 -18 -55.5t-35.5 -36.5t-48.5 -20t-57 -7q-30 1 -56.5 7.5t-47.5 20.5t-34.5 36.5t-17.5 54.5z" />
    <glyph glyph-name="uni0103" unicode="&#x103;" horiz-adv-x="559" 
d="M139 275q49 20 114.5 34t150.5 22v13q-2 61 -30 96t-92 35q-51 0 -85.5 -26.5t-37.5 -80.5h-94q5 43 24 76.5t47.5 57t65.5 35.5t79 12q111 0 163 -54q53 -55 51 -168l-1 -124q-1 -67 3 -116q2 -25 4.5 -46.5t6.5 -40.5h-92l-2 16t-2 17q-1 15 -3 41q-14 -25 -34.5 -42
t-44.5 -27t-51 -14t-54 -4q-36 0 -69 9.5t-58.5 28.5t-41 48.5t-16.5 68.5q1 92 99 133zM141 144q0 -24 9.5 -40.5t24.5 -26t34.5 -14t40.5 -4.5q80 0 119.5 44t41.5 122v34q-125 -11 -197 -36t-73 -79zM197 725q2 -17 10 -28.5t20 -18.5t27 -10.5t30 -3.5t30 3.5t27 10.5
t20.5 18.5t10.5 28.5h71q-3 -33 -17.5 -56t-36 -37t-49 -21t-57.5 -7q-29 0 -56.5 7t-49 21.5t-35.5 37t-16 55.5h71z" />
    <glyph glyph-name="uni0104" unicode="&#x104;" horiz-adv-x="660" 
d="M387 725l273 -725q-38 -19 -63 -38q-24 -20 -25 -42q1 -24 14 -34q14 -11 33 -11q10 0 21 2q10 3 20 7v-61q-12 -5 -27 -8q-16 -3 -33 -3q-42 -1 -75 21q-34 21 -36 74q0 30 17 51q16 22 44 42l-57 157h-333l-56 -157h-104l269 725h118zM461 244l-136 378l-134 -378h270z
" />
    <glyph glyph-name="uni0105" unicode="&#x105;" horiz-adv-x="559" 
d="M409 74q-24 -42 -69 -64q-44 -23 -115 -23q-78 0 -130 40q-53 40 -55 115q2 93 99 133t265 56v13q-1 73 -36 102q-34 30 -86 29q-57 0 -88 -29q-32 -28 -35 -78h-94q10 87 72 134t144 47q111 0 163 -54q52 -55 51 -168l-1 -124q-1 -67 3 -116q3 -49 11 -87
q-45 -19 -71 -40t-26 -44q1 -23 17 -32q16 -8 38 -8q11 0 23 2q11 2 19 4v-61q-11 -4 -27 -6q-17 -3 -37 -3q-42 -1 -78 19q-36 19 -38 72q0 28 21 52q21 25 67 45q-2 15 -4 33q-2 17 -3 41zM411 259q-125 -11 -197 -36t-73 -79q0 -39 28 -62q27 -22 76 -23q66 -2 115 35
t51 131v34z" />
    <glyph glyph-name="uni0106" unicode="&#x106;" horiz-adv-x="726" 
d="M327 773l110 113h129l-149 -113h-90zM694 231q-26 -120 -110 -182t-204 -62q-157 3 -242 106q-86 102 -87 271q2 171 92 271q89 101 245 103q114 -1 196 -64q81 -63 106 -180h-99q-17 69 -69 113t-139 45q-98 0 -162 -73q-64 -74 -66 -215q2 -138 65 -214t166 -77
q86 1 139 44t70 114h99z" />
    <glyph glyph-name="uni0107" unicode="&#x107;" horiz-adv-x="557" 
d="M239 609l90 116h117l-131 -116h-76zM428 358q-11 49 -48 79q-38 29 -91 30q-63 0 -108 -48q-45 -49 -47 -150q2 -103 48 -152q45 -50 107 -50q58 1 95 33q38 31 48 75h94q-15 -78 -80 -132t-160 -56q-117 2 -183 79q-67 77 -68 202q1 122 70 200q69 77 190 79
q98 -3 157 -60q58 -57 68 -129h-92z" />
    <glyph glyph-name="uni0108" unicode="&#x108;" horiz-adv-x="726" 
d="M51 364q1 79 22.5 147t63.5 118t105 79t146 30q118 -2 197 -65t105 -179h-99q-19 78 -74.5 117t-133.5 41q-61 0 -104.5 -24.5t-70.5 -65t-39.5 -92.5t-13.5 -106q1 -55 13.5 -107t40.5 -92.5t71.5 -65.5t105.5 -26q78 2 134.5 40.5t74.5 117.5h99
q-26 -121 -109.5 -182.5t-204.5 -61.5q-84 1 -145.5 31t-102 80.5t-60.5 119t-21 146.5zM212 773l135 113h83l132 -113h-107l-68 56l-68 -56h-107z" />
    <glyph glyph-name="uni0109" unicode="&#x109;" horiz-adv-x="557" 
d="M35 268q1 60 18.5 111t50.5 88t81 58t110 22q42 -1 80.5 -14.5t68.5 -38t50 -59t26 -77.5h-92q-11 52 -49 79.5t-90 29.5q-42 0 -71.5 -17.5t-48 -45.5t-27 -63.5t-8.5 -71.5q1 -102 48 -152q45 -50 107 -50q51 2 91 29.5t52 78.5h94q-8 -43 -30.5 -78t-55 -59t-72 -37
t-82.5 -14q-62 1 -108.5 23t-78 60t-47.5 89t-17 109zM113 609l132 116h89l129 -116h-96l-79 54l-79 -54h-96z" />
    <glyph glyph-name="uni010A" unicode="&#x10a;" horiz-adv-x="726" 
d="M434 781h-91v99h91v-99zM694 231q-26 -120 -110 -182t-204 -62q-157 3 -242 106q-86 102 -87 271q2 171 92 271q89 101 245 103q114 -1 196 -64q81 -63 106 -180h-99q-17 69 -69 113t-139 45q-98 0 -162 -73q-64 -74 -66 -215q2 -138 65 -214t166 -77q86 1 139 44t70 114
h99z" />
    <glyph glyph-name="uni010B" unicode="&#x10b;" horiz-adv-x="557" 
d="M333 626h-91v99h91v-99zM428 358q-11 49 -48 79q-38 29 -91 30q-63 0 -108 -48q-45 -49 -47 -150q2 -103 48 -152q45 -50 107 -50q58 1 95 33q38 31 48 75h94q-15 -78 -80 -132t-160 -56q-117 2 -183 79q-67 77 -68 202q1 122 70 200q69 77 190 79q98 -3 157 -60
q58 -57 68 -129h-92z" />
    <glyph glyph-name="uni010C" unicode="&#x10c;" horiz-adv-x="726" 
d="M51 364q1 79 22.5 147t63.5 118t105 79t146 30q118 -2 197 -65t105 -179h-99q-19 78 -74.5 117t-133.5 41q-61 0 -104.5 -24.5t-70.5 -65t-39.5 -92.5t-13.5 -106q1 -55 13.5 -107t40.5 -92.5t71.5 -65.5t105.5 -26q78 2 134.5 40.5t74.5 117.5h99
q-26 -121 -109.5 -182.5t-204.5 -61.5q-84 1 -145.5 31t-102 80.5t-60.5 119t-21 146.5zM320 886l67 -56l69 56h107l-135 -113h-84l-131 113h107z" />
    <glyph glyph-name="uni010D" unicode="&#x10d;" horiz-adv-x="557" 
d="M35 268q1 60 18.5 111t50.5 88t81 58t110 22q42 -1 80.5 -14.5t68.5 -38t50 -59t26 -77.5h-92q-11 52 -49 79.5t-90 29.5q-42 0 -71.5 -17.5t-48 -45.5t-27 -63.5t-8.5 -71.5q1 -102 48 -152q45 -50 107 -50q51 2 91 29.5t52 78.5h94q-8 -43 -30.5 -78t-55 -59t-72 -37
t-82.5 -14q-62 1 -108.5 23t-78 60t-47.5 89t-17 109zM209 725l78 -54l80 54h96l-133 -116h-88l-129 116h96z" />
    <glyph glyph-name="uni010E" unicode="&#x10e;" horiz-adv-x="730" 
d="M86 725h198q95 0 167.5 -19.5t123 -63t77 -112t27.5 -167.5q-3 -204 -111 -285q-62 -47 -135 -62.5t-149 -15.5h-198v725zM188 86h93q6 0 12 -0.5t12 -0.5q102 0 179 47q86 52 91 231q-5 179 -91 230q-77 47 -179 47q-6 0 -12 -0.5t-12 -0.5h-93v-553zM294 886l67 -56
l69 56h107l-135 -113h-84l-131 113h107z" />
    <glyph glyph-name="uni010F" unicode="&#x10f;" horiz-adv-x="678" 
d="M35 267q1 53 15 103t42 89t71 63t102 25q57 -2 102 -22.5t74 -71.5v272h91v-725h-91v81q-29 -51 -74 -71.5t-102 -22.5q-59 1 -102 25t-71 63t-42 89t-15 103zM134 267q1 -38 9 -74.5t26 -65t48 -45.5t75 -17q60 0 105 48q14 14 23 32.5t14.5 39t8 42t2.5 40.5t-2.5 40.5
t-8 42t-14.5 39t-23 32.5q-44 48 -109 48q-43 -1 -72.5 -18.5t-47.5 -45.5t-25.5 -64t-8.5 -74zM570 555l30 170h98l-70 -170h-58z" />
    <glyph glyph-name="uni0110" unicode="&#x110;" horiz-adv-x="729" 
d="M22 413h64v312h198q95 0 167.5 -19.5t123 -63t77 -112t27.5 -167.5q-3 -204 -111 -285q-62 -47 -135 -62.5t-149 -15.5h-198v323h-64v90zM281 86q6 0 12 -0.5t12 -0.5q102 0 179 47q86 52 91 231q-5 179 -91 230q-77 47 -179 47q-6 0 -12 -0.5t-12 -0.5h-93v-226h159v-90
h-159v-237h93z" />
    <glyph glyph-name="uni0111" unicode="&#x111;" horiz-adv-x="604" 
d="M35 267q1 53 15 103t42 89t71 63t102 25q57 -2 102 -22.5t74 -71.5v125h-126v75h126v72h91v-72h71v-75h-71v-578h-91v81q-29 -51 -74 -71.5t-102 -22.5q-59 1 -102 25t-71 63t-42 89t-15 103zM134 267q1 -38 9 -74.5t26 -65t48 -45.5t75 -17q60 0 105 48q14 14 23 32.5
t14.5 39t8 42t2.5 40.5t-2.5 40.5t-8 42t-14.5 39t-23 32.5q-44 48 -109 48q-43 -1 -72.5 -18.5t-47.5 -45.5t-25.5 -64t-8.5 -74z" />
    <glyph glyph-name="uni0112" unicode="&#x112;" horiz-adv-x="613" 
d="M578 725v-88h-390v-220h367v-88h-367v-241h390v-88h-492v725h492zM485 866v-75h-300v75h300z" />
    <glyph glyph-name="uni0113" unicode="&#x113;" horiz-adv-x="581" 
d="M138 710h300v-75h-300v75zM133 239q6 -87 55 -129q49 -43 111 -43q60 1 95 25t52 64h94q-19 -72 -81 -119q-61 -48 -160 -50q-128 3 -196 81q-67 78 -68 200q3 129 75 203q73 75 186 76q124 -3 192 -90q67 -87 59 -218h-414zM451 317q-2 59 -42 105q-40 45 -113 47
q-63 1 -108 -35q-46 -37 -54 -117h317z" />
    <glyph glyph-name="uni0114" unicode="&#x114;" horiz-adv-x="613" 
d="M86 0v725h492v-88h-390v-220h367v-88h-367v-241h390v-88h-492zM252 886q5 -32 27.5 -45t52.5 -13t53 13t28 45h77q-4 -33 -18 -55.5t-35.5 -36.5t-48.5 -20t-57 -7q-30 1 -56.5 7.5t-47.5 20.5t-34.5 36.5t-17.5 54.5h77z" />
    <glyph glyph-name="uni0115" unicode="&#x115;" horiz-adv-x="581" 
d="M35 268q2 59 19.5 110t50.5 88t81 58.5t110 22.5q125 -3 192 -90q67 -86 59 -218h-414q3 -36 15 -67t33 -54.5t50.5 -37t67.5 -13.5q50 2 88.5 21.5t58.5 67.5h94q-11 -42 -34.5 -73.5t-55.5 -52.5t-70.5 -31.5t-80.5 -11.5q-64 1 -113 22t-82.5 58t-50.5 88t-18 113z
M134 317h317q-1 34 -13.5 62t-33.5 48t-50 31t-63 11q-71 0 -110.5 -41.5t-46.5 -110.5zM130 725h71q2 -17 10 -28.5t20 -18.5t27 -10.5t30 -3.5t30 3.5t27 10.5t20.5 18.5t10.5 28.5h71q-3 -33 -17.5 -56t-36 -37t-49 -21t-57.5 -7q-29 0 -56.5 7t-49 21.5t-35.5 37
t-16 55.5z" />
    <glyph glyph-name="uni0116" unicode="&#x116;" horiz-adv-x="613" 
d="M86 725h492v-88h-390v-220h367v-88h-367v-241h390v-88h-492v725zM287 880h91v-99h-91v99z" />
    <glyph glyph-name="uni0117" unicode="&#x117;" horiz-adv-x="581" 
d="M334 626h-91v99h91v-99zM133 239q6 -87 55 -129q49 -43 111 -43q60 1 95 25t52 64h94q-19 -72 -81 -119q-61 -48 -160 -50q-128 3 -196 81q-67 78 -68 200q3 129 75 203q73 75 186 76q124 -3 192 -90q67 -87 59 -218h-414zM451 317q-2 59 -42 105q-40 45 -113 47
q-63 1 -108 -35q-46 -37 -54 -117h317z" />
    <glyph glyph-name="uni0118" unicode="&#x118;" horiz-adv-x="613" 
d="M578 725v-88h-390v-220h367v-88h-367v-241h390v-88q-10 -5 -25 -13.5t-28.5 -19t-23.5 -22.5t-11 -25q3 -45 47 -45q5 0 10.5 0.5t10.5 1.5q11 3 20 7v-61q-17 -6 -32.5 -8.5t-32.5 -2.5q-45 0 -74.5 24t-31.5 71q0 34 20.5 56t48.5 37h-390v725h492z" />
    <glyph glyph-name="uni0119" unicode="&#x119;" horiz-adv-x="581" 
d="M299 -13q-128 3 -196 81q-67 78 -68 200q3 129 75 203q73 75 186 76q124 -3 192 -90q67 -87 59 -218h-414q6 -87 55 -129q49 -43 111 -43q60 1 95 25t52 64h94q-12 -45 -41 -81q-30 -36 -74 -60l2 1q-33 -21 -56 -48t-24 -47q1 -26 17 -36q16 -9 38 -9q11 0 23 2
q11 2 19 4v-61q-11 -4 -27 -6q-17 -3 -37 -3q-42 -1 -78 19t-38 77q0 37 36 79h-1zM451 317q-2 59 -42 105q-40 45 -113 47q-63 1 -108 -35q-46 -37 -54 -117h317z" />
    <glyph glyph-name="uni011A" unicode="&#x11a;" horiz-adv-x="613" 
d="M86 725h492v-88h-390v-220h367v-88h-367v-241h390v-88h-492v725zM274 886l67 -56l69 56h107l-135 -113h-84l-131 113h107z" />
    <glyph glyph-name="uni011B" unicode="&#x11b;" horiz-adv-x="581" 
d="M35 268q2 59 19.5 110t50.5 88t81 58.5t110 22.5q125 -3 192 -90q67 -86 59 -218h-414q3 -36 15 -67t33 -54.5t50.5 -37t67.5 -13.5q50 2 88.5 21.5t58.5 67.5h94q-11 -42 -34.5 -73.5t-55.5 -52.5t-70.5 -31.5t-80.5 -11.5q-64 1 -113 22t-82.5 58t-50.5 88t-18 113z
M134 317h317q-1 34 -13.5 62t-33.5 48t-50 31t-63 11q-71 0 -110.5 -41.5t-46.5 -110.5zM113 725h96l78 -54l80 54h96l-133 -116h-88z" />
    <glyph glyph-name="uni011C" unicode="&#x11c;" horiz-adv-x="770" 
d="M51 364q1 78 22.5 146t64 118.5t105 79.5t145.5 30q55 -1 104 -15t88.5 -42t67 -69.5t40.5 -97.5h-99q-22 74 -77.5 105t-128.5 33q-61 0 -104.5 -24.5t-70.5 -65t-39.5 -92.5t-13.5 -106q1 -55 13.5 -107.5t40.5 -93.5t72 -65.5t107 -24.5q75 0 138 39q66 40 71 151v19
h-192v88h288v-370h-80l-5 91q-19 -30 -44.5 -50t-55.5 -32t-62.5 -17t-66.5 -5q-84 1 -145.5 31t-102 80.5t-60 119t-20.5 146.5zM212 773l135 113h83l132 -113h-107l-68 56l-68 -56h-107z" />
    <glyph glyph-name="uni011D" unicode="&#x11d;" horiz-adv-x="597" 
d="M35 278q1 52 15.5 100t42.5 85.5t70.5 60t99.5 23.5q55 -2 99 -23t72 -71v85h91v-466q0 -23 -1.5 -49t-6.5 -51.5t-15.5 -48.5t-27.5 -40q-34 -39 -85 -55t-101 -16q-42 0 -79 9.5t-66.5 29.5t-49 51t-26.5 75h97q8 -38 36 -60q26 -23 89 -25q31 0 59.5 8.5t50.5 31.5
q12 11 19 25.5t10.5 30.5t4.5 32t1 31v51q-27 -50 -71.5 -71.5t-99.5 -21.5q-57 1 -99.5 23.5t-70.5 60t-42.5 85.5t-15.5 100zM134 278q1 -37 9.5 -72t27 -61.5t48 -42.5t71.5 -16q40 0 68 17t46 44t26 61.5t8 69.5q0 36 -8.5 70.5t-26.5 61.5t-47 43t-70 16t-69.5 -16.5
t-46.5 -43t-26.5 -61t-9.5 -70.5zM245 725h89l129 -116h-96l-79 54l-79 -54h-96z" />
    <glyph glyph-name="uni011E" unicode="&#x11e;" horiz-adv-x="770" 
d="M51 364q1 78 22.5 146t64 118.5t105 79.5t145.5 30q55 -1 104 -15t88.5 -42t67 -69.5t40.5 -97.5h-99q-22 74 -77.5 105t-128.5 33q-61 0 -104.5 -24.5t-70.5 -65t-39.5 -92.5t-13.5 -106q1 -55 13.5 -107.5t40.5 -93.5t72 -65.5t107 -24.5q75 0 138 39q66 40 71 151v19
h-192v88h288v-370h-80l-5 91q-19 -30 -44.5 -50t-55.5 -32t-62.5 -17t-66.5 -5q-84 1 -145.5 31t-102 80.5t-60 119t-20.5 146.5zM305 886q5 -32 27.5 -45t52.5 -13t53 13t28 45h77q-4 -33 -18 -55.5t-35.5 -36.5t-48.5 -20t-57 -7q-30 1 -56.5 7.5t-47.5 20.5t-34.5 36.5
t-17.5 54.5h77z" />
    <glyph glyph-name="uni011F" unicode="&#x11f;" horiz-adv-x="597" 
d="M35 278q1 52 15.5 100t42.5 85.5t70.5 60t99.5 23.5q55 -2 99 -23t72 -71v85h91v-466q0 -23 -1.5 -49t-6.5 -51.5t-15.5 -48.5t-27.5 -40q-34 -39 -85 -55t-101 -16q-42 0 -79 9.5t-66.5 29.5t-49 51t-26.5 75h97q8 -38 36 -60q26 -23 89 -25q31 0 59.5 8.5t50.5 31.5
q12 11 19 25.5t10.5 30.5t4.5 32t1 31v51q-27 -50 -71.5 -71.5t-99.5 -21.5q-57 1 -99.5 23.5t-70.5 60t-42.5 85.5t-15.5 100zM134 278q1 -37 9.5 -72t27 -61.5t48 -42.5t71.5 -16q40 0 68 17t46 44t26 61.5t8 69.5q0 36 -8.5 70.5t-26.5 61.5t-47 43t-70 16t-69.5 -16.5
t-46.5 -43t-26.5 -61t-9.5 -70.5zM124 725h71q2 -17 10 -28.5t20 -18.5t27 -10.5t30 -3.5t30 3.5t27 10.5t20.5 18.5t10.5 28.5h71q-3 -33 -17.5 -56t-36 -37t-49 -21t-57.5 -7q-29 0 -56.5 7t-49 21.5t-35.5 37t-16 55.5z" />
    <glyph glyph-name="uni0120" unicode="&#x120;" horiz-adv-x="770" 
d="M433 781h-91v99h91v-99zM589 514q-18 62 -68 99q-51 38 -138 39q-98 0 -162 -73q-64 -74 -66 -215q2 -138 64 -214t164 -77q77 -2 143 39q67 41 71 151v19h-192v88h288v-370h-80l-5 91q-36 -55 -96 -80q-59 -24 -133 -24q-158 3 -242 106q-85 102 -86 271q2 171 92 271
q90 101 245 103q114 -1 195 -59q81 -59 105 -165h-99z" />
    <glyph glyph-name="uni0121" unicode="&#x121;" horiz-adv-x="597" 
d="M35 278q1 52 15.5 100t42.5 85.5t70.5 60t99.5 23.5q55 -2 99 -23t72 -71v85h91v-466q0 -23 -1.5 -49t-6.5 -51.5t-15.5 -48.5t-27.5 -40q-34 -39 -85 -55t-101 -16q-42 0 -79 9.5t-66.5 29.5t-49 51t-26.5 75h97q8 -38 36 -60q26 -23 89 -25q31 0 59.5 8.5t50.5 31.5
q12 11 19 25.5t10.5 30.5t4.5 32t1 31v51q-27 -50 -71.5 -71.5t-99.5 -21.5q-57 1 -99.5 23.5t-70.5 60t-42.5 85.5t-15.5 100zM134 278q1 -37 9.5 -72t27 -61.5t48 -42.5t71.5 -16q40 0 68 17t46 44t26 61.5t8 69.5q0 36 -8.5 70.5t-26.5 61.5t-47 43t-70 16t-69.5 -16.5
t-46.5 -43t-26.5 -61t-9.5 -70.5zM247 626v99h91v-99h-91z" />
    <glyph glyph-name="uni0122" unicode="&#x122;" horiz-adv-x="770" 
d="M589 514q-18 62 -68 99q-51 38 -138 39q-98 0 -162 -73q-64 -74 -66 -215q2 -138 64 -214t164 -77q77 -2 143 39q67 41 71 151v19h-192v88h288v-370h-80l-5 91q-36 -55 -96 -80q-59 -24 -133 -24q-158 3 -242 106q-85 102 -86 271q2 171 92 271q90 101 245 103
q114 -1 195 -59q81 -59 105 -165h-99zM421 -36v-95l-44 -90h-54l39 96h-36v89h95z" />
    <glyph glyph-name="uni0123" unicode="&#x123;" horiz-adv-x="597" 
d="M35 278q1 52 15.5 100t42.5 85.5t70.5 60t99.5 23.5q55 -2 99 -23t72 -71v85h91v-466q0 -23 -1.5 -49t-6.5 -51.5t-15.5 -48.5t-27.5 -40q-34 -39 -85 -55t-101 -16q-42 0 -79 9.5t-66.5 29.5t-49 51t-26.5 75h97q8 -38 36 -60q26 -23 89 -25q31 0 59.5 8.5t50.5 31.5
q12 11 19 25.5t10.5 30.5t4.5 32t1 31v51q-27 -50 -71.5 -71.5t-99.5 -21.5q-57 1 -99.5 23.5t-70.5 60t-42.5 85.5t-15.5 100zM134 278q1 -37 9.5 -72t27 -61.5t48 -42.5t71.5 -16q40 0 68 17t46 44t26 61.5t8 69.5q0 36 -8.5 70.5t-26.5 61.5t-47 43t-70 16t-69.5 -16.5
t-46.5 -43t-26.5 -61t-9.5 -70.5zM237 600v96l44 89h54l-39 -95h36v-90h-95z" />
    <glyph glyph-name="uni0124" unicode="&#x124;" horiz-adv-x="757" 
d="M188 725v-308h381v308h102v-725h-102v329h-381v-329h-102v725h102zM338 886h83l132 -113h-107l-68 56l-68 -56h-107z" />
    <glyph glyph-name="uni0125" unicode="&#x125;" horiz-adv-x="578" 
d="M72 725h91v-268q28 49 74 68.5t100 21.5q97 -2 137 -57q41 -57 40 -150v-340h-91v313q2 66 -20 109q-23 45 -98 46q-40 0 -66.5 -14.5t-43 -38.5t-24 -56t-8.5 -67v-292h-91v725zM-58 773l135 113h83l132 -113h-107l-68 56l-68 -56h-107z" />
    <glyph glyph-name="uni0126" unicode="&#x126;" horiz-adv-x="758" 
d="M86 597v128h102v-128h381v128h102v-128h67v-80h-67v-517h-102v329h-381v-329h-102v517h-66v80h66zM188 417h381v100h-381v-100z" />
    <glyph glyph-name="uni0127" unicode="&#x127;" horiz-adv-x="578" 
d="M72 653v72h91v-72h125v-75h-125v-121q28 49 74 68.5t100 21.5q97 -2 137 -57q41 -57 40 -150v-340h-91v313q2 66 -20 109q-23 45 -98 46q-40 0 -66.5 -14.5t-43 -38.5t-24 -56t-8.5 -67v-292h-91v578h-84v75h84z" />
    <glyph glyph-name="uni0128" unicode="&#x128;" horiz-adv-x="274" 
d="M321 885q-11 -62 -43 -88t-73 -25q-44 3 -75 24q-31 20 -61 23q-20 0 -31 -11q-12 -12 -14 -33h-71q10 58 41 85t74 27q44 -3 73 -23q29 -21 62 -24q19 0 31 11q13 12 16 34h71zM86 0v725h102v-725h-102z" />
    <glyph glyph-name="uni0129" unicode="&#x129;" horiz-adv-x="235" 
d="M301 725q-11 -61 -43 -87q-32 -27 -73 -26q-44 3 -75 24t-61 24q-20 0 -31 -11q-12 -12 -14 -33h-71q10 58 41 85t74 27q44 -3 73 -24t62 -24q19 0 31 11q13 12 16 34h71zM163 0h-91v538h91v-538z" />
    <glyph glyph-name="uni012A" unicode="&#x12a;" horiz-adv-x="274" 
d="M-13 866h300v-75h-300v75zM86 0v725h102v-725h-102z" />
    <glyph glyph-name="uni012B" unicode="&#x12b;" horiz-adv-x="235" 
d="M-33 710h300v-75h-300v75zM163 0h-91v538h91v-538z" />
    <glyph glyph-name="uni012C" unicode="&#x12c;" horiz-adv-x="274" 
d="M188 725v-725h-102v725h102zM-20 886h77q5 -32 27.5 -45t52.5 -13t53 13t28 45h77q-4 -33 -18 -55.5t-35.5 -36.5t-48.5 -20t-57 -7q-30 1 -56.5 7.5t-47.5 20.5t-34.5 36.5t-17.5 54.5z" />
    <glyph glyph-name="uni012D" unicode="&#x12d;" horiz-adv-x="235" 
d="M72 0v538h91v-538h-91zM30 725q2 -17 10 -28.5t20 -18.5t27 -10.5t30 -3.5t30 3.5t27 10.5t20.5 18.5t10.5 28.5h71q-3 -33 -17.5 -56t-36 -37t-49 -21t-57.5 -7q-29 0 -56.5 7t-49 21.5t-35.5 37t-16 55.5h71z" />
    <glyph glyph-name="uni012E" unicode="&#x12e;" horiz-adv-x="274" 
d="M17 -93q0 34 20.5 56t48.5 37v725h102v-725q-10 -5 -25 -13.5t-28.5 -19t-23.5 -22.5t-11 -25q3 -45 47 -45q5 0 10.5 0.5t10.5 1.5q11 3 20 7v-61q-17 -6 -32.5 -8.5t-32.5 -2.5q-45 0 -74.5 24t-31.5 71z" />
    <glyph glyph-name="uni012F" unicode="&#x12f;" horiz-adv-x="235" 
d="M-18 -98q0 19 8 34.5t21 27.5t29 21t32 15v538h91v-538q-12 -5 -28.5 -13.5t-31.5 -19t-26 -24t-12 -28.5q2 -23 17 -31q18 -8 38 -8q5 0 11 0.5t12 1.5l10 2t9 2v-61q-10 -5 -27 -6q-11 -2 -21.5 -2.5t-21.5 -0.5q-45 0 -76.5 20.5t-33.5 69.5zM163 725v-110h-91v110h91
z" />
    <glyph glyph-name="uni0130" unicode="&#x130;" horiz-adv-x="274" 
d="M183 781h-91v99h91v-99zM86 0v725h102v-725h-102z" />
    <glyph glyph-name="uni0131" unicode="&#x131;" horiz-adv-x="235" 
d="M163 0h-91v538h91v-538z" />
    <glyph glyph-name="uni0134" unicode="&#x134;" horiz-adv-x="552" 
d="M11 224h95q1 -32 9 -60t24.5 -49t42 -33t60.5 -12t58.5 14t37.5 36.5t20 51.5t6 59v494h102v-495q-1 -55 -15 -100t-42 -76.5t-70.5 -49t-100.5 -17.5q-114 0 -169.5 63.5t-57.5 173.5zM375 886h83l132 -113h-107l-68 56l-68 -56h-107z" />
    <glyph glyph-name="uni0135" unicode="&#x135;" horiz-adv-x="235" 
d="M16 -99q11 0 24.5 2t21.5 12q11 16 10 56v567h91v-565q2 -83 -24 -116q-9 -11 -21.5 -17.5t-26.5 -9.5t-28 -4t-27 -1h-46v76h26zM-58 609l132 116h89l129 -116h-96l-79 54l-79 -54h-96z" />
    <glyph glyph-name="uni0136" unicode="&#x136;" horiz-adv-x="666" 
d="M86 725h102v-365l327 365h127l-271 -296l302 -429h-122l-249 354l-114 -126v-228h-102v725zM310 -221l39 96h-36v89h95v-95l-44 -90h-54z" />
    <glyph glyph-name="uni0137" unicode="&#x137;" horiz-adv-x="505" 
d="M163 725v-429l217 242h112l-205 -223l233 -315h-111l-183 248l-63 -68v-180h-91v725h91zM231 -221l39 96h-36v89h95v-95l-44 -90h-54z" />
    <glyph glyph-name="uni0139" unicode="&#x139;" horiz-adv-x="571" 
d="M88 773l110 113h129l-149 -113h-90zM571 88v-88h-485v725h102v-637h383z" />
    <glyph glyph-name="uni013A" unicode="&#x13a;" horiz-adv-x="235" 
d="M72 773l110 113h129l-149 -113h-90zM72 0v725h91v-725h-91z" />
    <glyph glyph-name="uni013B" unicode="&#x13b;" horiz-adv-x="571" 
d="M571 88v-88h-485v725h102v-637h383zM377 -36v-95l-44 -90h-54l39 96h-36v89h95z" />
    <glyph glyph-name="uni013C" unicode="&#x13c;" horiz-adv-x="235" 
d="M72 0v725h91v-725h-91zM166 -36v-95l-44 -90h-54l39 96h-36v89h95z" />
    <glyph glyph-name="uni013D" unicode="&#x13d;" horiz-adv-x="571" 
d="M86 0v725h102v-637h383v-88h-485zM310 725h98l-70 -170h-58z" />
    <glyph glyph-name="uni013E" unicode="&#x13e;" horiz-adv-x="312" 
d="M72 725h91v-725h-91v725zM234 725h98l-70 -170h-58z" />
    <glyph glyph-name="uni013F" unicode="&#x13f;" horiz-adv-x="571" 
d="M571 88v-88h-485v725h102v-637h383zM468 367h-91v99h91v-99z" />
    <glyph glyph-name="uni0140" unicode="&#x140;" horiz-adv-x="326" 
d="M72 0v725h91v-725h-91zM326 359h-91v99h91v-99z" />
    <glyph glyph-name="uni0141" unicode="&#x141;" horiz-adv-x="571" 
d="M0 284l86 59v382h102v-312l189 129v-91l-189 -129v-234h383v-88h-485v252l-86 -59v91z" />
    <glyph glyph-name="uni0142" unicode="&#x142;" horiz-adv-x="276" 
d="M20 343l72 49v333h91v-270l73 50v-77l-73 -50v-378h-91v316l-72 -49v76z" />
    <glyph glyph-name="uni0143" unicode="&#x143;" horiz-adv-x="755" 
d="M236 725l331 -617v617h102v-725h-149l-332 619v-619h-102v725h150zM332 773l110 113h129l-149 -113h-90z" />
    <glyph glyph-name="uni0144" unicode="&#x144;" horiz-adv-x="578" 
d="M163 538v-81q28 49 74 68.5t100 21.5q97 -2 137 -57q41 -57 40 -150v-340h-91v313q2 66 -20 109q-23 45 -98 46q-40 0 -66.5 -14.5t-43 -38.5t-24 -56t-8.5 -67v-292h-91v538h91zM345 725h117l-131 -116h-76z" />
    <glyph glyph-name="uni0145" unicode="&#x145;" horiz-adv-x="755" 
d="M236 725l331 -617v617h102v-725h-149l-332 619v-619h-102v725h150zM328 -221l39 96h-36v89h95v-95l-44 -90h-54z" />
    <glyph glyph-name="uni0146" unicode="&#x146;" horiz-adv-x="578" 
d="M163 538v-81q28 49 74 68.5t100 21.5q97 -2 137 -57q41 -57 40 -150v-340h-91v313q2 66 -20 109q-23 45 -98 46q-40 0 -66.5 -14.5t-43 -38.5t-24 -56t-8.5 -67v-292h-91v538h91zM240 -221l39 96h-36v89h95v-95l-44 -90h-54z" />
    <glyph glyph-name="uni0147" unicode="&#x147;" horiz-adv-x="755" 
d="M86 725h150l331 -617v617h102v-725h-149l-332 619v-619h-102v725zM332 886l67 -56l69 56h107l-135 -113h-84l-131 113h107z" />
    <glyph glyph-name="uni0148" unicode="&#x148;" horiz-adv-x="578" 
d="M163 538v-81q28 49 74 68.5t100 21.5q97 -2 137 -57q41 -57 40 -150v-340h-91v313q2 66 -20 109q-23 45 -98 46q-40 0 -66.5 -14.5t-43 -38.5t-24 -56t-8.5 -67v-292h-91v538h91zM128 725h96l78 -54l80 54h96l-133 -116h-88z" />
    <glyph glyph-name="uni014A" unicode="&#x14a;" horiz-adv-x="755" 
d="M86 0v725h153l328 -541v541h102v-740q2 -104 -39 -138q-25 -23 -60.5 -28t-67.5 -5h-42v91h22h9q47 0 62 16q16 17 14 73v9l-379 614v-617h-102z" />
    <glyph glyph-name="uni014B" unicode="&#x14b;" horiz-adv-x="578" 
d="M72 538h91v-81q28 49 74 68.5t100 21.5q97 -2 137 -57q41 -57 40 -150v-377q2 -83 -24 -111q-9 -10 -21.5 -15.5t-27 -8t-28.5 -3t-26 -0.5h-46v77h26q11 0 24.5 2t21.5 12q11 16 10 56v341q2 66 -20 108q-23 45 -98 46q-40 0 -66.5 -14t-43 -38t-24 -56t-8.5 -67v-292
h-91v538z" />
    <glyph glyph-name="uni014C" unicode="&#x14c;" horiz-adv-x="782" 
d="M241 866h300v-75h-300v75zM391 -13q-158 3 -248 106t-92 270q2 167 92 270q90 102 248 105q158 -3 248 -105q90 -103 92 -270q-2 -167 -92 -270t-248 -106zM391 73q101 1 168 75q66 74 68 215q-2 141 -68 215q-67 73 -168 74q-101 -1 -167 -74q-67 -74 -69 -215
q2 -141 69 -215q66 -74 167 -75z" />
    <glyph glyph-name="uni014D" unicode="&#x14d;" horiz-adv-x="590" 
d="M142 710h300v-75h-300v75zM553 267q-4 -145 -82 -213t-176 -67q-98 -1 -176 67t-82 213q4 145 82 213t176 67q98 1 176 -67t82 -213zM295 67q64 0 111 48q48 49 50 152q-2 106 -50 154q-47 47 -111 46q-64 1 -111 -45q-48 -46 -50 -155q2 -106 50 -154q47 -47 111 -46z
" />
    <glyph glyph-name="uni014E" unicode="&#x14e;" horiz-adv-x="782" 
d="M51 363q1 80 23 147.5t64.5 118t106 79.5t146.5 30q83 -1 146.5 -30t106 -79.5t64.5 -118t23 -147.5q-1 -79 -23 -147t-65 -118.5t-106 -80t-146 -30.5q-83 1 -146 30.5t-106 80t-65 118.5t-23 147zM155 363q1 -55 14.5 -107t42 -92.5t73 -65t106.5 -25.5
q62 1 106.5 25.5t73 64.5t42 92t14.5 108q-1 56 -14.5 108t-42 92t-72.5 64t-107 25q-62 -1 -106.5 -25t-73 -64t-42 -92t-14.5 -108zM234 886h77q5 -32 27.5 -45t52.5 -13t53 13t28 45h77q-4 -33 -18 -55.5t-35.5 -36.5t-48.5 -20t-57 -7q-30 1 -56.5 7.5t-47.5 20.5
t-34.5 36.5t-17.5 54.5z" />
    <glyph glyph-name="uni014F" unicode="&#x14f;" horiz-adv-x="590" 
d="M37 267q5 146 82 213q40 35 83.5 51t96.5 16q94 0 172 -67q77 -67 82 -213q-5 -146 -82 -213q-40 -35 -83.5 -51t-96.5 -16q-94 0 -172 67q-77 67 -82 213zM184 113q46 -46 111 -46q43 0 73 17t49.5 45.5t29 64.5t9.5 73q-1 105 -50 154q-25 25 -52.5 35.5t-62.5 10.5
q-62 0 -107 -45q-49 -47 -50 -155q1 -105 50 -154zM205 725q2 -17 10 -28.5t20 -18.5t27 -10.5t30 -3.5t30 3.5t27 10.5t20.5 18.5t10.5 28.5h71q-3 -33 -17.5 -56t-36 -37t-49 -21t-57.5 -7q-29 0 -56.5 7t-49 21.5t-35.5 37t-16 55.5h71z" />
    <glyph glyph-name="uni0150" unicode="&#x150;" horiz-adv-x="782" 
d="M51 363q1 80 23 147.5t64.5 118t106 79.5t146.5 30q83 -1 146.5 -30t106 -79.5t64.5 -118t23 -147.5q-1 -79 -23 -147t-65 -118.5t-106 -80t-146 -30.5q-83 1 -146 30.5t-106 80t-65 118.5t-23 147zM155 363q1 -55 14.5 -107t42 -92.5t73 -65t106.5 -25.5
q62 1 106.5 25.5t73 64.5t42 92t14.5 108q-1 56 -14.5 108t-42 92t-72.5 64t-107 25q-62 -1 -106.5 -25t-73 -64t-42 -92t-14.5 -108zM540 886h129l-149 -113h-90zM263 773l110 113h129l-149 -113h-90z" />
    <glyph glyph-name="uni0151" unicode="&#x151;" horiz-adv-x="590" 
d="M119 480q40 35 83.5 51t96.5 16q94 0 172 -67q77 -67 82 -213q-5 -146 -82 -213q-40 -35 -83.5 -51t-96.5 -16q-94 0 -172 67q-77 67 -82 213q5 146 82 213zM184 113q46 -46 111 -46q43 0 73 17t49.5 45.5t29 64.5t9.5 73q-1 105 -50 154q-25 25 -52.5 35.5t-62.5 10.5
q-62 0 -107 -45q-49 -47 -50 -155q1 -105 50 -154zM424 725h116l-130 -116h-77zM175 609l90 116h117l-131 -116h-76z" />
    <glyph glyph-name="uni0152" unicode="&#x152;" horiz-adv-x="1134" 
d="M51 363q1 78 23.5 146t66 118t107 80t144.5 31q72 0 132.5 -26t104.5 -85v98h470v-88h-389v-220h366v-88h-366v-241h389v-88h-470v99q-45 -59 -105.5 -85.5t-133.5 -26.5q-83 1 -146 30.5t-105.5 80t-64.5 118.5t-23 147zM155 363q1 -55 14.5 -107t42 -92.5t73 -65
t106.5 -25.5q62 1 106.5 25.5t73 64.5t42 92t14.5 108q-1 56 -14.5 108t-42 92t-73 64t-106.5 25q-62 -1 -106.5 -25.5t-73 -64.5t-42 -91.5t-14.5 -107.5z" />
    <glyph glyph-name="uni0153" unicode="&#x153;" horiz-adv-x="993" 
d="M711 -13q-76 1 -129 30q-53 30 -83 82q-35 -58 -89 -85t-115 -27q-98 -1 -176 67t-82 213q4 145 82 213t176 67q62 0 116 -28t89 -86q33 54 86 84t122 30q124 -3 192 -90q67 -87 59 -218h-414q6 -87 55 -129q49 -43 111 -43q60 1 95 25t52 64h94q-19 -72 -81 -119
q-61 -48 -160 -50zM863 317q-2 59 -42 105q-40 45 -113 47q-62 1 -108 -35q-45 -37 -54 -117h317zM456 267q-2 106 -50 154q-47 47 -111 46q-64 1 -111 -45q-48 -46 -50 -155q2 -106 50 -154q47 -47 111 -46q64 0 111 48q48 49 50 152z" />
    <glyph glyph-name="uni0154" unicode="&#x154;" horiz-adv-x="679" 
d="M86 725h230q58 0 112 -6.5t96 -28t67.5 -63t26.5 -111.5q-2 -75 -35 -125t-109 -69l168 -322h-114l-157 306q-14 -1 -27.5 -1h-27.5h-128v-305h-102v725zM324 391q36 0 69.5 3t60 15t42.5 36.5t17 68.5q-1 45 -17 70t-42.5 37t-60 15t-69.5 3h-136v-248h136zM279 773
l110 113h129l-149 -113h-90z" />
    <glyph glyph-name="uni0155" unicode="&#x155;" horiz-adv-x="355" 
d="M168 609l90 116h117l-131 -116h-76zM340 443q-28 4 -51 4q-63 1 -94 -38q-32 -39 -32 -127v-282h-91v538h89v-94q21 46 60 71q39 24 92 26h13q7 0 14 -1v-97z" />
    <glyph glyph-name="uni0156" unicode="&#x156;" horiz-adv-x="679" 
d="M86 725h230q58 0 112 -6.5t96 -28t67.5 -63t26.5 -111.5q-2 -75 -35 -125t-109 -69l168 -322h-114l-157 306q-14 -1 -27.5 -1h-27.5h-128v-305h-102v725zM188 391h136q36 0 69.5 3t60 15t42.5 36.5t17 68.5q-1 45 -17 70t-42.5 37t-60 15t-69.5 3h-136v-248zM334 -125
h-36v89h95v-95l-44 -90h-54z" />
    <glyph glyph-name="uni0157" unicode="&#x157;" horiz-adv-x="355" 
d="M340 443q-28 4 -51 4q-63 1 -94 -38q-32 -39 -32 -127v-282h-91v538h89v-94q21 46 60 71q39 24 92 26h13q7 0 14 -1v-97zM166 -36v-95l-44 -90h-54l39 96h-36v89h95z" />
    <glyph glyph-name="uni0158" unicode="&#x158;" horiz-adv-x="679" 
d="M86 0v725h230q58 0 112 -6.5t96 -28t67.5 -63t26.5 -111.5q-2 -75 -35 -125t-109 -69l168 -322h-114l-157 306q-14 -1 -27.5 -1h-27.5h-128v-305h-102zM188 391h136q36 0 69.5 3t60 15t42.5 36.5t17 68.5q-1 45 -17 70t-42.5 37t-60 15t-69.5 3h-136v-248zM276 886
l67 -56l69 56h107l-135 -113h-84l-131 113h107z" />
    <glyph glyph-name="uni0159" unicode="&#x159;" horiz-adv-x="355" 
d="M161 538v-94q22 48 61.5 71.5t90.5 25.5h13q9 0 14 -1v-97q-14 2 -27.5 3t-27.5 1q-37 0 -61 -14t-37.5 -37t-18.5 -52.5t-5 -61.5v-282h-91v538h89zM31 725h96l78 -54l80 54h96l-133 -116h-88z" />
    <glyph glyph-name="uni015A" unicode="&#x15a;" horiz-adv-x="641" 
d="M274 773l110 113h129l-149 -113h-90zM318 738q100 1 176 -46q76 -48 99 -152h-99q-21 62 -72 88q-51 25 -108 24q-46 1 -98 -23q-52 -23 -56 -83q1 -48 34 -74t84 -37l84 -19q88 -15 164 -60q75 -45 80 -152q-4 -107 -84 -162t-192 -55q-129 1 -206 65q-77 63 -92 173
h100q15 -75 66 -113q50 -39 134 -39q81 1 125 34q43 34 44 88q-1 56 -44 85t-112 43l-90 19q-77 15 -137 62q-59 46 -62 136q5 103 87 151t175 47z" />
    <glyph glyph-name="uni015B" unicode="&#x15b;" horiz-adv-x="525" 
d="M219 609l90 116h117l-131 -116h-76zM380 381q-11 48 -45 69q-34 20 -82 20q-42 0 -76 -16q-35 -16 -37 -52q0 -32 22 -49q21 -17 60 -24l76 -15q76 -13 129 -48q53 -36 55 -112q-2 -80 -63 -123q-62 -43 -156 -44q-106 3 -165 58q-58 56 -66 129h96q10 -52 44 -81
q33 -29 93 -29q53 0 88 21q36 21 37 59q-1 40 -33 60q-31 21 -76 29l-80 16q-57 10 -104 43q-46 32 -49 106q2 72 63 111q60 39 152 39q88 -1 143 -45q55 -45 69 -122h-95z" />
    </font>
</defs>
</svg>
