<?xml version="1.0" encoding="UTF-8"?>
<svg width="190px" height="210px" viewBox="0 0 190 210" version="1.1" xmlns="http://www.w3.org/2000/svg" xmlns:xlink="http://www.w3.org/1999/xlink">
    <title>01 Home / Vectores / Subibaja / Amarillo</title>
    <g id="Welcome" stroke="none" stroke-width="1" fill="none" fill-rule="evenodd">
        <g id="Home-Final-/-Drop-B" transform="translate(-1023.000000, -478.000000)">
            <g id="01-Home-/-Vectores-/-Subibaja-/-Amarillo" transform="translate(1023.000000, 478.500000)">
                <path d="M118.421745,12.6478827 C120.344314,15.9918774 122.238029,19.3525769 124.102891,22.7284626 C129.311747,31.8280159 140.182008,38.342883 150.807772,37.6929149 C154.812365,37.5319415 158.816958,37.3740053 162.821551,37.260109 C183.061679,36.9624601 196.569777,61.588354 185.789115,78.7517638 C183.760243,82.1337239 181.722259,85.5096096 179.670607,88.8763836 C174.129173,98.0670539 174.129173,110.360259 179.670607,119.550929 C181.722259,122.917703 183.760243,126.293589 185.789115,129.675549 C196.569777,146.838959 183.061679,171.464853 162.821551,171.168722 C158.816958,171.053307 154.812365,170.895371 150.807772,170.735916 C140.182008,170.08443 129.311747,176.600815 124.10441,185.69885 C122.238029,189.074736 120.344314,192.435435 118.421745,195.77943 C108.900016,212.367284 80.233082,212.917023 70.8541031,195.77943 C68.931534,192.435435 67.0378185,189.074736 65.1729568,185.69885 C60.1767067,176.291018 48.9267917,170.429156 38.4680762,170.735916 C34.463483,170.895371 30.4588899,171.053307 26.4527782,171.168722 C5.46245345,172.263645 -6.28101211,146.498788 3.48521407,129.675549 C5.51408643,126.293589 7.55358911,122.917703 9.60524073,119.550929 C15.1451557,110.360259 15.1451557,98.0670539 9.60524073,88.8763836 C7.55358911,85.5096096 5.51408643,82.1337239 3.48521407,78.7517638 C-6.28101211,61.9285242 5.46245345,36.1636675 26.4527782,37.260109 C30.4588899,37.3740053 34.463483,37.5319415 38.4680762,37.6913963 C48.9267917,37.9966383 60.1767067,32.1362951 65.1729568,22.7284626 C67.0378185,19.3525769 68.931534,15.9918774 70.8541031,12.6478827 C80.233082,-4.4897106 108.898497,-3.93997123 118.421745,12.6478827" id="Fill-4" fill="#F3EFA6"></path>
                <text id="We-go-high" font-family="RightGrotesk-SemiExpanded, Right Grotesk" font-size="35" font-weight="500" letter-spacing="-0.544444444" fill="#000000">
                    <tspan x="69.2979134" y="93.2136563">We </tspan>
                    <tspan x="37.5303624" y="123.213656">go high</tspan>
                </text>
            </g>
        </g>
    </g>
</svg>