<?xml version="1.0" encoding="UTF-8"?>
<svg width="36px" height="47px" viewBox="0 0 36 47" version="1.1" xmlns="http://www.w3.org/2000/svg" xmlns:xlink="http://www.w3.org/1999/xlink">
    <title>01 Home / Iconos / Checklist</title>
    <g id="Welcome" stroke="none" stroke-width="1" fill="none" fill-rule="evenodd">
        <g id="Home-Final-/-Drop-B" transform="translate(-1089.000000, -1184.000000)" fill="#000000">
            <g id="01-Home-/-Iconos-/-Checklist" transform="translate(1089.000000, 1184.954530)">
                <path d="M32.87235,42.9875372 L2.52808256,42.9875372 L2.52808256,5.05714186 L7.8071407,5.05714186 C7.9734314,5.52842093 8.22958256,5.96795581 8.57119884,6.3444907 C9.28935,7.13321163 10.3124895,7.58568837 11.3786058,7.58568837 L24.0220709,7.58568837 C25.1629081,7.58568837 26.2326872,7.07924651 26.9566988,6.1957814 C27.2387337,5.85196744 27.4514198,5.4659093 27.5959779,5.05714186 L32.87235,5.05714186 L32.87235,42.9875372 Z M10.1203151,3.66430465 C10.1808733,3.02746744 10.7813267,2.52859535 11.4872686,2.52859535 L23.9265942,2.52859535 C24.5729547,2.52859535 25.1453267,2.95421163 25.2586291,3.5182814 C25.36485,4.04987442 25.1431291,4.42006047 25.0010128,4.59294419 C24.7590244,4.88816512 24.4020244,5.05714186 24.0218267,5.05714186 L11.3786058,5.05714186 C11.017943,5.05714186 10.6856058,4.90989767 10.4421523,4.64300233 L10.4423965,4.64300233 C10.1999198,4.37635116 10.0853965,4.02838605 10.1203151,3.66430465 L10.1203151,3.66430465 Z M34.1369895,2.52883953 L27.598664,2.52883953 C27.0712221,1.03832791 25.6043965,4.88372093e-05 23.9270826,4.88372093e-05 L11.487757,4.88372093e-05 C9.81654767,4.88372093e-05 8.35240814,1.0576186 7.81153605,2.52883953 L1.26441977,2.52883953 C0.565803488,2.52883953 2.44186047e-05,3.0946186 2.44186047e-05,3.7929907 L2.44186047e-05,44.2521767 C2.44186047e-05,44.9505488 0.565803488,45.5163279 1.26441977,45.5163279 L34.1369895,45.5163279 C34.8356058,45.5163279 35.4011407,44.9505488 35.4011407,44.2521767 L35.4011407,3.7929907 C35.4011407,3.0946186 34.8356058,2.52883953 34.1369895,2.52883953 L34.1369895,2.52883953 Z" id="Fill-1"></path>
                <path d="M13.013407,11.7493779 L13.013407,11.7493779 L8.85027907,15.9132384 L7.21594186,14.278657 C6.72219767,13.7846686 5.92126744,13.7846686 5.42801163,14.278657 C4.93377907,14.7731337 4.93377907,15.5730872 5.42801163,16.0668314 L7.95655814,18.5953779 C8.20294186,18.8420058 8.52648837,18.965564 8.85027907,18.965564 C9.17406977,18.965564 9.49761628,18.8420058 9.74448837,18.5953779 L14.8018256,13.5380407 C15.2963023,13.0438081 15.2963023,12.2436105 14.8018256,11.7501105 C14.3080814,11.2558779 13.5071512,11.2558779 13.013407,11.7493779" id="Fill-3"></path>
                <path d="M13.013407,21.8642477 L13.013407,21.8642477 L8.85027907,26.0281081 L7.21594186,24.3935267 C6.72219767,23.8992942 5.92126744,23.8992942 5.42801163,24.3935267 C4.93377907,24.8877593 4.93377907,25.687957 5.42801163,26.181457 L7.95655814,28.7100035 C8.20294186,28.9568756 8.52648837,29.0801895 8.85027907,29.0801895 C9.17406977,29.0801895 9.49761628,28.9568756 9.74448837,28.7100035 L14.8018256,23.6526663 C15.2963023,23.1584337 15.2963023,22.358236 14.8018256,21.8649802 C14.3080814,21.3707477 13.5071512,21.3707477 13.013407,21.8642477" id="Fill-5"></path>
                <path d="M13.013407,31.9788977 L13.013407,31.9791419 L8.85027907,36.1427581 L7.21594186,34.5081767 C6.72219767,34.0141884 5.92126744,34.0141884 5.42801163,34.5081767 C4.93377907,35.0026535 4.93377907,35.802607 5.42801163,36.2963512 L7.95655814,38.8248977 C8.20294186,39.0715256 8.52648837,39.1950837 8.85027907,39.1950837 C9.17406977,39.1950837 9.49761628,39.0715256 9.74448837,38.8248977 L14.8018256,33.7675605 C15.2963023,33.2733279 15.2963023,32.4731302 14.8018256,31.9796302 C14.3080814,31.4853977 13.5071512,31.4853977 13.013407,31.9788977" id="Fill-7"></path>
                <path d="M17.7006314,12.6436116 C17.7006314,13.3419837 18.2661663,13.908007 18.9650267,13.908007 L29.0797012,13.908007 C29.7780733,13.908007 30.3438523,13.3419837 30.3438523,12.6436116 C30.3438523,11.9452395 29.7780733,11.3792163 29.0797012,11.3792163 L18.9650267,11.3792163 C18.2661663,11.3792163 17.7006314,11.9452395 17.7006314,12.6436116" id="Fill-9"></path>
                <path d="M18.9649535,18.9652465 L24.0222907,18.9652465 C24.7206628,18.9652465 25.286686,18.3994674 25.286686,17.7008512 C25.286686,17.0024791 24.7206628,16.4367 24.0222907,16.4367 L18.9649535,16.4367 C18.2663372,16.4367 17.7005581,17.0024791 17.7005581,17.7008512 C17.7005581,18.3994674 18.2663372,18.9652465 18.9649535,18.9652465" id="Fill-11"></path>
                <path d="M29.0796035,21.4939151 L18.9649291,21.4939151 C18.2663128,21.4939151 17.7005337,22.0596942 17.7005337,22.7583105 C17.7005337,23.4569267 18.2663128,24.0224616 18.9649291,24.0224616 L29.0796035,24.0224616 C29.7779756,24.0224616 30.3439988,23.4569267 30.3439988,22.7583105 C30.3439988,22.0596942 29.7779756,21.4939151 29.0796035,21.4939151" id="Fill-13"></path>
                <path d="M18.9649535,29.0798965 L24.0222907,29.0798965 C24.7206628,29.0798965 25.286686,28.5143616 25.286686,27.8155012 C25.286686,27.1171291 24.7206628,26.55135 24.0222907,26.55135 L18.9649535,26.55135 C18.2663372,26.55135 17.7005581,27.1171291 17.7005581,27.8155012 C17.7005581,28.5143616 18.2663372,29.0798965 18.9649535,29.0798965" id="Fill-15"></path>
                <path d="M29.0796035,31.6088093 L18.9649291,31.6088093 C18.2663128,31.6088093 17.7005337,32.1745884 17.7005337,32.8732047 C17.7005337,33.5715767 18.2663128,34.1373558 18.9649291,34.1373558 L29.0796035,34.1373558 C29.7779756,34.1373558 30.3439988,33.5715767 30.3439988,32.8732047 C30.3439988,32.1745884 29.7779756,31.6088093 29.0796035,31.6088093" id="Fill-17"></path>
                <path d="M23.5222907,36.6661221 L18.4649535,36.6661221 C17.7663372,36.6661221 17.2005581,37.2319012 17.2005581,37.9305174 C17.2005581,38.6288895 17.7663372,39.1946686 18.4649535,39.1946686 L23.5222907,39.1946686 C24.2206628,39.1946686 24.786686,38.6288895 24.786686,37.9305174 C24.786686,37.2319012 24.2206628,36.6661221 23.5222907,36.6661221" id="Fill-19"></path>
            </g>
        </g>
    </g>
</svg>