<?xml version="1.0" encoding="UTF-8"?>
<svg width="83px" height="121px" viewBox="0 0 83 121" version="1.1" xmlns="http://www.w3.org/2000/svg" xmlns:xlink="http://www.w3.org/1999/xlink">
    <title>01 Home / Vectores / Subibaja / Emblema Margen</title>
    <defs>
        <polygon id="path-1" points="0 0.614428107 74.6948592 0.614428107 74.6948592 81.6921631 0 81.6921631"></polygon>
        <polygon id="path-3" points="0.69325 0.286970414 28.9077875 0.286970414 28.9077875 26.9965849 0.69325 26.9965849"></polygon>
    </defs>
    <g id="Welcome" stroke="none" stroke-width="1" fill="none" fill-rule="evenodd">
        <g id="Home-Final-/-Drop-B" transform="translate(-724.000000, -679.000000)">
            <g id="01-Home-/-Vectores-/-Subibaja-/-Emblema-Margen" transform="translate(724.049914, 679.916302)">
                <path d="M69.8293351,95.6836406 C76.8305582,89.7829396 81.1069551,81.5211645 81.8659796,72.4205137 C83.6250648,51.3819551 67.861139,32.8441509 46.7257777,31.0965593 C35.2390469,30.1441933 24.0747618,33.7052485 15.2801337,41.1170369 C6.48869816,48.5264444 1.118859,58.9008847 0.163493741,70.3292767 C-0.917178407,83.2695498 3.39673072,96.0225241 11.9990087,105.319204 C20.7329787,114.75477 32.9715509,119.951514 46.4592013,119.951514 L64.7979043,110.37361 C53.512303,110.37361 61.9129729,112.804328 64.7979043,110.37361 L69.8293351,95.6836406 Z" id="Fill-1" fill="#D6D1C5"></path>
                <g id="Group" transform="translate(3.648742, 0.000000)">
                    <g id="Group-9" transform="translate(0.000000, 0.837192)">
                        <g id="Group-3" transform="translate(0.000000, 33.201270)">
                            <mask id="mask-2" fill="white">
                                <use xlink:href="#path-1"></use>
                            </mask>
                            <g id="Clip-2"></g>
                            <path d="M63.6088826,59.5860801 C69.9864345,54.2110154 73.8818886,46.6852019 74.573299,38.39524 C76.1756843,19.230803 61.816014,2.34435235 42.5633975,0.75243676 C32.0999084,-0.115092172 21.9301414,3.12874309 13.9189416,9.880287 C5.91064996,16.6296621 1.0191578,26.0799439 0.148896789,36.4902911 C-0.835508738,48.2778404 3.09411598,59.8947758 10.9301003,68.363304 C18.8860454,76.9583469 30.0344016,81.6921631 42.3205678,81.6921631 L42.3205678,74.6434905 C32.0402915,74.6434905 22.7436937,70.7179221 16.1480312,63.5897261 C9.55236878,56.4644218 6.3795876,47.0481182 7.21349686,37.0744272 C7.92744533,28.5386655 11.9363169,20.7909092 18.5036249,15.2575205 C25.0672978,9.72413179 33.4063904,7.06587856 41.9759532,7.77652934 C57.3331156,9.04673628 68.7890077,22.5201835 67.5101529,37.8111039 C66.973601,44.2264803 63.9607676,50.0504912 59.0256533,54.2088466 C54.0905391,58.3672019 47.812591,60.3617955 41.3870547,59.830434 C30.0496694,58.8927799 17.9990626,51.0459807 17.9954274,38.3489718 L10.903927,38.3518636 C10.9119244,55.2607254 26.314163,65.6573367 40.7988833,66.8552496 C49.1198001,67.5434892 57.2276955,64.9625906 63.6088826,59.5860801" id="Fill-1" fill="#000000" mask="url(#mask-2)"></path>
                        </g>
                        <path d="M40.8454321,78.3569231 C34.7166867,78.3569231 29.7296836,73.3691982 29.7296836,67.2397311 C29.7296836,61.1095423 34.7166867,56.1225392 40.8454321,56.1225392 C46.9763427,56.1225392 51.9626241,61.1095423 51.9626241,67.2397311 C51.9626241,73.3691982 46.9763427,78.3569231 40.8454321,78.3569231 M40.8454321,49.085885 C30.8360622,49.085885 22.6923077,57.2296395 22.6923077,67.2397311 C22.6923077,77.2498228 30.8360622,85.3935773 40.8454321,85.3935773 C50.8562455,85.3935773 59,77.2498228 59,67.2397311 C59,57.2296395 50.8562455,49.085885 40.8454321,49.085885" id="Fill-4" fill="#000000"></path>
                        <g id="Group-8" transform="translate(24.961538, 1.432039)">
                            <mask id="mask-4" fill="white">
                                <use xlink:href="#path-3"></use>
                            </mask>
                            <g id="Clip-7"></g>
                            <path d="M14.80015,7.09438343 C16.64685,7.09438343 18.3836625,7.77515266 19.689775,9.01170888 C20.9958875,10.2482651 21.7142125,11.8925846 21.7142125,13.6402414 C21.7142125,17.2514604 18.6122875,20.1888923 14.798675,20.1895905 C12.9512375,20.1895905 11.2151625,19.5088213 9.90905,18.2722651 C8.6022,17.0357089 7.883875,15.3913893 7.883875,13.6423361 C7.883875,10.0325136 10.9880125,7.09438343 14.80015,7.09438343 M14.798675,26.9965849 C22.5756125,26.9965849 28.9041,21.0058154 28.9077875,13.6409396 C28.9077875,10.0737089 27.4386875,6.72013491 24.7741,4.19814675 C22.11025,1.67546036 18.568775,0.286691124 14.80015,0.286691124 C7.021,0.287389349 0.69325,6.27815858 0.69325,13.6423361 C0.69325,17.2102651 2.1594,20.5638391 4.8225125,23.0858272 C7.4863625,25.6085136 11.03005,26.9972828 14.798675,26.9965849" id="Fill-6" fill="#000000" mask="url(#mask-4)"></path>
                        </g>
                    </g>
                </g>
            </g>
        </g>
    </g>
</svg>