<?xml version="1.0" encoding="UTF-8"?>
<svg width="42px" height="53px" viewBox="0 0 42 53" version="1.1" xmlns="http://www.w3.org/2000/svg" xmlns:xlink="http://www.w3.org/1999/xlink">
    <title>01 Home / Iconos / Escudo</title>
    <defs>
        <polygon id="path-1" points="0 0.117868605 41.8617907 0.117868605 41.8617907 50.0580663 0 50.0580663"></polygon>
    </defs>
    <g id="Welcome" stroke="none" stroke-width="1" fill="none" fill-rule="evenodd">
        <g id="Home-Final-/-Drop-B" transform="translate(-760.000000, -1181.000000)">
            <g id="01-Home-/-Iconos-/-Escudo" transform="translate(760.000000, 1181.954530)">
                <g id="Group-3" transform="translate(0.000000, 0.126488)">
                    <mask id="mask-2" fill="white">
                        <use xlink:href="#path-1"></use>
                    </mask>
                    <g id="Clip-2"></g>
                    <path d="M39.1508372,13.8711593 L37.4874419,29.0368221 C37.1563256,31.8530198 36.1722558,34.6020663 34.6412093,36.9870314 C33.1099186,39.3732174 31.0204186,41.4126593 28.6154302,42.8758221 C25.5936279,44.6571593 22.2436395,46.5896477 21.0219767,47.2372291 C19.799093,46.5962407 16.4481279,44.6827988 13.4363372,42.9251477 C11.0042442,41.4654035 8.90180233,39.4371942 7.35561628,37.060043 C5.80869767,34.6821593 4.80704651,31.9377523 4.46054651,29.1354733 L2.71486047,13.9617523 C2.60937209,13.0802407 2.79617442,12.1713802 3.24132558,11.4029267 C3.68598837,10.6352058 4.37996512,10.0210779 5.19603488,9.67335698 L20.9702093,3.03076395 L36.6420698,9.58789186 C37.460093,9.93268256 38.1582209,10.544857 38.6072791,11.3111128 C39.0563372,12.0773686 39.2494884,12.9857407 39.1508372,13.8711593 M40.9248488,9.95295 C40.1844767,8.68977558 39.0338721,7.68104302 37.681814,7.11111279 L20.9667907,0.117868605 L4.15189535,7.1985314 L4.1475,7.20048488 C2.79861628,7.77407791 1.65118605,8.78867093 0.916918605,10.0567291 C0.182162791,11.3252756 -0.126488372,12.8257988 0.047127907,14.275043 L1.79354651,29.4534035 C2.19132558,32.6698221 3.33582558,35.806636 5.10397674,38.5246709 C6.87115116,41.2417291 9.27443023,43.5597872 12.068407,45.2366128 C20.1990698,49.9818802 20.5702326,50.0580663 21.0075698,50.0580663 L21.0293023,50.0580663 C21.4771395,50.0568453 21.7240116,50.056357 29.9953256,45.18045 C32.7629302,43.4967872 35.1510698,41.1650547 36.9018837,38.4377407 C38.6517209,35.7116477 39.776686,32.5694616 40.1561512,29.3403453 L41.8205233,14.1668686 C41.9826628,12.7122523 41.6644884,11.215636 40.9248488,9.95295" id="Fill-1" fill="#000000" mask="url(#mask-2)"></path>
                </g>
                <path d="M18.6399174,29.591686 C18.6135453,29.5838721 18.5886384,29.5677558 18.5695919,29.5440698 L14.8745686,25.0134419 L12.7928826,26.7112674 L16.4857081,31.2389651 C17.0390337,31.9209767 17.8497314,32.2850581 18.676057,32.2850581 C19.147336,32.2850581 19.6234988,32.1668721 20.0601035,31.9214651 L20.2513012,31.8145116 L30.4890453,20.5033256 L28.4977081,18.7009884 L18.6399174,29.591686 Z" id="Fill-4" fill="#000000"></path>
            </g>
        </g>
    </g>
</svg>