<?xml version="1.0" encoding="utf-8"?>
<!-- Generator: Adobe Illustrator 15.0.0, SVG Export Plug-In . SVG Version: 6.00 Build 0)  -->
<!DOCTYPE svg PUBLIC "-//W3C//DTD SVG 1.1//EN" "http://www.w3.org/Graphics/SVG/1.1/DTD/svg11.dtd">
<svg version="1.1" id="Layer_1" xmlns="http://www.w3.org/2000/svg" xmlns:xlink="http://www.w3.org/1999/xlink" x="0px" y="0px"
	 width="70.015px" height="108.075px" viewBox="13.157 5.77 70.015 108.075" enable-background="new 13.157 5.77 70.015 108.075"
	 xml:space="preserve">
<path fill="#020202" d="M53.053,37.547c-9.808-0.817-19.34,2.241-26.85,8.604c-7.507,6.363-12.091,15.271-12.906,25.084
	c-0.925,11.112,2.76,22.062,10.105,30.045c7.457,8.102,17.906,12.565,29.423,12.565V107.2c-9.637,0-18.349-3.701-24.533-10.42
	c-6.182-6.716-9.155-15.593-8.374-24.995C20.587,63.74,24.345,56.437,30.5,51.22c6.154-5.216,13.971-7.722,22.002-7.052
	c14.396,1.197,25.132,13.898,23.936,28.312c-0.503,6.047-3.328,11.537-7.953,15.457c-4.627,3.92-10.51,5.8-16.534,5.299
	c-10.626-0.884-21.921-8.281-21.926-20.25l-6.646,0.003c0.009,15.939,14.444,25.739,28.021,26.869
	c7.8,0.646,15.399-1.784,21.381-6.854c5.978-5.065,9.629-12.159,10.278-19.976C84.559,54.965,71.099,39.048,53.053,37.547"/>
<path fill="#020202" d="M51.364,85.6c9.453,0,17.143-7.689,17.143-17.143c0-9.452-7.689-17.142-17.143-17.142
	c-9.452,0-17.141,7.689-17.141,17.142S41.912,85.6,51.364,85.6 M51.364,57.96c5.789,0,10.497,4.708,10.497,10.498
	c0,5.788-4.708,10.497-10.497,10.497c-5.787,0-10.496-4.709-10.496-10.497C40.868,62.669,45.577,57.96,51.364,57.96"/>
<path fill="#020202" d="M51.365,31.839c7.186,0,13.033-5.847,13.036-13.034c0-3.482-1.357-6.756-3.819-9.218
	S54.848,5.77,51.366,5.77c-7.188,0.001-13.037,5.849-13.037,13.036c0,3.481,1.357,6.755,3.818,9.217
	C44.609,30.484,47.883,31.84,51.365,31.839 M51.366,12.415c1.707,0,3.312,0.665,4.519,1.871c1.206,1.208,1.87,2.812,1.87,4.52
	c0,3.523-2.866,6.391-6.39,6.391c-1.708,0-3.312-0.664-4.52-1.871c-1.207-1.207-1.87-2.812-1.87-4.519
	C44.975,15.281,47.842,12.415,51.366,12.415"/>
</svg>
