<?xml version="1.0" encoding="UTF-8"?>
<svg width="19px" height="19px" viewBox="0 0 19 19" version="1.1" xmlns="http://www.w3.org/2000/svg" xmlns:xlink="http://www.w3.org/1999/xlink">
    <title>00 Global / Social Media / FB</title>
    <g id="Symbols" stroke="none" stroke-width="1" fill="none" fill-rule="evenodd">
        <g id="Footer-Copy-2" transform="translate(-423.000000, -178.000000)" fill="#000000">
            <path d="M440.0738,178.397566 L424.161207,178.397566 C423.615909,178.397566 423.174036,178.839159 423.174036,179.384737 L423.174036,195.29733 C423.174036,195.842488 423.615909,196.2845 424.161207,196.2845 L432.727898,196.2845 L432.727898,189.357768 L430.396892,189.357768 L430.396892,186.658184 L432.727898,186.658184 L432.727898,184.667446 C432.727898,182.357181 434.139003,181.098972 436.199953,181.098972 C437.187124,181.098972 438.035553,181.172407 438.282906,181.205341 L438.282906,183.619873 L436.853723,183.620434 C435.732575,183.620434 435.515773,184.153119 435.515773,184.9347 L435.515773,186.658184 L438.18887,186.658184 L437.840893,189.357768 L435.515773,189.357768 L435.515773,196.2845 L440.0738,196.2845 C440.619098,196.2845 441.06097,195.842488 441.06097,195.29733 L441.06097,179.384737 C441.06097,178.839159 440.619098,178.397566 440.0738,178.397566" id="00-Global-/-Social-Media-/-FB"></path>
        </g>
    </g>
</svg>