<?xml version="1.0" encoding="UTF-8"?>
<svg width="21px" height="21px" viewBox="0 0 21 21" version="1.1" xmlns="http://www.w3.org/2000/svg" xmlns:xlink="http://www.w3.org/1999/xlink">
    <title>00 Global / Social Media / IG</title>
    <g id="Symbols" stroke="none" stroke-width="1" fill="none" fill-rule="evenodd">
        <g id="Footer-Copy-2" transform="translate(-350.000000, -177.000000)" fill="#000000">
            <path d="M360.787752,177.112925 C360.875146,177.11299 360.95973,177.113072 361.041648,177.113173 L361.710853,177.114615 C362.719255,177.117963 363.22548,177.1263 363.717205,177.143657 L363.914278,177.15109 C364.079788,177.157702 364.250911,177.165375 364.445711,177.174259 C365.534345,177.22401 366.277947,177.396807 366.928633,177.649766 C367.601181,177.911133 368.171706,178.260791 368.740268,178.829493 C369.30897,179.398196 369.658628,179.96858 369.919996,180.641268 C370.172955,181.291815 370.345751,182.035276 370.395502,183.12405 C370.439923,184.098173 370.454067,184.480171 370.456588,186.528117 L370.456588,188.15438 C370.454067,190.202326 370.439923,190.584324 370.395502,191.558446 C370.345751,192.647221 370.172955,193.390682 369.919996,194.041368 C369.658628,194.713917 369.30897,195.284301 368.740268,195.853003 C368.171706,196.421565 367.601181,196.771364 366.928633,197.032871 C366.277947,197.28555 365.534345,197.458627 364.445711,197.508238 C363.471713,197.552659 363.089617,197.566802 361.041648,197.569323 L359.415377,197.569323 C357.367409,197.566802 356.985312,197.552659 356.011315,197.508238 C354.92268,197.458627 354.179079,197.28555 353.528393,197.032871 C352.855844,196.771364 352.28532,196.421565 351.716758,195.853003 C351.148055,195.284301 350.798397,194.713917 350.53703,194.041368 C350.284071,193.390682 350.111274,192.647221 350.061523,191.558446 C350.022433,190.701219 350.006789,190.302532 350.00188,188.823573 L350.000438,188.15438 C350.000337,188.072462 350.000255,187.987879 350.00019,187.900485 L350.00019,186.782012 C350.000255,186.694618 350.000337,186.610035 350.000438,186.528117 L350.00188,185.858923 C350.006789,184.379965 350.022433,183.981278 350.061523,183.12405 C350.111274,182.035276 350.284071,181.291815 350.53703,180.641268 C350.798397,179.96858 351.148055,179.398196 351.716758,178.829493 C352.28532,178.260791 352.855844,177.911133 353.528393,177.649766 C354.179079,177.396807 354.92268,177.22401 356.011315,177.174259 C356.868432,177.135169 357.267182,177.119525 358.746173,177.114615 L359.415377,177.113173 C359.497296,177.113072 359.58188,177.11299 359.669274,177.112925 Z M360.778054,178.955794 L359.678971,178.955794 C359.593138,178.955852 359.510088,178.955927 359.429677,178.956019 L358.977719,178.956788 C357.357759,178.96061 356.981233,178.974917 356.095401,179.015324 C355.09814,179.06073 354.556345,179.227501 354.196036,179.367504 C353.718567,179.553054 353.377879,179.774761 353.019812,180.132688 C352.662026,180.490614 352.440319,180.831303 352.254909,181.308772 C352.114765,181.669221 351.948135,182.210735 351.902588,183.207996 C351.862182,184.093944 351.847969,184.47049 351.844181,186.090454 L351.843419,186.542412 C351.843328,186.622824 351.843254,186.705874 351.843196,186.791707 L351.843196,187.890814 C351.843254,187.97665 351.843328,188.059703 351.843419,188.140116 L351.844181,188.592082 C351.847969,190.21206 351.862182,190.588438 351.902588,191.4745 C351.948135,192.471761 352.114765,193.013276 352.254909,193.373725 C352.440319,193.851194 352.662026,194.191883 353.019812,194.549809 C353.377879,194.907876 353.718567,195.129442 354.196036,195.314992 C354.556345,195.454996 355.09814,195.621626 356.095401,195.667173 C356.364967,195.679471 356.587366,195.689342 356.812009,195.697232 L357.006263,195.703519 C357.499034,195.718077 358.066936,195.724118 359.196163,195.726016 L361.260863,195.726016 C363.067625,195.722979 363.437398,195.709336 364.361624,195.667173 C365.358886,195.621626 365.90068,195.454996 366.260989,195.314992 C366.738458,195.129442 367.079147,194.907876 367.437213,194.549809 C367.795,194.191883 368.016707,193.851194 368.202117,193.373725 C368.34226,193.013276 368.508891,192.471761 368.554437,191.4745 C368.596601,190.549914 368.610243,190.180295 368.61328,188.373584 L368.61328,186.308949 C368.610243,184.50227 368.596601,184.132463 368.554437,183.207996 C368.508891,182.210735 368.34226,181.669221 368.202117,181.308772 C368.016707,180.831303 367.795,180.490614 367.437213,180.132688 C367.079147,179.774761 366.738458,179.553054 366.260989,179.367504 C365.90068,179.227501 365.358886,179.06073 364.361624,179.015324 C363.475792,178.974917 363.099267,178.96061 361.479306,178.956788 L361.027349,178.956019 C360.946937,178.955927 360.863887,178.955852 360.778054,178.955794 Z M360.228513,182.08874 C363.129343,182.08874 365.480951,184.440488 365.480951,187.341318 C365.480951,190.242149 363.129343,192.593616 360.228513,192.593616 C357.327683,192.593616 354.976075,190.242149 354.976075,187.341318 C354.976075,184.440488 357.327683,182.08874 360.228513,182.08874 Z M360.228513,183.931767 C358.345405,183.931767 356.818962,185.45821 356.818962,187.341318 C356.818962,189.224146 358.345405,190.750729 360.228513,190.750729 C362.111621,190.750729 363.638064,189.224146 363.638064,187.341318 C363.638064,185.45821 362.111621,183.931767 360.228513,183.931767 Z M365.688475,180.653797 C366.366349,180.653797 366.915992,181.2033 366.915992,181.881174 C366.915992,182.559188 366.366349,183.108691 365.688475,183.108691 C365.010601,183.108691 364.461098,182.559188 364.461098,181.881174 C364.461098,181.2033 365.010601,180.653797 365.688475,180.653797 Z" id="00-Global-/-Social-Media-/-IG"></path>
        </g>
    </g>
</svg>