<?xml version="1.0" encoding="UTF-8"?>
<svg width="39px" height="51px" viewBox="0 0 39 51" version="1.1" xmlns="http://www.w3.org/2000/svg" xmlns:xlink="http://www.w3.org/1999/xlink">
    <title>01 Home / Iconos / Microscopio</title>
    <defs>
        <polygon id="path-1" points="0 2.51388758e-05 38.2385581 2.51388758e-05 38.2385581 49.983907 0 49.983907"></polygon>
    </defs>
    <g id="Welcome" stroke="none" stroke-width="1" fill="none" fill-rule="evenodd">
        <g id="Home-Final-/-Drop-B" transform="translate(-435.000000, -1182.000000)">
            <g id="01-Home-/-Iconos-/-Microscopio" transform="translate(435.000000, 1182.954530)">
                <mask id="mask-2" fill="white">
                    <use xlink:href="#path-1"></use>
                </mask>
                <g id="Clip-2"></g>
                <path d="M21.0145535,44.2627012 L21.0419023,44.2627012 L21.0421465,44.262457 C21.4858326,44.262457 21.9239023,44.2419453 22.3573326,44.2082477 L23.9826349,44.2082477 L28.4292628,47.6668988 L13.2953442,47.6668988 L17.7419721,44.2082477 L19.717193,44.2082477 C20.1469605,44.2409686 20.579414,44.2619686 21.0145535,44.2627012 L21.0145535,44.2627012 Z M33.524693,18.4295267 C34.1893674,19.0292477 34.5551581,19.8240733 34.5551581,20.667736 C34.5551581,21.7575384 33.9437163,22.7569919 32.9188674,23.3415733 C32.3579721,23.6682942 31.7028209,23.8409337 31.0242279,23.8409337 C29.0766,23.8409337 27.4918326,22.4175733 27.4918326,20.667736 C27.4918326,18.9178988 29.0766,17.4942942 31.0242279,17.4942942 L31.0242279,17.4945384 C31.9682512,17.4945384 32.8563558,17.8263872 33.524693,18.4295267 L33.524693,18.4295267 Z M32.5916581,5.55066628 C32.4295186,5.43711977 32.2585884,5.33627093 32.0815535,5.24616628 L34.1920535,2.72348023 L35.3900302,3.58057326 L33.258286,6.12816628 C33.0602512,5.91450349 32.8380419,5.71988721 32.5916581,5.55066628 L32.5916581,5.55066628 Z M31.8388326,8.12805 C31.9216116,8.30679419 31.9653209,8.5026314 31.9653209,8.69431744 C31.9653209,9.02982907 31.8388326,9.35288721 31.599286,9.62881744 L20.6009023,22.4207477 L17.6399023,20.356643 L28.4837163,7.74907326 C28.9076233,7.25777093 29.6118558,7.0062593 30.3209721,7.09660814 C30.4604023,7.11272442 30.595193,7.14617791 30.7263209,7.18842209 C30.9231349,7.27120116 31.1116465,7.37156163 31.2840419,7.49560814 C31.422007,7.59279419 31.5428791,7.70414302 31.6547163,7.82135233 C31.7267512,7.91658488 31.7904837,8.01743372 31.8388326,8.12805 L31.8388326,8.12805 Z M20.8975884,25.6330151 L19.9975186,26.7062128 L13.2333209,21.8718174 L14.1331465,20.7978872 L20.8975884,25.6330151 Z M38.2294256,3.21942209 C38.1888907,2.90027093 38.0157628,2.61017791 37.7544837,2.42337558 L34.666507,0.214224419 C34.1752047,-0.135694186 33.4902628,-0.0482755814 33.104693,0.413480233 L29.4289605,4.8066314 C28.3772512,4.95070116 27.4007512,5.45543372 26.7275302,6.23805 L15.6944721,19.0666081 L14.6078442,18.2900965 C14.1197163,17.9394453 13.4337977,18.026864 13.0465186,18.4883756 L10.6537395,21.3433988 C10.4476465,21.5900267 10.352414,21.91455 10.3929488,22.2327244 C10.4329953,22.552364 10.6066116,22.842457 10.8688674,23.0292593 L19.5233093,29.2144919 C19.7203674,29.3558756 19.9528326,29.4305965 20.1955535,29.4305965 C20.5391233,29.4305965 20.8631581,29.2801779 21.0843907,29.0171895 L23.4769256,26.1628988 C23.6832628,25.9155384 23.7782512,25.5912593 23.7377163,25.2728407 C23.6976698,24.9534453 23.5240535,24.662864 23.2620419,24.4763058 L22.4103209,23.86755 L25.1757279,20.6508872 C25.1757279,20.6565035 25.1752395,20.662364 25.1752395,20.6679802 C25.1752395,23.6951547 27.7990186,26.1580151 31.0242279,26.1580151 L31.0242279,26.1577709 C31.6271233,26.1577709 32.2190302,26.0688872 32.7821233,25.9023523 C34.0597047,30.5338291 33.0158093,35.3462477 29.9854605,38.4317826 C28.0244023,40.4275151 25.3263907,41.6323291 22.2760186,41.8916547 L19.809007,41.8916547 C16.6279953,41.625736 13.6149837,40.35255 11.7418326,38.4342244 C11.1889953,37.8677128 10.7113674,37.2181779 10.3116349,36.4978291 L16.7913558,36.4978291 C17.4299023,36.4978291 17.9495302,35.9782012 17.9495302,35.3394105 C17.9495302,34.700864 17.4299023,34.181236 16.7913558,34.181236 L1.15832093,34.181236 C0.519530233,34.181236 -9.76744195e-05,34.700864 -9.76744195e-05,35.3394105 C-9.76744195e-05,35.9782012 0.519530233,36.4978291 1.15832093,36.4978291 L7.73571628,36.4978291 C8.31956512,37.8557477 9.10633256,39.0517709 10.0838093,40.0529337 C11.4348907,41.4355151 13.207193,42.5223872 15.2039023,43.2468872 L9.2071814,47.9108407 C8.81648372,48.2148523 8.66191395,48.7337477 8.82258837,49.2016081 C8.98326279,49.6697128 9.42353023,49.9839802 9.91898372,49.9839802 L31.8056233,49.9839802 C32.3013209,49.9839802 32.7415884,49.6694686 32.901286,49.2016081 C33.0619605,48.7335035 32.9073907,48.2148523 32.516693,47.9108407 L26.5812628,43.2945035 C28.5047163,42.582457 30.2254953,41.4916779 31.6368907,40.0556198 C35.3548674,36.2722012 36.5823907,30.3672942 34.8733326,24.8008291 C36.1382163,23.7728058 36.8722395,22.2852244 36.8722395,20.6679802 C36.8722395,17.6408058 34.2489488,15.1779453 31.0242279,15.1779453 C30.5939721,15.1779453 30.1749488,15.2228756 29.7708209,15.306143 L33.3510767,11.1420384 C33.9505535,10.4509919 34.280693,9.58144535 34.280693,8.69382907 C34.280693,8.63815465 34.2743442,8.5829686 34.2716581,8.52729419 L37.9686349,4.10874767 C38.1747279,3.86187558 38.2699605,3.5378407 38.2294256,3.21942209 L38.2294256,3.21942209 Z" id="Fill-1" fill="#000000" mask="url(#mask-2)"></path>
            </g>
        </g>
    </g>
</svg>