<?xml version="1.0" encoding="UTF-8"?>
<svg width="33px" height="59px" viewBox="0 0 33 59" version="1.1" xmlns="http://www.w3.org/2000/svg" xmlns:xlink="http://www.w3.org/1999/xlink">
    <title>01 Home / Iconos / Moneda</title>
    <defs>
        <polygon id="path-1" points="2.44186047e-05 0.236616279 32.7565814 0.236616279 32.7565814 56.8953244 2.44186047e-05 56.8953244"></polygon>
    </defs>
    <g id="Welcome" stroke="none" stroke-width="1" fill="none" fill-rule="evenodd">
        <g id="Home-Final-/-Drop-B" transform="translate(-108.000000, -1178.000000)">
            <g id="01-Home-/-Iconos-/-Moneda" transform="translate(108.000000, 1178.954530)">
                <path d="M9.61958721,20.6365291 L9.61958721,25.6850756 C8.64601744,25.5353895 7.41873837,25.02675 6.8478314,24.0126453 C6.55651744,23.3010872 6.80509884,22.2999244 7.43168023,21.6735872 C7.96571512,21.1400407 8.7446686,20.7740058 9.61958721,20.6365291 L9.61958721,20.6365291 Z M12.1378779,28.5491337 C12.9998547,28.7134709 13.9490058,29.1163779 14.419064,30.0560058 C14.7514012,30.7199477 14.4989128,31.7235523 13.8322849,32.3904244 C13.4401221,32.7825872 12.8609128,33.0900174 12.1378779,33.2931802 L12.1378779,28.5491337 Z M12.199657,26.0188779 L12.199657,20.8045291 C13.1177965,21.1476105 14.121157,21.8733314 14.121157,22.8078314 L14.121157,23.2962035 L16.6394477,23.2962035 L16.6394477,22.8078314 C16.6394477,20.9464012 15.1159709,18.8014709 12.199657,18.1875872 L12.199657,15.6600174 L9.68136628,15.6600174 L9.68136628,18.0982151 C8.14934302,18.2559593 6.73868023,18.8888895 5.7626686,19.8651453 C4.22380814,21.3336802 3.77963372,23.5247616 4.68141279,25.19475 C5.9411686,27.6246453 8.78007558,28.1293779 9.62056395,28.2263198 L9.67330814,28.2294942 C9.67575,28.2294942 9.67868023,28.2297384 9.68136628,28.2299826 L9.68136628,33.3154012 C8.66652907,33.0416686 7.26636628,32.2727267 7.26636628,31.1326221 L7.26636628,30.64425 L4.74831977,30.64425 L4.74831977,31.1326221 C4.74831977,33.611843 7.08493605,35.39025 9.37320349,35.8612849 C9.48699419,35.8896105 9.58881977,35.9069477 9.68136628,35.9208663 L9.68136628,38.2191453 L12.199657,38.2191453 L12.199657,35.8656802 C13.6130058,35.6048895 14.793157,35.0310523 15.6246105,34.199843 C17.0833779,32.8109128 17.5490407,30.547064 16.7114826,28.9415407 C16.1532733,27.8251221 14.9194012,26.4410756 12.199657,26.0188779 L12.199657,26.0188779 Z" id="Fill-1" fill="#000000"></path>
                <g id="Group-5" transform="translate(0.000000, 0.007570)">
                    <mask id="mask-2" fill="white">
                        <use xlink:href="#path-1"></use>
                    </mask>
                    <g id="Clip-4"></g>
                    <path d="M24.1431872,39.6714174 C24.2091174,39.6054872 24.2752919,39.5258826 24.3475709,39.4374872 C24.4176523,39.3515337 24.4901756,39.2628942 24.574664,39.1784058 L24.6215477,39.1381151 L24.6571988,39.0665686 C24.6694081,39.0509407 24.6845477,39.0377547 24.6982221,39.023836 C24.7521872,38.9698709 24.8308151,38.891243 24.8945477,38.7776965 C24.940943,38.7110337 25.0027221,38.6372895 25.0676756,38.5589058 C25.1514314,38.4585453 25.2381174,38.3545221 25.3143035,38.2409756 L25.3453151,38.1872547 C25.368757,38.1401267 25.3829198,38.1235221 25.5006174,38.0055802 L25.5423733,37.963336 L25.5731407,37.9123012 C25.6505477,37.7836151 25.7465128,37.660057 25.8483384,37.5294174 C25.96335,37.3814407 26.0822686,37.2285802 26.1843384,37.0586267 C27.71685,34.6316616 28.6542802,31.927057 28.9707453,29.0156267 C29.2876988,25.8937081 28.6652686,22.9510221 28.3292686,22.1163942 L28.3383035,22.1139523 C27.5859663,19.421557 26.2119314,16.9564988 24.3439081,14.889464 C26.89785,16.9496616 28.7678267,19.7350919 29.6837686,22.8894872 C29.6930477,22.9173244 30.5706523,25.6719872 30.2182919,28.7868244 C29.908664,31.4460105 29.0850244,33.7796965 27.7651988,35.7304988 C26.7425477,37.3074523 25.4798616,38.6753826 24.0015593,39.8130453 L24.1431872,39.6714174 Z M26.3953151,28.8488477 C26.0856872,31.5080337 25.2620477,33.8417198 23.9610244,35.7656616 C23.8635942,35.8955686 23.7659198,36.0415919 23.6684895,36.1878593 C23.587664,36.3092198 23.5068384,36.4308244 23.4257686,36.5407081 C23.3600826,36.6076151 23.272664,36.7038244 23.1908616,36.85815 C23.0875709,37.0127198 22.9815942,37.1699756 22.8968616,37.2549523 L22.7120128,37.439557 L22.6512105,37.5137895 C22.6160477,37.5662895 22.5603733,37.621964 22.495664,37.6866733 C22.4175244,37.7648128 22.3301058,37.8522314 22.2497686,37.963336 L21.41685,38.7962547 C21.3076988,38.9054058 21.1423849,39.0707198 20.9975826,39.1671733 L20.7704895,39.3810802 C20.5656174,39.5239291 20.423257,39.6662895 20.2545244,39.8359988 C20.2379198,39.8496733 20.2164314,39.8628593 20.1956756,39.8767779 C20.1495244,39.9077895 20.0940942,39.9449058 20.0408616,39.9908128 C19.9492919,40.0535686 19.8701756,40.1163244 19.7913035,40.1795686 C19.7248849,40.232557 19.6589547,40.2860337 19.57935,40.3390221 L19.5151291,40.3905453 C19.4985244,40.404464 19.4772802,40.4174058 19.4565244,40.4310802 C19.4103733,40.4618477 19.3554314,40.4987198 19.302443,40.5441384 C19.1625244,40.6376616 18.9850012,40.7551151 18.8926988,40.8015105 C18.810164,40.8427779 18.7476523,40.8833128 18.6858733,40.9245802 C18.65535,40.9448477 18.6253151,40.9660919 18.584536,40.9863593 L18.5313035,41.0173709 C18.4460826,41.0740221 18.3752686,41.1165105 18.3044547,41.1589988 C18.2285128,41.2044174 18.1528151,41.2500802 18.0641756,41.3081965 C17.955757,41.3624058 17.8463616,41.4188128 17.7511291,41.4893826 C17.6522337,41.5313826 17.5709198,41.5802198 17.5025477,41.621243 C17.4422337,41.6576267 17.3943733,41.6861965 17.3528616,41.7001151 L16.9489779,41.8961965 C16.8608267,41.9267198 16.7846407,41.9569988 16.7086988,41.9875221 C16.6400826,42.0148709 16.5717105,42.042464 16.489664,42.0698128 L16.4234895,42.09765 C16.317757,42.15015 16.2777105,42.168464 16.2122686,42.168464 L16.097257,42.168464 L15.9944547,42.219743 C15.9434198,42.2451384 15.8791988,42.2700453 15.8154663,42.2954407 C15.7246291,42.3318244 15.6345244,42.3684523 15.5703035,42.4009291 C15.5397802,42.4124058 15.5041291,42.4170453 15.4692105,42.4238826 C15.3712919,42.4439058 15.2496872,42.4680802 15.1307686,42.5279058 C15.0489663,42.5684407 14.9466523,42.5979872 14.9166174,42.6001849 L14.8375012,42.6001849 L14.762536,42.625336 C14.6922105,42.6485337 14.6333616,42.6592779 14.574757,42.6709988 C14.4883151,42.688336 14.3901523,42.7081151 14.2685477,42.7488942 L14.2131174,42.7711151 C14.1825942,42.7825919 14.146943,42.7874756 14.1120244,42.7943128 C14.0255826,42.81165 13.9205826,42.83265 13.8138733,42.8795337 C13.717664,42.9085919 13.6527105,42.9085919 13.4978965,42.9085919 C13.3880128,42.9085919 13.2810593,42.9300802 13.1865593,42.9488826 C13.14285,42.9574291 13.0996291,42.9684174 13.0661756,42.9701267 C12.9199081,42.9701267 12.788536,42.994057 12.6830477,43.0135919 C12.6410477,43.0211616 12.6024663,43.0301965 12.5726756,43.0316616 C12.4627919,43.0316616 12.3558384,43.05315 12.2613384,43.0719523 C12.2176291,43.0804988 12.1744081,43.0914872 12.1409547,43.0931965 L10.3527802,43.1547314 L9.75867558,43.1552198 C7.24844302,43.0409407 4.75017558,42.2636965 2.51685,40.9048012 L2.51807093,13.6443593 C4.78729186,12.3198942 7.28531512,11.5621849 9.75940814,11.4496151 L11.1971756,11.4491267 C14.0827221,11.5721965 16.9062453,12.4629872 19.1534895,13.9610686 C22.4082453,16.070836 24.7885709,19.2584407 25.8607919,22.9515105 C25.8698267,22.9793477 26.7476756,25.7340105 26.3953151,28.8488477 L26.3953151,28.8488477 Z M32.0274663,22.1786616 L32.0367453,22.1762198 C30.8470709,17.918836 28.1021756,14.2282081 24.3080128,11.78415 C21.5101291,9.98132442 18.3361988,9.00067326 14.8555709,8.86954535 L9.59140814,8.87003372 C7.18178023,8.9823593 4.73112907,9.63653372 2.45604767,10.7700453 L2.45678023,0.23659186 L2.44186047e-05,0.23659186 L2.44186047e-05,56.8953244 L2.51831512,56.8953244 L2.51831512,43.6470105 C4.69108256,44.7189872 7.13660581,45.3734058 9.64219884,45.5479988 L9.65953605,45.5492198 L14.9276058,45.42615 C17.9997105,45.3636384 20.9135826,44.61765 23.3534895,43.269743 C25.9257453,41.8612779 28.1825128,39.7368593 29.8830244,37.1211384 C31.4152919,34.6949058 32.3524779,31.990057 32.668943,29.0781384 C32.9868733,25.955243 32.3639547,23.0140221 32.0274663,22.1786616 L32.0274663,22.1786616 Z" id="Fill-3" fill="#000000" mask="url(#mask-2)"></path>
                </g>
            </g>
        </g>
    </g>
</svg>