<?xml version="1.0" encoding="utf-8"?>
<!-- Generator: Adobe Illustrator 15.0.0, SVG Export Plug-In . SVG Version: 6.00 Build 0)  -->
<!DOCTYPE svg PUBLIC "-//W3C//DTD SVG 1.1//EN" "http://www.w3.org/Graphics/SVG/1.1/DTD/svg11.dtd">
<svg version="1.1" id="Layer_1" xmlns="http://www.w3.org/2000/svg" xmlns:xlink="http://www.w3.org/1999/xlink" x="0px" y="0px"
	 width="272.763px" height="119.615px" viewBox="0 0 272.763 119.615" enable-background="new 0 0 272.763 119.615"
	 xml:space="preserve">
<g>
	<defs>
		<rect id="SVGID_1_" width="272.763" height="119.615"/>
	</defs>
	<clipPath id="SVGID_2_">
		<use xlink:href="#SVGID_1_"  overflow="visible"/>
	</clipPath>
	<path clip-path="url(#SVGID_2_)" fill="#020202" d="M53.053,37.547c-9.807-0.818-19.339,2.241-26.849,8.604
		c-7.507,6.363-12.091,15.271-12.906,25.084c-0.925,11.112,2.759,22.062,10.105,30.045c7.457,8.102,17.906,12.565,29.423,12.565
		v-6.645c-9.637,0-18.349-3.701-24.533-10.42c-6.182-6.716-9.156-15.593-8.374-24.995C20.587,63.74,24.345,56.437,30.5,51.22
		c6.154-5.215,13.97-7.721,22.002-7.051c14.395,1.197,25.132,13.898,23.935,28.312c-0.503,6.047-3.328,11.537-7.953,15.457
		c-4.627,3.92-10.51,5.8-16.534,5.299c-10.626-0.884-21.921-8.281-21.926-20.25l-6.646,0.003
		c0.008,15.939,14.444,25.739,28.021,26.869c7.8,0.647,15.4-1.784,21.381-6.853c5.978-5.066,9.629-12.16,10.278-19.976
		C84.559,54.965,71.099,39.048,53.053,37.547"/>
	<path clip-path="url(#SVGID_2_)" fill="#020202" d="M51.364,85.6c9.453,0,17.143-7.689,17.143-17.142
		c0-9.452-7.69-17.142-17.143-17.142c-9.452,0-17.141,7.69-17.141,17.142C34.223,77.91,41.912,85.6,51.364,85.6 M51.364,57.96
		c5.789,0,10.497,4.708,10.497,10.498c0,5.788-4.708,10.497-10.497,10.497c-5.787,0-10.496-4.709-10.496-10.497
		C40.868,62.669,45.577,57.96,51.364,57.96"/>
	<path clip-path="url(#SVGID_2_)" fill="#020202" d="M51.365,31.839c7.186,0,13.033-5.847,13.036-13.035
		c0-3.482-1.357-6.755-3.819-9.217S54.848,5.77,51.366,5.77c-7.188,0.001-13.037,5.849-13.037,13.036
		c0,3.482,1.357,6.755,3.818,9.217C44.609,30.484,47.883,31.84,51.365,31.839 M51.366,12.415c1.707,0,3.312,0.665,4.519,1.871
		c1.206,1.208,1.87,2.812,1.87,4.519c0,3.524-2.867,6.391-6.39,6.391c-1.708,0-3.312-0.664-4.52-1.871
		c-1.207-1.207-1.87-2.812-1.87-4.519C44.975,15.281,47.842,12.415,51.366,12.415"/>
	<path clip-path="url(#SVGID_2_)" fill="#020202" d="M101.375,105.26h-6.147V62.846h6.147v2.643
		c1.906-1.967,4.427-2.951,7.561-2.951c3.75,0,7.008,1.354,9.712,4.059c2.705,2.704,4.058,5.961,4.058,9.711
		s-1.353,7.009-4.058,9.713c-2.704,2.704-5.962,4.057-9.712,4.057c-3.134,0-5.655-0.983-7.561-2.95V105.26z M116.681,76.431
		c0-2.151-0.737-3.996-2.212-5.471c-1.476-1.476-3.259-2.214-5.41-2.214c-2.089,0-3.872,0.738-5.348,2.151
		c-1.475,1.414-2.336,3.136-2.336,5.164v0.615c0,2.027,0.861,3.749,2.336,5.163c1.476,1.414,3.259,2.091,5.348,2.091
		c2.151,0,3.934-0.739,5.41-2.214c1.475-1.476,2.212-3.258,2.212-5.41V76.431z"/>
	<path clip-path="url(#SVGID_2_)" fill="#020202" d="M125.775,76.307c0-3.75,1.353-7.007,4.057-9.712
		c2.704-2.704,5.963-4.058,9.712-4.058c3.749,0,7.008,1.354,9.712,4.058c2.704,2.705,4.058,5.962,4.058,9.712
		s-1.354,7.009-4.058,9.712c-2.704,2.705-5.901,4.058-9.65,4.058c-3.75,0-7.008-1.353-9.712-4.058
		c-2.705-2.703-4.058-5.962-4.058-9.712H125.775z M131.799,76.307c0,2.214,0.737,4.059,2.213,5.532
		c1.475,1.477,3.319,2.214,5.471,2.214c2.213,0,4.057-0.737,5.532-2.214c1.475-1.474,2.213-3.318,2.213-5.532
		c0-2.212-0.738-4.057-2.213-5.593c-1.476-1.537-3.319-2.274-5.532-2.274c-2.152,0-3.934,0.737-5.41,2.274
		c-1.475,1.536-2.212,3.381-2.212,5.593H131.799z"/>
	<path clip-path="url(#SVGID_2_)" fill="#020202" d="M159.045,71.664c0-2.707,1.111-4.971,3.334-6.791
		c2.223-1.818,5.208-2.729,8.958-2.729c3.074,0,5.397,0.576,6.971,1.729c1.571,1.152,2.359,2.57,2.359,4.252
		c0,1.099-0.33,1.99-0.987,2.677c-0.658,0.686-1.491,1.028-2.497,1.028c-0.952,0-1.738-0.302-2.359-0.905
		c-0.623-0.604-0.934-1.345-0.934-2.223c0-0.566,0.229-1.253,0.687-2.058c0.219-0.384,0.329-0.659,0.329-0.823
		c0-0.385-0.247-0.727-0.741-1.03c-0.494-0.301-1.289-0.451-2.387-0.451c-1.793,0-3.252,0.472-4.377,1.412
		c-1.125,0.942-1.688,2.026-1.688,3.251c0,0.788,0.262,1.4,0.783,1.84c0.521,0.438,2.272,1.181,5.253,2.227
		c2.231,0.771,3.758,1.448,4.582,2.033c0.823,0.584,1.465,1.339,1.923,2.263c0.457,0.924,0.686,1.934,0.686,3.03
		c0,1.737-0.485,3.351-1.454,4.841c-0.97,1.491-2.387,2.67-4.253,3.538c-1.866,0.869-4.125,1.303-6.777,1.303
		c-3.659,0-6.398-0.641-8.219-1.921s-2.73-2.917-2.73-4.911c0-1.208,0.375-2.204,1.125-2.992c0.75-0.785,1.665-1.179,2.744-1.179
		c0.951,0,1.737,0.301,2.36,0.905c0.622,0.604,0.933,1.382,0.933,2.332c0,0.751-0.339,1.546-1.015,2.388
		c-0.312,0.384-0.467,0.687-0.467,0.905c0,0.513,0.33,0.96,0.987,1.345c0.859,0.512,2.049,0.769,3.567,0.769
		c1.957,0,3.516-0.472,4.679-1.413c1.161-0.942,1.742-2.072,1.742-3.39c0-0.768-0.256-1.407-0.769-1.92
		c-0.514-0.513-1.673-1.061-3.484-1.646c-3.861-1.243-6.302-2.382-7.326-3.416C159.558,74.898,159.045,73.476,159.045,71.664"/>
	<path clip-path="url(#SVGID_2_)" fill="#020202" d="M184.884,63.515l12.298-0.521l-5.516,20.438
		c-0.258,0.892-0.386,1.541-0.386,1.951c0,0.321,0.065,0.565,0.193,0.734c0.128,0.17,0.306,0.254,0.532,0.254
		c0.506,0,1.15-0.393,1.936-1.18c1.308-1.299,2.59-3.137,3.846-5.516l2.003,1.152c-3.342,6.165-7.011,9.247-11.012,9.247
		c-1.358,0-2.43-0.412-3.215-1.234c-0.786-0.824-1.179-1.949-1.179-3.375c0-0.987,0.118-1.921,0.355-2.799l3.792-14.214
		c0.092-0.253,0.139-0.515,0.139-0.787c0-0.506-0.211-0.909-0.632-1.207c-0.423-0.299-1.144-0.448-2.167-0.448h-1.758
		L184.884,63.515z"/>
	<path clip-path="url(#SVGID_2_)" fill="#020202" d="M191.953,48.644c1.247,0,2.312,0.44,3.192,1.321s1.321,1.945,1.321,3.193
		c0,1.247-0.44,2.311-1.321,3.193c-0.881,0.879-1.945,1.32-3.192,1.32c-1.248,0-2.312-0.441-3.193-1.32
		c-0.88-0.882-1.32-1.946-1.32-3.193c0-1.248,0.44-2.312,1.32-3.193C189.641,49.083,190.705,48.644,191.953,48.644"/>
	<polygon clip-path="url(#SVGID_2_)" fill="#020202" points="201.152,62.846 205.147,62.846 205.147,52.027 211.294,52.027 
		211.294,62.846 216.643,62.846 216.643,68.747 211.294,68.747 211.294,89.77 205.147,89.77 205.147,68.747 201.152,68.747 	"/>
	<rect x="219.898" y="62.846" clip-path="url(#SVGID_2_)" fill="#020202" width="6.146" height="26.924"/>
	<path clip-path="url(#SVGID_2_)" fill="#020202" d="M238.275,89.77h-6.147V46.003h6.147v19.485
		c1.905-1.967,4.427-2.951,7.562-2.951c3.749,0,7.007,1.354,9.711,4.059c2.706,2.704,4.058,5.961,4.058,9.711
		s-1.352,7.009-4.058,9.713c-2.704,2.704-5.962,4.057-9.711,4.057c-3.135,0-5.656-0.983-7.562-2.95V89.77z M253.581,76.431
		c0-2.151-0.737-3.996-2.212-5.471c-1.477-1.476-3.259-2.214-5.41-2.214c-2.09,0-3.872,0.738-5.348,2.151
		c-1.475,1.414-2.336,3.136-2.336,5.164v0.615c0,2.027,0.861,3.749,2.336,5.163c1.476,1.414,3.258,2.091,5.348,2.091
		c2.151,0,3.934-0.739,5.41-2.214c1.475-1.476,2.212-3.258,2.212-5.41V76.431z"/>
	<path clip-path="url(#SVGID_2_)" fill="#020202" d="M222.972,48.644c1.248,0,2.312,0.44,3.192,1.321s1.321,1.945,1.321,3.193
		c0,1.247-0.44,2.311-1.321,3.193c-0.881,0.879-1.944,1.32-3.192,1.32s-2.312-0.441-3.193-1.32c-0.88-0.882-1.32-1.946-1.32-3.193
		c0-1.248,0.44-2.312,1.32-3.193C220.659,49.083,221.724,48.644,222.972,48.644"/>
</g>
</svg>
