<?xml version="1.0" encoding="utf-8"?>
<!-- Generator: Adobe Illustrator 15.0.0, SVG Export Plug-In . SVG Version: 6.00 Build 0)  -->
<!DOCTYPE svg PUBLIC "-//W3C//DTD SVG 1.1//EN" "http://www.w3.org/Graphics/SVG/1.1/DTD/svg11.dtd">
<svg version="1.1" id="Layer_1" xmlns="http://www.w3.org/2000/svg" xmlns:xlink="http://www.w3.org/1999/xlink" x="0px" y="0px"
	 width="224.525px" height="80.938px" viewBox="0 0 224.525 80.938" enable-background="new 0 0 224.525 80.938"
	 xml:space="preserve">
<g>
	<path fill="#020202" d="M8.397,80.938H0V23.005h8.397v3.61c2.602-2.687,6.046-4.031,10.327-4.031c5.122,0,9.572,1.849,13.266,5.543
		c3.695,3.694,5.542,8.143,5.542,13.265c0,5.123-1.847,9.572-5.542,13.267c-3.694,3.694-8.144,5.541-13.266,5.541
		c-4.281,0-7.725-1.344-10.327-4.031V80.938z M29.303,41.561c0-2.939-1.007-5.458-3.021-7.473c-2.016-2.015-4.451-3.023-7.39-3.023
		c-2.854,0-5.289,1.008-7.305,2.939c-2.014,1.932-3.19,4.282-3.19,7.053v0.84c0,2.77,1.176,5.121,3.19,7.052
		c2.016,1.931,4.451,2.855,7.305,2.855c2.939,0,5.374-1.009,7.39-3.023c2.014-2.015,3.021-4.45,3.021-7.389V41.561z"/>
	<path fill="#020202" d="M41.725,41.392c0-5.122,1.847-9.571,5.541-13.265c3.694-3.694,8.145-5.543,13.267-5.543
		c5.12,0,9.571,1.849,13.265,5.543c3.694,3.694,5.542,8.143,5.542,13.265c0,5.123-1.848,9.572-5.542,13.267
		c-3.694,3.693-8.06,5.541-13.182,5.541c-5.122,0-9.571-1.848-13.266-5.541c-3.694-3.695-5.542-8.145-5.542-13.267H41.725z
		 M49.953,41.392c0,3.023,1.007,5.542,3.023,7.557c2.015,2.015,4.534,3.023,7.473,3.023c3.023,0,5.541-1.009,7.556-3.023
		s3.022-4.534,3.022-7.557c0-3.021-1.007-5.541-3.022-7.64c-2.015-2.099-4.533-3.107-7.556-3.107c-2.939,0-5.374,1.008-7.39,3.107
		c-2.014,2.099-3.022,4.619-3.022,7.64H49.953z"/>
	<path fill="#020202" d="M87.169,35.051c0-3.698,1.518-6.79,4.554-9.276c3.035-2.486,7.114-3.729,12.237-3.729
		c4.197,0,7.37,0.787,9.52,2.361c2.146,1.574,3.223,3.511,3.223,5.809c0,1.499-0.45,2.717-1.349,3.654
		c-0.9,0.937-2.038,1.406-3.411,1.406c-1.3,0-2.374-0.412-3.223-1.237c-0.851-0.824-1.275-1.837-1.275-3.036
		c0-0.774,0.312-1.711,0.937-2.811c0.3-0.525,0.45-0.899,0.45-1.124c0-0.525-0.337-0.994-1.012-1.406
		c-0.674-0.412-1.761-0.618-3.261-0.618c-2.449,0-4.441,0.644-5.977,1.93c-1.537,1.287-2.306,2.768-2.306,4.441
		c0,1.075,0.356,1.912,1.069,2.511c0.712,0.6,3.103,1.614,7.175,3.042c3.047,1.053,5.133,1.979,6.258,2.777
		c1.125,0.799,2.001,1.829,2.626,3.091c0.625,1.261,0.937,2.641,0.937,4.139c0,2.373-0.661,4.577-1.985,6.613
		c-1.325,2.034-3.261,3.646-5.809,4.832c-2.549,1.187-5.635,1.778-9.257,1.778c-4.998,0-8.74-0.875-11.225-2.623
		c-2.487-1.749-3.73-3.983-3.73-6.709c0-1.648,0.512-3.01,1.537-4.085c1.024-1.073,2.273-1.611,3.748-1.611
		c1.299,0,2.373,0.413,3.223,1.236c0.849,0.825,1.274,1.888,1.274,3.187c0,1.023-0.462,2.11-1.386,3.261
		c-0.426,0.524-0.638,0.936-0.638,1.237c0,0.699,0.45,1.311,1.349,1.836c1.174,0.7,2.799,1.049,4.873,1.049
		c2.673,0,4.803-0.643,6.39-1.93c1.586-1.286,2.38-2.829,2.38-4.629c0-1.05-0.35-1.924-1.049-2.623
		c-0.701-0.7-2.286-1.449-4.76-2.249c-5.273-1.698-8.609-3.254-10.007-4.667C87.868,39.468,87.169,37.525,87.169,35.051"/>
	<path fill="#020202" d="M122.461,23.92l16.798-0.712l-7.534,27.918c-0.351,1.217-0.525,2.105-0.525,2.665
		c0,0.438,0.088,0.772,0.263,1.003c0.175,0.231,0.417,0.346,0.728,0.346c0.69,0,1.572-0.535,2.644-1.611
		c1.786-1.773,3.538-4.284,5.253-7.533l2.736,1.574c-4.564,8.421-9.576,12.631-15.041,12.631c-1.856,0-3.32-0.562-4.392-1.688
		c-1.073-1.124-1.61-2.66-1.61-4.609c0-1.35,0.162-2.623,0.486-3.823l5.181-19.414c0.124-0.346,0.187-0.704,0.187-1.075
		c0-0.691-0.287-1.241-0.861-1.649c-0.576-0.408-1.562-0.611-2.961-0.611h-2.398L122.461,23.92z"/>
	<path fill="#020202" d="M132.118,3.606c1.704,0,3.157,0.602,4.36,1.805c1.202,1.203,1.805,2.656,1.805,4.361
		c0,1.704-0.603,3.157-1.805,4.361c-1.203,1.202-2.656,1.804-4.36,1.804s-3.158-0.602-4.362-1.804
		c-1.201-1.204-1.804-2.657-1.804-4.361c0-1.705,0.603-3.158,1.804-4.361C128.959,4.208,130.414,3.606,132.118,3.606"/>
	<polygon fill="#020202" points="144.682,23.005 150.14,23.005 150.14,8.228 158.537,8.228 158.537,23.005 165.84,23.005 
		165.84,31.066 158.537,31.066 158.537,59.78 150.14,59.78 150.14,31.066 144.682,31.066 	"/>
	<rect x="170.288" y="23.005" fill="#020202" width="8.396" height="36.775"/>
	<path fill="#020202" d="M195.39,59.78h-8.397V0h8.397v26.615c2.602-2.687,6.046-4.031,10.327-4.031
		c5.122,0,9.571,1.849,13.267,5.543c3.693,3.694,5.541,8.143,5.541,13.265c0,5.123-1.848,9.572-5.541,13.267
		c-3.695,3.694-8.145,5.541-13.267,5.541c-4.281,0-7.726-1.344-10.327-4.031V59.78z M216.295,41.561
		c0-2.939-1.007-5.458-3.021-7.473c-2.017-2.015-4.452-3.023-7.391-3.023c-2.854,0-5.288,1.008-7.305,2.939
		c-2.014,1.932-3.189,4.282-3.189,7.053v0.84c0,2.77,1.176,5.121,3.189,7.052c2.017,1.931,4.451,2.855,7.305,2.855
		c2.938,0,5.374-1.009,7.391-3.023c2.014-2.015,3.021-4.45,3.021-7.389V41.561z"/>
	<path fill="#020202" d="M174.486,3.606c1.704,0,3.157,0.602,4.36,1.805s1.805,2.656,1.805,4.361c0,1.704-0.602,3.157-1.805,4.361
		c-1.203,1.202-2.656,1.804-4.36,1.804s-3.156-0.602-4.36-1.804c-1.202-1.204-1.805-2.657-1.805-4.361
		c0-1.705,0.603-3.158,1.805-4.361C171.33,4.208,172.782,3.606,174.486,3.606"/>
</g>
</svg>
