<svg xmlns="http://www.w3.org/2000/svg" viewBox="0 0 194.73 75.8"><g id="Capa_2" data-name="Capa 2"><g id="Layer_1" data-name="Layer 1"><path d="M28,22.29A25.83,25.83,0,0,0,.1,45.91,27.32,27.32,0,0,0,27.82,75.8V71.14a23.05,23.05,0,0,1-17.21-7.31A22.78,22.78,0,0,1,4.74,46.3,21.19,21.19,0,0,1,27.59,26.93,18.41,18.41,0,0,1,44.38,46.79,15.91,15.91,0,0,1,27.21,61.34c-7.46-.62-15.38-5.8-15.38-14.2H7.17C7.17,58.32,17.3,65.2,26.82,66A20.57,20.57,0,0,0,49,47.17,23.05,23.05,0,0,0,28,22.29Z"/><path d="M26.8,56a12,12,0,1,0-12-12A12,12,0,0,0,26.8,56Zm0-19.39A7.37,7.37,0,1,1,19.43,44,7.37,7.37,0,0,1,26.8,36.6Z"/><path d="M26.8,18.28a9.15,9.15,0,0,0,9.14-9.14A9.15,9.15,0,0,0,26.8,0a9.14,9.14,0,1,0,0,18.28Zm0-13.62a4.48,4.48,0,1,1,0,9,4.49,4.49,0,0,1-4.49-4.48A4.49,4.49,0,0,1,26.8,4.66Z"/><path d="M86.79,39.85a9.73,9.73,0,0,0-9.65,9.65h0a9.59,9.59,0,1,0,9.6-9.65Zm3.84,13.53a5.25,5.25,0,0,1-3.88,1.55,5.3,5.3,0,0,1-5.38-5.43h0A5.45,5.45,0,0,1,83,45.58,5,5,0,0,1,86.75,44a5.17,5.17,0,0,1,3.88,1.59,5.45,5.45,0,0,1,1.55,3.92A5.26,5.26,0,0,1,90.63,53.38Z"/><polygon points="98.7 44.29 108.31 44.29 98.7 55.15 98.7 58.94 113.65 58.94 113.65 54.72 104.04 54.72 113.65 43.86 113.65 40.07 98.7 40.07 98.7 44.29"/><path d="M119.42,29.08a3.09,3.09,0,0,0-2.33,1,3.45,3.45,0,0,0-1,2.41,3.18,3.18,0,0,0,1,2.33,3.22,3.22,0,0,0,2.33,1,3.4,3.4,0,0,0,2.37-1,3.11,3.11,0,0,0,1-2.33l0,0a3.22,3.22,0,0,0-1-2.37A3.34,3.34,0,0,0,119.42,29.08Z"/><rect x="117.3" y="40.07" width="4.31" height="18.87"/><polygon points="135.22 40.07 135.17 40.07 135.17 32.49 130.86 32.49 130.86 40.07 125.16 40.07 125.16 44.2 130.86 44.2 130.86 58.94 135.17 58.94 135.17 44.2 135.22 44.2 139.79 44.2 140.92 44.2 140.92 40.07 139.79 40.07 135.22 40.07"/><path d="M150.31,56a2.29,2.29,0,0,1-1.38.84.46.46,0,0,1-.38-.18.9.9,0,0,1-.13-.53,5.86,5.86,0,0,1,.27-1.39l3.93-14.56-8.76.37-.55,1.78h1.25a2.73,2.73,0,0,1,1.55.32,1,1,0,0,1,.45.86,1.78,1.78,0,0,1-.1.56l-2.7,10.13a7.53,7.53,0,0,0-.26,2,3.35,3.35,0,0,0,.84,2.41,3.05,3.05,0,0,0,2.29.88q4.29,0,7.85-6.59l-1.43-.83A15.92,15.92,0,0,1,150.31,56Z"/><path d="M148.58,35.91a3.4,3.4,0,0,0,2.37-1,3.11,3.11,0,0,0,1-2.33l0,0a3.22,3.22,0,0,0-1-2.37,3.34,3.34,0,0,0-2.41-1,3.09,3.09,0,0,0-2.33,1,3.45,3.45,0,0,0-1,2.41,3.18,3.18,0,0,0,1,2.33A3.22,3.22,0,0,0,148.58,35.91Z"/><path d="M174.91,43.82A4.43,4.43,0,0,0,174.1,41a2.47,2.47,0,0,0-2-1,2.17,2.17,0,0,0-1.59.63,2,2,0,0,0-.65,1.44,2.1,2.1,0,0,0,.29,1.08,6.13,6.13,0,0,0,1.34,1.39,3.13,3.13,0,0,1,.82,1,2.77,2.77,0,0,1,.21,1.16,11.21,11.21,0,0,1-1.41,5.06,12,12,0,0,1-3.25,4.17,5.81,5.81,0,0,1-3.42,1.41,2.61,2.61,0,0,1-2-.84,3.19,3.19,0,0,1-.79-2.29,21,21,0,0,1,.88-5.17L165,40.19l-8.43.37L156,42.38h1a2.66,2.66,0,0,1,1.45.3,1,1,0,0,1,.44.84,2.08,2.08,0,0,1-.09.6l-1.59,5.94a13.67,13.67,0,0,0-.54,3.52,5.72,5.72,0,0,0,1.67,4.32,6.26,6.26,0,0,0,4.55,1.61,9.21,9.21,0,0,0,6.2-2.38,16.19,16.19,0,0,0,4.29-6.2A18.79,18.79,0,0,0,174.91,43.82Z"/><path d="M193.77,30.22a3.8,3.8,0,0,0-2.66-.89q-6.51,0-9.54,11.25h-3.46l-.66,2H181l-3.16,11.82A61.22,61.22,0,0,1,175.53,61a35.54,35.54,0,0,1-2.37,4.75,1.4,1.4,0,0,0-.23.59.28.28,0,0,0,.31.31,6.84,6.84,0,0,0,1-.23,43.93,43.93,0,0,1,4.79-1,34.4,34.4,0,0,0,3.09-7.94l3.91-14.88h3.72l.52-2h-3.66a49.28,49.28,0,0,1,1.76-8.22c.3-.71.64-1.07,1-1.07s.45.4.52,1.21a3.23,3.23,0,0,0,.71,2,2.09,2.09,0,0,0,1.56.57,2.37,2.37,0,0,0,1.79-.76,2.58,2.58,0,0,0,.73-1.86A2.9,2.9,0,0,0,193.77,30.22Z"/><path d="M64.91,39.82a7.06,7.06,0,0,0-5.3,2.07V40h-4.3V69.76h4.3V57.05a7.06,7.06,0,0,0,5.3,2.07,9.63,9.63,0,0,0,6.81-16.46A9.34,9.34,0,0,0,64.91,39.82Zm.09,15a5.21,5.21,0,0,1-3.75-1.46,4.94,4.94,0,0,1-1.64-3.62V49.3a4.91,4.91,0,0,1,1.64-3.62A5.25,5.25,0,0,1,65,44.17a5.14,5.14,0,0,1,3.79,1.55,5.23,5.23,0,0,1,1.55,3.79A5.29,5.29,0,0,1,65,54.81Z"/></g></g></svg>