<?xml version="1.0" encoding="UTF-8"?>
<svg width="18px" height="21px" viewBox="0 0 18 21" version="1.1" xmlns="http://www.w3.org/2000/svg" xmlns:xlink="http://www.w3.org/1999/xlink">
    <title>00 Global / Social Media / TT</title>
    <g id="Symbols" stroke="none" stroke-width="1" fill="none" fill-rule="evenodd">
        <g id="Footer-Copy-2" transform="translate(-388.000000, -177.000000)" fill="#000000">
            <path d="M405.304036,182.206116 C404.090954,182.169539 402.991949,181.588504 402.163141,180.811688 C401.710197,180.380187 401.351289,179.859554 401.109121,179.282723 C400.867094,178.705892 400.74671,178.085337 400.75596,177.459736 L397.378642,177.459736 L397.378642,190.467715 C397.378642,192.592571 396.105158,193.845033 394.540316,193.845033 C394.125351,193.849517 393.71459,193.763189 393.336623,193.591653 C392.958797,193.420398 392.623013,193.16828 392.353096,192.853237 C392.08304,192.538055 391.885438,192.167515 391.774023,191.767966 C391.662609,191.368137 391.640186,190.948968 391.708156,190.539609 C391.776266,190.130249 391.933226,189.740791 392.168107,189.3987 C392.402847,189.05661 392.709762,188.770017 393.067268,188.559241 C393.424633,188.348465 393.823902,188.218692 394.236905,188.178891 C394.650048,188.139091 395.066695,188.190243 395.457835,188.328845 L395.457835,184.893928 C395.156667,184.82764 394.848772,184.795127 394.540316,184.796809 C393.311538,184.796528 392.110228,185.160621 391.088301,185.84312 C390.066515,186.525619 389.26994,187.495832 388.799478,188.631135 C388.329156,189.766157 388.20583,191.015396 388.445475,192.22077 C388.684981,193.426004 389.276666,194.533137 390.145416,195.402027 C391.014165,196.271057 392.121299,196.862883 393.326393,197.102808 C394.531627,197.342734 395.780866,197.219688 396.916168,196.749507 C398.051471,196.279325 399.021824,195.48303 399.704603,194.461244 C400.387382,193.439598 400.751756,192.238428 400.751756,191.00951 L400.751756,184.008782 C402.060275,184.913548 403.623856,185.341406 405.292685,185.370977 L405.304036,182.206116 Z" id="00-Global-/-Social-Media-/-TT"></path>
        </g>
    </g>
</svg>